<svg width="15" height="15" viewBox="0 0 15 15" fill="none" xmlns="http://www.w3.org/2000/svg">
<path d="M8.19858 5.14974C8.19858 4.8736 7.97472 4.64974 7.69858 4.64974C7.42243 4.64974 7.19858 4.8736 7.19858 5.14974V7.69874C7.19858 7.83135 7.25125 7.95853 7.34502 8.0523L9.04435 9.75163C9.23962 9.94689 9.5562 9.94689 9.75146 9.75163C9.94672 9.55637 9.94672 9.23978 9.75146 9.04452L8.19858 7.49164V5.14974Z" fill="black"/>
<path fill-rule="evenodd" clip-rule="evenodd" d="M7.69861 1.99999C4.55136 1.99999 2 4.55134 2 7.69859C2 10.8458 4.55136 13.3972 7.69861 13.3972C10.8458 13.3972 13.3972 10.8458 13.3972 7.69859C13.3972 4.55134 10.8458 1.99999 7.69861 1.99999ZM2.95 7.69859C2.95 5.07601 5.07603 2.94999 7.69861 2.94999C10.3212 2.94999 12.4472 5.07601 12.4472 7.69859C12.4472 10.3211 10.3212 12.4472 7.69861 12.4472C5.07603 12.4472 2.95 10.3211 2.95 7.69859Z" fill="black"/>
<path fill-rule="evenodd" clip-rule="evenodd" d="M1.61699 3.24971C1.43949 3.03817 1.46708 2.72279 1.67862 2.54529L3.97675 0.616928C4.18829 0.439428 4.50367 0.467019 4.68117 0.678557C4.85867 0.890094 4.83108 1.20547 4.61954 1.38297L3.85349 2.02576L4.65698 2.98332C4.83448 3.19485 4.80689 3.51023 4.59535 3.68773C4.38381 3.86523 4.06844 3.83764 3.89093 3.6261L3.08745 2.66855L2.32141 3.31134C2.10987 3.48884 1.79449 3.46124 1.61699 3.24971Z" fill="black"/>
<path fill-rule="evenodd" clip-rule="evenodd" d="M14.1731 3.24971C14.3506 3.03817 14.323 2.72279 14.1114 2.54529L11.8133 0.616928C11.6018 0.439428 11.2864 0.467019 11.1089 0.678557C10.9314 0.890094 10.959 1.20547 11.1705 1.38297L11.9365 2.02576L11.1331 2.98332C10.9556 3.19485 10.9832 3.51023 11.1947 3.68773C11.4062 3.86523 11.7216 3.83764 11.8991 3.6261L12.7026 2.66855L13.4686 3.31134C13.6802 3.48884 13.9956 3.46124 14.1731 3.24971Z" fill="black"/>
</svg>
