<svg width="15" height="15" viewBox="0 0 15 15" fill="none" xmlns="http://www.w3.org/2000/svg">
<path d="M12.5 4.00006C13.3284 4.00006 14 4.67163 14 5.50006V12.5001C14 13.3285 13.3284 14.0001 12.5 14.0001H5.5C4.67159 14.0001 4.00003 13.3285 4 12.5001V5.50006C4 4.67163 4.67157 4.00006 5.5 4.00006H12.5ZM5.5 5.00006C5.22386 5.00006 5 5.22392 5 5.50006V12.5001C5.00003 12.7762 5.22388 13.0001 5.5 13.0001H12.5C12.7761 13.0001 13 12.7762 13 12.5001V5.50006C13 5.22392 12.7761 5.00006 12.5 5.00006H5.5ZM10.5 1.00006C10.7761 1.00006 11 1.22392 11 1.50006C11 1.7762 10.7761 2.00006 10.5 2.00006H2.5C2.22386 2.00006 2 2.22392 2 2.50006V10.5001C2 10.7762 1.77614 11.0001 1.5 11.0001C1.22386 11.0001 1 10.7762 1 10.5001V2.50006C1 1.67163 1.67157 1.00006 2.5 1.00006H10.5Z" fill="black"/>
</svg>
