<svg width="15" height="15" viewBox="0 0 15 15" fill="none" xmlns="http://www.w3.org/2000/svg">
<path d="M13.5 4.00006C13.7761 4.00006 14 4.22392 14 4.50006V12.5001C14 13.3285 13.3284 14.0001 12.5 14.0001H4.5C4.22388 14.0001 4.00003 13.7762 4 13.5001C4 13.2239 4.22386 13.0001 4.5 13.0001H12.5C12.7761 13.0001 13 12.7762 13 12.5001V4.50006C13 4.22392 13.2239 4.00006 13.5 4.00006ZM9.5 1.00006C10.3284 1.00006 11 1.67163 11 2.50006V9.50006C11 10.3285 10.3284 11.0001 9.5 11.0001H2.5C1.67157 11.0001 1 10.3285 1 9.50006V2.50006C1 1.67163 1.67157 1.00006 2.5 1.00006H9.5ZM2.5 2.00006C2.22386 2.00006 2 2.22392 2 2.50006V9.50006C2 9.7762 2.22386 10.0001 2.5 10.0001H9.5C9.77614 10.0001 10 9.7762 10 9.50006V2.50006C10 2.22392 9.77614 2.00006 9.5 2.00006H2.5Z" fill="black"/>
</svg>
