<svg width="15" height="15" viewBox="0 0 15 15" fill="none" xmlns="http://www.w3.org/2000/svg">
<path d="M14 5.99991C14 6.55219 13.5523 6.99991 13 6.99991L8 6.99991L8 8.99991L9 8.99991C9.55224 8.99991 9.99993 9.44768 10 9.99991L10 10.9999C10 11.5522 9.55228 11.9999 9 11.9999L8 11.9999L8 13.4999C8 13.7761 7.77614 13.9999 7.5 13.9999C7.22386 13.9999 7 13.7761 7 13.4999L7 11.9999L6 11.9999C5.44771 11.9999 5 11.5522 5 10.9999L5 9.99991C5.00006 9.48228 5.39336 9.05611 5.89746 9.00479L6 8.99991L7 8.99991L7 6.99991L2 6.99991C1.44772 6.99991 1 6.55219 1 5.99991L1 4.99991C1.00007 4.44768 1.44776 3.99991 2 3.99991L7 3.99991L7 1.49991C7 1.22377 7.22386 0.999908 7.5 0.999908C7.77614 0.999908 8 1.22377 8 1.49991L8 3.99991L13 3.99991C13.5522 3.99991 13.9999 4.44768 14 4.99991L14 5.99991Z" fill="black"/>
</svg>
