<svg width="15" height="15" viewBox="0 0 15 15" fill="none" xmlns="http://www.w3.org/2000/svg">
<path d="M5.99988 1C6.55216 1 6.99988 1.44772 6.99988 2V13C6.99988 13.5523 6.55216 14 5.99988 14H4.99988C4.44765 13.9999 3.99988 13.5522 3.99988 13V2C3.99988 1.44776 4.44765 1.00007 4.99988 1H5.99988ZM10.9999 5C11.5522 5 11.9999 5.44772 11.9999 6V9C11.9999 9.55228 11.5522 10 10.9999 10H9.99988C9.44765 9.99993 8.99988 9.55224 8.99988 9V6C8.99988 5.44776 9.44765 5.00007 9.99988 5H10.9999Z" fill="black"/>
<path d="M1.5 7.5L13.5 7.5" stroke="black" stroke-linecap="round" stroke-linejoin="round"/>
</svg>
