<svg width="15" height="15" viewBox="0 0 15 15" fill="none" xmlns="http://www.w3.org/2000/svg">
<path d="M8.1931 2.30926C8.35403 2.08488 8.66695 2.03314 8.89135 2.19403C9.11559 2.35499 9.16646 2.66695 9.0056 2.8913L2.47338 12.0007H13.4997L13.6003 12.0104C13.8283 12.057 13.9997 12.259 13.9997 12.5007C13.9994 12.742 13.828 12.9434 13.6003 12.9899L13.4997 13.0007H1.49974C1.31242 13.0006 1.14101 12.8948 1.05541 12.7282C0.969934 12.5616 0.984477 12.3609 1.09349 12.2087L8.1931 2.30926ZM13.4001 9.99969C13.6761 9.99975 13.9 10.2237 13.9001 10.4997C13.9001 10.7758 13.6762 10.9996 13.4001 10.9997C13.124 10.9997 12.9001 10.7758 12.9001 10.4997C12.9003 10.2237 13.1241 9.99969 13.4001 9.99969ZM12.6003 7.99969C12.8762 7.99988 13.1002 8.22381 13.1003 8.49969C13.1003 8.77572 12.8763 8.99951 12.6003 8.99969C12.3242 8.99969 12.1003 8.77584 12.1003 8.49969C12.1005 8.22369 12.3243 7.99969 12.6003 7.99969ZM11.6003 5.99969C11.8762 5.99988 12.1002 6.22381 12.1003 6.49969C12.1003 6.77572 11.8763 6.99951 11.6003 6.99969C11.3242 6.99969 11.1003 6.77584 11.1003 6.49969C11.1005 6.22369 11.3243 5.99969 11.6003 5.99969ZM10.4001 3.99969C10.6761 3.99975 10.9 4.22372 10.9001 4.49969C10.9001 4.7758 10.6762 4.99964 10.4001 4.99969C10.124 4.99969 9.90013 4.77584 9.90013 4.49969C9.9003 4.22369 10.1241 3.99969 10.4001 3.99969Z" fill="black"/>
</svg>
