<svg width="15" height="15" viewBox="0 0 15 15" fill="none" xmlns="http://www.w3.org/2000/svg">
  <path fill-rule="evenodd" clip-rule="evenodd"
    d="M13.6165 6.3134C13.6424 6.37385 13.6568 6.44045 13.6568 6.51041C13.6568 6.57884 13.6431 6.64406 13.6182 6.70346C13.5942 6.76094 13.5589 6.81484 13.5125 6.86183C13.5118 6.86254 13.5111 6.86325 13.5104 6.86396L13.5101 6.86423L9.97483 10.3995C9.77957 10.5948 9.46299 10.5948 9.26773 10.3995C9.07246 10.2042 9.07246 9.88765 9.26773 9.69239L11.9497 7.01041L2.34311 7.01041L2.34311 12.0104C2.34311 12.2865 2.11925 12.5104 1.84311 12.5104C1.56697 12.5104 1.34311 12.2865 1.34311 12.0104L1.34311 6.51041L1.34311 6.01041L1.84311 6.01041L11.9497 6.01041L9.26772 3.32843C9.07246 3.13317 9.07246 2.81658 9.26772 2.62132C9.46299 2.42606 9.77957 2.42606 9.97483 2.62132L13.5089 6.15543C13.5136 6.16005 13.5182 6.16477 13.5226 6.16957C13.5631 6.2129 13.5944 6.26166 13.6165 6.3134Z"
    fill="currentColor" />
</svg>