<svg width="15" height="15" viewBox="0 0 15 15" fill="none" xmlns="http://www.w3.org/2000/svg">
<path d="M4.93179 5.06819C4.75605 4.89245 4.75605 4.60753 4.93179 4.43179L7.18179 2.18179C7.26618 2.0974 7.38064 2.04999 7.49999 2.04999C7.61934 2.04999 7.73379 2.0974 7.81819 2.18179L10.0682 4.43179C10.2439 4.60753 10.2439 4.89245 10.0682 5.06819C9.89245 5.24392 9.60753 5.24392 9.43179 5.06819L7.49999 3.13638L5.56819 5.06819C5.39245 5.24392 5.10753 5.24392 4.93179 5.06819Z" fill="black"/>
<path d="M10.0682 9.93177C10.2439 10.1075 10.2439 10.3924 10.0682 10.5682L7.81821 12.8182C7.64248 12.9939 7.35755 12.9939 7.18181 12.8182L4.93181 10.5682C4.75608 10.3924 4.75608 10.1075 4.93181 9.93177C5.10755 9.75603 5.39248 9.75603 5.56821 9.93177L7.50001 11.8636L9.43181 9.93177C9.60755 9.75603 9.89247 9.75603 10.0682 9.93177Z" fill="black"/>
<path d="M8.5 7.49998C8.5 8.05226 8.05229 8.49998 7.5 8.49998C6.94772 8.49998 6.5 8.05226 6.5 7.49998C6.5 6.94769 6.94772 6.49998 7.5 6.49998C8.05229 6.49998 8.5 6.94769 8.5 7.49998Z" fill="black"/>
</svg>
