<svg width="15" height="15" viewBox="0 0 15 15" fill="none" xmlns="http://www.w3.org/2000/svg">
<path d="M6.14645 3.14645C6.34171 2.95118 6.65822 2.95118 6.85348 3.14645C7.04874 3.34171 7.04874 3.65822 6.85348 3.85348L3.70699 6.99996H12.5C12.7761 6.99996 13 7.22382 13 7.49996C13 7.7761 12.7761 7.99996 12.5 7.99996H3.70699L6.85348 11.1464L6.91793 11.2246C7.0461 11.4187 7.02434 11.6826 6.85348 11.8535C6.68261 12.0243 6.41865 12.0461 6.22457 11.9179L6.14645 11.8535L2.14645 7.85348C1.95118 7.65822 1.95118 7.34171 2.14645 7.14645L6.14645 3.14645Z" fill="black"/>
</svg>
