<svg width="15" height="15" viewBox="0 0 15 15" fill="none" xmlns="http://www.w3.org/2000/svg">
<path d="M7.49996 2C7.7761 2 7.99996 2.22386 7.99996 2.5V11.293L11.1464 8.14648C11.3417 7.95122 11.6582 7.95122 11.8535 8.14648C12.0487 8.34175 12.0487 8.65825 11.8535 8.85352L7.85348 12.8535C7.75971 12.9473 7.63257 13 7.49996 13C7.36735 13 7.24021 12.9473 7.14645 12.8535L3.14645 8.85352C2.95118 8.65825 2.95118 8.34175 3.14645 8.14648C3.31731 7.97562 3.58127 7.95387 3.77535 8.08203L3.85348 8.14648L6.99996 11.293V2.5C6.99996 2.22386 7.22382 2 7.49996 2Z" fill="black"/>
</svg>
