<svg width="15" height="15" viewBox="0 0 15 15" fill="none" xmlns="http://www.w3.org/2000/svg">
<path fill-rule="evenodd" clip-rule="evenodd" d="M0.486978 9.6866C0.461036 9.62615 0.44667 9.55955 0.44667 9.48959C0.44667 9.42116 0.460418 9.35594 0.485303 9.29654C0.509329 9.23906 0.544562 9.18516 0.591002 9.13817C0.591705 9.13746 0.592411 9.13675 0.593119 9.13604L0.593382 9.13577L4.12865 5.6005C4.32391 5.40524 4.6405 5.40524 4.83576 5.6005C5.03102 5.79577 5.03102 6.11235 4.83576 6.30761L2.15378 8.98959L11.7604 8.98959L11.7604 3.9896C11.7604 3.71346 11.9842 3.4896 12.2604 3.4896C12.5365 3.4896 12.7604 3.71346 12.7604 3.9896L12.7604 9.48959L12.7604 9.98959L12.2604 9.98959L2.15378 9.98959L4.83576 12.6716C5.03102 12.8668 5.03102 13.1834 4.83576 13.3787C4.6405 13.5739 4.32392 13.5739 4.12865 13.3787L0.594547 9.84457C0.589886 9.83995 0.585316 9.83523 0.580839 9.83043C0.540418 9.7871 0.509132 9.73834 0.486978 9.6866Z" fill="black"/>
</svg>
