<svg width="15" height="15" viewBox="0 0 15 15" fill="none" xmlns="http://www.w3.org/2000/svg">
<path d="M11.1465 6.14648C11.3417 5.95122 11.6583 5.95122 11.8535 6.14648C12.0488 6.34175 12.0488 6.65825 11.8535 6.85352L7.85352 10.8535C7.65825 11.0488 7.34175 11.0488 7.14648 10.8535L3.14648 6.85352C2.95122 6.65825 2.95122 6.34175 3.14648 6.14648C3.34175 5.95122 3.65825 5.95122 3.85352 6.14648L7.5 9.79297L11.1465 6.14648ZM11.5 3C11.7761 3 12 3.22386 12 3.5C12 3.77614 11.7761 4 11.5 4H3.5C3.22386 4 3 3.77614 3 3.5C3 3.22386 3.22386 3 3.5 3H11.5Z" fill="black"/>
</svg>
