<svg width="15" height="15" viewBox="0 0 15 15" fill="none" xmlns="http://www.w3.org/2000/svg">
  <path fill-rule="evenodd" clip-rule="evenodd"
    d="M3.5 3C3.22386 3 3 3.22386 3 3.5C3 3.77614 3.22386 4 3.5 4L11.5 4C11.7761 4 12 3.77614 12 3.5C12 3.22386 11.7761 3 11.5 3H3.5ZM7.5 9.79289L3.85355 6.14645C3.65829 5.95118 3.34171 5.95118 3.14645 6.14645C2.95118 6.34171 2.95118 6.65829 3.14645 6.85355L7.14645 10.8536C7.34171 11.0488 7.65829 11.0488 7.85355 10.8536L11.8536 6.85356C12.0488 6.65829 12.0488 6.34171 11.8536 6.14645C11.6583 5.95119 11.3417 5.95119 11.1464 6.14645L7.5 9.79289Z"
    fill="currentColor" />
</svg>