<svg width="15" height="15" viewBox="0 0 15 15" fill="none" xmlns="http://www.w3.org/2000/svg">
<path fill-rule="evenodd" clip-rule="evenodd" d="M1.24741 6.3134C1.22147 6.37385 1.20711 6.44045 1.20711 6.51041C1.20711 6.57884 1.22086 6.64406 1.24574 6.70346C1.26977 6.76094 1.305 6.81484 1.35144 6.86183C1.35214 6.86254 1.35285 6.86325 1.35356 6.86396L1.35382 6.86423L4.88909 10.3995C5.08435 10.5948 5.40093 10.5948 5.5962 10.3995C5.79146 10.2042 5.79146 9.88765 5.5962 9.69239L2.91421 7.01041L12.5208 7.01041L12.5208 12.0104C12.5208 12.2865 12.7447 12.5104 13.0208 12.5104C13.297 12.5104 13.5208 12.2865 13.5208 12.0104L13.5208 6.51041L13.5208 6.01041L13.0208 6.01041L2.91422 6.01041L5.5962 3.32843C5.79146 3.13317 5.79146 2.81658 5.5962 2.62132C5.40094 2.42606 5.08435 2.42606 4.88909 2.62132L1.35498 6.15543C1.35032 6.16005 1.34575 6.16477 1.34128 6.16957C1.30086 6.2129 1.26957 6.26166 1.24741 6.3134Z" fill="black"/>
</svg>
