<svg width="15" height="15" viewBox="0 0 15 15" fill="none" xmlns="http://www.w3.org/2000/svg">
  <path fill-rule="evenodd" clip-rule="evenodd"
    d="M11.1464 8.85355C11.3417 9.04882 11.6583 9.04882 11.8536 8.85355C12.0488 8.65829 12.0488 8.34171 11.8536 8.14645L7.85355 4.14645C7.65829 3.95118 7.34171 3.95118 7.14645 4.14645L3.14645 8.14645C2.95118 8.34171 2.95118 8.65829 3.14645 8.85355C3.34171 9.04881 3.65829 9.04881 3.85355 8.85355L7.5 5.20711L11.1464 8.85355ZM3.5 12L11.5 12C11.7761 12 12 11.7761 12 11.5C12 11.2239 11.7761 11 11.5 11L3.5 11C3.22386 11 3 11.2239 3 11.5C3 11.7761 3.22386 12 3.5 12Z"
    fill="currentColor" />
</svg>