<svg width="15" height="15" viewBox="0 0 15 15" fill="none" xmlns="http://www.w3.org/2000/svg">
  <path fill-rule="evenodd" clip-rule="evenodd"
    d="M12 11.5V3.5C12 3.22386 11.7761 3 11.5 3C11.2239 3 11 3.22386 11 3.5L11 11.5C11 11.7761 11.2239 12 11.5 12C11.7761 12 12 11.7761 12 11.5ZM8.85355 3.85355C9.04882 3.65829 9.04882 3.34171 8.85355 3.14645C8.65829 2.95118 8.34171 2.95118 8.14645 3.14645L4.14645 7.14645C3.95118 7.34171 3.95118 7.65829 4.14645 7.85355L8.14645 11.8536C8.34171 12.0488 8.65829 12.0488 8.85355 11.8536C9.04881 11.6583 9.04881 11.3417 8.85355 11.1464L5.20711 7.5L8.85355 3.85355Z"
    fill="currentColor" />
</svg>