<svg width="15" height="15" viewBox="0 0 15 15" fill="none" xmlns="http://www.w3.org/2000/svg">
<path d="M3.96448 7.59645C3.71595 7.59645 3.51448 7.39497 3.51448 7.14645V3.96447C3.51448 3.84512 3.56189 3.73066 3.64628 3.64627C3.73067 3.56188 3.84513 3.51447 3.96448 3.51447H7.14646C7.39499 3.51447 7.59646 3.71594 7.59646 3.96447C7.59646 4.21299 7.39499 4.41447 7.14646 4.41447L4.41448 4.41447L4.41448 7.14645C4.41448 7.39497 4.21301 7.59645 3.96448 7.59645Z" fill="black"/>
<path d="M11.0356 7.4035C11.2841 7.4035 11.4856 7.60498 11.4856 7.8535V11.0355C11.4856 11.284 11.2841 11.4855 11.0356 11.4855H7.85358C7.60505 11.4855 7.40358 11.284 7.40358 11.0355C7.40358 10.787 7.60505 10.5855 7.85358 10.5855H10.5856V7.8535C10.5856 7.60498 10.787 7.4035 11.0356 7.4035Z" fill="black"/>
<path d="M8.20714 6.79284C8.59766 7.18336 8.59766 7.81653 8.20714 8.20705C7.81662 8.59758 7.18345 8.59758 6.79293 8.20705C6.4024 7.81653 6.4024 7.18336 6.79293 6.79284C7.18345 6.40231 7.81662 6.40231 8.20714 6.79284Z" fill="black"/>
</svg>
