<svg width="15" height="15" viewBox="0 0 15 15" fill="none" xmlns="http://www.w3.org/2000/svg">
  <path fill-rule="evenodd" clip-rule="evenodd"
    d="M9.79289 7.5L6.14645 11.1464C5.95118 11.3417 5.95118 11.6583 6.14645 11.8536C6.34171 12.0488 6.65829 12.0488 6.85355 11.8536L10.8536 7.85355C11.0488 7.65829 11.0488 7.34171 10.8536 7.14645L6.85356 3.14645C6.65829 2.95118 6.34171 2.95118 6.14645 3.14645C5.95119 3.34171 5.95119 3.65829 6.14645 3.85355L9.79289 7.5ZM3 11.5C3 11.7761 3.22386 12 3.5 12C3.77614 12 4 11.7761 4 11.5L4 3.5C4 3.22386 3.77614 3 3.5 3C3.22386 3 3 3.22386 3 3.5V11.5Z"
    fill="currentColor" />
</svg>