<svg width="15" height="15" viewBox="0 0 15 15" fill="none" xmlns="http://www.w3.org/2000/svg">
<path fill-rule="evenodd" clip-rule="evenodd" d="M13.6165 6.31337C13.6424 6.37382 13.6568 6.44042 13.6568 6.51038C13.6568 6.57881 13.6431 6.64403 13.6182 6.70343C13.5942 6.76091 13.5589 6.81481 13.5125 6.8618C13.5118 6.86251 13.5111 6.86322 13.5104 6.86393L13.5101 6.8642L9.97483 10.3995C9.77957 10.5947 9.46299 10.5947 9.26773 10.3995C9.07246 10.2042 9.07246 9.88762 9.26773 9.69236L11.9497 7.01038L2.34311 7.01038L2.34311 12.0104C2.34311 12.2865 2.11925 12.5104 1.84311 12.5104C1.56697 12.5104 1.34311 12.2865 1.34311 12.0104L1.34311 6.51038L1.34311 6.01038L1.84311 6.01038L11.9497 6.01038L9.26772 3.3284C9.07246 3.13314 9.07246 2.81655 9.26772 2.62129C9.46299 2.42603 9.77957 2.42603 9.97483 2.62129L13.5089 6.1554C13.5136 6.16002 13.5182 6.16474 13.5226 6.16954C13.5631 6.21287 13.5944 6.26163 13.6165 6.31337Z" fill="black"/>
</svg>
