<svg width="15" height="15" viewBox="0 0 15 15" fill="none" xmlns="http://www.w3.org/2000/svg">
<path d="M9.9318 4.93179C10.1075 4.75605 10.3925 4.75605 10.5682 4.93179L12.8182 7.18179C12.9939 7.35753 12.9939 7.64245 12.8182 7.81819L10.5682 10.0682C10.3925 10.2439 10.1075 10.2439 9.9318 10.0682C9.75606 9.89245 9.75606 9.60752 9.9318 9.43179L11.8636 7.49999L9.9318 5.56819C9.75606 5.39245 9.75606 5.10753 9.9318 4.93179Z" fill="black"/>
<path d="M5.06822 10.0682C4.89248 10.2439 4.60756 10.2439 4.43182 10.0682L2.18182 7.81821C2.09743 7.73382 2.05002 7.61936 2.05002 7.50001C2.05002 7.38067 2.09743 7.26621 2.18182 7.18181L4.43182 4.93181C4.60756 4.75608 4.89248 4.75608 5.06822 4.93181C5.24395 5.10755 5.24395 5.39247 5.06822 5.56821L3.13641 7.50001L5.06822 9.43181C5.24395 9.60755 5.24395 9.89247 5.06822 10.0682Z" fill="black"/>
<path d="M8.50001 7.5C8.50001 8.05229 8.05229 8.5 7.50001 8.5C6.94772 8.5 6.50001 8.05229 6.50001 7.5C6.50001 6.94772 6.94772 6.5 7.50001 6.5C8.05229 6.5 8.50001 6.94772 8.50001 7.5Z" fill="black"/>
</svg>
