<svg width="15" height="15" viewBox="0 0 15 15" fill="none" xmlns="http://www.w3.org/2000/svg">
<path d="M7.85359 3.51447C7.60506 3.51447 7.40359 3.71594 7.40359 3.96447C7.40359 4.21299 7.60506 4.41447 7.85359 4.41447L10.5856 4.41447L10.5856 7.14645C10.5856 7.39497 10.787 7.59645 11.0356 7.59645C11.2841 7.59645 11.4856 7.39497 11.4856 7.14645V3.96447C11.4856 3.84512 11.4382 3.73066 11.3538 3.64627C11.2694 3.56188 11.1549 3.51447 11.0356 3.51447H7.85359Z" fill="black"/>
<path d="M6.79289 8.20706C7.18341 8.59759 7.81658 8.59759 8.2071 8.20706C8.59763 7.81654 8.59763 7.18337 8.2071 6.79285C7.81658 6.40233 7.18341 6.40233 6.79289 6.79285C6.40237 7.18337 6.40237 7.81654 6.79289 8.20706Z" fill="black"/>
<path d="M7.59644 11.0355C7.59644 11.284 7.39497 11.4855 7.14644 11.4855H3.96446C3.71593 11.4855 3.51446 11.284 3.51446 11.0355V7.85353C3.51446 7.605 3.71593 7.40353 3.96446 7.40353C4.21299 7.40353 4.41446 7.605 4.41446 7.85353L4.41446 10.5855H7.14644C7.39497 10.5855 7.59644 10.787 7.59644 11.0355Z" fill="black"/>
</svg>
