<svg width="15" height="15" viewBox="0 0 15 15" fill="none" xmlns="http://www.w3.org/2000/svg">
<path d="M3.5 3C3.77614 3 4 3.22386 4 3.5V11.5C4 11.7761 3.77614 12 3.5 12C3.22386 12 3 11.7761 3 11.5V3.5C3 3.22386 3.22386 3 3.5 3ZM6.14648 3.14648C6.34175 2.95122 6.65825 2.95122 6.85352 3.14648L10.8535 7.14648C11.0488 7.34175 11.0488 7.65825 10.8535 7.85352L6.85352 11.8535C6.65825 12.0488 6.34175 12.0488 6.14648 11.8535C5.95122 11.6583 5.95122 11.3417 6.14648 11.1465L9.79297 7.5L6.14648 3.85352C5.95122 3.65825 5.95122 3.34175 6.14648 3.14648Z" fill="black"/>
</svg>
