<svg width="15" height="15" viewBox="0 0 15 15" fill="none" xmlns="http://www.w3.org/2000/svg">
<path d="M11.5 11C11.7761 11 12 11.2238 12 11.5C12 11.7761 11.7761 12 11.5 12H3.5C3.22386 12 3 11.7761 3 11.5C3 11.2238 3.22386 11 3.5 11H11.5ZM7.14648 4.14645C7.34175 3.95118 7.65825 3.95118 7.85352 4.14645L11.8535 8.14645C12.0488 8.34171 12.0488 8.65822 11.8535 8.85348C11.6583 9.04874 11.3417 9.04874 11.1465 8.85348L7.5 5.20699L3.85352 8.85348C3.65825 9.04874 3.34175 9.04874 3.14648 8.85348C2.95122 8.65822 2.95122 8.34171 3.14648 8.14645L7.14648 4.14645Z" fill="black"/>
</svg>
