<svg width="15" height="15" viewBox="0 0 15 15" fill="none" xmlns="http://www.w3.org/2000/svg">
<path d="M8.14645 3.14648C8.34171 2.95122 8.65822 2.95122 8.85348 3.14648C9.04874 3.34175 9.04874 3.65825 8.85348 3.85352L5.20699 7.5L8.85348 11.1465C9.04874 11.3417 9.04874 11.6583 8.85348 11.8535C8.65822 12.0488 8.34171 12.0488 8.14645 11.8535L4.14645 7.85352C3.95118 7.65825 3.95118 7.34175 4.14645 7.14648L8.14645 3.14648ZM11.5 3C11.7761 3 12 3.22386 12 3.5V11.5C12 11.7761 11.7761 12 11.5 12C11.2238 12 11 11.7761 11 11.5V3.5C11 3.22386 11.2238 3 11.5 3Z" fill="black"/>
</svg>
