<svg width="15" height="15" viewBox="0 0 15 15" fill="none" xmlns="http://www.w3.org/2000/svg">
<path fill-rule="evenodd" clip-rule="evenodd" d="M5.49994 1.61364C3.35356 1.61364 1.61358 3.35362 1.61358 5.5C1.61358 7.64638 3.35356 9.38636 5.49994 9.38636C7.64632 9.38636 9.3863 7.64638 9.3863 5.5C9.3863 3.35362 7.64632 1.61364 5.49994 1.61364ZM0.999939 5.5C0.999939 3.01472 3.01466 1 5.49994 1C7.98522 1 9.99994 3.01472 9.99994 5.5C9.99994 7.98528 7.98522 10 5.49994 10C3.01466 10 0.999939 7.98528 0.999939 5.5Z" fill="black"/>
<path fill-rule="evenodd" clip-rule="evenodd" d="M9.59083 5.77269H1.40901V5.22724H9.59083V5.77269Z" fill="black"/>
<path fill-rule="evenodd" clip-rule="evenodd" d="M5.22718 9.59089V1.40907H5.77263V9.59089H5.22718Z" fill="black"/>
<path fill-rule="evenodd" clip-rule="evenodd" d="M7.46016 5.49997C7.46016 4.01855 6.92745 2.55302 5.88303 1.584L6.20765 1.23413C7.36784 2.31056 7.93743 3.91321 7.93743 5.49997C7.93743 7.08674 7.36784 8.68938 6.20765 9.76582L5.88303 9.41594C6.92745 8.44693 7.46016 6.98139 7.46016 5.49997Z" fill="black"/>
<path fill-rule="evenodd" clip-rule="evenodd" d="M3.11339 5.49999C3.11339 3.91551 3.66441 2.3137 4.78929 1.23671L5.11935 1.58145C4.10783 2.54991 3.59066 4.01628 3.59067 5.49998C3.59067 6.98369 4.10784 8.45006 5.11937 9.41852L4.7893 9.76326C3.66443 8.68627 3.1134 7.08446 3.11339 5.49999Z" fill="black"/>
<path fill-rule="evenodd" clip-rule="evenodd" d="M5.49993 3.08499C6.97902 3.08499 8.48309 3.3585 9.50268 3.92804C9.61774 3.99231 9.65891 4.13769 9.59464 4.25275C9.53036 4.36781 9.38498 4.40898 9.26992 4.34471C8.34955 3.83059 6.93723 3.56226 5.49993 3.56226C4.06263 3.56226 2.65032 3.83059 1.72995 4.34471C1.61488 4.40898 1.46951 4.36781 1.40523 4.25275C1.34096 4.13769 1.38213 3.99231 1.49719 3.92804C2.51678 3.3585 4.02085 3.08499 5.49993 3.08499Z" fill="black"/>
<path fill-rule="evenodd" clip-rule="evenodd" d="M5.49993 7.78406C6.97902 7.78406 8.48309 7.51055 9.50268 6.94101C9.61774 6.87673 9.65891 6.73136 9.59464 6.6163C9.53036 6.50123 9.38498 6.46006 9.26992 6.52434C8.34955 7.03846 6.93723 7.30679 5.49993 7.30679C4.06263 7.30679 2.65032 7.03846 1.72995 6.52434C1.61488 6.46006 1.46951 6.50124 1.40523 6.6163C1.34096 6.73136 1.38213 6.87674 1.49719 6.94101C2.51678 7.51055 4.02085 7.78406 5.49993 7.78406Z" fill="black"/>
<path fill-rule="evenodd" clip-rule="evenodd" d="M7.1774 0.0358893H11.6976C12.0056 0.035877 12.2713 0.0358665 12.4889 0.0565547C12.7192 0.0784546 12.9467 0.127016 13.1587 0.25693C13.3606 0.380613 13.5303 0.550309 13.654 0.752142C13.7839 0.964142 13.8324 1.19165 13.8543 1.42198C13.875 1.63957 13.875 1.90525 13.875 2.2133V12.7097C13.875 13.0178 13.875 13.2835 13.8543 13.5011C13.8324 13.7314 13.7839 13.9589 13.654 14.1709C13.5303 14.3727 13.3606 14.5424 13.1587 14.6661C12.9467 14.796 12.7192 14.8446 12.4889 14.8665C12.2713 14.8872 12.0056 14.8872 11.6976 14.8871H7.17741C6.86936 14.8872 6.60368 14.8872 6.38609 14.8665C6.15576 14.8446 5.92825 14.796 5.71625 14.6661C5.51442 14.5424 5.34472 14.3727 5.22104 14.1709C5.09113 13.9589 5.04257 13.7314 5.02067 13.5011C4.99998 13.2835 4.99999 13.0178 5 12.7097V2.21329C4.99999 1.90525 4.99998 1.63957 5.02067 1.42198C5.04257 1.19165 5.09113 0.964142 5.22104 0.752142C5.34472 0.550309 5.51442 0.380613 5.71625 0.25693C5.92825 0.127016 6.15576 0.0784545 6.38609 0.0565547C6.60368 0.0358665 6.86936 0.035877 7.1774 0.0358893ZM6.48075 1.05206C6.32362 1.06701 6.26722 1.09212 6.23875 1.10957C6.17147 1.1508 6.11491 1.20736 6.07368 1.27464C6.05623 1.30311 6.03112 1.35951 6.01618 1.51664C6.00053 1.68121 6 1.89886 6 2.23589V12.6871C6 13.0242 6.00053 13.2418 6.01618 13.4064C6.03112 13.5635 6.05623 13.6199 6.07368 13.6484C6.11491 13.7157 6.17147 13.7722 6.23875 13.8135C6.26722 13.8309 6.32362 13.856 6.48075 13.871C6.64532 13.8866 6.86298 13.8871 7.2 13.8871H11.675C12.012 13.8871 12.2297 13.8866 12.3943 13.871C12.5514 13.856 12.6078 13.8309 12.6362 13.8135C12.7035 13.7722 12.7601 13.7157 12.8013 13.6484C12.8188 13.6199 12.8439 13.5635 12.8588 13.4064C12.8745 13.2418 12.875 13.0242 12.875 12.6871V2.23589C12.875 1.89887 12.8745 1.68121 12.8588 1.51664C12.8439 1.35951 12.8188 1.30311 12.8013 1.27464C12.7601 1.20736 12.7035 1.1508 12.6362 1.10957C12.6078 1.09212 12.5514 1.067 12.3943 1.05206C12.2297 1.03642 12.012 1.03589 11.675 1.03589H7.2C6.86298 1.03589 6.64532 1.03642 6.48075 1.05206Z" fill="black"/>
<path d="M9.9375 12.5C9.9375 12.7761 9.71364 13 9.4375 13C9.16136 13 8.9375 12.7761 8.9375 12.5C8.9375 12.2238 9.16136 12 9.4375 12C9.71364 12 9.9375 12.2238 9.9375 12.5Z" fill="black"/>
<path fill-rule="evenodd" clip-rule="evenodd" d="M12.9375 11H5.9375V9.99998H12.9375V11Z" fill="black"/>
<path fill-rule="evenodd" clip-rule="evenodd" d="M5.4 1V9.8C2.96995 9.8 1 7.83005 1 5.4C1 2.96995 2.96995 1 5.4 1Z" fill="black"/>
</svg>
