<svg width="15" height="15" viewBox="0 0 15 15" fill="none" xmlns="http://www.w3.org/2000/svg">
<path d="M7.50061 0.150421C8.10836 0.150421 8.60119 0.643252 8.60119 1.25101C8.60113 1.75711 8.25887 2.18122 7.79357 2.3096C10.142 2.46084 11.9995 4.41326 11.9996 6.79984V10.25C11.9996 11.0561 12.033 11.7074 12.7233 12.0528C12.9305 12.1564 13.039 12.3888 12.986 12.6143C12.9327 12.84 12.7315 13 12.4996 13H8.15979C8.36792 13.1833 8.49963 13.4509 8.49963 13.75C8.49961 14.3023 8.0519 14.75 7.49963 14.75C6.94752 14.7498 6.49965 14.3022 6.49963 13.75C6.49963 13.4508 6.63223 13.1833 6.84045 13H2.49963C2.2679 12.9999 2.06655 12.8399 2.0133 12.6143C1.96037 12.3889 2.06896 12.1565 2.276 12.0528C2.96664 11.7074 2.99962 11.0562 2.99963 10.25V6.79984C2.99971 4.41318 4.85816 2.46072 7.20666 2.3096C6.74202 2.18079 6.40009 1.75664 6.40002 1.25101C6.40002 0.643319 6.89294 0.15053 7.50061 0.150421ZM7.49963 3.29984C5.56685 3.30003 3.99971 4.86703 3.99963 6.79984V10.25C3.99963 10.6948 4.01255 11.3855 3.69885 12H11.3004C10.9869 11.3855 10.9996 10.6948 10.9996 10.25V6.79984C10.9995 4.86691 9.43257 3.29984 7.49963 3.29984Z" fill="black"/>
</svg>
