<svg width="15" height="15" viewBox="0 0 15 15" fill="none" xmlns="http://www.w3.org/2000/svg">
<path fill-rule="evenodd" clip-rule="evenodd" d="M13.25 1L13.25 14L14.75 14L14.75 1L13.25 1Z" fill="black"/>
<rect width="1" height="1" rx="0.5" transform="matrix(-1.31134e-07 1 1 1.31134e-07 5 7)" fill="black"/>
<rect width="1" height="1" rx="0.5" transform="matrix(-1.31134e-07 1 1 1.31134e-07 5 13)" fill="black"/>
<rect width="1" height="1" rx="0.5" transform="matrix(-1.31134e-07 1 1 1.31134e-07 3 7)" fill="black"/>
<rect width="1" height="1" rx="0.5" transform="matrix(-1.31134e-07 1 1 1.31134e-07 3 13)" fill="black"/>
<rect width="1" height="1" rx="0.5" transform="matrix(-1.31134e-07 1 1 1.31134e-07 7 7)" fill="black"/>
<rect width="1" height="1" rx="0.5" transform="matrix(-1.31134e-07 1 1 1.31134e-07 1 7)" fill="black"/>
<rect width="1" height="1" rx="0.5" transform="matrix(-1.31134e-07 1 1 1.31134e-07 7 13)" fill="black"/>
<rect width="1" height="1" rx="0.5" transform="matrix(-1.31134e-07 1 1 1.31134e-07 1 13)" fill="black"/>
<rect width="1" height="1" rx="0.5" transform="matrix(-1.31134e-07 1 1 1.31134e-07 7 5)" fill="black"/>
<rect width="1" height="1" rx="0.5" transform="matrix(-1.31134e-07 1 1 1.31134e-07 1 5)" fill="black"/>
<rect width="1" height="1" rx="0.5" transform="matrix(-1.31134e-07 1 1 1.31134e-07 7 3)" fill="black"/>
<rect width="1" height="1" rx="0.5" transform="matrix(-1.31134e-07 1 1 1.31134e-07 1 3)" fill="black"/>
<rect width="1" height="1" rx="0.5" transform="matrix(-1.31134e-07 1 1 1.31134e-07 7 9)" fill="black"/>
<rect width="1" height="1" rx="0.5" transform="matrix(-1.31134e-07 1 1 1.31134e-07 1 9)" fill="black"/>
<rect width="1" height="1" rx="0.5" transform="matrix(-1.31134e-07 1 1 1.31134e-07 7 11)" fill="black"/>
<rect width="1" height="1" rx="0.5" transform="matrix(-1.31134e-07 1 1 1.31134e-07 1 11)" fill="black"/>
<rect width="1" height="1" rx="0.5" transform="matrix(-1.31134e-07 1 1 1.31134e-07 9 7)" fill="black"/>
<rect width="1" height="1" rx="0.5" transform="matrix(-1.31134e-07 1 1 1.31134e-07 9 13)" fill="black"/>
<rect width="1" height="1" rx="0.5" transform="matrix(-1.31134e-07 1 1 1.31134e-07 11 7)" fill="black"/>
<rect width="1" height="1" rx="0.5" transform="matrix(-1.31134e-07 1 1 1.31134e-07 11 13)" fill="black"/>
<rect width="1" height="1" rx="0.5" transform="matrix(-1.31134e-07 1 1 1.31134e-07 5 1)" fill="black"/>
<rect width="1" height="1" rx="0.5" transform="matrix(-1.31134e-07 1 1 1.31134e-07 3 1)" fill="black"/>
<rect width="1" height="1" rx="0.5" transform="matrix(-1.31134e-07 1 1 1.31134e-07 7 1)" fill="black"/>
<rect width="1" height="1" rx="0.5" transform="matrix(-1.31134e-07 1 1 1.31134e-07 1 1)" fill="black"/>
<rect width="1" height="1" rx="0.5" transform="matrix(-1.31134e-07 1 1 1.31134e-07 9 1)" fill="black"/>
<rect width="1" height="1" rx="0.5" transform="matrix(-1.31134e-07 1 1 1.31134e-07 11 1)" fill="black"/>
</svg>
