<svg width="15" height="15" viewBox="0 0 15 15" fill="none" xmlns="http://www.w3.org/2000/svg">
<path d="M13 4C14.1046 4 15 4.89543 15 6V9C15 10.1046 14.1046 11 13 11H2L1.7959 10.9893C0.787223 10.887 0 10.0357 0 9V6C0 4.89543 0.895431 4 2 4H13ZM2 5C1.44772 5 1 5.44772 1 6V9C1 9.55228 1.44772 10 2 10H13C13.5523 10 14 9.55228 14 9V6C14 5.44772 13.5523 5 13 5H2ZM4.5 6.75C4.91421 6.75 5.25 7.08579 5.25 7.5C5.25 7.91421 4.91421 8.25 4.5 8.25C4.08579 8.25 3.75 7.91421 3.75 7.5C3.75 7.08579 4.08579 6.75 4.5 6.75ZM7.5 6.75C7.91421 6.75 8.25 7.08579 8.25 7.5C8.25 7.91421 7.91421 8.25 7.5 8.25C7.08579 8.25 6.75 7.91421 6.75 7.5C6.75 7.08579 7.08579 6.75 7.5 6.75ZM10.5 6.75C10.9142 6.75 11.25 7.08579 11.25 7.5C11.25 7.91421 10.9142 8.25 10.5 8.25C10.0858 8.25 9.75 7.91421 9.75 7.5C9.75 7.08579 10.0858 6.75 10.5 6.75Z" fill="black"/>
</svg>
