<svg width="15" height="15" viewBox="0 0 15 15" fill="none" xmlns="http://www.w3.org/2000/svg">
<path d="M10.5 1C10.7761 1 11 1.22386 11 1.5V2H12.5C13.3284 2 14 2.67157 14 3.5V12.5C14 13.3284 13.3284 14 12.5 14H2.5C1.67157 14 1 13.3284 1 12.5V3.5C1 2.67157 1.67157 2 2.5 2H4V1.5C4 1.22386 4.22386 1 4.5 1C4.77614 1 5 1.22386 5 1.5V2H10V1.5C10 1.22386 10.2239 1 10.5 1ZM2 12.5C2 12.7761 2.22386 13 2.5 13H12.5C12.7761 13 13 12.7761 13 12.5V6H2V12.5ZM9.14648 7.14648C9.34175 6.95122 9.65825 6.95122 9.85352 7.14648C10.0488 7.34175 10.0488 7.65825 9.85352 7.85352L8.20703 9.5L9.85352 11.1465C10.0488 11.3417 10.0488 11.6583 9.85352 11.8535C9.65825 12.0488 9.34175 12.0488 9.14648 11.8535L7.5 10.207L5.85352 11.8535C5.65825 12.0488 5.34175 12.0488 5.14648 11.8535C4.95122 11.6583 4.95122 11.3417 5.14648 11.1465L6.79297 9.5L5.14648 7.85352C4.95122 7.65825 4.95122 7.34175 5.14648 7.14648C5.34175 6.95122 5.65825 6.95122 5.85352 7.14648L7.5 8.79297L9.14648 7.14648ZM2.5 3C2.22386 3 2 3.22386 2 3.5V5H13V3.5C13 3.22386 12.7761 3 12.5 3H11V3.5C11 3.77614 10.7761 4 10.5 4C10.2239 4 10 3.77614 10 3.5V3H5V3.5C5 3.77614 4.77614 4 4.5 4C4.22386 4 4 3.77614 4 3.5V3H2.5Z" fill="black"/>
</svg>
