<svg width="15" height="15" viewBox="0 0 15 15" fill="none" xmlns="http://www.w3.org/2000/svg">
<path d="M10.5 1C10.7761 1 11 1.22386 11 1.5V2H12.5C13.3284 2 14 2.67157 14 3.5V12.5C14 13.3284 13.3284 14 12.5 14H2.5C1.67157 14 1 13.3284 1 12.5V3.5C1 2.67157 1.67157 2 2.5 2H4V1.5C4 1.22386 4.22386 1 4.5 1C4.77614 1 5 1.22386 5 1.5V2H10V1.5C10 1.22386 10.2239 1 10.5 1ZM2 12.5C2 12.7761 2.22386 13 2.5 13H12.5C12.7761 13 13 12.7761 13 12.5V6H2V12.5ZM7.70898 11.5928C8.06294 11.5928 8.34961 11.8804 8.34961 12.2344C8.34947 12.5882 8.06285 12.875 7.70898 12.875C7.35511 12.875 7.0685 12.5882 7.06836 12.2344C7.06836 11.8804 7.35502 11.5928 7.70898 11.5928ZM7.70898 6.5C8.95087 6.5 9.91797 7.45517 9.91797 8.60254C9.91785 9.56233 9.28179 10.029 8.82324 10.3076C8.73386 10.3619 8.65709 10.4064 8.58984 10.4453C8.4627 10.519 8.36829 10.5734 8.2832 10.6396C8.23811 10.6748 8.21757 10.6975 8.20898 10.709C8.20205 10.9791 7.98076 11.1963 7.70898 11.1963C7.43302 11.1962 7.20919 10.9722 7.20898 10.6963C7.20898 10.2827 7.45886 10.0143 7.66895 9.85059C7.81034 9.74043 7.99938 9.63114 8.15625 9.54004C8.21047 9.50855 8.2604 9.47846 8.30371 9.45215C8.69958 9.21166 8.91787 9.00539 8.91797 8.60254C8.91797 8.04082 8.43255 7.5 7.70898 7.5C6.98547 7.50005 6.5 8.04085 6.5 8.60254C6.49986 8.87856 6.27605 9.10254 6 9.10254C5.72395 9.10254 5.50014 8.87856 5.5 8.60254C5.5 7.4552 6.46715 6.50005 7.70898 6.5ZM2.5 3C2.22386 3 2 3.22386 2 3.5V5H13V3.5C13 3.22386 12.7761 3 12.5 3H11V3.5C11 3.77614 10.7761 4 10.5 4C10.2239 4 10 3.77614 10 3.5V3H5V3.5C5 3.77614 4.77614 4 4.5 4C4.22386 4 4 3.77614 4 3.5V3H2.5Z" fill="black"/>
</svg>
