<svg width="15" height="15" viewBox="0 0 15 15" fill="none" xmlns="http://www.w3.org/2000/svg">
<path d="M10.5 1C10.7761 1 11 1.22386 11 1.5V2H12.5C13.3284 2 14 2.67157 14 3.5V12.5C14 13.3284 13.3284 14 12.5 14H2.5C1.67157 14 1 13.3284 1 12.5V3.5C1 2.67157 1.67157 2 2.5 2H4V1.5C4 1.22386 4.22386 1 4.5 1C4.77614 1 5 1.22386 5 1.5V2H10V1.5C10 1.22386 10.2239 1 10.5 1ZM2 12.5C2 12.7761 2.22386 13 2.5 13H12.5C12.7761 13 13 12.7761 13 12.5V6H2V12.5ZM7.5 7.02539C7.76233 7.02539 7.97461 7.23767 7.97461 7.5V9.02539H9.5C9.76233 9.02539 9.97461 9.23767 9.97461 9.5C9.97461 9.76233 9.76233 9.97461 9.5 9.97461H7.97461V11.5C7.97461 11.7623 7.76233 11.9746 7.5 11.9746C7.23767 11.9746 7.02539 11.7623 7.02539 11.5V9.97461H5.5C5.23767 9.97461 5.02539 9.76233 5.02539 9.5C5.02539 9.23766 5.23766 9.02539 5.5 9.02539H7.02539V7.5C7.02539 7.23766 7.23766 7.02539 7.5 7.02539ZM2.5 3C2.22386 3 2 3.22386 2 3.5V5H13V3.5C13 3.22386 12.7761 3 12.5 3H11V3.5C11 3.77614 10.7761 4 10.5 4C10.2239 4 10 3.77614 10 3.5V3H5V3.5C5 3.77614 4.77614 4 4.5 4C4.22386 4 4 3.77614 4 3.5V3H2.5Z" fill="black"/>
</svg>
