<svg width="15" height="15" viewBox="0 0 15 15" fill="none" xmlns="http://www.w3.org/2000/svg">
<path d="M10.5 1C10.7761 1 11 1.22386 11 1.5V2H12.5C13.3284 2 14 2.67157 14 3.5V12.5C14 13.3284 13.3284 14 12.5 14H2.5C1.67157 14 1 13.3284 1 12.5V3.5C1 2.67157 1.67157 2 2.5 2H4V1.5C4 1.22386 4.22386 1 4.5 1C4.77614 1 5 1.22386 5 1.5V2H10V1.5C10 1.22386 10.2239 1 10.5 1ZM2 12.5C2 12.7761 2.22386 13 2.5 13H12.5C12.7761 13 13 12.7761 13 12.5V6H2V12.5ZM9.34082 6.96191C9.49976 6.73616 9.81229 6.68192 10.0381 6.84082C10.2638 6.99976 10.3181 7.31229 10.1592 7.53809L6.99219 12.0381C6.90678 12.1593 6.77182 12.236 6.62402 12.248C6.47619 12.2601 6.33052 12.2064 6.22656 12.1006L4.64355 10.4873C4.4501 10.2903 4.45237 9.97373 4.64941 9.78027C4.84641 9.58686 5.16297 9.59021 5.35645 9.78711L6.51953 10.9717L9.34082 6.96191ZM2.5 3C2.22386 3 2 3.22386 2 3.5V5H13V3.5C13 3.22386 12.7761 3 12.5 3H11V3.5C11 3.77614 10.7761 4 10.5 4C10.2239 4 10 3.77614 10 3.5V3H5V3.5C5 3.77614 4.77614 4 4.5 4C4.22386 4 4 3.77614 4 3.5V3H2.5Z" fill="black"/>
</svg>
