<svg width="15" height="15" viewBox="0 0 15 15" fill="none" xmlns="http://www.w3.org/2000/svg">
  <path fill-rule="evenodd" clip-rule="evenodd"
    d="M5 1.5C5 1.22386 4.77614 1 4.5 1C4.22386 1 4 1.22386 4 1.5V2H2.5C1.67157 2 1 2.67157 1 3.5V12.5C1 13.3284 1.67157 14 2.5 14H12.5C13.3284 14 14 13.3284 14 12.5V3.5C14 2.67157 13.3284 2 12.5 2H11V1.5C11 1.22386 10.7761 1 10.5 1C10.2239 1 10 1.22386 10 1.5V2H5V1.5ZM10 3.5V3H5V3.5C5 3.77614 4.77614 4 4.5 4C4.22386 4 4 3.77614 4 3.5V3H2.5C2.22386 3 2 3.22386 2 3.5V5H13V3.5C13 3.22386 12.7761 3 12.5 3H11V3.5C11 3.77614 10.7761 4 10.5 4C10.2239 4 10 3.77614 10 3.5ZM2 12.5V6H13V12.5C13 12.7761 12.7761 13 12.5 13H2.5C2.22386 13 2 12.7761 2 12.5ZM10.1589 7.53774C10.3178 7.31191 10.2636 7.00001 10.0377 6.84109C9.81192 6.68217 9.50002 6.73642 9.3411 6.96225L6.51974 10.9715L5.35678 9.78706C5.16332 9.59002 4.84675 9.58712 4.6497 9.78058C4.45266 9.97404 4.44976 10.2906 4.64322 10.4877L6.22655 12.1003C6.33052 12.2062 6.47614 12.2604 6.62404 12.2483C6.77194 12.2363 6.90684 12.1591 6.99224 12.0377L10.1589 7.53774Z"
    fill="currentColor" />
</svg>