<svg width="15" height="15" viewBox="0 0 15 15" fill="none" xmlns="http://www.w3.org/2000/svg">
  <path fill-rule="evenodd" clip-rule="evenodd"
    d="M5 1.5C5 1.22386 4.77614 1 4.5 1C4.22386 1 4 1.22386 4 1.5V2H2.5C1.67157 2 1 2.67157 1 3.5V12.5C1 13.3284 1.67157 14 2.5 14H12.5C13.3284 14 14 13.3284 14 12.5V3.5C14 2.67157 13.3284 2 12.5 2H11V1.5C11 1.22386 10.7761 1 10.5 1C10.2239 1 10 1.22386 10 1.5V2H5V1.5ZM10 3.5V3H5V3.5C5 3.77614 4.77614 4 4.5 4C4.22386 4 4 3.77614 4 3.5V3H2.5C2.22386 3 2 3.22386 2 3.5V5H13V3.5C13 3.22386 12.7761 3 12.5 3H11V3.5C11 3.77614 10.7761 4 10.5 4C10.2239 4 10 3.77614 10 3.5ZM2 12.5V6H13V12.5C13 12.7761 12.7761 13 12.5 13H2.5C2.22386 13 2 12.7761 2 12.5ZM7.97499 7.49999C7.97499 7.23766 7.76233 7.02499 7.49999 7.02499C7.23766 7.02499 7.02499 7.23766 7.02499 7.49999V9.02499H5.49999C5.23766 9.02499 5.02499 9.23766 5.02499 9.49999C5.02499 9.76233 5.23766 9.97499 5.49999 9.97499H7.02499V11.5C7.02499 11.7623 7.23766 11.975 7.49999 11.975C7.76233 11.975 7.97499 11.7623 7.97499 11.5V9.97499H9.49999C9.76233 9.97499 9.97499 9.76233 9.97499 9.49999C9.97499 9.23766 9.76233 9.02499 9.49999 9.02499H7.97499V7.49999Z"
    fill="currentColor" />
</svg>