<svg width="15" height="15" viewBox="0 0 15 15" fill="none" xmlns="http://www.w3.org/2000/svg">
  <path fill-rule="evenodd" clip-rule="evenodd"
    d="M4.5 1C4.77614 1 5 1.22386 5 1.5V2H10V1.5C10 1.22386 10.2239 1 10.5 1C10.7761 1 11 1.22386 11 1.5V2H12.5C13.3284 2 14 2.67157 14 3.5V12.5C14 13.3284 13.3284 14 12.5 14H2.5C1.67157 14 1 13.3284 1 12.5V3.5C1 2.67157 1.67157 2 2.5 2H4V1.5C4 1.22386 4.22386 1 4.5 1ZM10 3V3.5C10 3.77614 10.2239 4 10.5 4C10.7761 4 11 3.77614 11 3.5V3H12.5C12.7761 3 13 3.22386 13 3.5V5H2V3.5C2 3.22386 2.22386 3 2.5 3H4V3.5C4 3.77614 4.22386 4 4.5 4C4.77614 4 5 3.77614 5 3.5V3H10ZM2 6V12.5C2 12.7761 2.22386 13 2.5 13H12.5C12.7761 13 13 12.7761 13 12.5V6H2ZM8.34987 12.2341C8.34987 12.5881 8.06293 12.875 7.70896 12.875C7.355 12.875 7.06805 12.5881 7.06805 12.2341C7.06805 11.8801 7.355 11.5932 7.70896 11.5932C8.06293 11.5932 8.34987 11.8801 8.34987 12.2341ZM6.5 8.60227C6.5 8.04055 6.98552 7.5 7.70909 7.5C8.43266 7.5 8.91818 8.04055 8.91818 8.60227C8.91818 9.0053 8.69999 9.21195 8.30404 9.45249C8.26073 9.4788 8.21032 9.50807 8.15609 9.53957L8.15602 9.53961C7.99911 9.63073 7.81023 9.74042 7.66882 9.85059C7.45874 10.0143 7.20909 10.2824 7.20909 10.6959C7.20909 10.9721 7.43295 11.1959 7.70909 11.1959C7.98094 11.1959 8.20211 10.979 8.20893 10.7088C8.21753 10.6972 8.23817 10.6747 8.28345 10.6394C8.36858 10.5731 8.46262 10.5186 8.58988 10.4449C8.65718 10.4059 8.73377 10.3615 8.82324 10.3071C9.28183 10.0286 9.91818 9.56224 9.91818 8.60227C9.91818 7.4549 8.95098 6.5 7.70909 6.5C6.46721 6.5 5.5 7.4549 5.5 8.60227C5.5 8.87842 5.72386 9.10227 6 9.10227C6.27614 9.10227 6.5 8.87842 6.5 8.60227ZM8.20359 10.7182C8.20316 10.7182 8.20383 10.7161 8.20689 10.7116C8.20555 10.7159 8.20402 10.7181 8.20359 10.7182Z"
    fill="currentColor" />
</svg>