<svg width="15" height="15" viewBox="0 0 15 15" fill="none" xmlns="http://www.w3.org/2000/svg">
  <path fill-rule="evenodd" clip-rule="evenodd"
    d="M4.5 1C4.77614 1 5 1.22386 5 1.5V2H10V1.5C10 1.22386 10.2239 1 10.5 1C10.7761 1 11 1.22386 11 1.5V2H12.5C13.3284 2 14 2.67157 14 3.5V12.5C14 13.3284 13.3284 14 12.5 14H2.5C1.67157 14 1 13.3284 1 12.5V3.5C1 2.67157 1.67157 2 2.5 2H4V1.5C4 1.22386 4.22386 1 4.5 1ZM10 3V3.5C10 3.77614 10.2239 4 10.5 4C10.7761 4 11 3.77614 11 3.5V3H12.5C12.7761 3 13 3.22386 13 3.5V5H2V3.5C2 3.22386 2.22386 3 2.5 3H4V3.5C4 3.77614 4.22386 4 4.5 4C4.77614 4 5 3.77614 5 3.5V3H10ZM2 6V12.5C2 12.7761 2.22386 13 2.5 13H12.5C12.7761 13 13 12.7761 13 12.5V6H2ZM9.85355 7.14645C10.0488 7.34171 10.0488 7.65829 9.85355 7.85355L8.20711 9.5L9.85355 11.1464C10.0488 11.3417 10.0488 11.6583 9.85355 11.8536C9.65829 12.0488 9.34171 12.0488 9.14645 11.8536L7.5 10.2071L5.85355 11.8536C5.65829 12.0488 5.34171 12.0488 5.14645 11.8536C4.95118 11.6583 4.95118 11.3417 5.14645 11.1464L6.79289 9.5L5.14645 7.85355C4.95118 7.65829 4.95118 7.34171 5.14645 7.14645C5.34171 6.95118 5.65829 6.95118 5.85355 7.14645L7.5 8.79289L9.14645 7.14645C9.34171 6.95118 9.65829 6.95118 9.85355 7.14645Z"
    fill="currentColor" />
</svg>