<svg width="15" height="15" viewBox="0 0 15 15" fill="none" xmlns="http://www.w3.org/2000/svg">
<path d="M12 2C12.5523 2 13 2.44772 13 3V12C13 12.5523 12.5523 13 12 13H3L2.89746 12.9951C2.39333 12.9438 2 12.5177 2 12V3C2 2.44772 2.44772 2 3 2H12ZM3 12H12V3H3V12ZM9.52539 4.94531C9.6817 4.71784 9.99311 4.66021 10.2207 4.81641C10.448 4.97276 10.5058 5.28418 10.3496 5.51172L7.09082 10.2607C7.00213 10.3898 6.8576 10.4704 6.70117 10.4775C6.54468 10.4847 6.39306 10.4174 6.29297 10.2969L4.42773 8.04785L4.37109 7.96387C4.2615 7.75883 4.30741 7.49807 4.49316 7.34375C4.70567 7.16747 5.02094 7.19673 5.19727 7.40918L6.63965 9.14746L9.52539 4.94531Z" fill="black"/>
</svg>
