<svg width="15" height="15" viewBox="0 0 15 15" fill="none" xmlns="http://www.w3.org/2000/svg">
<path d="M7.5 4C8.99667 4 10.2741 4.93938 10.7744 6.26074C11.1486 6.09308 11.5634 6 12 6C13.6569 6 15 7.34315 15 9C15 10.3741 14.0759 11.5324 12.8154 11.8877C12.729 11.9578 12.1197 12 12 12H3C2.88034 12 2.27098 11.9578 2.18457 11.8877C0.924092 11.5324 0 10.3741 0 9C0 7.34315 1.34315 6 3 6C3.43656 6 3.85142 6.09308 4.22559 6.26074C4.72594 4.93938 6.00333 4 7.5 4ZM7.49512 5C6.4912 5.00024 4.99512 6.00018 4.99512 7.5C4.99512 8 4.99512 7.5 4.99512 8C4.49518 7.50006 3.995 7 2.99512 7C2.03307 7.00023 1.07337 7.92605 1.00195 8.88672C1.0692 9.85674 1.84496 10.6614 2.88867 10.916C2.92624 10.9423 3.07709 10.9631 3.23145 10.9775L3.5957 11H11.3955C11.4474 11 11.6054 10.992 11.7598 10.9775C11.9142 10.9631 12.0652 10.9423 12.1025 10.916C13.1455 10.6616 13.9201 9.85777 13.9883 8.88867C13.918 7.92721 12.9579 7 11.9951 7C10.9954 7.00012 10.4951 7.50006 9.99512 8C9.99512 7.5 9.99512 8 9.99512 7.5C9.99512 6 8.49904 5 7.49512 5Z" fill="black"/>
</svg>
