<svg width="15" height="15" viewBox="0 0 15 15" fill="none" xmlns="http://www.w3.org/2000/svg">
<path d="M7.28809 0.796908C7.42211 0.734364 7.57789 0.734364 7.71191 0.796908L13.7119 3.59671C13.8877 3.6789 13.9999 3.85576 14 4.04984V10.9502C13.9999 11.1443 13.8877 11.3212 13.7119 11.4034L7.71191 14.2032C7.57789 14.2657 7.42211 14.2657 7.28809 14.2032L1.28809 11.4034C1.11228 11.3212 1.00008 11.1443 1 10.9502V4.04984C1.00007 3.85576 1.11228 3.6789 1.28809 3.59671L7.28809 0.796908ZM2 7.92874L3.91992 8.81156C4.2747 8.97475 4.50195 9.33023 4.50195 9.72074V11.7989L7 12.9649V6.9307L2 4.8057V7.92874ZM8 6.9307V12.9649L10.5 11.7979V9.72074C10.5 9.33023 10.7273 8.97475 11.082 8.81156L13 7.92972V4.8057L8 6.9307ZM2 10.6319L3.50195 11.333V9.72074L2 9.02933V10.6319ZM11.5 9.72074V11.3321L13 10.6319V9.03031L11.5 9.72074ZM7.69531 4.16019C7.57046 4.21319 7.42954 4.21318 7.30469 4.16019L4.76172 3.07914L2.72852 4.02835L7.5 6.05667L12.2715 4.02835L10.2383 3.07914L7.69531 4.16019ZM5.98047 2.51078L7.5 3.15628L9.01953 2.51078L7.5 1.80179L5.98047 2.51078Z" fill="black"/>
</svg>
