<svg width="15" height="15" viewBox="0 0 15 15" fill="none" xmlns="http://www.w3.org/2000/svg">
<path d="M9.14645 3.85355C8.95118 3.65829 8.95118 3.34178 9.14645 3.14652C9.34171 2.95126 9.65822 2.95126 9.85348 3.14652L13.8535 7.14652C14.0487 7.34178 14.0487 7.65829 13.8535 7.85355L9.85348 11.8536C9.65822 12.0488 9.34171 12.0488 9.14645 11.8536C8.95118 11.6583 8.95118 11.3418 9.14645 11.1465L12.7929 7.50004L9.14645 3.85355ZM1.14645 7.85355C0.951184 7.65829 0.951184 7.34178 1.14645 7.14652L5.14645 3.14652C5.34171 2.95126 5.65822 2.95126 5.85348 3.14652C6.04874 3.34178 6.04874 3.65829 5.85348 3.85355L2.20699 7.50004L5.85348 11.1465C6.04874 11.3418 6.04874 11.6583 5.85348 11.8536C5.65822 12.0488 5.34171 12.0488 5.14645 11.8536L1.14645 7.85355Z" fill="black"/>
</svg>
