<svg width="15" height="15" viewBox="0 0 15 15" fill="none" xmlns="http://www.w3.org/2000/svg">
<path d="M7.5 4.1001C9.20772 4.10034 10.6206 5.35983 10.8623 7.00049H14.5C14.7761 7.00049 15 7.22435 15 7.50049C14.9997 7.77641 14.776 8.00049 14.5 8.00049H10.8633C10.6212 9.64069 9.20738 10.8997 7.5 10.8999L7.3252 10.895C5.69704 10.8124 4.3706 9.5842 4.13672 8.00049H0.5C0.22402 8.00049 0.000263701 7.77641 0 7.50049C0 7.22435 0.223858 7.00049 0.5 7.00049H4.1377C4.3793 5.3598 5.79223 4.10028 7.5 4.1001ZM7.5 5.05029C6.14732 5.0505 5.05099 6.14683 5.05078 7.49951C5.05078 8.85237 6.14719 9.9495 7.5 9.94971C8.85276 9.94944 9.9502 8.85233 9.9502 7.49951C9.94999 6.14687 8.85263 5.05056 7.5 5.05029Z" fill="black"/>
</svg>
