<svg width="15" height="15" viewBox="0 0 15 15" fill="none" xmlns="http://www.w3.org/2000/svg">
<path d="M7.22491 12.7395C7.41898 12.6113 7.68296 12.6321 7.85381 12.803C8.0489 12.9981 8.04875 13.3147 7.85381 13.51C7.65857 13.7052 7.34205 13.7052 7.14678 13.51C6.95152 13.3147 6.95152 12.9982 7.14678 12.803C7.17107 12.7787 7.19734 12.7577 7.22491 12.7395ZM5.73174 11.3889C5.927 11.1936 6.24449 11.1936 6.43975 11.3889C6.63469 11.5841 6.63464 11.9007 6.43975 12.0959C6.24449 12.2912 5.927 12.2912 5.73174 12.0959C5.53681 11.9007 5.53675 11.5841 5.73174 11.3889ZM8.56084 11.3889C8.75612 11.1938 9.07266 11.1937 9.26787 11.3889C9.46302 11.5841 9.46296 11.9007 9.26787 12.0959C9.07263 12.2912 8.75611 12.2911 8.56084 12.0959C8.36558 11.9007 8.36558 11.5842 8.56084 11.3889ZM4.31768 9.97483C4.5129 9.77961 4.82944 9.77968 5.02471 9.97483C5.21997 10.1701 5.21997 10.4866 5.02471 10.6819C4.82943 10.8769 4.51288 10.8771 4.31768 10.6819C4.12259 10.4867 4.12264 10.1701 4.31768 9.97483ZM9.97491 9.97483C10.1702 9.77957 10.4867 9.77957 10.6819 9.97483C10.8771 10.1701 10.8772 10.4866 10.6819 10.6819C10.4867 10.8771 10.1702 10.8771 9.97491 10.6819C9.77964 10.4866 9.77964 10.1701 9.97491 9.97483ZM2.90362 8.56077C3.09888 8.3655 3.41539 8.3655 3.61065 8.56077C3.80587 8.75603 3.8059 9.07255 3.61065 9.2678C3.41538 9.46286 3.09882 9.46296 2.90362 9.2678C2.70842 9.0726 2.70854 8.75604 2.90362 8.56077ZM11.389 8.56077C11.5842 8.3655 11.9007 8.3655 12.096 8.56077C12.2912 8.75603 12.2912 9.07256 12.096 9.2678C11.9007 9.46289 11.5842 9.46294 11.389 9.2678C11.1938 9.07259 11.1939 8.75604 11.389 8.56077ZM1.48955 7.1467C1.71054 6.92572 2.09067 6.9668 2.26104 7.22483C2.38901 7.41888 2.36737 7.68295 2.19659 7.85374C2.00137 8.04875 1.68477 8.04875 1.48955 7.85374C1.29435 7.65854 1.29448 7.34198 1.48955 7.1467ZM12.803 7.1467C12.9983 6.95144 13.3148 6.95144 13.5101 7.1467C13.7053 7.34197 13.7053 7.6585 13.5101 7.85374C13.3148 8.04867 12.9982 8.04883 12.803 7.85374C12.6079 7.65857 12.6081 7.34199 12.803 7.1467ZM2.90362 5.73167C3.09879 5.53665 3.41541 5.53676 3.61065 5.73167C3.80591 5.92693 3.80591 6.24441 3.61065 6.43967C3.41542 6.63454 3.09878 6.63464 2.90362 6.43967C2.70835 6.24441 2.70835 5.92693 2.90362 5.73167ZM11.389 5.73167C11.5842 5.53668 11.9008 5.53673 12.096 5.73167C12.2913 5.92693 12.2913 6.24441 12.096 6.43967C11.9008 6.63456 11.5841 6.63461 11.389 6.43967C11.1937 6.24441 11.1937 5.92693 11.389 5.73167ZM4.31768 4.3176C4.51284 4.12244 4.82942 4.12264 5.02471 4.3176C5.21997 4.51287 5.21997 4.82937 5.02471 5.02463C4.82945 5.2199 4.51294 5.2199 4.31768 5.02463C4.12272 4.82935 4.12252 4.51276 4.31768 4.3176ZM9.97491 4.3176C10.1701 4.12257 10.4867 4.12252 10.6819 4.3176C10.8771 4.5128 10.877 4.82936 10.6819 5.02463C10.4867 5.2199 10.1702 5.2199 9.97491 5.02463C9.77976 4.82936 9.77968 4.51283 9.97491 4.3176ZM5.73174 2.90354C5.927 2.70828 6.24449 2.70828 6.43975 2.90354C6.63471 3.09871 6.63461 3.41534 6.43975 3.61057C6.24449 3.80583 5.927 3.80583 5.73174 3.61057C5.53683 3.41534 5.53673 3.09871 5.73174 2.90354ZM8.56084 2.90354C8.75612 2.70846 9.07267 2.70834 9.26787 2.90354C9.46304 3.09874 9.46294 3.41531 9.26787 3.61057C9.07262 3.80582 8.75611 3.8058 8.56084 3.61057C8.36558 3.41531 8.36558 3.0988 8.56084 2.90354ZM7.14678 1.48948C7.34206 1.2944 7.65861 1.29428 7.85381 1.48948C8.04883 1.68469 8.04883 2.00129 7.85381 2.19651C7.65861 2.39171 7.34206 2.39159 7.14678 2.19651C6.95152 2.00125 6.95152 1.68474 7.14678 1.48948Z" fill="black"/>
</svg>
