<svg width="85" height="50" viewBox="0 0 85 50" fill="none" xmlns="http://www.w3.org/2000/svg">
<path d="M7.49915 35.877C11.1566 35.877 14.1218 38.8418 14.1222 42.4991C14.1222 46.1568 11.1568 49.1222 7.49915 49.1222C3.84181 49.1218 0.877075 46.1565 0.877075 42.4991C0.877486 38.842 3.84206 35.8775 7.49915 35.877ZM7.49915 36.8263C4.36673 36.8267 1.8267 39.3667 1.82629 42.4991C1.82629 45.6319 4.36648 48.1716 7.49915 48.172C10.6321 48.172 13.172 45.6321 13.172 42.4991C13.1716 39.3665 10.6319 36.8263 7.49915 36.8263ZM9.14661 40.1466C9.34187 39.9513 9.65838 39.9513 9.85364 40.1466C10.0488 40.3418 10.0489 40.6584 9.85364 40.8536L8.20715 42.5001L9.85364 44.1466L9.91809 44.2247C10.0462 44.4188 10.0245 44.6828 9.85364 44.8536C9.68281 45.0244 9.4188 45.0461 9.22473 44.9181L9.14661 44.8536L7.50012 43.2071L5.85364 44.8536C5.65841 45.0488 5.34188 45.0488 5.14661 44.8536C4.95134 44.6583 4.95134 44.3418 5.14661 44.1466L6.79309 42.5001L5.14661 40.8536C4.95134 40.6583 4.95134 40.3418 5.14661 40.1466C5.34187 39.9513 5.65838 39.9513 5.85364 40.1466L7.50012 41.7931L9.14661 40.1466Z" fill="black"/>
<path d="M80.9687 3.21871C81.1932 2.99417 81.5566 2.9942 81.7812 3.21871C82.0057 3.44326 82.0057 3.80666 81.7812 4.03121L78.3124 7.49996L81.7812 10.9687L81.8554 11.0586C82.0027 11.2817 81.9776 11.5848 81.7812 11.7812C81.5847 11.9777 81.2817 12.0027 81.0585 11.8554L80.9687 11.7812L77.4999 8.31246L74.0312 11.7812C73.8066 12.0058 73.4432 12.0058 73.2187 11.7812C72.9942 11.5567 72.9941 11.1932 73.2187 10.9687L76.6874 7.49996L73.2187 4.03121C72.9942 3.80666 72.9941 3.44325 73.2187 3.21871C73.4432 2.99417 73.8066 2.9942 74.0312 3.21871L77.4999 6.68746L80.9687 3.21871Z" fill="black"/>
</svg>
