<svg width="15" height="15" viewBox="0 0 15 15" fill="none" xmlns="http://www.w3.org/2000/svg">
<path d="M7.14579 8.67141C7.34101 8.47619 7.65755 8.47628 7.85283 8.67141L10.3284 11.146C10.5235 11.3412 10.5233 11.6578 10.3284 11.8531L7.85283 14.3286C7.65757 14.5235 7.34094 14.5237 7.14579 14.3286L4.67118 11.8531C4.47605 11.6578 4.47597 11.3412 4.67118 11.146L7.14579 8.67141ZM5.73173 11.4995L7.49931 13.2671L9.26689 11.4995L7.49931 9.73196L5.73173 11.4995ZM3.14579 4.67141C3.34099 4.47622 3.65755 4.47636 3.85283 4.67141L6.32841 7.14602C6.52351 7.34114 6.52324 7.65776 6.32841 7.85305L3.85283 10.3286C3.65755 10.5236 3.34096 10.5238 3.14579 10.3286L0.671185 7.85305C0.476129 7.65777 0.475991 7.34122 0.671185 7.14602L3.14579 4.67141ZM11.1458 4.67141C11.341 4.47619 11.6576 4.47628 11.8528 4.67141L14.3284 7.14602C14.5235 7.34117 14.5233 7.65779 14.3284 7.85305L11.8528 10.3286C11.6576 10.5235 11.3409 10.5237 11.1458 10.3286L8.67118 7.85305C8.47605 7.65778 8.47597 7.34124 8.67118 7.14602L11.1458 4.67141ZM1.73173 7.49954L3.49931 9.26809L5.26689 7.49954L3.49931 5.73196L1.73173 7.49954ZM9.73173 7.49954L11.4993 9.26712L13.2669 7.49954L11.4993 5.73196L9.73173 7.49954ZM7.14579 0.671413C7.34101 0.476194 7.65755 0.476283 7.85283 0.671413L10.3284 3.14602C10.5235 3.34117 10.5233 3.65779 10.3284 3.85305L7.85283 6.32864C7.65757 6.52351 7.34094 6.52369 7.14579 6.32864L4.67118 3.85305C4.47605 3.65778 4.47597 3.34124 4.67118 3.14602L7.14579 0.671413ZM5.73173 3.49954L7.49931 5.26712L9.26689 3.49954L7.49931 1.73196L5.73173 3.49954Z" fill="black"/>
</svg>
