<svg width="15" height="15" viewBox="0 0 15 15" fill="none" xmlns="http://www.w3.org/2000/svg">
<path d="M7.14678 1.48949C7.34206 1.29442 7.65861 1.29429 7.85381 1.48949L10.3284 3.9641L12.6468 1.64672C12.842 1.45149 13.1586 1.45147 13.3538 1.64672C13.5487 1.84201 13.5489 2.15862 13.3538 2.35375L11.0355 4.67114L13.5101 7.14672C13.7053 7.34199 13.7053 7.65851 13.5101 7.85375L7.85381 13.51C7.65857 13.7052 7.34205 13.7052 7.14678 13.51L4.67119 11.0354L2.35381 13.3538C2.15868 13.5489 1.84207 13.5486 1.64678 13.3538C1.45152 13.1585 1.45152 12.842 1.64678 12.6467L3.96416 10.3284L1.48955 7.85375C1.29435 7.65855 1.29448 7.342 1.48955 7.14672L7.14678 1.48949ZM5.37822 10.3284L7.50029 12.4495L12.4495 7.50024L10.3284 5.37817L5.37822 10.3284ZM2.5501 7.50024L4.67119 9.62133L9.62139 4.67114L7.50029 2.55004L2.5501 7.50024Z" fill="black"/>
</svg>
