<svg width="15" height="15" viewBox="0 0 15 15" fill="none" xmlns="http://www.w3.org/2000/svg">
<path d="M11.0996 1C11.5114 1 11.8508 0.999975 12.126 1.02246C12.407 1.04543 12.6656 1.09414 12.9082 1.21777C13.2845 1.40951 13.5905 1.71554 13.7822 2.0918C13.9059 2.33444 13.9546 2.59301 13.9775 2.87402C14 3.14923 14 3.4886 14 3.90039V11.0996C14 11.5114 14 11.8508 13.9775 12.126C13.9546 12.407 13.9059 12.6656 13.7822 12.9082C13.5905 13.2845 13.2845 13.5905 12.9082 13.7822C12.6656 13.9059 12.407 13.9546 12.126 13.9775C11.8508 14 11.5114 14 11.0996 14H3.90039C3.4886 14 3.14923 14 2.87402 13.9775C2.59301 13.9546 2.33444 13.9059 2.0918 13.7822C1.71554 13.5905 1.40951 13.2845 1.21777 12.9082C1.09414 12.6656 1.04543 12.407 1.02246 12.126C0.999975 11.8508 1 11.5114 1 11.0996V3.90039C1 3.4886 0.999975 3.14923 1.02246 2.87402C1.04543 2.59301 1.09414 2.33444 1.21777 2.0918C1.40951 1.71554 1.71554 1.40951 2.0918 1.21777C2.33444 1.09414 2.59301 1.04543 2.87402 1.02246C3.14923 0.999975 3.4886 1 3.90039 1H11.0996ZM2 8V11.0996C2 11.5279 2.00017 11.8199 2.01855 12.0449C2.03647 12.2639 2.06956 12.376 2.10938 12.4541C2.20521 12.6421 2.35793 12.7948 2.5459 12.8906C2.62405 12.9304 2.73615 12.9635 2.95508 12.9814C3.18012 12.9998 3.4721 13 3.90039 13H7V8H2ZM8 8V13H11.0996C11.5279 13 11.8199 12.9998 12.0449 12.9814C12.2639 12.9635 12.376 12.9304 12.4541 12.8906C12.6421 12.7948 12.7948 12.6421 12.8906 12.4541C12.9304 12.376 12.9635 12.2639 12.9814 12.0449C12.9998 11.8199 13 11.5279 13 11.0996V8H8ZM3.90039 2C3.4721 2 3.18012 2.00017 2.95508 2.01855C2.73615 2.03647 2.62405 2.06956 2.5459 2.10938C2.35793 2.20521 2.20521 2.35793 2.10938 2.5459C2.06956 2.62405 2.03647 2.73615 2.01855 2.95508C2.00017 3.18012 2 3.4721 2 3.90039V7H7V2H3.90039ZM8 7H13V3.90039C13 3.4721 12.9998 3.18012 12.9814 2.95508C12.9635 2.73615 12.9304 2.62405 12.8906 2.5459C12.7948 2.35793 12.6421 2.20521 12.4541 2.10938C12.376 2.06956 12.2639 2.03647 12.0449 2.01855C11.8199 2.00017 11.5279 2 11.0996 2H8V7Z" fill="black"/>
</svg>
