<svg width="15" height="15" viewBox="0 0 15 15" fill="none" xmlns="http://www.w3.org/2000/svg">
<path d="M4.58395 1.70896C5.78188 1.16309 7.15579 0.95062 8.39255 1.0781C9.20761 1.16213 9.62662 1.72417 9.91208 2.16208C10.1301 2.49665 10.3321 2.9301 10.6992 3.1279C11.0809 3.33346 11.0837 3.73728 11.0625 3.90915C11.013 4.31007 10.8396 4.56628 10.9131 5.02829C10.9642 5.34915 11.6209 5.90256 12.7207 6.37986C13.1165 6.55165 13.5028 6.5405 13.7216 6.9531C14.3256 8.09186 14.1035 9.2718 13.499 10.3388C12.9006 11.395 11.8977 12.4038 10.7988 13.2968C10.1448 13.8283 9.36479 13.9782 8.66403 14.0742C7.80817 14.1914 6.40787 14.1116 5.13864 13.8076C4.03937 13.5443 2.61143 13.0645 2.1318 11.9277C1.30537 9.96882 0.984786 8.59818 1.00095 7.44333C1.01726 6.28103 1.37538 5.38681 1.78805 4.41794C2.32696 3.15287 3.38527 2.25521 4.58395 1.70896ZM8.29001 2.07322C7.22886 1.96383 6.03395 2.14753 4.99899 2.61911C3.96484 3.09035 3.12603 3.83131 2.70895 4.81052C2.29859 5.77396 2.01422 6.50921 2.00095 7.45798C1.98765 8.41417 2.25028 9.63705 3.0527 11.539C3.39141 12.3419 4.62185 12.6553 5.37204 12.8349C6.54928 13.1169 7.82155 13.1797 8.52829 13.083C9.21232 12.9893 9.74554 12.8637 10.1679 12.5205C11.2287 11.6585 12.1205 10.7436 12.6289 9.84665C12.9344 9.30739 13.5138 7.70316 12.6289 7.38767C10.7541 6.71925 10.2621 6.06694 9.9902 5.41306C9.80928 4.97792 9.82834 4.52295 9.957 4.07908C9.97621 4.01283 9.99519 3.94774 10.0332 3.88865C9.81849 3.73662 9.65144 3.55145 9.51462 3.37107C9.18283 2.93343 8.91056 2.13719 8.29001 2.07322ZM7.11423 10.8769C7.14338 10.8602 7.33493 10.7498 7.56735 10.8427C8.06571 11.0422 8.20709 12.0552 7.52634 12.0986C7.13176 12.1237 6.59035 12.0034 6.67477 11.4843C6.7139 11.244 6.90828 10.9949 7.11325 10.8779L7.11423 10.8769ZM3.96579 10.1299C4.32479 9.71267 4.93051 9.79694 5.08298 10.3154C5.15659 10.5363 5.06767 10.7726 4.88083 10.8935C4.63657 11.186 4.22035 11.094 3.99802 10.8174L3.99509 10.8144L3.99216 10.8105C3.80752 10.6274 3.79354 10.33 3.96579 10.1299ZM10.3886 8.84079C10.7576 8.65666 11.4619 8.82824 11.4619 9.31247C11.4615 9.71324 10.9585 10.2161 10.5634 10.2822C10.1813 10.3461 9.70524 9.97575 9.76657 9.57712C9.81458 9.26536 10.1219 8.97398 10.3886 8.84079ZM7.33786 7.79392C7.63987 7.67793 8.02345 7.77524 8.17184 8.07419C8.33195 8.39682 8.2741 9.02775 7.91891 9.16306C7.51105 9.31836 7.14093 9.1187 6.98825 8.72458C6.98748 8.72258 6.98532 8.71872 6.98532 8.71872C6.85649 8.38694 6.98561 7.92946 7.33786 7.79392ZM3.04684 6.87302C4.13798 6.24305 4.60818 7.90885 3.98434 8.05857C3.60076 8.15061 3.33132 8.09789 3.04684 7.81345C2.86708 7.63368 2.70944 7.06802 3.04684 6.87302ZM7.62106 5.94236C7.68615 5.94968 7.86519 5.97966 7.99411 6.14744C8.48802 6.79114 7.31216 7.389 6.97751 6.7197C6.7639 6.29249 7.21188 5.89658 7.62106 5.94236ZM4.11423 5.05173C4.59564 4.57032 5.40861 5.41751 4.9443 5.88181C4.74903 6.07696 4.4325 6.07704 4.23727 5.88181C4.00928 5.65376 3.83356 5.33253 4.11423 5.05173ZM14.4834 4.27927C15.046 4.38262 14.8645 5.09951 14.2861 5.09079C13.5377 5.07908 13.7457 4.14403 14.4834 4.27927ZM5.97946 3.7363C5.86831 3.09745 6.33714 2.56842 6.94821 2.91111C7.43342 3.18337 7.26647 3.97508 6.9072 4.28708C6.46881 4.66731 6.05181 4.15154 5.97946 3.7363ZM12.082 3.10154C12.4544 2.63603 13.4405 3.22646 13.208 3.77439C12.9028 4.49247 11.5816 3.72722 12.082 3.10154ZM14.3672 2.26072C13.5919 2.24174 13.808 0.730852 14.5722 0.949193C15.1551 1.11619 14.9666 2.27534 14.3672 2.26072ZM11.0498 1.00193C11.4609 0.454623 12.4802 1.21968 12.0693 1.76755C11.6582 2.31501 10.6389 1.54982 11.0498 1.00193Z" fill="black"/>
</svg>
