<svg width="15" height="15" viewBox="0 0 15 15" fill="none" xmlns="http://www.w3.org/2000/svg">
<path fill-rule="evenodd" clip-rule="evenodd" d="M1 9.50003C1 10.3285 1.67157 11 2.5 11H4L4 10H2.5C2.22386 10 2 9.77617 2 9.50003L2 2.50003C2 2.22389 2.22386 2.00003 2.5 2.00003L9.5 2.00003C9.77614 2.00003 10 2.22389 10 2.50003V3.99999H5.5C4.67158 3.99999 4 4.67156 4 5.49999V12.5C4 13.3284 4.67158 14 5.5 14H12.5C13.3284 14 14 13.3284 14 12.5V5.49999C14 4.67156 13.3284 3.99999 12.5 3.99999H11V2.50003C11 1.6716 10.3284 1.00003 9.5 1.00003H2.5C1.67157 1.00003 1 1.6716 1 2.50003V9.50003ZM5 5.49999C5 5.22385 5.22386 4.99999 5.5 4.99999H12.5C12.7761 4.99999 13 5.22385 13 5.49999V12.5C13 12.7761 12.7761 13 12.5 13H5.5C5.22386 13 5 12.7761 5 12.5V5.49999Z" fill="black"/>
</svg>
