<svg width="15" height="15" viewBox="0 0 15 15" fill="none" xmlns="http://www.w3.org/2000/svg">
<path d="M12.1464 2.14645C12.3417 1.95118 12.6582 1.95118 12.8535 2.14645C13.0487 2.34171 13.0487 2.65822 12.8535 2.85348L8.20699 7.49996L12.8535 12.1464L12.9179 12.2246C13.0461 12.4187 13.0243 12.6826 12.8535 12.8535C12.6826 13.0243 12.4187 13.0461 12.2246 12.9179L12.1464 12.8535L7.49996 8.20699L2.85348 12.8535C2.65822 13.0487 2.34171 13.0487 2.14645 12.8535C1.95118 12.6582 1.95118 12.3417 2.14645 12.1464L6.79293 7.49996L2.14645 2.85348C1.95118 2.65822 1.95118 2.34171 2.14645 2.14645C2.34171 1.95118 2.65822 1.95118 2.85348 2.14645L7.49996 6.79293L12.1464 2.14645Z" fill="black"/>
</svg>
