<svg width="15" height="15" viewBox="0 0 15 15" fill="none" xmlns="http://www.w3.org/2000/svg">
<path d="M10.9692 3.21916C11.1937 2.99461 11.5571 2.99461 11.7817 3.21916C12.0058 3.44374 12.0061 3.80724 11.7817 4.03166L8.31294 7.50041L11.7817 10.9692L11.8559 11.059C12.0029 11.2821 11.978 11.5853 11.7817 11.7817C11.5854 11.978 11.2822 12.0028 11.059 11.8559L10.9692 11.7817L7.50044 8.31291L4.03169 11.7817C3.80728 12.0061 3.44378 12.0058 3.21919 11.7817C2.99464 11.5571 2.99464 11.1937 3.21919 10.9692L6.68794 7.50041L3.21919 4.03166C2.99464 3.80711 2.99464 3.44371 3.21919 3.21916C3.44375 2.99461 3.80714 2.99461 4.03169 3.21916L7.50044 6.68791L10.9692 3.21916Z" fill="black"/>
</svg>
