<svg width="15" height="15" viewBox="0 0 15 15" fill="none" xmlns="http://www.w3.org/2000/svg">
<path d="M4.60949 0.0634218L8.60949 1.06342L8.70129 1.0976L11.7013 2.5976C11.8536 2.67386 11.9503 2.82957 11.9503 2.99995V5.27436L13.7696 6.63959C13.9109 6.74567 13.9779 6.92513 13.9396 7.0976L12.9396 11.5976C12.9053 11.7517 12.7924 11.8766 12.6427 11.9267L9.6427 12.9267C9.63669 12.9287 9.63023 12.9308 9.62414 12.9326L6.12414 13.9326C5.93622 13.9863 5.73474 13.9123 5.62609 13.7499L4.20129 11.6122L1.32727 10.415C1.12182 10.3294 1.00965 10.1065 1.06359 9.89057L2.01184 6.09858L0.639766 4.26948C0.556153 4.15769 0.528996 4.01331 0.566524 3.87885C0.604323 3.74406 0.703143 3.63397 0.833125 3.58198L3.15441 2.65327L4.08215 0.332953C4.16572 0.124016 4.39118 0.00884358 4.60949 0.0634218ZM6.85168 4.2812C6.73395 4.42836 6.53634 4.48621 6.35754 4.4267L3.51477 3.47846L1.71301 4.19916L2.72473 5.54975H5.00012C5.24856 5.54985 5.45031 5.75148 5.45031 5.99995C5.45024 6.24835 5.24851 6.45004 5.00012 6.45014H2.85168L2.03137 9.73334L4.67297 10.8349C4.73448 10.8606 4.78978 10.8991 4.8341 10.9482L4.87414 10.9999L6.1925 12.9765L8.40344 12.3447L7.26184 11.6318C7.05117 11.5001 6.98679 11.2224 7.11828 11.0117C7.24995 10.801 7.52768 10.7366 7.7384 10.8681L9.25402 11.8154L10.0734 9.35737C10.0932 9.29784 10.1252 9.24331 10.1671 9.19721L10.212 9.15424L12.7755 7.0185L11.4327 6.01166L9.36145 6.83979L8.92688 8.14252L8.88977 8.22553C8.78513 8.40668 8.56375 8.49533 8.35754 8.4267C8.12197 8.348 7.99484 8.09303 8.07336 7.85737L8.57336 6.35737C8.61527 6.23193 8.71032 6.1311 8.83313 6.08198L11.0499 5.19526V3.27729L8.62512 2.0644L6.85168 4.2812ZM10.8868 9.76362L10.212 11.788L12.1163 11.1533L12.7745 8.19037L10.8868 9.76362ZM4.09582 2.72358L6.34484 3.47358L7.71105 1.76557L4.77258 1.0312L4.09582 2.72358Z" fill="black"/>
</svg>
