<svg width="15" height="15" viewBox="0 0 15 15" fill="none" xmlns="http://www.w3.org/2000/svg">
<path fill-rule="evenodd" clip-rule="evenodd" d="M7.49991 0.877014C3.84222 0.877014 0.877075 3.84216 0.877075 7.49985C0.877075 11.1575 3.84222 14.1227 7.49991 14.1227C11.1576 14.1227 14.1227 11.1575 14.1227 7.49985C14.1227 3.84216 11.1576 0.877014 7.49991 0.877014ZM3.78134 3.21566C4.77708 2.35064 6.07735 1.82701 7.49991 1.82701C8.9225 1.82701 10.2228 2.35067 11.2186 3.21574L7.49999 6.93431L3.78134 3.21566ZM3.21566 3.78135C2.35067 4.77709 1.82708 6.07732 1.82708 7.49985C1.82708 8.92244 2.35073 10.2227 3.21581 11.2185L6.93431 7.5L3.21566 3.78135ZM3.78151 11.7842C4.77723 12.6491 6.07743 13.1727 7.49991 13.1727C8.92242 13.1727 10.2227 12.6491 11.2184 11.7841L7.49999 8.06569L3.78151 11.7842ZM11.7841 11.2184C12.6491 10.2227 13.1727 8.9224 13.1727 7.49985C13.1727 6.07737 12.6492 4.77717 11.7842 3.78145L8.06568 7.5L11.7841 11.2184Z" fill="black"/>
</svg>
