<svg width="15" height="15" viewBox="0 0 15 15" fill="none" xmlns="http://www.w3.org/2000/svg">
<g clip-path="url(#clip0_17_2021)">
<path d="M10.0522 1.80295C10.8966 1.89502 12.1788 2.35031 12.936 2.76096C12.962 2.77511 12.9871 2.79132 13.0102 2.80978L13.0746 2.87131C13.3904 3.23267 13.6755 3.82093 13.8989 4.37424C14.1288 4.94394 14.3196 5.54461 14.4282 5.97873C14.7813 7.39064 14.9754 9.08616 15.0004 10.6926C15.0017 10.7761 14.9817 10.8589 14.9428 10.9328C14.6391 11.5102 13.9891 12.0441 13.3403 12.4328C12.684 12.826 11.9168 13.1374 11.2963 13.1975C11.1407 13.2125 10.9864 13.1541 10.8803 13.0393C10.7245 12.8704 10.4618 12.4777 10.2641 12.175C10.1588 12.0139 10.0607 11.8613 9.98968 11.7492C9.98423 11.7406 9.9792 11.732 9.97405 11.7238C9.30209 11.8851 8.48281 12.0002 7.49944 12.0002C6.51539 12.0002 5.69593 11.8854 5.02386 11.7238C5.01869 11.732 5.01371 11.7406 5.00823 11.7492C4.93723 11.8613 4.83913 12.0139 4.73382 12.175C4.53606 12.4777 4.27338 12.8704 4.11761 13.0393C4.01153 13.1542 3.85726 13.2125 3.70159 13.1975C3.08102 13.1374 2.31404 12.8261 1.65765 12.4328C1.00877 12.0441 0.358812 11.5103 0.0551081 10.9328C0.0162028 10.8588 -0.00374858 10.7762 -0.00250904 10.6926C0.0225171 9.08613 0.216609 7.39065 0.569757 5.97873C0.678344 5.54459 0.869105 4.94396 1.09905 4.37424C1.32242 3.82087 1.60743 3.23266 1.92327 2.87131L1.98773 2.80978C2.01086 2.79127 2.0358 2.77514 2.06194 2.76096C2.81914 2.35028 4.10135 1.89496 4.94573 1.80295L5.01214 1.80002C5.03402 1.80055 5.0559 1.80248 5.07757 1.80588C5.28854 1.83903 5.46982 1.94822 5.60198 2.04807C5.74157 2.15359 5.87141 2.2835 5.98284 2.41428C6.14642 2.60632 6.30482 2.84126 6.40569 3.06369C6.74695 3.02462 7.11253 3.00021 7.50042 3.00021C7.88736 3.00023 8.25169 3.02478 8.59222 3.06369C8.69309 2.84129 8.85151 2.6063 9.01507 2.41428C9.12648 2.28354 9.25638 2.15356 9.39593 2.04807C9.52808 1.94825 9.70945 1.83902 9.92034 1.80588C9.94194 1.8025 9.96397 1.80055 9.98577 1.80002L10.0522 1.80295ZM9.99944 2.84592C9.93282 2.89625 9.85516 2.97075 9.77679 3.06271C9.72496 3.12355 9.67876 3.18467 9.63909 3.2424C10.0065 3.32838 10.3311 3.4295 10.6088 3.53049C10.9751 3.66371 11.2614 3.79778 11.4584 3.9006C11.5568 3.95192 11.6335 3.99572 11.6869 4.02756C11.7136 4.04341 11.7353 4.05708 11.7504 4.06662L11.7739 4.08224L11.7758 4.08322L11.7768 4.0842H11.7778L11.8559 4.14865C12.0193 4.31384 12.0504 4.57664 11.9164 4.77756C11.7635 5.00698 11.4537 5.06853 11.2241 4.91623C11.2229 4.91547 11.22 4.91372 11.2162 4.91135C11.2083 4.90632 11.1941 4.89818 11.1752 4.88693C11.137 4.86418 11.0764 4.82953 10.9955 4.78732C10.8334 4.70273 10.5877 4.58658 10.267 4.46994C9.62521 4.23656 8.68293 4.00026 7.50042 4.00021C6.3179 4.00021 5.37569 4.23657 4.73382 4.46994C4.41305 4.58658 4.16753 4.7027 4.0053 4.78732C3.92435 4.82956 3.86388 4.86414 3.82562 4.88693C3.80667 4.89822 3.79264 4.90628 3.7846 4.91135C3.7808 4.91375 3.77805 4.91542 3.77679 4.91623C3.5472 5.06876 3.23751 5.00683 3.08441 4.77756C2.93123 4.54779 2.99331 4.23737 3.22308 4.0842H3.22405L3.22503 4.08322L3.22698 4.08224L3.25042 4.06662C3.26558 4.05705 3.28722 4.04345 3.3139 4.02756C3.36741 3.99569 3.44401 3.95195 3.54241 3.9006C3.73955 3.79776 4.02565 3.66372 4.39202 3.53049C4.66887 3.42983 4.99189 3.32916 5.35784 3.24338C5.31813 3.18555 5.27305 3.12366 5.22112 3.06271C5.14272 2.9707 5.06512 2.89627 4.99847 2.84592C4.97844 2.83079 4.96156 2.82061 4.94866 2.81271C4.28453 2.90956 3.26837 3.26213 2.62151 3.59689C2.43716 3.83759 2.22526 4.25416 2.02581 4.74826C1.81268 5.27632 1.63654 5.83296 1.53948 6.22092C1.21844 7.50447 1.03429 9.06452 1.0014 10.5676C1.20801 10.8803 1.63271 11.2511 2.1723 11.5744C2.64953 11.8603 3.14597 12.0652 3.53753 12.1555C3.63775 12.015 3.7673 11.8265 3.89691 11.6281C3.94441 11.5554 3.98902 11.4834 4.03167 11.4172C3.93711 11.3804 3.84626 11.3453 3.76116 11.3078C3.36084 11.1314 3.06559 10.9525 2.86663 10.8127C2.76739 10.743 2.69204 10.6827 2.63909 10.6379C2.61268 10.6155 2.59198 10.5964 2.57659 10.5822C2.56892 10.5752 2.56204 10.5695 2.55706 10.5647C2.55463 10.5623 2.553 10.5596 2.5512 10.5578C2.55031 10.557 2.54898 10.5566 2.54827 10.5559L2.54632 10.5539C2.35122 10.3587 2.35135 10.0422 2.54632 9.84689C2.74143 9.65179 3.05708 9.6521 3.25237 9.84689L3.25335 9.84592H3.25237L3.25042 9.84396V9.84299C3.25054 9.8431 3.25181 9.84457 3.25433 9.84689C3.25956 9.85172 3.27014 9.86116 3.28558 9.87424C3.31655 9.90045 3.36802 9.94248 3.44183 9.99435C3.58964 10.0982 3.82669 10.2443 4.16351 10.3928C4.83586 10.6891 5.91752 11.0001 7.49944 11.0002C9.08127 11.0002 10.1629 10.689 10.8354 10.3928C11.1723 10.2443 11.4101 10.0983 11.558 9.99435C11.6318 9.94253 11.6833 9.90045 11.7143 9.87424C11.7296 9.86127 11.7402 9.85178 11.7455 9.84689L11.7475 9.84494V9.84592L11.7465 9.84689C11.9418 9.65166 12.2583 9.65171 12.4535 9.84689C12.6486 10.0422 12.6487 10.3587 12.4535 10.5539L12.1957 10.2961C12.4237 10.5242 12.4497 10.5507 12.4526 10.5539V10.5549L12.4516 10.5559C12.4508 10.5565 12.4495 10.557 12.4487 10.5578C12.4469 10.5596 12.4452 10.5624 12.4428 10.5647C12.4378 10.5694 12.4309 10.5752 12.4233 10.5822C12.4079 10.5964 12.3872 10.6156 12.3608 10.6379C12.3078 10.6828 12.2316 10.7429 12.1323 10.8127C11.9333 10.9525 11.6387 11.1316 11.2387 11.3078C11.1529 11.3456 11.0616 11.3811 10.9662 11.4182C11.0087 11.4842 11.0537 11.5557 11.101 11.6281C11.2306 11.8265 11.3602 12.0151 11.4604 12.1555C11.8519 12.0651 12.3485 11.8603 12.8256 11.5744C13.3651 11.2512 13.7899 10.8803 13.9965 10.5676C13.9636 9.06454 13.7795 7.50446 13.4584 6.22092C13.3614 5.83299 13.1852 5.27629 12.9721 4.74826C12.7727 4.25424 12.5607 3.83761 12.3764 3.59689C11.7296 3.26217 10.7134 2.90961 10.0492 2.81271C10.0364 2.82059 10.0194 2.83085 9.99944 2.84592ZM5.00042 6.59982C5.34548 6.60155 5.67583 6.74984 5.91937 7.01193C6.163 7.27431 6.30023 7.62998 6.30023 8.00021C6.30017 8.37036 6.16295 8.7252 5.91937 8.98752C5.67581 9.24978 5.3456 9.3979 5.00042 9.39963C4.65511 9.39798 4.32413 9.24989 4.0805 8.98752C3.837 8.72522 3.70067 8.37029 3.70062 8.00021C3.70062 7.62998 3.83687 7.27431 4.0805 7.01193C4.32412 6.74964 4.65517 6.60147 5.00042 6.59982ZM9.99847 6.59982C10.3437 6.60147 10.6748 6.74969 10.9184 7.01193C11.162 7.27431 11.2992 7.62998 11.2992 8.00021C11.2992 8.37033 11.1619 8.72521 10.9184 8.98752C10.6748 9.24989 10.3438 9.39798 9.99847 9.39963C9.65332 9.39786 9.32305 9.24978 9.07952 8.98752C8.83595 8.7252 8.69872 8.37035 8.69866 8.00021C8.69866 7.62998 8.83589 7.27431 9.07952 7.01193C9.32303 6.74983 9.65343 6.60159 9.99847 6.59982Z" fill="black"/>
</g>
<defs>
<clipPath id="clip0_17_2021">
<rect width="15" height="15" fill="white"/>
</clipPath>
</defs>
</svg>
