<svg width="15" height="15" viewBox="0 0 15 15" fill="none" xmlns="http://www.w3.org/2000/svg">
<path d="M7.14645 8.14645C7.34171 7.95118 7.65822 7.95118 7.85348 8.14645L11.8535 12.1464C12.0487 12.3417 12.0487 12.6582 11.8535 12.8535C11.6582 13.0487 11.3417 13.0487 11.1464 12.8535L7.49996 9.20699L3.85348 12.8535C3.65822 13.0487 3.34171 13.0487 3.14645 12.8535C2.95118 12.6582 2.95118 12.3417 3.14645 12.1464L7.14645 8.14645ZM7.14645 2.14645C7.34171 1.95118 7.65822 1.95118 7.85348 2.14645L11.8535 6.14645C12.0487 6.34171 12.0487 6.65822 11.8535 6.85348C11.6582 7.04874 11.3417 7.04874 11.1464 6.85348L7.49996 3.20699L3.85348 6.85348C3.65822 7.04874 3.34171 7.04874 3.14645 6.85348C2.95118 6.65822 2.95118 6.34171 3.14645 6.14645L7.14645 2.14645Z" fill="black"/>
</svg>
