<svg width="15" height="15" viewBox="0 0 15 15" fill="none" xmlns="http://www.w3.org/2000/svg">
<path d="M11.1464 8.14645C11.3417 7.95118 11.6582 7.95118 11.8535 8.14645C12.0487 8.34171 12.0487 8.65822 11.8535 8.85348L7.85348 12.8535C7.65822 13.0487 7.34171 13.0487 7.14645 12.8535L3.14645 8.85348C2.95118 8.65822 2.95118 8.34171 3.14645 8.14645C3.34171 7.95118 3.65822 7.95118 3.85348 8.14645L7.49996 11.7929L11.1464 8.14645ZM11.1464 2.14645C11.3417 1.95118 11.6582 1.95118 11.8535 2.14645C12.0487 2.34171 12.0487 2.65822 11.8535 2.85348L7.85348 6.85348C7.65822 7.04874 7.34171 7.04874 7.14645 6.85348L3.14645 2.85348C2.95118 2.65822 2.95118 2.34171 3.14645 2.14645C3.34171 1.95118 3.65822 1.95118 3.85348 2.14645L7.49996 5.79293L11.1464 2.14645Z" fill="black"/>
</svg>
