<svg width="15" height="15" viewBox="0 0 15 15" fill="none" xmlns="http://www.w3.org/2000/svg">
<path d="M2.14645 3.14645C2.34171 2.95118 2.65822 2.95118 2.85348 3.14645L6.85348 7.14645C7.04874 7.34171 7.04874 7.65822 6.85348 7.85348L2.85348 11.8535C2.65822 12.0487 2.34171 12.0487 2.14645 11.8535C1.95118 11.6582 1.95118 11.3417 2.14645 11.1464L5.79293 7.49996L2.14645 3.85348C1.95118 3.65822 1.95118 3.34171 2.14645 3.14645ZM8.14645 3.14645C8.34171 2.95118 8.65822 2.95118 8.85348 3.14645L12.8535 7.14645C13.0487 7.34171 13.0487 7.65822 12.8535 7.85348L8.85348 11.8535C8.65822 12.0487 8.34171 12.0487 8.14645 11.8535C7.95118 11.6582 7.95118 11.3417 8.14645 11.1464L11.7929 7.49996L8.14645 3.85348C7.95118 3.65822 7.95118 3.34171 8.14645 3.14645Z" fill="black"/>
</svg>
