<svg width="15" height="15" viewBox="0 0 15 15" fill="none" xmlns="http://www.w3.org/2000/svg">
<path d="M6.14645 3.14645C6.34171 2.95118 6.65822 2.95118 6.85348 3.14645C7.04874 3.34171 7.04874 3.65822 6.85348 3.85348L3.20699 7.49996L6.85348 11.1464C7.04874 11.3417 7.04874 11.6582 6.85348 11.8535C6.65822 12.0487 6.34171 12.0487 6.14645 11.8535L2.14645 7.85348C1.95118 7.65822 1.95118 7.34171 2.14645 7.14645L6.14645 3.14645ZM12.1464 3.14645C12.3417 2.95118 12.6582 2.95118 12.8535 3.14645C13.0487 3.34171 13.0487 3.65822 12.8535 3.85348L9.20699 7.49996L12.8535 11.1464C13.0487 11.3417 13.0487 11.6582 12.8535 11.8535C12.6582 12.0487 12.3417 12.0487 12.1464 11.8535L8.14645 7.85348C7.95118 7.65822 7.95118 7.34171 8.14645 7.14645L12.1464 3.14645Z" fill="black"/>
</svg>
