<svg width="15" height="15" viewBox="0 0 15 15" fill="none" xmlns="http://www.w3.org/2000/svg">
<path d="M12.5 10.0002C12.7761 10.0002 13 10.2241 13 10.5002V12.0002C12.9999 13.1042 12.106 14.0002 11.001 14.0002H3.99609C2.89012 14.0001 2.0001 13.103 2 12.0002V10.5002C2 10.2241 2.22386 10.0002 2.5 10.0002C2.77614 10.0002 3 10.2241 3 10.5002V12.0002C3.0001 12.5539 3.44557 13.0001 3.99609 13.0002H11.001C11.5527 13.0002 11.9999 12.5529 12 12.0002V10.5002C12 10.2241 12.2239 10.0002 12.5 10.0002ZM7.5 1.05C7.74853 1.05 7.9502 1.25167 7.9502 1.5002V8.41328L10.1816 6.18184C10.3574 6.0061 10.6426 6.0061 10.8184 6.18184C10.994 6.35758 10.9941 6.64285 10.8184 6.81856L7.81836 9.81856C7.64264 9.99415 7.35734 9.99418 7.18164 9.81856L4.18164 6.81856C4.00595 6.64286 4.00603 6.35758 4.18164 6.18184C4.35738 6.0061 4.64262 6.0061 4.81836 6.18184L7.0498 8.41328V1.5002C7.0498 1.25169 7.25149 1.05003 7.5 1.05Z" fill="black"/>
</svg>
