<svg width="15" height="15" viewBox="0 0 15 15" fill="none" xmlns="http://www.w3.org/2000/svg">
<path d="M12.6074 1C13.3765 1.00015 13.9998 1.62355 14 2.39258V12.6074C13.9998 13.3765 13.3765 13.9998 12.6074 14H2.39258C1.62355 13.9998 1.00015 13.3765 1 12.6074V2.39258C1.00015 1.62355 1.62355 1.00015 2.39258 1H12.6074ZM2.39258 1.92871C2.13638 1.92886 1.92886 2.13638 1.92871 2.39258V12.6074C1.92886 12.8636 2.13638 13.0711 2.39258 13.0713H12.6074C12.8636 13.0711 13.0711 12.8636 13.0713 12.6074V2.39258C13.0711 2.13638 12.8636 1.92886 12.6074 1.92871H2.39258ZM7.5 3.5498C7.74853 3.5498 7.9502 3.75147 7.9502 4V9.91406L9.43164 8.43164C9.60737 8.25591 9.89262 8.25592 10.0684 8.43164C10.2441 8.60738 10.2441 8.89262 10.0684 9.06836L7.81836 11.3184C7.64262 11.4941 7.35737 11.4941 7.18164 11.3184L4.93164 9.06836C4.75593 8.89263 4.75594 8.60737 4.93164 8.43164C5.10737 8.25591 5.39262 8.25592 5.56836 8.43164L7.0498 9.91406V4C7.0498 3.75149 7.25149 3.54983 7.5 3.5498Z" fill="black"/>
</svg>
