<svg width="15" height="15" viewBox="0 0 15 15" fill="none" xmlns="http://www.w3.org/2000/svg">
<path d="M4.75 4C5.02613 4 5.24998 4.22387 5.25 4.5C5.25 4.77614 5.02614 5 4.75 5H3.5C3.22387 5 3.00002 5.22387 3 5.5V11.5C3 11.7761 3.22386 12 3.5 12H11.5C11.7761 12 12 11.7761 12 11.5V5.5C12 5.22387 11.7761 5 11.5 5H10.25C9.97386 5 9.75 4.77614 9.75 4.5C9.75002 4.22387 9.97387 4 10.25 4H11.5C12.3284 4 13 4.67159 13 5.5V11.5C13 12.3284 12.3284 13 11.5 13H3.5C2.67157 13 2 12.3284 2 11.5V5.5C2.00002 4.67159 2.67159 4 3.5 4H4.75ZM7.5 0C7.77613 1.28263e-05 8 0.223866 8 0.5V7.36328L9.43164 5.93164C9.60738 5.75594 9.89263 5.75591 10.0684 5.93164C10.244 6.10737 10.2441 6.39264 10.0684 6.56836L7.81836 8.81836C7.73399 8.90273 7.61932 8.95018 7.5 8.9502C7.38067 8.9502 7.26603 8.90272 7.18164 8.81836L4.93164 6.56836C4.7559 6.39262 4.7559 6.10738 4.93164 5.93164C5.10738 5.75594 5.39263 5.75591 5.56836 5.93164L7 7.36328V0.5C7 0.223858 7.22386 1.20706e-08 7.5 0Z" fill="black"/>
</svg>
