<svg width="15" height="15" viewBox="0 0 15 15" fill="none" xmlns="http://www.w3.org/2000/svg">
<circle cx="4.50002" cy="2.50002" r="0.6" fill="black"/>
<circle cx="4.50002" cy="4.49954" r="0.6" fill="black"/>
<circle cx="4.50002" cy="6.49905" r="0.6" fill="black"/>
<circle cx="4.50002" cy="8.49856" r="0.6" fill="black"/>
<circle cx="4.50002" cy="10.4981" r="0.6" fill="black"/>
<circle cx="4.50002" cy="12.4976" r="0.6" fill="black"/>
<circle cx="6.49954" cy="2.50002" r="0.6" fill="black"/>
<circle cx="6.49954" cy="4.49954" r="0.6" fill="black"/>
<circle cx="6.49954" cy="6.49905" r="0.6" fill="black"/>
<circle cx="6.49954" cy="8.49856" r="0.6" fill="black"/>
<circle cx="6.49954" cy="10.4981" r="0.6" fill="black"/>
<circle cx="6.49954" cy="12.4976" r="0.6" fill="black"/>
<circle cx="8.49905" cy="2.50002" r="0.6" fill="black"/>
<circle cx="8.49905" cy="4.49954" r="0.6" fill="black"/>
<circle cx="8.49905" cy="6.49905" r="0.6" fill="black"/>
<circle cx="8.49905" cy="8.49856" r="0.6" fill="black"/>
<circle cx="8.49905" cy="10.4981" r="0.6" fill="black"/>
<circle cx="8.49905" cy="12.4976" r="0.6" fill="black"/>
<circle cx="10.4986" cy="2.50002" r="0.6" fill="black"/>
<circle cx="10.4986" cy="4.49954" r="0.6" fill="black"/>
<circle cx="10.4986" cy="6.49905" r="0.6" fill="black"/>
<circle cx="10.4986" cy="8.49856" r="0.6" fill="black"/>
<circle cx="10.4986" cy="10.4981" r="0.6" fill="black"/>
<circle cx="10.4986" cy="12.4976" r="0.6" fill="black"/>
</svg>
