<svg width="15" height="15" viewBox="0 0 15 15" fill="none" xmlns="http://www.w3.org/2000/svg">
  <path fill-rule="evenodd" clip-rule="evenodd"
    d="M10.3285 1.13607C10.1332 0.940811 9.81661 0.940811 9.62135 1.13607C9.42609 1.33134 9.42609 1.64792 9.62135 1.84318L10.2744 2.49619L5.42563 6.13274L4.31805 5.02516C4.12279 4.8299 3.80621 4.8299 3.61094 5.02516C3.41568 5.22042 3.41568 5.537 3.61094 5.73227L5.02516 7.14648L6.08582 8.20714L2.81545 11.4775C2.62019 11.6728 2.62019 11.9894 2.81545 12.1846C3.01071 12.3799 3.32729 12.3799 3.52255 12.1846L6.79292 8.91425L7.85358 9.97491L9.2678 11.3891C9.46306 11.5844 9.77964 11.5844 9.9749 11.3891C10.1702 11.1939 10.1702 10.8773 9.9749 10.682L8.86733 9.57444L12.5039 4.7257L13.1569 5.37871C13.3521 5.57398 13.6687 5.57398 13.864 5.37871C14.0593 5.18345 14.0593 4.86687 13.864 4.67161L12.8033 3.61095L11.3891 2.19673L10.3285 1.13607ZM6.13991 6.84702L10.9886 3.21048L11.7896 4.01142L8.15304 8.86015L6.13991 6.84702Z"
    fill="currentColor" />
</svg>