<svg width="15" height="15" viewBox="0 0 15 15" fill="none" xmlns="http://www.w3.org/2000/svg">
<path d="M7.5 0C11.6421 0 15 3.35786 15 7.5C15 11.6421 11.6421 15 7.5 15C3.35786 15 0 11.6421 0 7.5C0 3.35786 3.35786 0 7.5 0ZM8.68652 8.50781C6.47969 9.20408 4.57309 10.5771 3.21094 12.3838C4.35547 13.3896 5.85656 14 7.5 14C7.86419 14 8.22147 13.9697 8.56934 13.9121C8.84938 12.9907 9 12.0129 9 11C9 10.1395 8.89091 9.30454 8.68652 8.50781ZM12 8C11.1947 8 10.4094 8.08671 9.65332 8.25098C9.8794 9.12966 10 10.0507 10 11C10 11.9041 9.89127 12.7833 9.68555 13.624C11.9973 12.7989 13.7051 10.7011 13.9658 8.1748C13.3281 8.05978 12.6708 8 12 8ZM7.83594 6.3125C6.64165 6.75688 5.34907 7 4 7C2.98235 7 1.99688 6.86216 1.06152 6.60352C1.02109 6.89657 1 7.19583 1 7.5C1 9.08257 1.5658 10.5329 2.50586 11.6602C3.9859 9.74851 6.03048 8.29608 8.38965 7.55273C8.23256 7.125 8.04753 6.71053 7.83594 6.3125ZM12.3447 3.16699C11.3579 4.31492 10.138 5.25704 8.75879 5.91992C8.98857 6.36045 9.19002 6.81898 9.35938 7.29199C10.2091 7.10118 11.0927 7 12 7C12.6783 7 13.3436 7.05591 13.9912 7.16406C13.9132 5.63146 13.3042 4.2391 12.3447 3.16699ZM3.74414 2.19434C2.5782 3.02132 1.69596 4.22314 1.27441 5.62402C2.14077 5.86886 3.05527 6 4 6C5.16084 6 6.27592 5.80221 7.3125 5.43848C6.40721 4.08814 5.18133 2.97027 3.74414 2.19434ZM7.5 1C6.51282 1 5.57725 1.22051 4.73926 1.61426C6.15377 2.48106 7.3575 3.6584 8.25488 5.05176C9.55479 4.43966 10.7018 3.556 11.6221 2.47363C10.5003 1.55264 9.06465 1 7.5 1Z" fill="black"/>
</svg>
