<svg width="15" height="15" viewBox="0 0 15 15" fill="none" xmlns="http://www.w3.org/2000/svg">
  <path fill-rule="evenodd" clip-rule="evenodd"
    d="M7.5 15C11.6421 15 15 11.6421 15 7.5C15 3.35786 11.6421 0 7.5 0C3.35786 0 0 3.35786 0 7.5C0 11.6421 3.35786 15 7.5 15ZM8.25492 5.05224C9.55489 4.44013 10.7016 3.55625 11.6219 2.47383C10.5002 1.55284 9.06465 1 7.5 1C6.51277 1 5.57695 1.22009 4.73892 1.61388C6.15373 2.48078 7.35742 3.65859 8.25492 5.05224ZM7.31205 5.43847C6.40672 4.08808 5.18103 2.97052 3.74376 2.19458C2.57781 3.02157 1.69632 4.22326 1.27477 5.62416C2.14113 5.86899 3.05527 6 4 6C5.16084 6 6.27548 5.8022 7.31205 5.43847ZM12.3451 3.16687C13.3047 4.23908 13.9136 5.63172 13.9915 7.1645C13.3438 7.05631 12.6785 7 12 7C11.0927 7 10.2089 7.10069 9.3592 7.29152C9.18985 6.81851 8.98903 6.36048 8.75924 5.91995C10.1385 5.25702 11.3582 4.31491 12.3451 3.16687ZM12 8C11.1947 8 10.4097 8.08653 9.65366 8.25079C9.87975 9.12951 10 10.0507 10 11C10 11.9041 9.89091 12.7828 9.68519 13.6236C11.997 12.7985 13.7047 10.7014 13.9654 8.17507C13.3277 8.06005 12.6708 8 12 8ZM7.8357 6.31276C8.04729 6.71079 8.23277 7.12482 8.38986 7.55256C6.0305 8.2959 3.98574 9.74851 2.50563 11.6603C1.56558 10.5331 1 9.08257 1 7.5C1 7.1957 1.02091 6.89628 1.06138 6.6031C1.9968 6.86179 2.98226 7 4 7C5.34907 7 6.64141 6.75714 7.8357 6.31276ZM8.68693 8.5077C6.47983 9.20395 4.5733 10.5774 3.21105 12.3843C4.35557 13.3901 5.85656 14 7.5 14C7.86419 14 8.22138 13.97 8.56924 13.9125C8.84935 12.991 9 12.0131 9 11C9 10.1395 8.89132 9.30443 8.68693 8.5077Z"
    fill="currentColor" />
</svg>