<svg width="15" height="15" viewBox="0 0 15 15" fill="none" xmlns="http://www.w3.org/2000/svg">
<path d="M7.50015 11.5C7.77621 11.5001 8.00015 11.7239 8.00015 12V14.5C8.00015 14.7761 7.77621 14.9999 7.50015 15C7.22401 15 7.00015 14.7761 7.00015 14.5V12C7.00015 11.7239 7.22401 11.5 7.50015 11.5ZM2.18179 4.93164C2.35753 4.756 2.6428 4.75594 2.81851 4.93164L5.06851 7.18164C5.15284 7.26602 5.20034 7.3807 5.20034 7.5C5.20034 7.6193 5.15284 7.73398 5.06851 7.81836L2.81851 10.0684C2.64281 10.2441 2.35753 10.244 2.18179 10.0684C2.00605 9.89262 2.00605 9.60738 2.18179 9.43164L4.11343 7.5L2.18179 5.56836C2.00605 5.39262 2.00605 5.10738 2.18179 4.93164ZM12.1818 4.93164C12.3575 4.756 12.6428 4.75594 12.8185 4.93164C12.9941 5.10735 12.9941 5.39264 12.8185 5.56836L10.8859 7.5L12.8185 9.43164C12.9941 9.60735 12.9941 9.89264 12.8185 10.0684C12.6428 10.2441 12.3575 10.244 12.1818 10.0684L9.93179 7.81836C9.75605 7.64262 9.75605 7.35738 9.93179 7.18164L12.1818 4.93164ZM7.50015 5.75C7.77621 5.7501 8.00015 5.97392 8.00015 6.25V8.75C8.00015 9.02608 7.77621 9.2499 7.50015 9.25C7.22401 9.25 7.00015 9.02614 7.00015 8.75V6.25C7.00015 5.97386 7.22401 5.75 7.50015 5.75ZM7.50015 0C7.77621 9.84869e-05 8.00015 0.223918 8.00015 0.5V3C8.00015 3.27608 7.77621 3.4999 7.50015 3.5C7.22401 3.5 7.00015 3.27614 7.00015 3V0.5C7.00015 0.223858 7.22401 1.20706e-08 7.50015 0Z" fill="black"/>
</svg>
