<svg width="15" height="15" viewBox="0 0 15 15" fill="none" xmlns="http://www.w3.org/2000/svg">
<path d="M7.50015 12C7.77621 12.0001 8.00015 12.2239 8.00015 12.5C8.00015 12.7761 7.77621 12.9999 7.50015 13C7.22401 13 7.00015 12.7761 7.00015 12.5C7.00015 12.2239 7.22401 12 7.50015 12ZM7.50015 10C7.77621 10.0001 8.00015 10.2239 8.00015 10.5C8.00015 10.7761 7.77621 10.9999 7.50015 11C7.22401 11 7.00015 10.7761 7.00015 10.5C7.00015 10.2239 7.22401 10 7.50015 10ZM2.18179 4.93164C2.35753 4.756 2.6428 4.75594 2.81851 4.93164L5.06851 7.18164C5.15284 7.26602 5.20034 7.3807 5.20034 7.5C5.20034 7.6193 5.15284 7.73398 5.06851 7.81836L2.81851 10.0684C2.64281 10.2441 2.35753 10.244 2.18179 10.0684C2.00605 9.89262 2.00605 9.60738 2.18179 9.43164L4.11343 7.5L2.18179 5.56836C2.00605 5.39262 2.00605 5.10738 2.18179 4.93164ZM12.1818 4.93164C12.3575 4.756 12.6428 4.75594 12.8185 4.93164C12.9941 5.10735 12.9941 5.39264 12.8185 5.56836L10.8859 7.5L12.8185 9.43164C12.9941 9.60735 12.9941 9.89264 12.8185 10.0684C12.6428 10.2441 12.3575 10.244 12.1818 10.0684L9.93179 7.81836C9.75605 7.64262 9.75605 7.35738 9.93179 7.18164L12.1818 4.93164ZM7.50015 8C7.77621 8.0001 8.00015 8.22392 8.00015 8.5C8.00015 8.77608 7.77621 8.9999 7.50015 9C7.22401 9 7.00015 8.77614 7.00015 8.5C7.00015 8.22386 7.22401 8 7.50015 8ZM7.50015 6C7.77621 6.0001 8.00015 6.22392 8.00015 6.5C8.00015 6.77608 7.77621 6.9999 7.50015 7C7.22401 7 7.00015 6.77614 7.00015 6.5C7.00015 6.22386 7.22401 6 7.50015 6ZM7.50015 4C7.77621 4.0001 8.00015 4.22392 8.00015 4.5C8.00015 4.77608 7.77621 4.9999 7.50015 5C7.22401 5 7.00015 4.77614 7.00015 4.5C7.00015 4.22386 7.22401 4 7.50015 4ZM7.50015 2C7.77621 2.0001 8.00015 2.22392 8.00015 2.5C8.00015 2.77608 7.77621 2.9999 7.50015 3C7.22401 3 7.00015 2.77614 7.00015 2.5C7.00015 2.22386 7.22401 2 7.50015 2Z" fill="black"/>
</svg>
