<svg width="15" height="15" viewBox="0 0 15 15" fill="none" xmlns="http://www.w3.org/2000/svg">
<path d="M3 14C2.44771 14 2 13.5523 2 13L2 2C2 1.44771 2.44772 0.999999 3 0.999999L10.5 1C10.7761 1 11 1.22386 11 1.5C11 1.77614 10.7761 2 10.5 2L3 2L3 13L10.5 13C10.7761 13 11 13.2239 11 13.5C11 13.7761 10.7761 14 10.5 14L3 14ZM9.10352 10.1035C8.90825 10.2988 8.59175 10.2988 8.39648 10.1035L6.14648 7.85351C5.95122 7.65825 5.95122 7.34175 6.14648 7.14648L8.39649 4.89648C8.59175 4.70122 8.90825 4.70122 9.10352 4.89648C9.29878 5.09175 9.29878 5.40825 9.10352 5.60352L7.70703 7L14.5 7C14.7761 7 15 7.22386 15 7.5C15 7.77614 14.7761 8 14.5 8L7.70703 8L9.10352 9.39648C9.29878 9.59175 9.29878 9.90825 9.10352 10.1035Z" fill="black"/>
</svg>
