<svg width="15" height="15" viewBox="0 0 15 15" fill="none" xmlns="http://www.w3.org/2000/svg">
<path d="M7.05273 0.165448C7.33426 0.0246847 7.66574 0.0246844 7.94727 0.165448L14.4473 3.41545C14.7857 3.58484 14.9998 3.93053 15 4.309V12.0004C14.9998 12.5525 14.5522 13.0004 14 13.0004H1C0.447821 13.0004 0.000172476 12.5525 0 12.0004V4.309C0.000159368 3.93053 0.214278 3.58484 0.552734 3.41545L7.05273 0.165448ZM7.70996 8.19865C7.57874 8.26774 7.42126 8.26774 7.29004 8.19865L1 4.8842V12.0004H14V4.8842L7.70996 8.19865ZM1.43066 4.09318L7.5 7.29142L13.5684 4.09318L7.5 1.059L1.43066 4.09318Z" fill="black"/>
</svg>
