<svg width="15" height="15" viewBox="0 0 15 15" fill="none" xmlns="http://www.w3.org/2000/svg">
  <path fill-rule="evenodd" clip-rule="evenodd"
    d="M1 2C0.447715 2 0 2.44772 0 3V12C0 12.5523 0.447715 13 1 13H8C8.27614 13 8.5 12.7761 8.5 12.5C8.5 12.2239 8.27614 12 8 12H1V4.53297L7.25888 8.50495C7.40606 8.59835 7.59394 8.59835 7.74112 8.50495L14 4.53297V8C14 8.27614 14.2239 8.5 14.5 8.5C14.7761 8.5 15 8.27614 15 8V3C15 2.44772 14.5523 2 14 2H1ZM14 3.54994V3L1 3V3.54994C1.0826 3.54986 1.16621 3.57251 1.24112 3.62005L7.5 7.59203L13.7589 3.62005C13.8338 3.57251 13.9174 3.54986 14 3.54994Z"
    fill="currentColor" />
  <path fill-rule="evenodd" clip-rule="evenodd"
    d="M13.8536 9.14645C14.0488 9.34171 14.0488 9.65829 13.8536 9.85355L9.85355 13.8536C9.65829 14.0488 9.34171 14.0488 9.14645 13.8536C8.95118 13.6583 8.95118 13.3417 9.14645 13.1464L13.1464 9.14645C13.3417 8.95118 13.6583 8.95118 13.8536 9.14645Z"
    fill="currentColor" />
  <path fill-rule="evenodd" clip-rule="evenodd"
    d="M9.14645 9.14645C9.34171 8.95118 9.65829 8.95118 9.85355 9.14645L13.8536 13.1464C14.0488 13.3417 14.0488 13.6583 13.8536 13.8536C13.6583 14.0488 13.3417 14.0488 13.1464 13.8536L9.14645 9.85355C8.95118 9.65829 8.95118 9.34171 9.14645 9.14645Z"
    fill="currentColor" />
</svg>