<svg width="15" height="15" viewBox="0 0 15 15" fill="none" xmlns="http://www.w3.org/2000/svg">
  <path fill-rule="evenodd" clip-rule="evenodd"
    d="M1 2C0.447715 2 0 2.44772 0 3V12C0 12.5523 0.447715 13 1 13H8C8.27614 13 8.5 12.7761 8.5 12.5C8.5 12.2239 8.27614 12 8 12H1V4.53297L7.25888 8.50495C7.40606 8.59835 7.59394 8.59835 7.74112 8.50495L14 4.53297V8C14 8.27614 14.2239 8.5 14.5 8.5C14.7761 8.5 15 8.27614 15 8V3C15 2.44772 14.5523 2 14 2H1ZM14 3.54994V3L1 3V3.54994C1.0826 3.54986 1.16621 3.57251 1.24112 3.62005L7.5 7.59203L13.7589 3.62005C13.8338 3.57251 13.9174 3.54986 14 3.54994Z"
    fill="currentColor" />
  <path fill-rule="evenodd" clip-rule="evenodd"
    d="M11.5 7.17157C11.7762 7.17157 12 7.39543 12 7.67157V13.3284C12 13.6046 11.7762 13.8284 11.5 13.8284C11.2239 13.8284 11 13.6046 11 13.3284V7.67157C11 7.39543 11.2239 7.17157 11.5 7.17157Z"
    fill="currentColor" />
  <path fill-rule="evenodd" clip-rule="evenodd"
    d="M8.17158 10.5C8.17158 10.2239 8.39544 10 8.67158 10L14.3284 10C14.6046 10 14.8284 10.2239 14.8284 10.5C14.8284 10.7761 14.6046 11 14.3284 11L8.67158 11C8.39544 11 8.17158 10.7761 8.17158 10.5Z"
    fill="currentColor" />
</svg>