<svg width="15" height="15" viewBox="0 0 15 15" fill="none" xmlns="http://www.w3.org/2000/svg">
<path d="M11.5 7.17188C11.7761 7.17188 12 7.39573 12 7.67188V10H14.3281C14.6043 10 14.8281 10.2239 14.8281 10.5C14.8281 10.7761 14.6043 11 14.3281 11H12V13.3281C12 13.6043 11.7761 13.8281 11.5 13.8281C11.2239 13.8281 11 13.6043 11 13.3281V11H8.67188C8.39573 11 8.17187 10.7761 8.17188 10.5C8.17187 10.2239 8.39573 10 8.67188 10H11V7.67188C11 7.39574 11.2239 7.17188 11.5 7.17188ZM14 2C14.5523 2 15 2.44772 15 3V8C15 8.27614 14.7761 8.5 14.5 8.5C14.2239 8.5 14 8.27614 14 8V4.53223L7.74121 8.50488C7.59403 8.59829 7.40597 8.59829 7.25879 8.50488L1 4.53223V12H8C8.27614 12 8.5 12.2239 8.5 12.5C8.5 12.7761 8.27614 13 8 13H1C0.447715 13 4.0266e-09 12.5523 0 12V3C6.4426e-08 2.44772 0.447715 2 1 2H14ZM1 3.5498C1.05352 3.54977 1.10746 3.55948 1.15918 3.5791L1.24121 3.62012L7.5 7.5918L13.7588 3.62012C13.8337 3.57256 13.9174 3.54972 14 3.5498V3H1V3.5498Z" fill="black"/>
</svg>
