<svg width="15" height="15" viewBox="0 0 15 15" fill="none" xmlns="http://www.w3.org/2000/svg">
<path d="M11.7686 8C12.3156 8 12.8007 8.1767 13.1445 8.54688C13.4833 8.91175 13.6299 9.40473 13.6299 9.93164V10.2822C14.1387 10.329 14.5371 10.7573 14.5371 11.2783V13.4541C14.5371 14.0064 14.0894 14.4541 13.5371 14.4541H10C9.44772 14.4541 9 14.0064 9 13.4541V11.2783C9.00001 10.7573 9.39843 10.329 9.90723 10.2822V9.93262C9.90724 9.40539 10.0546 8.91285 10.3936 8.54785C10.7374 8.17767 11.2214 8.00013 11.7686 8ZM10 13.4541H13.5371V11.2783H10V13.4541ZM14 2C14.5523 2 15 2.44772 15 3V8C15 8.27614 14.7761 8.5 14.5 8.5C14.2239 8.5 14 8.27614 14 8V4.53223L7.74121 8.50488C7.59403 8.59829 7.40597 8.59829 7.25879 8.50488L1 4.53223V12H8C8.27614 12 8.5 12.2239 8.5 12.5C8.5 12.7761 8.27614 13 8 13H1C0.447715 13 4.0266e-09 12.5523 0 12V3C6.4426e-08 2.44772 0.447715 2 1 2H14ZM11.7686 9C11.4406 9.00012 11.2439 9.10153 11.126 9.22852C11.0032 9.36092 10.9072 9.58445 10.9072 9.93262V10.2783H12.6299V9.93164C12.6299 9.58277 12.5336 9.35939 12.4111 9.22754C12.2936 9.10109 12.0972 9 11.7686 9ZM1 3.5498C1.05352 3.54977 1.10746 3.55948 1.15918 3.5791L1.24121 3.62012L7.5 7.5918L13.7588 3.62012C13.8337 3.57256 13.9174 3.54972 14 3.5498V3H1V3.5498Z" fill="black"/>
</svg>
