<svg width="15" height="15" viewBox="0 0 15 15" fill="none" xmlns="http://www.w3.org/2000/svg">
  <path fill-rule="evenodd" clip-rule="evenodd"
    d="M1 2C0.447715 2 0 2.44772 0 3V12C0 12.5523 0.447715 13 1 13H8C8.27614 13 8.5 12.7761 8.5 12.5C8.5 12.2239 8.27614 12 8 12H1V4.53297L7.25888 8.50495C7.40606 8.59835 7.59394 8.59835 7.74112 8.50495L14 4.53297V8C14 8.27614 14.2239 8.5 14.5 8.5C14.7761 8.5 15 8.27614 15 8V3C15 2.44772 14.5523 2 14 2H1ZM14 3.54994V3L1 3V3.54994C1.0826 3.54986 1.16621 3.57251 1.24112 3.62005L7.5 7.59203L13.7589 3.62005C13.8338 3.57251 13.9174 3.54986 14 3.54994Z"
    fill="currentColor" />
  <path fill-rule="evenodd" clip-rule="evenodd"
    d="M10.9074 9.93267C10.9074 9.5842 11.0033 9.36055 11.1262 9.22818C11.2442 9.10111 11.4408 9 11.7691 9C12.0979 9 12.294 9.10098 12.4114 9.22749C12.5339 9.35934 12.6296 9.58254 12.6296 9.93141V10.2783H10.9074V9.93267ZM9.9074 10.2826V9.93267C9.9074 9.40537 10.0545 8.91269 10.3935 8.54767C10.7374 8.17734 11.2217 8 11.7691 8C12.3163 8 12.8004 8.17679 13.1442 8.54703C13.4831 8.91192 13.6296 9.40442 13.6296 9.93141V10.2826C14.1385 10.3293 14.537 10.7573 14.537 11.2783V13.4543C14.537 14.0066 14.0893 14.4543 13.537 14.4543H10C9.44772 14.4543 9 14.0066 9 13.4543V11.2783C9 10.7573 9.39852 10.3293 9.9074 10.2826ZM10 11.2783L13.537 11.2783L13.537 13.4543H10V11.2783Z"
    fill="currentColor" />
</svg>