<svg width="15" height="15" viewBox="0 0 15 15" fill="none" xmlns="http://www.w3.org/2000/svg">
<path d="M13.1465 9.14648C13.3417 8.95122 13.6583 8.95122 13.8535 9.14648C14.0488 9.34175 14.0488 9.65825 13.8535 9.85352L12.207 11.5L13.8535 13.1465C14.0488 13.3417 14.0488 13.6583 13.8535 13.8535C13.6583 14.0488 13.3417 14.0488 13.1465 13.8535L11.5 12.207L9.85352 13.8535C9.65825 14.0488 9.34175 14.0488 9.14648 13.8535C8.95122 13.6583 8.95122 13.3417 9.14648 13.1465L10.793 11.5L9.14648 9.85352C8.95122 9.65825 8.95122 9.34175 9.14648 9.14648C9.34175 8.95122 9.65825 8.95122 9.85352 9.14648L11.5 10.793L13.1465 9.14648ZM14 2C14.5523 2 15 2.44772 15 3V8C15 8.27614 14.7761 8.5 14.5 8.5C14.2239 8.5 14 8.27614 14 8V4.53223L7.74121 8.50488C7.59403 8.59829 7.40597 8.59829 7.25879 8.50488L1 4.53223V12H8C8.27614 12 8.5 12.2239 8.5 12.5C8.5 12.7761 8.27614 13 8 13H1C0.447715 13 4.0266e-09 12.5523 0 12V3C6.4426e-08 2.44772 0.447715 2 1 2H14ZM1 3.5498C1.05352 3.54977 1.10746 3.55948 1.15918 3.5791L1.24121 3.62012L7.5 7.5918L13.7588 3.62012C13.8337 3.57256 13.9174 3.54972 14 3.5498V3H1V3.5498Z" fill="black"/>
</svg>
