<svg width="16" height="15" viewBox="0 0 16 15" fill="none" xmlns="http://www.w3.org/2000/svg">
  <path fill-rule="evenodd" clip-rule="evenodd"
    d="M1 2C0.447715 2 0 2.44772 0 3V12C0 12.5523 0.447715 13 1 13H8C8.27614 13 8.5 12.7761 8.5 12.5C8.5 12.2239 8.27614 12 8 12H1V4.53297L7.25888 8.50495C7.40606 8.59835 7.59394 8.59835 7.74112 8.50495L14 4.53297V8C14 8.27614 14.2239 8.5 14.5 8.5C14.7761 8.5 15 8.27614 15 8V3C15 2.44772 14.5523 2 14 2H1ZM14 3.54994V3L1 3V3.54994C1.0826 3.54986 1.16621 3.57251 1.24112 3.62005L7.5 7.59203L13.7589 3.62005C13.8338 3.57251 13.9174 3.54986 14 3.54994Z"
    fill="currentColor" />
  <path fill-rule="evenodd" clip-rule="evenodd"
    d="M15.0377 8.84108C15.2636 9 15.3178 9.3119 15.1589 9.53773L11.9922 14.0377C11.9068 14.1591 11.7719 14.2362 11.624 14.2483C11.4761 14.2604 11.3305 14.2062 11.2266 14.1003L9.64322 12.4876C9.44976 12.2906 9.45266 11.974 9.6497 11.7806C9.84675 11.5871 10.1633 11.59 10.3568 11.787L11.5197 12.9715L14.3411 8.96223C14.5 8.7364 14.8119 8.68216 15.0377 8.84108Z"
    fill="currentColor" />
</svg>