<svg width="16" height="15" viewBox="0 0 16 15" fill="none" xmlns="http://www.w3.org/2000/svg">
<path d="M14.3408 8.96191C14.4998 8.73615 14.8123 8.68192 15.0381 8.84082C15.2638 8.99976 15.3181 9.31229 15.1592 9.53809L11.9922 14.0381C11.9068 14.1593 11.7718 14.236 11.624 14.248C11.4762 14.2601 11.3305 14.2064 11.2266 14.1006L9.64355 12.4873C9.4501 12.2903 9.45237 11.9737 9.64941 11.7803C9.84641 11.5869 10.163 11.5902 10.3564 11.7871L11.5195 12.9717L14.3408 8.96191ZM14 2C14.5523 2 15 2.44772 15 3V8C15 8.27614 14.7761 8.5 14.5 8.5C14.2239 8.5 14 8.27614 14 8V4.53223L7.74121 8.50488C7.59403 8.59829 7.40597 8.59829 7.25879 8.50488L1 4.53223V12H8C8.27614 12 8.5 12.2239 8.5 12.5C8.5 12.7761 8.27614 13 8 13H1C0.447715 13 4.0266e-09 12.5523 0 12V3C6.4426e-08 2.44772 0.447715 2 1 2H14ZM1 3.5498C1.05352 3.54977 1.10746 3.55948 1.15918 3.5791L1.24121 3.62012L7.5 7.5918L13.7588 3.62012C13.8337 3.57256 13.9174 3.54972 14 3.5498V3H1V3.5498Z" fill="black"/>
</svg>
