<svg width="15" height="15" viewBox="0 0 15 15" fill="none" xmlns="http://www.w3.org/2000/svg">
<path d="M6.55511 0.608872C6.9817 -0.106566 8.01803 -0.106396 8.44476 0.608872L14.8393 11.3374C15.2756 12.0705 14.7472 13.0003 13.894 13.0005H1.10589C0.25266 13.0002 -0.275092 12.0705 0.161556 11.3374L6.55511 0.608872ZM7.58636 1.12157C7.54758 1.0565 7.45327 1.0565 7.41449 1.12157L1.01995 11.8491C0.980661 11.9156 1.02867 12.0002 1.10589 12.0005H13.894C13.9713 12.0003 14.0191 11.9156 13.9799 11.8491L7.58636 1.12157ZM7.49945 9.72606C7.91366 9.72606 8.24945 10.0618 8.24945 10.4761C8.24942 10.8903 7.91365 11.2261 7.49945 11.2261C7.08546 11.2258 6.74947 10.8901 6.74945 10.4761C6.74945 10.062 7.08545 9.72631 7.49945 9.72606ZM7.50042 3.78661C7.8823 3.78682 8.18778 4.10421 8.17328 4.48582L8.01898 8.4868C8.00825 8.76566 7.77944 8.98659 7.50042 8.9868C7.22123 8.9868 6.99162 8.76579 6.98089 8.4868L6.8266 4.48582C6.81209 4.10408 7.11836 3.78661 7.50042 3.78661Z" fill="black"/>
</svg>
