<svg width="15" height="15" viewBox="0 0 15 15" fill="none" xmlns="http://www.w3.org/2000/svg">
<path d="M10.5 1C10.7761 1 11 1.22386 11 1.5C11 1.77614 10.7761 2 10.5 2H3V13H10.5C10.7761 13 11 13.2239 11 13.5C11 13.7761 10.7761 14 10.5 14H3C2.44772 14 2 13.5523 2 13V2C2 1.44772 2.44772 1 3 1H10.5ZM11.8965 4.89648C12.0917 4.70122 12.4083 4.70122 12.6035 4.89648L14.8535 7.14648C15.0488 7.34175 15.0488 7.65825 14.8535 7.85352L12.6035 10.1035C12.4083 10.2988 12.0917 10.2988 11.8965 10.1035C11.7012 9.90825 11.7012 9.59175 11.8965 9.39648L13.293 8H6.5C6.22386 8 6 7.77614 6 7.5C6 7.22386 6.22386 7 6.5 7H13.293L11.8965 5.60352L11.832 5.52539C11.7039 5.33131 11.7256 5.06735 11.8965 4.89648Z" fill="black"/>
</svg>
