<svg width="15" height="15" viewBox="0 0 15 15" fill="none" xmlns="http://www.w3.org/2000/svg">
<path d="M6.5 2C6.77614 2 7 2.22386 7 2.5C7 2.77614 6.77614 3 6.5 3H3V12H12V8.5C12 8.22386 12.2239 8 12.5 8C12.7761 8 13 8.22386 13 8.5V12C13 12.5523 12.5523 13 12 13H3C2.44772 13 2 12.5523 2 12V3C2 2.44772 2.44772 2 3 2H6.5ZM12.5 2C12.5327 2 12.5655 2.00242 12.5977 2.00879C12.6488 2.01889 12.696 2.03909 12.7402 2.06348C12.7806 2.08569 12.8193 2.1123 12.8535 2.14648C12.8874 2.18034 12.9134 2.21891 12.9355 2.25879C12.9601 2.30299 12.98 2.35024 12.9902 2.40137C12.9967 2.43389 13 2.46695 13 2.5V5.5C13 5.77614 12.7761 6 12.5 6C12.2239 6 12 5.77614 12 5.5V3.70703L6.85352 8.85352C6.65825 9.04878 6.34175 9.04878 6.14648 8.85352C5.95122 8.65825 5.95122 8.34175 6.14648 8.14648L11.293 3H9.5C9.22386 3 9 2.77614 9 2.5C9 2.22386 9.22386 2 9.5 2H12.5Z" fill="black"/>
</svg>
