<svg width="15" height="15" viewBox="0 0 15 15" fill="none" xmlns="http://www.w3.org/2000/svg">
<path d="M5.58296 12.5869C5.51135 12.8532 5.23708 13.0115 4.97065 12.9404C4.70418 12.8689 4.54515 12.5946 4.61616 12.3281L5.58296 12.5869ZM10.3828 12.3281C10.4538 12.5946 10.2957 12.8689 10.0292 12.9404C9.76278 13.0116 9.48861 12.8532 9.41694 12.5869L10.3828 12.3281ZM14.0761 6.2353C14.2224 6.00119 14.5305 5.92991 14.7646 6.07612C14.9985 6.2225 15.0699 6.53053 14.9238 6.7646C14.4847 7.46711 13.9621 8.1054 13.3691 8.66206L14.5712 9.86421L14.6357 9.94233C14.7636 10.1364 14.742 10.4005 14.5712 10.5712C14.4005 10.742 14.1364 10.7636 13.9423 10.6357L13.8642 10.5712L12.5996 9.30659C11.8034 9.90133 10.9078 10.3604 9.93257 10.6494L10.3828 12.3281L9.89936 12.457L9.41694 12.5869L8.95796 10.8769C8.48655 10.9573 7.99993 10.9999 7.49995 10.9999C6.99936 10.9999 6.51193 10.9574 6.03999 10.8769L5.58296 12.5869L5.09956 12.457L4.61616 12.3281L5.06636 10.6494C4.0912 10.3603 3.19549 9.90136 2.39936 9.30659L1.13569 10.5712C0.940495 10.7664 0.623916 10.7663 0.42866 10.5712C0.23342 10.376 0.233466 10.0595 0.42866 9.86421L1.62983 8.66206C1.03697 8.10551 0.515101 7.46692 0.0761207 6.7646C-0.0700885 6.53045 0.00119147 6.22244 0.2353 6.07612C0.469439 5.92996 0.777471 6.00121 0.923777 6.2353C2.34341 8.50644 4.69226 9.99995 7.49995 9.99995C10.3076 9.99988 12.6565 8.50649 14.0761 6.2353Z" fill="black"/>
</svg>
