<svg width="15" height="15" viewBox="0 0 15 15" fill="none" xmlns="http://www.w3.org/2000/svg">
<path d="M7.4996 3C10.6917 3 13.343 4.70682 14.9234 7.23535C15.0246 7.3974 15.0246 7.6026 14.9234 7.76465C13.343 10.2932 10.6917 12 7.4996 12C4.30765 11.9999 1.6561 10.2932 0.0757748 7.76465C-0.0252546 7.60269 -0.025262 7.39731 0.0757748 7.23535C1.6561 4.70682 4.30765 3.00015 7.4996 3ZM7.4996 4C4.8033 4.00014 2.5325 5.37916 1.09921 7.5C2.5325 9.62083 4.8033 10.9999 7.4996 11C10.1958 11 12.4656 9.62057 13.899 7.5C12.4656 5.37941 10.1958 4 7.4996 4ZM7.4996 5.5C8.60417 5.5 9.4996 6.39543 9.4996 7.5C9.4996 8.60457 8.60417 9.5 7.4996 9.5C6.39522 9.49978 5.4996 8.60443 5.4996 7.5C5.4996 6.39557 6.39522 5.50022 7.4996 5.5Z" fill="black"/>
</svg>
