<svg width="15" height="15" viewBox="0 0 15 15" fill="none" xmlns="http://www.w3.org/2000/svg">
<path d="M12.6461 1.64662C12.8413 1.45141 13.1578 1.4515 13.3531 1.64662C13.5484 1.84188 13.5484 2.15839 13.3531 2.35365L11.6373 4.0685C12.9753 4.81478 14.0962 5.91199 14.9234 7.23549C15.0246 7.39754 15.0246 7.60273 14.9234 7.76479C13.343 10.2932 10.6916 12.0001 7.4996 12.0001C6.36213 12.0001 5.2941 11.7813 4.31796 11.3878L2.35312 13.3537C2.15783 13.5486 1.84126 13.5488 1.64609 13.3537C1.45106 13.1585 1.45115 12.8419 1.64609 12.6466L3.36093 10.9308C2.02368 10.1845 0.902638 9.08776 0.0757748 7.76479C-0.0252954 7.60284 -0.0252211 7.39746 0.0757748 7.23549C1.6561 4.70696 4.30765 3.00028 7.4996 3.00014C8.63673 3.00014 9.70534 3.21733 10.6812 3.61049L12.6461 1.64662ZM5.09531 10.6105C5.84613 10.8634 6.65178 11.0001 7.4996 11.0001C10.1958 11.0001 12.4656 9.62066 13.899 7.50014C13.1223 6.35094 12.0988 5.42195 10.8961 4.80971L5.09531 10.6105ZM7.4996 4.00014C4.8033 4.00028 2.5325 5.37929 1.09921 7.50014C1.87569 8.64908 2.89969 9.57735 4.10214 10.1896L9.90292 4.38881C9.15256 4.13617 8.34693 4.00014 7.4996 4.00014Z" fill="black"/>
</svg>
