<svg width="15" height="15" viewBox="0 0 15 15" fill="none" xmlns="http://www.w3.org/2000/svg">
<path d="M2.09832 4.61112C3.19683 6.19892 4.91409 7.22222 6.94444 7.22222C7.14542 7.22222 7.34332 7.2122 7.53786 7.19259C7.31928 7.49628 7.15871 7.84451 7.07238 8.22106C7.02986 8.22184 6.98721 8.22222 6.94444 8.22222C4.41897 8.22222 2.32306 6.8714 1.076 4.87612C0.974667 4.71399 0.974666 4.50826 1.076 4.34612C2.32306 2.35082 4.41897 1 6.94444 1C9.46992 1 11.5658 2.35082 12.8129 4.34612C12.9142 4.50826 12.9142 4.71399 12.8129 4.87612C12.4364 5.47855 11.5197 6.53451 11 7C10.69 6.79091 10.3802 6.57476 10 6.5C10.5244 6.10175 11.4052 5.1681 11.7906 4.61112C10.6921 3.0233 8.9748 2 6.94444 2C4.91409 2 3.19683 3.0233 2.09832 4.61112Z" fill="black"/>
<path d="M8.5 4.61111C8.5 5.47022 7.80355 6.16667 6.94444 6.16667C6.08533 6.16667 5.38889 5.47022 5.38889 4.61111C5.38889 3.752 6.08533 3.05556 6.94444 3.05556C7.80355 3.05556 8.5 3.752 8.5 4.61111Z" fill="black"/>
<path d="M9.18945 6C10.951 6 12.3797 7.42793 12.3799 9.18945L12.376 9.35449C12.3436 9.99164 12.1232 10.5788 11.7705 11.0635L13.7969 13.0898L13.8604 13.168C13.9885 13.362 13.9677 13.626 13.7969 13.7969C13.626 13.9677 13.362 13.9885 13.168 13.8604L13.0898 13.7969L11.0615 11.7686C10.5352 12.1511 9.88974 12.3799 9.18945 12.3799L9.02539 12.376C7.3401 12.2904 6 10.896 6 9.18945C6.00023 7.42807 7.42807 6.00023 9.18945 6ZM9.18945 7C7.98035 7.00023 7.00023 7.98035 7 9.18945C7 10.3987 7.98021 11.3797 9.18945 11.3799C10.3989 11.3799 11.3799 10.3989 11.3799 9.18945C11.3797 7.98021 10.3987 7 9.18945 7Z" fill="black"/>
</svg>
