<svg width="15" height="15" viewBox="0 0 15 15" fill="none" xmlns="http://www.w3.org/2000/svg">
<path d="M8.39468 13.3654C8.39468 13.6686 8.6632 13.9034 8.95878 13.8357C11.8462 13.1735 14 10.5883 14 7.5C14 3.91015 11.0899 1 7.5 1C3.91015 1 1 3.91015 1 7.5C1 10.3208 2.79685 12.722 5.30841 13.6213C5.61458 13.7309 5.92094 13.492 5.92094 13.1667V9.39647C5.92094 9.12033 5.69708 8.89647 5.42094 8.89647H5.21429C4.93814 8.89647 4.71429 8.67262 4.71429 8.39647V7.50806C4.71429 7.23192 4.93814 7.00806 5.21429 7.00806H5.42094C5.69708 7.00806 5.92094 6.7842 5.92094 6.50806V5.47176C5.92094 5.4023 5.93053 5.25229 5.94972 5.02269C5.97034 4.79261 6.05667 4.55191 6.21157 4.29916C6.36504 4.04737 6.61395 3.82115 6.96022 3.62097C7.30505 3.42176 7.80334 3.32143 8.45367 3.32143H9.78571C10.0619 3.32143 10.2857 3.54529 10.2857 3.82143V4.82947C10.2857 5.10561 10.0619 5.32947 9.78571 5.32947H8.94429C8.81145 5.32947 8.68771 5.37963 8.57597 5.47852C8.46518 5.5774 8.40811 5.67146 8.40811 5.75876V6.50806C8.40811 6.7842 8.63197 7.00806 8.90811 7.00806H9.74342C10.0354 7.00806 10.2661 7.25722 10.237 7.54772C10.2312 7.60564 10.2252 7.66308 10.2191 7.72001L10.1447 8.32682C10.1372 8.37886 10.1296 8.42994 10.122 8.48006C10.0855 8.72115 9.87662 8.89696 9.63278 8.89696H8.89468C8.61854 8.89696 8.39468 9.12082 8.39468 9.39696V13.3654Z" fill="black"/>
</svg>
