<svg width="15" height="15" viewBox="0 0 15 15" fill="none" xmlns="http://www.w3.org/2000/svg">
<path d="M9.47485 1.05C10.8416 1.05 11.9502 2.15789 11.9504 3.52461L11.9377 3.77852C11.8662 4.48185 11.4985 5.09626 10.9631 5.5002C11.5617 5.95188 11.9503 6.66733 11.9504 7.47481L11.9377 7.72871C11.8107 8.9764 10.756 9.95029 9.47485 9.95039L9.22192 9.9377C8.76667 9.89142 8.34856 9.72033 8.00024 9.46114V11.425L7.98755 11.6789C7.86042 12.9265 6.80585 13.9006 5.52466 13.9006L5.27173 13.8879C4.02394 13.7611 3.05025 12.7062 3.05005 11.425C3.05017 10.618 3.43756 9.90212 4.0354 9.45039C3.43732 8.99844 3.05011 8.28208 3.05005 7.47481C3.05017 6.66794 3.43777 5.95291 4.0354 5.50117C3.43706 5.04921 3.05005 4.33213 3.05005 3.52461C3.05026 2.15802 4.15806 1.05021 5.52466 1.05H9.47485ZM5.52466 9.95039C4.71035 9.9506 4.05026 10.6107 4.05005 11.425C4.05026 12.2393 4.71035 12.9004 5.52466 12.9006C6.33915 12.9006 7.00003 12.2394 7.00024 11.425V9.95039H5.52466ZM5.52466 6.0002C4.71035 6.00041 4.05026 6.6605 4.05005 7.47481C4.05015 8.28921 4.71028 8.95018 5.52466 8.95039H7.00024V6.0002H5.52466ZM9.47485 6.0002C8.66054 6.00041 8.00046 6.6605 8.00024 7.47481C8.00034 8.28921 8.66047 8.95018 9.47485 8.95039C10.2893 8.95029 10.9503 8.28928 10.9504 7.47481C10.9502 6.66043 10.2893 6.0003 9.47485 6.0002ZM8.00024 5.0002H9.47485C10.2895 5.0002 10.9504 4.33923 10.9504 3.52461C10.9502 2.71017 10.2893 2.05 9.47485 2.05H8.00024V5.0002ZM5.52466 2.05C4.71035 2.05021 4.05026 2.7103 4.05005 3.52461C4.05005 4.3391 4.71022 4.99999 5.52466 5.0002H7.00024V2.05H5.52466Z" fill="black"/>
</svg>
