<svg width="15" height="15" viewBox="0 0 15 15" fill="none" xmlns="http://www.w3.org/2000/svg">
<path fill-rule="evenodd" clip-rule="evenodd" d="M3.5 2C3.22386 2 3 2.22386 3 2.5V12.5C3 12.7761 3.22386 13 3.5 13H11.5C11.7761 13 12 12.7761 12 12.5V4.70711L9.29289 2H3.5ZM2 2.5C2 1.67157 2.67157 1 3.5 1H9.5C9.63261 1 9.75979 1.05268 9.85355 1.14645L12.7803 4.07322C12.921 4.21388 13 4.40464 13 4.60355V12.5C13 13.3284 12.3284 14 11.5 14H3.5C2.67157 14 2 13.3284 2 12.5V2.5Z" fill="black"/>
<path fill-rule="evenodd" clip-rule="evenodd" d="M5.78092 7.03179V6.76522C5.78092 6.28911 5.91381 5.83828 6.22582 5.50233C6.54275 5.16107 6.98728 5 7.48351 5C7.97945 5 8.42385 5.16056 8.7407 5.50177C9.05257 5.83763 9.18498 6.28831 9.18498 6.76411V7.03177C9.64212 7.12388 9.98638 7.52776 9.98638 8.01205V9.81679C9.98638 10.3691 9.53867 10.8168 8.98638 10.8168H5.97961C5.42733 10.8168 4.97961 10.3691 4.97961 9.81679V8.01205C4.97961 7.5278 5.32382 7.12394 5.78092 7.03179ZM6.78092 6.76522C6.78092 6.46793 6.86262 6.28615 6.95856 6.18284C7.04957 6.08484 7.20634 6 7.48351 6C7.76107 6 7.91739 6.08475 8.00791 6.18223C8.10339 6.28505 8.18498 6.46643 8.18498 6.76411V7.01205H6.78092V6.76522ZM5.97961 9.81679V8.01205H8.98638V9.81679H5.97961Z" fill="black"/>
</svg>
