<svg width="15" height="15" viewBox="0 0 15 15" fill="none" xmlns="http://www.w3.org/2000/svg">
<path d="M7.49988 14.2457C7.94158 14.2457 8.37364 14.2024 8.79189 14.1196C9.04923 14.0687 9.21658 13.8188 9.16567 13.5615C9.11476 13.3041 8.86487 13.1368 8.60752 13.1877C8.38538 13.2316 8.15844 13.2626 7.92749 13.2798C7.97337 13.2042 7.99979 13.1156 7.99979 13.0207L7.99979 1.9717C8.20584 1.98967 8.4086 2.01864 8.60752 2.05799C8.86487 2.1089 9.11476 1.94155 9.16567 1.6842C9.21658 1.42686 9.04923 1.17696 8.79189 1.12605C8.37364 1.04331 7.94158 1 7.49988 1C7.32694 1 7.17558 1.09243 7.09251 1.23058C7.03413 1.31239 6.99979 1.41253 6.99979 1.52069L6.99979 13.0207C6.99979 13.1791 7.07349 13.3204 7.18847 13.412C7.08825 13.4991 7.02488 13.6275 7.02488 13.7707C7.02488 14.033 7.23754 14.2457 7.49988 14.2457Z" fill="black"/>
<path d="M10.6515 12.3404C10.4335 12.4864 10.3751 12.7814 10.521 12.9994C10.6669 13.2174 10.962 13.2758 11.18 13.1299C11.902 12.6465 12.5235 12.0249 13.0069 11.3029C13.1529 11.0849 13.0944 10.7899 12.8765 10.644C12.6585 10.498 12.3634 10.5564 12.2175 10.7744C11.8032 11.3932 11.2703 11.9261 10.6515 12.3404Z" fill="black"/>
<path d="M13.0647 8.73047C13.0138 8.98782 13.1812 9.23772 13.4385 9.28863C13.6959 9.33954 13.9458 9.17219 13.9967 8.91484C14.0794 8.49659 14.1227 8.06454 14.1227 7.62283C14.1227 7.18113 14.0794 6.74908 13.9967 6.33083C13.9457 6.07348 13.6959 5.90613 13.4385 5.95704C13.1812 6.00796 13.0138 6.25785 13.0647 6.5152C13.1355 6.87305 13.1727 7.24337 13.1727 7.62283C13.1727 8.0023 13.1355 8.37262 13.0647 8.73047Z" fill="black"/>
<path d="M12.2175 4.47126C12.3634 4.68925 12.6585 4.74766 12.8765 4.60172C13.0944 4.45577 13.1528 4.16075 13.0069 3.94275C12.5235 3.22073 11.902 2.59919 11.18 2.11581C10.962 1.96986 10.6669 2.02827 10.521 2.24626C10.3751 2.46425 10.4335 2.75928 10.6515 2.90522C11.2703 3.31953 11.8032 3.85243 12.2175 4.47126Z" fill="black"/>
<path fill-rule="evenodd" clip-rule="evenodd" d="M7.49988 14.2457C3.84222 14.2457 0.877077 11.2805 0.877078 7.62286C0.877078 3.9652 3.84222 1 7.49988 1L7.49991 1.95003C4.36692 1.95003 1.82708 4.48987 1.82708 7.62286C1.82708 10.7559 4.36692 13.2957 7.49991 13.2957L7.49988 14.2457Z" fill="black"/>
</svg>
