<svg width="15" height="15" viewBox="0 0 15 15" fill="none" xmlns="http://www.w3.org/2000/svg">
<path d="M7.49991 0.525024C7.05821 0.525024 6.62615 0.568331 6.2079 0.651074C5.95055 0.701985 5.7832 0.951878 5.83412 1.20923C5.88503 1.46657 6.13492 1.63392 6.39227 1.58301C6.61441 1.53907 6.84135 1.50807 7.0723 1.49088C7.02642 1.56644 7 1.65514 7 1.75V12.799C6.79395 12.781 6.59119 12.7521 6.39227 12.7127C6.13492 12.6618 5.88503 12.8291 5.83412 13.0865C5.7832 13.3438 5.95055 13.5937 6.2079 13.6446C6.62615 13.7274 7.05821 13.7707 7.49991 13.7707C7.67285 13.7707 7.82421 13.6783 7.90728 13.5401C7.96566 13.4583 8 13.3582 8 13.25V1.75C8 1.59155 7.9263 1.45032 7.81131 1.35871C7.91154 1.27163 7.97491 1.14323 7.97491 1.00002C7.97491 0.737689 7.76224 0.525024 7.49991 0.525024Z" fill="black"/>
<path d="M4.34833 2.43024C4.56632 2.2843 4.62473 1.98927 4.47879 1.77128C4.33284 1.55329 4.03782 1.49488 3.81982 1.64082C3.0978 2.12421 2.47626 2.74575 1.99287 3.46777C1.84693 3.68577 1.90534 3.98079 2.12333 4.12674C2.34132 4.27268 2.63635 4.21427 2.78229 3.99628C3.19659 3.37744 3.72949 2.84454 4.34833 2.43024Z" fill="black"/>
<path d="M1.93506 6.04022C1.98597 5.78287 1.81862 5.53298 1.56128 5.48206C1.30393 5.43115 1.05404 5.5985 1.00312 5.85585C0.920382 6.2741 0.877075 6.70616 0.877075 7.14786C0.877075 7.58956 0.920382 8.02161 1.00313 8.43986C1.05404 8.69721 1.30393 8.86456 1.56128 8.81365C1.81863 8.76274 1.98598 8.51284 1.93506 8.25549C1.86427 7.89764 1.82708 7.52733 1.82708 7.14786C1.82708 6.76839 1.86427 6.39807 1.93506 6.04022Z" fill="black"/>
<path d="M2.7823 10.2994C2.63636 10.0814 2.34133 10.023 2.12334 10.169C1.90534 10.3149 1.84694 10.6099 1.99288 10.8279C2.47626 11.55 3.09781 12.1715 3.81983 12.6549C4.03782 12.8008 4.33285 12.7424 4.47879 12.5244C4.62473 12.3064 4.56632 12.0114 4.34833 11.8655C3.7295 11.4512 3.1966 10.9183 2.7823 10.2994Z" fill="black"/>
<path fill-rule="evenodd" clip-rule="evenodd" d="M7.49991 0.525024C11.1576 0.525024 14.1227 3.49015 14.1227 7.14783C14.1227 10.8055 11.1576 13.7707 7.49991 13.7707L7.49988 12.8207C10.6329 12.8207 13.1727 10.2808 13.1727 7.14783C13.1727 4.01482 10.6329 1.475 7.49988 1.475L7.49991 0.525024Z" fill="black"/>
</svg>
