<svg width="15" height="15" viewBox="0 0 15 15" fill="none" xmlns="http://www.w3.org/2000/svg">
<path d="M5.5 3C6.15293 3 6.70703 3.41766 6.91309 4H12.5C13.3284 4 14 4.67157 14 5.5V11.5C14 12.3284 13.3284 13 12.5 13H2.5C1.67157 13 1 12.3284 1 11.5V4.5C1 3.67157 1.67157 3 2.5 3H5.5ZM2.5 4C2.22386 4 2 4.22386 2 4.5V11.5C2 11.7761 2.22386 12 2.5 12H12.5C12.7761 12 13 11.7761 13 11.5V5.5C13 5.22386 12.7761 5 12.5 5H6.5C6.25829 5 6.05629 4.82855 6.00977 4.60059L5.99023 4.39941C5.94371 4.17145 5.74171 4 5.5 4H2.5ZM7.5 6C7.77614 6 8 6.22386 8 6.5V8H9.5C9.77614 8 10 8.22386 10 8.5C10 8.77614 9.77614 9 9.5 9H8V10.5C8 10.7761 7.77614 11 7.5 11C7.22386 11 7 10.7761 7 10.5V9H5.5C5.22386 9 5 8.77614 5 8.5C5 8.22386 5.22386 8 5.5 8H7V6.5C7 6.22386 7.22386 6 7.5 6Z" fill="black"/>
</svg>
