<svg width="15" height="15" viewBox="0 0 15 15" fill="none" xmlns="http://www.w3.org/2000/svg">
  <path fill-rule="evenodd" clip-rule="evenodd"
    d="M2 11.5V5.5V4.5L2 4.5C2 4.22386 2.22386 4 2.5 4L5.5 4C5.77614 4 6 4.22386 6 4.5C6 4.77614 6.22386 5 6.5 5H12.5C12.7761 5 13 5.22386 13 5.5V11.5C13 11.7761 12.7761 12 12.5 12H2.5C2.22386 12 2 11.7761 2 11.5ZM1 4.5V4.5V5.5V11.5C1 12.3284 1.67157 13 2.5 13H12.5C13.3284 13 14 12.3284 14 11.5V5.5C14 4.67157 13.3284 4 12.5 4H6.91465C6.70873 3.4174 6.15311 3 5.5 3H2.5C1.67157 3 1 3.67157 1 4.5ZM5.5 8C5.22386 8 5 8.22386 5 8.5C5 8.77614 5.22386 9 5.5 9H9.5C9.77614 9 10 8.77614 10 8.5C10 8.22386 9.77614 8 9.5 8H5.5Z"
    fill="currentColor" />
</svg>