<svg width="15" height="15" viewBox="0 0 15 15" fill="none" xmlns="http://www.w3.org/2000/svg">
  <path fill-rule="evenodd" clip-rule="evenodd"
    d="M2 5.5V11.5C2 11.7761 2.22386 12 2.5 12H12.5C12.7761 12 13 11.7761 13 11.5V5.5C13 5.22386 12.7761 5 12.5 5H6.5C6.22386 5 6 4.77614 6 4.5C6 4.22386 5.77614 4 5.5 4L2.5 4C2.22386 4 2 4.22386 2 4.5L2 5.5ZM6.91465 4H12.5C13.3284 4 14 4.67157 14 5.5V11.5C14 12.3284 13.3284 13 12.5 13H2.5C1.67157 13 1 12.3284 1 11.5V5.5V4.5C1 3.67157 1.67157 3 2.5 3H5.5C6.15311 3 6.70873 3.4174 6.91465 4Z"
    fill="currentColor" />
</svg>