<svg width="15" height="15" viewBox="0 0 15 15" fill="none" xmlns="http://www.w3.org/2000/svg">
<path d="M14.5 14C14.7761 14 15 14.2239 15 14.5C15 14.7761 14.7761 15 14.5 15H0.5C0.223858 15 0 14.7761 0 14.5C0 14.2239 0.223858 14 0.5 14H14.5ZM7.5 3C7.71067 3 7.89916 3.13194 7.9707 3.33008L10.9707 11.6504C11.064 11.91 10.9295 12.1964 10.6699 12.29C10.4102 12.3837 10.123 12.249 10.0293 11.9893L9.04785 9.26562H5.95215L4.9707 11.9893C4.87703 12.249 4.58985 12.3837 4.33008 12.29C4.07072 12.1963 3.93604 11.9099 4.0293 11.6504L7.0293 3.33008C7.1008 3.13194 7.28935 3.00006 7.5 3ZM6.25879 8.41602H8.74121L7.5 4.97363L6.25879 8.41602ZM14.5 0C14.7761 0 15 0.223858 15 0.5C15 0.776142 14.7761 1 14.5 1H0.5C0.223858 1 0 0.776142 0 0.5C0 0.223858 0.223858 0 0.5 0H14.5Z" fill="black"/>
</svg>
