<svg width="15" height="15" viewBox="0 0 15 15" fill="none" xmlns="http://www.w3.org/2000/svg">
<path d="M7.92841 0.650269C8.32533 0.650387 8.66974 0.925252 8.75751 1.31238L8.99481 2.36218C9.37414 2.47238 9.73661 2.62284 10.0759 2.80945L10.986 2.23523C11.3218 2.02355 11.76 2.07282 12.0407 2.35339L12.6472 2.95984C12.9278 3.24059 12.977 3.67872 12.7653 4.01453L12.1911 4.92468C12.3776 5.26373 12.5282 5.6257 12.6384 6.00476L13.6882 6.24304C14.0753 6.33091 14.3503 6.67518 14.3503 7.07214V7.92859C14.3503 8.32554 14.0752 8.66981 13.6882 8.75769L12.6384 8.99597C12.5281 9.37517 12.3767 9.73691 12.1901 10.076L12.7643 10.9872C12.9759 11.323 12.9268 11.7602 12.6462 12.0409L12.0407 12.6473C11.76 12.9281 11.3219 12.9772 10.986 12.7655L10.0749 12.1913C9.73587 12.3777 9.37383 12.5284 8.99481 12.6385L8.75751 13.6884C8.6697 14.0754 8.3253 14.3503 7.92841 14.3505H7.07098C6.67401 14.3505 6.32972 14.0755 6.24188 13.6884L6.0036 12.6376C5.62506 12.5275 5.2641 12.3765 4.92548 12.1903L4.01434 12.7655C3.67854 12.9772 3.24041 12.9279 2.95966 12.6473L2.35321 12.0409C2.07279 11.7603 2.02376 11.3229 2.23505 10.9872L2.81024 10.0751C2.62384 9.73616 2.47215 9.37488 2.362 8.99597L1.31219 8.75769C0.924996 8.6699 0.650085 8.32562 0.650085 7.92859V7.07214C0.650085 6.67511 0.924986 6.33083 1.31219 6.24304L2.362 6.00476C2.4721 5.62594 2.62295 5.26452 2.80927 4.92566L2.23505 4.01453C2.02332 3.67866 2.07246 3.24058 2.35321 2.95984L2.95868 2.35437C3.23943 2.07362 3.6775 2.02448 4.01337 2.23621L4.9245 2.81042C5.26341 2.62396 5.62469 2.47239 6.0036 2.36218L6.24188 1.31238C6.32966 0.925177 6.67396 0.650279 7.07098 0.650269H7.92841ZM6.71552 3.06824C6.05676 3.18408 5.44728 3.44329 4.92059 3.81238L3.56024 2.95496L2.9538 3.5614L3.81219 4.92175C3.44331 5.44843 3.18376 6.05801 3.06805 6.71667L1.49969 7.07214V7.92859L3.06805 8.28406C3.18381 8.9427 3.44327 9.55233 3.81219 10.079L2.95477 11.4403L3.56024 12.0458L4.92157 11.1884C5.44808 11.5572 6.05709 11.8167 6.71552 11.9325L7.07098 13.4999H7.92841L8.28387 11.9325C8.94265 11.8168 9.55204 11.5573 10.0788 11.1884L11.4391 12.0468L12.0456 11.4403L11.1882 10.08C11.5574 9.55314 11.8165 8.943 11.9323 8.28406L13.4997 7.92859V7.07214L11.9323 6.71667C11.8166 6.05779 11.5572 5.44758 11.1882 4.92078L12.0456 3.56042L11.4401 2.95496L10.0798 3.81238C9.55288 3.44321 8.94289 3.18397 8.28387 3.06824L7.92841 1.49988H7.07098L6.71552 3.06824ZM9.34149 4.96179C9.50048 4.73644 9.81213 4.68204 10.0378 4.8407C10.2636 4.99962 10.3178 5.31213 10.1589 5.53796L6.99188 10.038C6.90647 10.1591 6.7715 10.2359 6.62372 10.2479C6.47591 10.2599 6.33016 10.2063 6.22626 10.1005L4.64325 8.48816C4.44979 8.29111 4.45304 7.97361 4.65009 7.78015C4.84716 7.58711 5.16379 7.59008 5.35712 7.78699L6.5202 8.97156L9.34149 4.96179Z" fill="black"/>
</svg>
