<svg width="15" height="15" viewBox="0 0 15 15" fill="none" xmlns="http://www.w3.org/2000/svg">
<path d="M7.92834 0.650269C8.3253 0.650359 8.66968 0.925233 8.75745 1.31238L8.99475 2.36218C9.37407 2.47238 9.73655 2.62284 10.0758 2.80945L10.9869 2.23523C11.3226 2.02394 11.76 2.07299 12.0406 2.35339L12.6471 2.95984C12.9277 3.24059 12.977 3.67871 12.7653 4.01453L12.191 4.92468C12.3775 5.26372 12.5281 5.62571 12.6383 6.00476L13.6881 6.24304C14.0752 6.33089 14.3502 6.67517 14.3502 7.07214V7.92859C14.3502 8.32556 14.0752 8.66984 13.6881 8.75769L12.6383 8.99597C12.5281 9.37517 12.3767 9.73691 12.1901 10.076L12.7643 10.9872C12.9759 11.323 12.9268 11.7602 12.6461 12.0409L12.0406 12.6473C11.7599 12.9281 11.3218 12.9772 10.986 12.7655L10.0748 12.1913C9.73582 12.3777 9.37376 12.5284 8.99475 12.6385L8.75745 13.6884C8.66963 14.0754 8.32526 14.3504 7.92834 14.3505H7.07092C6.67397 14.3504 6.32965 14.0755 6.24182 13.6884L6.00354 12.6376C5.625 12.5275 5.26403 12.3765 4.92542 12.1903L4.01428 12.7655C3.67846 12.9772 3.24035 12.928 2.95959 12.6473L2.35315 12.0409C2.07276 11.7603 2.02372 11.3229 2.23499 10.9872L2.81018 10.0751C2.62379 9.73617 2.47209 9.37487 2.36194 8.99597L1.31213 8.75769C0.924966 8.66988 0.650024 8.3256 0.650024 7.92859V7.07214C0.650024 6.67513 0.924951 6.33084 1.31213 6.24304L2.36194 6.00476C2.47203 5.62594 2.6229 5.26452 2.8092 4.92566L2.23499 4.01453C2.02326 3.67866 2.0724 3.24058 2.35315 2.95984L2.95862 2.35437C3.23936 2.07362 3.67744 2.02448 4.01331 2.23621L4.92444 2.81042C5.26333 2.62397 5.62465 2.47239 6.00354 2.36218L6.24182 1.31238C6.3296 0.925196 6.67392 0.650307 7.07092 0.650269H7.92834ZM6.71545 3.06824C6.05669 3.18408 5.44722 3.44327 4.92053 3.81238L3.56018 2.95496L2.95374 3.5614L3.81213 4.92175C3.44325 5.44843 3.18369 6.05801 3.06799 6.71667L1.49963 7.07214V7.92859L3.06799 8.28406C3.18375 8.94269 3.44322 9.55234 3.81213 10.079L2.95471 11.4403L3.56018 12.0458L4.92151 11.1884C5.44803 11.5572 6.05701 11.8167 6.71545 11.9325L7.07092 13.4999H7.92834L8.28381 11.9325C8.94261 11.8168 9.55196 11.5573 10.0787 11.1884L11.4391 12.0468L12.0455 11.4403L11.1881 10.08C11.5573 9.55313 11.8164 8.94302 11.9323 8.28406L13.4996 7.92859V7.07214L11.9323 6.71667C11.8165 6.05779 11.5572 5.44758 11.1881 4.92078L12.0455 3.56042L11.4401 2.95496L10.0797 3.81238C9.55281 3.4432 8.94286 3.18396 8.28381 3.06824L7.92834 1.49988H7.07092L6.71545 3.06824ZM9.14612 5.14636C9.3413 4.95118 9.65787 4.95135 9.85315 5.14636C10.0484 5.34162 10.0484 5.65813 9.85315 5.85339L8.20667 7.49988L9.85315 9.14636C10.0484 9.34162 10.0484 9.65813 9.85315 9.85339C9.65788 10.0485 9.34134 10.0486 9.14612 9.85339L7.49963 8.20691L5.85315 9.85339C5.65788 10.0485 5.34134 10.0486 5.14612 9.85339C4.95114 9.65815 4.95105 9.34155 5.14612 9.14636L6.7926 7.49988L5.14612 5.85339C4.95114 5.65815 4.95105 5.34155 5.14612 5.14636C5.3413 4.95118 5.65787 4.95135 5.85315 5.14636L7.49963 6.79285L9.14612 5.14636Z" fill="black"/>
</svg>
