<svg width="15" height="15" viewBox="0 0 15 15" fill="none" xmlns="http://www.w3.org/2000/svg">
  <path fill-rule="evenodd" clip-rule="evenodd"
    d="M7.07101 0.650238C6.67397 0.650238 6.32983 0.925096 6.24204 1.31231L6.00396 2.36247C5.62496 2.47269 5.26341 2.62363 4.92442 2.81013L4.01341 2.23585C3.67754 2.02413 3.23984 2.07312 2.9591 2.35386L2.353 2.95996C2.07226 3.2407 2.02326 3.6784 2.23499 4.01427L2.80948 4.92561C2.62314 5.2645 2.47233 5.62594 2.36222 6.00481L1.31215 6.24287C0.924944 6.33065 0.650085 6.6748 0.650085 7.07183V7.92897C0.650085 8.32601 0.924944 8.67015 1.31215 8.75794L2.36234 8.99603C2.47252 9.375 2.62341 9.73652 2.80985 10.0755L2.23546 10.9867C2.02374 11.3225 2.07273 11.7602 2.35347 12.041L2.95957 12.6471C3.24031 12.9278 3.67801 12.9768 4.01388 12.7651L4.92512 12.1907C5.26391 12.377 5.62522 12.5278 6.00396 12.6379L6.24204 13.6881C6.32983 14.0753 6.67397 14.3502 7.07101 14.3502H7.92815C8.32518 14.3502 8.66933 14.0753 8.75711 13.6881L8.99511 12.6383C9.37417 12.5282 9.73579 12.3773 10.0748 12.1909L10.986 12.7653C11.3219 12.977 11.7596 12.928 12.0403 12.6473L12.6464 12.0412C12.9272 11.7604 12.9762 11.3227 12.7644 10.9869L12.1903 10.076C12.3768 9.73688 12.5278 9.37515 12.6381 8.99596L13.688 8.75794C14.0752 8.67015 14.35 8.32601 14.35 7.92897V7.07183C14.35 6.6748 14.0752 6.33065 13.688 6.24287L12.6382 6.00488C12.528 5.62578 12.3771 5.26414 12.1906 4.92507L12.7649 4.01407C12.9766 3.6782 12.9276 3.2405 12.6469 2.95975L12.0408 2.35366C11.7601 2.07292 11.3224 2.02392 10.9865 2.23565L10.0755 2.80989C9.73628 2.62328 9.37443 2.47229 8.99511 2.36209L8.75711 1.31231C8.66933 0.925096 8.32518 0.650238 7.92815 0.650238H7.07101ZM4.92059 3.81251C5.4473 3.44339 6.05671 3.18424 6.71549 3.06839L7.07101 1.50024H7.92815L8.28361 3.06816C8.94273 3.18387 9.55246 3.44302 10.0794 3.81224L11.4398 2.9547L12.0459 3.56079L11.1883 4.92117C11.5574 5.44798 11.8164 6.0575 11.9322 6.71638L13.5 7.07183V7.92897L11.9321 8.28444C11.8163 8.94342 11.5571 9.55301 11.1879 10.0798L12.0454 11.4402L11.4393 12.0462L10.0788 11.1886C9.55198 11.5576 8.94247 11.8166 8.28361 11.9323L7.92815 13.5002H7.07101L6.71549 11.932C6.05697 11.8162 5.44778 11.5572 4.92122 11.1883L3.56061 12.046L2.95452 11.4399L3.8122 10.0794C3.44316 9.55266 3.18409 8.94326 3.06831 8.2845L1.50009 7.92897V7.07183L3.06824 6.71632C3.18394 6.05765 3.44289 5.44833 3.81177 4.92165L2.95405 3.561L3.56014 2.95491L4.92059 3.81251ZM9.02502 7.50008C9.02502 8.34226 8.34229 9.02499 7.50011 9.02499C6.65792 9.02499 5.9752 8.34226 5.9752 7.50008C5.9752 6.65789 6.65792 5.97516 7.50011 5.97516C8.34229 5.97516 9.02502 6.65789 9.02502 7.50008ZM9.92502 7.50008C9.92502 8.83932 8.83935 9.92499 7.50011 9.92499C6.16087 9.92499 5.0752 8.83932 5.0752 7.50008C5.0752 6.16084 6.16087 5.07516 7.50011 5.07516C8.83935 5.07516 9.92502 6.16084 9.92502 7.50008Z"
    fill="currentColor" />
</svg>