<svg width="15" height="15" viewBox="0 0 15 15" fill="none" xmlns="http://www.w3.org/2000/svg">
<path d="M7.49939 0.849998C11.1723 0.850013 14.1498 3.82748 14.1498 7.50039C14.1497 10.4376 12.2463 12.9286 9.60583 13.81C9.26882 13.8748 9.14888 13.6676 9.1488 13.4896C9.1488 13.2716 9.15662 12.5542 9.15662 11.6654C9.15661 11.0449 8.94385 10.6393 8.70544 10.434C10.1865 10.2695 11.7414 9.7072 11.7416 7.15273C11.7416 6.42648 11.4842 5.83256 11.058 5.36758C11.1263 5.19902 11.3543 4.5231 10.9916 3.60781C10.9765 3.60321 10.4175 3.44127 9.16541 4.28945C8.63435 4.14209 8.06531 4.06869 7.50037 4.06582C6.93496 4.06868 6.36563 4.14208 5.83533 4.28945C4.58346 3.44187 4.0233 3.60292 4.0072 3.60781C3.6453 4.52298 3.87305 5.19891 3.94177 5.36758C3.51639 5.83256 3.2572 6.42648 3.2572 7.15273C3.25734 9.70067 4.80997 10.2707 6.2865 10.4389C6.09671 10.605 5.9241 10.8982 5.86365 11.3275C5.4847 11.4978 4.5212 11.7917 3.9281 10.7758C3.9281 10.7758 3.57702 10.1372 2.90955 10.0902C2.8914 10.0901 2.26958 10.0882 2.86462 10.4945C2.88017 10.502 3.30596 10.713 3.60291 11.4672C3.60789 11.4835 4.00521 12.7579 5.84314 12.3588C5.84641 12.9135 5.85193 13.3317 5.85193 13.4896C5.85185 13.666 5.73044 13.8708 5.39783 13.81C2.75538 12.9302 0.850049 10.438 0.849976 7.50039C0.849976 3.82747 3.82769 0.849998 7.49939 0.849998Z" fill="black"/>
</svg>
