<svg width="15" height="15" viewBox="0 0 15 15" fill="none" xmlns="http://www.w3.org/2000/svg">
  <path fill-rule="evenodd" clip-rule="evenodd"
    d="M7.49991 1.80004C4.35189 1.80004 1.79991 4.35201 1.79991 7.50004C1.79991 10.6481 4.35189 13.2 7.49991 13.2C10.6479 13.2 13.1999 10.6481 13.1999 7.50004C13.1999 4.35201 10.6479 1.80004 7.49991 1.80004ZM0.899915 7.50004C0.899915 3.85496 3.85484 0.900037 7.49991 0.900037C11.145 0.900037 14.0999 3.85496 14.0999 7.50004C14.0999 11.1451 11.145 14.1 7.49991 14.1C3.85484 14.1 0.899915 11.1451 0.899915 7.50004Z"
    fill="currentColor" />
  <path fill-rule="evenodd" clip-rule="evenodd"
    d="M13.4999 7.89999H1.49989V7.09999H13.4999V7.89999Z" fill="currentColor" />
  <path fill-rule="evenodd" clip-rule="evenodd" d="M7.09987 13.5V1.50001H7.89987V13.5H7.09987Z"
    fill="currentColor" />
  <path fill-rule="evenodd" clip-rule="evenodd"
    d="M10.3749 7.5C10.3749 5.32725 9.59359 3.1778 8.06178 1.75657L8.53788 1.24342C10.2395 2.8222 11.0749 5.17274 11.0749 7.5C11.0749 9.82725 10.2395 12.1778 8.53788 13.7566L8.06178 13.2434C9.59359 11.8222 10.3749 9.67274 10.3749 7.5Z"
    fill="currentColor" />
  <path fill-rule="evenodd" clip-rule="evenodd"
    d="M3.99965 7.50002C3.99964 5.17612 4.80781 2.82679 6.45763 1.2472L6.94172 1.75282C5.45815 3.17324 4.69964 5.32391 4.69965 7.50001C4.69965 9.67612 5.45817 11.8268 6.94174 13.2472L6.45764 13.7528C4.80783 12.1732 3.99965 9.82391 3.99965 7.50002Z"
    fill="currentColor" />
  <path fill-rule="evenodd" clip-rule="evenodd"
    d="M7.49991 3.95802C9.66923 3.95802 11.8752 4.35916 13.3706 5.19449C13.5394 5.28876 13.5997 5.50198 13.5055 5.67074C13.4112 5.83949 13.198 5.89988 13.0292 5.80561C11.6793 5.05156 9.60795 4.65802 7.49991 4.65802C5.39187 4.65802 3.32047 5.05156 1.97059 5.80561C1.80183 5.89988 1.58861 5.83949 1.49435 5.67074C1.40008 5.50198 1.46046 5.28876 1.62922 5.19449C3.12461 4.35916 5.33058 3.95802 7.49991 3.95802Z"
    fill="currentColor" />
  <path fill-rule="evenodd" clip-rule="evenodd"
    d="M7.49991 10.85C9.66923 10.85 11.8752 10.4488 13.3706 9.61351C13.5394 9.51925 13.5997 9.30603 13.5055 9.13727C13.4112 8.96851 13.198 8.90813 13.0292 9.0024C11.6793 9.75644 9.60795 10.15 7.49991 10.15C5.39187 10.15 3.32047 9.75644 1.97059 9.0024C1.80183 8.90813 1.58861 8.96852 1.49435 9.13727C1.40008 9.30603 1.46046 9.51925 1.62922 9.61352C3.12461 10.4488 5.33058 10.85 7.49991 10.85Z"
    fill="currentColor" />
</svg>