<svg width="15" height="15" viewBox="0 0 15 15" fill="none" xmlns="http://www.w3.org/2000/svg">
<path d="M7.49957 0.900024C11.1445 0.900024 14.0999 3.85474 14.1002 7.49963C14.1002 11.1447 11.1447 14.1002 7.49957 14.1002C3.85465 14.1 0.899963 11.1446 0.899963 7.49963C0.900181 3.85485 3.85478 0.900209 7.49957 0.900024ZM5.28375 10.7047C5.64403 11.6351 6.17088 12.4782 6.85895 13.1627C6.93888 13.1717 7.01926 13.1786 7.10016 13.1842V10.8453C6.48829 10.8314 5.87743 10.7834 5.28375 10.7047ZM9.77399 10.6979C9.16231 10.7813 8.53161 10.831 7.89996 10.8453V13.1842C7.98151 13.1785 8.06256 13.1718 8.14313 13.1627C8.8564 12.4763 9.40169 11.6307 9.77399 10.6979ZM2.35699 9.96252C3.02269 11.3503 4.23482 12.425 5.71344 12.9127C5.18367 12.2142 4.77769 11.4217 4.49469 10.5787C3.72358 10.4333 2.99767 10.2289 2.35699 9.96252ZM12.6412 9.96252C12.0183 10.2214 11.3151 10.4225 10.5679 10.567C10.2774 11.4103 9.86034 12.2029 9.31598 12.902C10.7808 12.4097 11.9799 11.3406 12.6412 9.96252ZM4.70856 7.90002C4.73865 8.60283 4.84908 9.29806 5.03668 9.96252C5.69825 10.0663 6.39459 10.1275 7.10016 10.1442V7.90002H4.70856ZM7.89996 10.1442C8.62885 10.1269 9.34786 10.0619 10.0289 9.95178C10.2209 9.29034 10.3349 8.59897 10.3658 7.90002H7.89996V10.1442ZM1.815 7.90002C1.84174 8.28563 1.90676 8.66042 2.00641 9.02112C2.63383 9.3655 3.41286 9.63281 4.27692 9.82092C4.12446 9.1935 4.03424 8.54779 4.00836 7.90002H1.815ZM11.066 7.90002C11.0395 8.5426 10.9473 9.18285 10.7925 9.8053C11.6286 9.61813 12.3823 9.35608 12.9927 9.02112C13.0924 8.66036 13.1584 8.28569 13.1851 7.90002H11.066ZM4.32672 4.97522C3.47348 5.15726 2.70155 5.41716 2.07379 5.75061C1.93531 6.18045 1.84741 6.63256 1.815 7.10022H4.00836C4.03703 6.38214 4.14242 5.666 4.32672 4.97522ZM7.10016 4.66272C6.41582 4.67891 5.73993 4.73646 5.09625 4.83459C4.87184 5.55977 4.74171 6.32549 4.70856 7.10022H7.10016V4.66272ZM7.89996 7.10022H10.3658C10.3317 6.32938 10.1972 5.56761 9.96735 4.84534C9.30465 4.74119 8.60689 4.67946 7.89996 4.66272V7.10022ZM10.7408 4.99084C10.9281 5.67676 11.0366 6.38728 11.066 7.10022H13.1851C13.1527 6.63248 13.0639 6.18052 12.9254 5.75061C12.3144 5.42616 11.5669 5.17198 10.7408 4.99084ZM5.71344 2.08655C4.32249 2.54531 3.1672 3.52378 2.48102 4.79358C3.11102 4.54359 3.81858 4.35147 4.56696 4.21448C4.84525 3.44837 5.22704 2.72776 5.71344 2.08655ZM9.31598 2.09729C9.81578 2.73904 10.208 3.45975 10.4937 4.2262C11.2193 4.36237 11.9054 4.55049 12.5181 4.79358C11.8368 3.53302 10.6935 2.56013 9.31598 2.09729ZM7.89996 3.96155C8.50206 3.97525 9.10331 4.02184 9.68805 4.09827C9.31962 3.24588 8.80413 2.47253 8.14313 1.83655C8.06257 1.8275 7.9815 1.82072 7.89996 1.81506V3.96155ZM7.10016 1.81506C7.01927 1.82067 6.93887 1.8276 6.85895 1.83655C6.22159 2.4705 5.72313 3.24088 5.36676 4.09045C5.93425 4.01834 6.51685 3.97481 7.10016 3.96155V1.81506Z" fill="black"/>
</svg>
