<svg width="15" height="15" viewBox="0 0 15 15" fill="none" xmlns="http://www.w3.org/2000/svg">
<path d="M9.95335 4.65712C9.76148 4.84899 9.45379 4.84836 9.2299 4.69504C8.72894 4.352 8.14174 4.17708 7.50005 4.17708C6.06547 4.17708 4.85089 5.14417 4.41547 6.45042C4.30547 6.78042 4.24125 7.13334 4.24125 7.5C4.24125 7.86667 4.30083 8.21959 4.41542 8.54959C4.85083 9.85584 6.06547 10.8229 7.50005 10.8229C8.24252 10.8229 8.87041 10.6213 9.3654 10.2913C9.77061 10.0179 10.0833 9.65431 10.2797 9.22735C10.4113 8.94143 10.1726 8.65042 9.85792 8.65042H7.99999C7.72385 8.65042 7.49999 8.42656 7.49999 8.15042V7.08333C7.49999 6.80719 7.72385 6.58333 7.99999 6.58333H12.2546C12.4995 6.58333 12.7106 6.76047 12.735 7.00408C12.7552 7.20557 12.7662 7.41151 12.7662 7.62375C12.7662 9.29665 12.1704 10.7083 11.1346 11.6662C10.2271 12.505 8.98505 13 7.50005 13C5.35047 13 3.49422 11.7625 2.59131 9.96583C2.21547 9.22333 2 8.38917 2 7.5C2 6.61084 2.21542 5.77667 2.59125 5.03417C3.49417 3.23751 5.35047 2 7.50005 2C8.78815 2 9.89347 2.41036 10.7831 3.09948C11.0065 3.27247 11.0104 3.60003 10.8107 3.79978L9.95335 4.65712Z" fill="black"/>
</svg>
