<svg width="15" height="15" viewBox="0 0 15 15" fill="none" xmlns="http://www.w3.org/2000/svg">
<path fill-rule="evenodd" clip-rule="evenodd" d="M6.2079 0.651074C6.62615 0.568331 7.05821 0.525024 7.49991 0.525024C7.76224 0.525024 7.97491 0.737689 7.97491 1.00002C7.97491 1.26236 7.76224 1.47502 7.49991 1.47502C7.12044 1.47502 6.75012 1.51222 6.39227 1.58301C6.13492 1.63392 5.88503 1.46657 5.83412 1.20923C5.7832 0.951878 5.95055 0.701985 6.2079 0.651074ZM4.47879 1.77128C4.62473 1.98927 4.56632 2.2843 4.34833 2.43024C3.72949 2.84454 3.19659 3.37744 2.78229 3.99628C2.63635 4.21427 2.34132 4.27268 2.12333 4.12674C1.90534 3.98079 1.84693 3.68577 1.99287 3.46777C2.47626 2.74575 3.0978 2.12421 3.81982 1.64082C4.03782 1.49488 4.33284 1.55329 4.47879 1.77128ZM1.56128 5.48206C1.81862 5.53298 1.98597 5.78287 1.93506 6.04022C1.86427 6.39807 1.82708 6.76839 1.82708 7.14786C1.82708 7.52733 1.86427 7.89764 1.93506 8.25549C1.98598 8.51284 1.81863 8.76274 1.56128 8.81365C1.30393 8.86456 1.05404 8.69721 1.00313 8.43986C0.920382 8.02161 0.877075 7.58956 0.877075 7.14786C0.877075 6.70616 0.920382 6.2741 1.00312 5.85585C1.05404 5.5985 1.30393 5.43115 1.56128 5.48206ZM2.12334 10.169C2.34133 10.023 2.63636 10.0814 2.7823 10.2994C3.1966 10.9183 3.7295 11.4512 4.34833 11.8655C4.56632 12.0114 4.62473 12.3064 4.47879 12.5244C4.33285 12.7424 4.03782 12.8008 3.81983 12.6549C3.09781 12.1715 2.47626 11.55 1.99288 10.8279C1.84694 10.6099 1.90534 10.3149 2.12334 10.169ZM5.83412 13.0865C5.88503 12.8291 6.13492 12.6618 6.39227 12.7127C6.75013 12.7835 7.12044 12.8207 7.49991 12.8207C7.76224 12.8207 7.97491 13.0334 7.97491 13.2957C7.97491 13.558 7.76224 13.7707 7.49991 13.7707C7.05821 13.7707 6.62615 13.7274 6.2079 13.6446C5.95055 13.5937 5.7832 13.3438 5.83412 13.0865Z" fill="black"/>
<path fill-rule="evenodd" clip-rule="evenodd" d="M7.49991 0.525024C11.1576 0.525024 14.1227 3.49017 14.1227 7.14786C14.1227 10.8055 11.1576 13.7707 7.49991 13.7707V12.8207C10.6329 12.8207 13.1727 10.2808 13.1727 7.14786C13.1727 4.01484 10.6329 1.47502 7.49991 1.47502V0.525024Z" fill="black"/>
</svg>
