<svg width="15" height="15" viewBox="0 0 15 15" fill="none" xmlns="http://www.w3.org/2000/svg">
<path fill-rule="evenodd" clip-rule="evenodd" d="M8.79185 13.874C8.37361 13.9567 7.94155 14 7.49985 14C7.23751 14 7.02485 13.7873 7.02485 13.525C7.02485 13.2627 7.23751 13.05 7.49985 13.05C7.87932 13.05 8.24963 13.0128 8.60749 12.942C8.86484 12.8911 9.11473 13.0585 9.16564 13.3158C9.21655 13.5731 9.0492 13.823 8.79185 13.874ZM10.521 12.7537C10.375 12.5358 10.4334 12.2407 10.6514 12.0948C11.2703 11.6805 11.8032 11.1476 12.2175 10.5287C12.3634 10.3108 12.6584 10.2523 12.8764 10.3983C13.0944 10.5442 13.1528 10.8393 13.0069 11.0573C12.5235 11.7793 11.902 12.4008 11.1799 12.8842C10.9619 13.0301 10.6669 12.9717 10.521 12.7537ZM13.4385 9.04296C13.1811 8.99205 13.0138 8.74216 13.0647 8.48481C13.1355 8.12695 13.1727 7.75664 13.1727 7.37717C13.1727 6.9977 13.1355 6.62739 13.0647 6.26953C13.0138 6.01218 13.1811 5.76229 13.4385 5.71138C13.6958 5.66047 13.9457 5.82781 13.9966 6.08516C14.0794 6.50341 14.1227 6.93547 14.1227 7.37717C14.1227 7.81887 14.0794 8.25093 13.9966 8.66917C13.9457 8.92652 13.6958 9.09387 13.4385 9.04296ZM12.8764 4.35605C12.6584 4.50199 12.3634 4.44359 12.2175 4.22559C11.8032 3.60676 11.2703 3.07386 10.6514 2.65956C10.4334 2.51362 10.375 2.21859 10.521 2.0006C10.6669 1.7826 10.9619 1.7242 11.1799 1.87014C11.902 2.35352 12.5235 2.97507 13.0069 3.69709C13.1528 3.91508 13.0944 4.21011 12.8764 4.35605ZM9.16564 1.43854C9.11473 1.69589 8.86483 1.86324 8.60749 1.81232C8.24963 1.74153 7.87932 1.70434 7.49985 1.70434C7.23751 1.70434 7.02485 1.49167 7.02485 1.22934C7.02485 0.967001 7.23751 0.754335 7.49985 0.754335C7.94155 0.754335 8.37361 0.797643 8.79185 0.880386C9.0492 0.931297 9.21655 1.18119 9.16564 1.43854Z" fill="black"/>
<path fill-rule="evenodd" clip-rule="evenodd" d="M7.49985 14C3.84219 14 0.877047 11.0349 0.877047 7.37717C0.877047 3.71951 3.84219 0.754335 7.49985 0.754335V1.70434C4.36686 1.70434 1.82705 4.24418 1.82705 7.37717C1.82705 10.5102 4.36686 13.05 7.49985 13.05V14Z" fill="black"/>
</svg>
