<svg width="15" height="15" viewBox="0 0 15 15" fill="none" xmlns="http://www.w3.org/2000/svg">
<path d="M13.5 11C13.7761 11 14 11.2239 14 11.5C14 11.7761 13.7761 12 13.5 12H1.5C1.22386 12 1 11.7761 1 11.5C1 11.2239 1.22386 11 1.5 11H13.5ZM13.5 7C13.7761 7 14 7.22386 14 7.5C14 7.77614 13.7761 8 13.5 8H1.5C1.22386 8 1 7.77614 1 7.5C1 7.22386 1.22386 7 1.5 7H13.5ZM13.5 3C13.7761 3 14 3.22386 14 3.5C14 3.77614 13.7761 4 13.5 4H1.5C1.22386 4 1 3.77614 1 3.5C1 3.22386 1.22386 3 1.5 3H13.5Z" fill="black"/>
</svg>
