<svg width="15" height="15" viewBox="0 0 15 15" fill="none" xmlns="http://www.w3.org/2000/svg">
<path d="M7.65445 -0.000193702C8.39921 0.00786021 9.21478 0.448958 9.41227 1.36211C9.51062 1.26663 9.61895 1.18422 9.73551 1.11699C10.1114 0.900383 10.5348 0.859551 10.923 0.948048C11.6907 1.12311 12.3588 1.81047 12.422 2.76153C12.4238 2.78453 12.4254 2.80778 12.4269 2.83086C12.7368 2.60485 13.1277 2.52599 13.5763 2.61504C13.9798 2.69515 14.4871 2.9926 14.7736 3.63067C15.0558 4.25944 15.0956 5.15339 14.7297 6.39141C14.3982 7.51264 14.0237 8.44953 13.6867 9.29278C13.5215 9.70599 13.3656 10.097 13.2277 10.4764C12.8025 11.6463 12.5002 12.8212 12.5002 14.4998C12.5002 14.7759 12.2762 14.9997 12.0002 14.9998H5.00016C4.72402 14.9998 4.50016 14.7759 4.50016 14.4998C4.50006 13.4631 3.80945 12.4897 2.86149 11.4598C2.63232 11.2108 2.39483 10.9662 2.15641 10.7195L2.15055 10.7127C1.91162 10.4655 1.67022 10.2163 1.44352 9.96856C0.9959 9.47947 0.573655 8.96429 0.304846 8.42852C0.0663856 7.97114 -0.101908 7.3124 0.100744 6.7625L0.103674 6.75371C0.240127 6.40385 0.454116 6.092 0.777502 5.88457C1.10354 5.67552 1.48847 5.60653 1.9025 5.64824C2.51899 5.70781 2.96436 5.98117 3.33903 6.31231C3.19411 5.89846 3.02138 5.48831 2.84195 5.06133C2.82019 5.00953 2.79847 4.95741 2.77653 4.90508C2.52436 4.30359 2.26502 3.66783 2.09293 2.99688L2.09 2.98711C1.94425 2.36722 2.13374 1.73924 2.53531 1.31914C2.94869 0.886712 3.58689 0.679252 4.26578 0.916798C4.92628 1.1489 5.39401 1.67369 5.73063 2.26641C5.75201 2.01473 5.78262 1.758 5.8234 1.49297V1.49004C5.98749 0.465767 6.86472 -0.00866746 7.65445 -0.000193702ZM7.64371 0.999806C7.2241 0.995304 6.87956 1.22725 6.81168 1.64727C6.62228 2.87933 6.68291 3.88576 6.76871 5.30547C6.78437 5.56449 6.80062 5.83729 6.81656 6.12774C6.83105 6.39164 6.63766 6.62158 6.37516 6.65215C6.11253 6.6826 5.87164 6.50327 5.82535 6.24297L5.74723 5.80742C5.6437 5.16573 5.48337 4.25447 5.17789 3.44707C4.86231 2.61312 4.44877 2.04101 3.93473 1.86016C3.65039 1.76078 3.41928 1.84292 3.25895 2.01055C3.08779 2.18959 2.99769 2.47047 3.06266 2.75371C3.21455 3.34397 3.44631 3.91705 3.6984 4.51836C3.72079 4.57176 3.7431 4.62555 3.76578 4.67949C3.99491 5.22439 4.23594 5.79698 4.41617 6.39043L4.41715 6.39238C4.56216 6.87564 4.65624 7.25925 4.73063 7.56133C4.7601 7.68105 4.7866 7.78832 4.81168 7.8836C4.8676 8.09603 4.77864 8.32058 4.59195 8.43633C4.40528 8.55202 4.16456 8.53197 3.99918 8.3875C3.73761 8.15874 3.51535 7.9274 3.31852 7.71758C3.27675 7.67306 3.23628 7.63035 3.19742 7.58867C3.04815 7.42856 2.91714 7.28779 2.78336 7.15996C2.45997 6.85098 2.1839 6.6797 1.80582 6.64336H1.80289C1.56101 6.61888 1.41397 6.66454 1.31754 6.72637C1.21903 6.78954 1.12025 6.90418 1.03824 7.11211C0.976977 7.28474 1.01479 7.63029 1.19254 7.96953L1.19742 7.97735C1.401 8.38439 1.74514 8.81566 2.1818 9.29278C2.39774 9.52872 2.62871 9.76848 2.8693 10.0174L2.88004 10.0281C3.11578 10.272 3.3594 10.525 3.59684 10.783C4.42847 11.6866 5.27736 12.7537 5.46305 13.9998H11.5089C11.5639 12.4352 11.8753 11.2679 12.2873 10.1346C12.4451 9.70035 12.6119 9.28403 12.7824 8.8582C13.1095 8.04132 13.4511 7.18931 13.7707 6.1082C14.099 4.99748 14.0099 4.37035 13.8615 4.03985C13.7174 3.71909 13.492 3.6185 13.382 3.59649C13.1386 3.54816 13.0385 3.60996 12.9699 3.67949C12.8672 3.78367 12.7702 3.98291 12.6925 4.30254C12.617 4.61328 12.5755 4.96519 12.5334 5.325L12.5295 5.35332C12.4921 5.67262 12.4503 6.02995 12.3664 6.30059C12.3383 6.4066 12.2814 6.50369 12.1974 6.575C12.1377 6.62569 12.0105 6.70809 11.8312 6.69317C11.5428 6.66897 11.3718 6.42169 11.3654 6.14824C11.3565 5.75495 11.3883 5.35819 11.4074 4.96563C11.4428 4.23618 11.4774 3.53314 11.425 2.83379L11.424 2.82891C11.3912 2.3298 11.0488 2.00211 10.7004 1.92266C10.5303 1.88397 10.3688 1.9058 10.2345 1.9832C10.1029 2.05912 9.95553 2.21305 9.85758 2.51348L9.8566 2.51738C9.81555 2.64052 9.77341 2.87783 9.73649 3.2127C9.7009 3.53554 9.67333 3.91259 9.65153 4.29375C9.63288 4.61974 9.61816 4.9581 9.60465 5.26153C9.58759 5.64483 9.57215 5.97348 9.55582 6.15313C9.54932 6.22451 9.52966 6.29528 9.49528 6.3582C9.47366 6.39777 9.3609 6.60882 9.07145 6.61797C8.77991 6.62697 8.64036 6.40095 8.61735 6.35918C8.55672 6.24901 8.55016 6.11818 8.54703 5.99297C8.54423 5.88078 8.54334 5.71797 8.54215 5.54766C8.53976 5.20605 8.53922 4.81975 8.53922 4.70977C8.53922 3.66596 8.53867 2.65335 8.44742 1.64336C8.39198 1.24115 8.0627 1.00436 7.64371 0.999806Z" fill="black"/>
</svg>
