<svg width="15" height="15" viewBox="0 0 15 15" fill="none" xmlns="http://www.w3.org/2000/svg">
  <path fill-rule="evenodd" clip-rule="evenodd"
    d="M7.07924 0.222259C7.31273 -0.00742793 7.68727 -0.00742793 7.92076 0.222259L14.6708 6.86227C14.907 7.09465 14.9101 7.47454 14.6777 7.71077C14.4454 7.947 14.0655 7.95012 13.8292 7.71774L13 6.90202V12.5C13 12.7761 12.7761 13 12.5 13H2.5C2.22386 13 2 12.7761 2 12.5V6.90202L1.17076 7.71774C0.934534 7.95012 0.554647 7.947 0.322265 7.71077C0.0898833 7.47454 0.0930037 7.09465 0.329235 6.86227L7.07924 0.222259ZM7.5 1.49164L12 5.91831V12H10V8.5C10 8.22386 9.77614 8 9.5 8H6.5C6.22386 8 6 8.22386 6 8.5V12H3V5.91831L7.5 1.49164ZM7 12H9V9H7V12Z"
    fill="currentColor" />
</svg>