<svg width="15" height="15" viewBox="0 0 15 15" fill="none" xmlns="http://www.w3.org/2000/svg">
<path d="M7.07894 0.222073C7.31231 -0.00747571 7.68722 -0.00723172 7.92074 0.222073L14.6707 6.86172L14.7479 6.95547C14.9037 7.18706 14.8809 7.50358 14.6776 7.71035C14.4452 7.94659 14.0652 7.94957 13.8289 7.71719L12.9998 6.90078V12.5004C12.9997 12.7765 12.7759 13.0004 12.4998 13.0004H2.49984C2.22393 13.0002 1.99994 12.7763 1.99984 12.5004V6.90078L1.17074 7.71719C0.934507 7.94957 0.554487 7.94659 0.322105 7.71035C0.0902207 7.47409 0.0928771 7.09394 0.328941 6.86172L7.07894 0.222073ZM2.99984 5.91739V12.0004H5.99984V8.50039C5.99984 8.22437 6.22387 8.00059 6.49984 8.00039H9.49984C9.77598 8.00039 9.99984 8.22425 9.99984 8.50039V12.0004H11.9998V5.91739L7.49984 1.49063L2.99984 5.91739ZM6.99984 12.0004H8.99984V9.00039H6.99984V12.0004Z" fill="black"/>
</svg>
