<svg width="16" height="16" viewBox="0 0 16 16" fill="none" xmlns="http://www.w3.org/2000/svg">
<path fill-rule="evenodd" clip-rule="evenodd" d="M8.25423 0.636218C8.09732 0.543502 7.9024 0.543502 7.7455 0.636218L1.87883 4.10288C1.7266 4.19284 1.6332 4.35652 1.6332 4.53335C1.6332 4.71018 1.7266 4.87385 1.87883 4.96381L7.7455 8.43048C7.9024 8.52319 8.09732 8.52319 8.25423 8.43048L14.1209 4.96381C14.2731 4.87385 14.3665 4.71018 14.3665 4.53335C14.3665 4.35652 14.2731 4.19284 14.1209 4.10288L8.25423 0.636218ZM7.99986 7.41924L3.11604 4.53335L7.99986 1.64745L12.8837 4.53335L7.99986 7.41924Z" fill="black"/>
<path d="M2.38756 10.2362C2.14982 10.0957 1.84321 10.1745 1.70273 10.4123C1.56225 10.65 1.64109 10.9566 1.87883 11.0971L7.7455 14.5637C7.9024 14.6565 8.09732 14.6565 8.25423 14.5637L14.1209 11.0971C14.3586 10.9566 14.4375 10.65 14.297 10.4123C14.1565 10.1745 13.8499 10.0957 13.6122 10.2362L7.99986 13.5525L2.38756 10.2362Z" fill="black"/>
</svg>
