<svg width="15" height="15" viewBox="0 0 15 15" fill="none" xmlns="http://www.w3.org/2000/svg">
<path fill-rule="evenodd" clip-rule="evenodd" d="M7.49999 3.74921C6.53306 3.74921 5.74921 4.53306 5.74921 5.49999C5.74921 6.46692 6.53306 7.25077 7.49999 7.25077C8.46692 7.25077 9.25077 6.46692 9.25077 5.49999C9.25077 4.53306 8.46692 3.74921 7.49999 3.74921ZM6.64921 5.49999C6.64921 5.03011 7.03011 4.64921 7.49999 4.64921C7.96986 4.64921 8.35077 5.03011 8.35077 5.49999C8.35077 5.96986 7.96986 6.35077 7.49999 6.35077C7.03011 6.35077 6.64921 5.96986 6.64921 5.49999Z" fill="black"/>
<path fill-rule="evenodd" clip-rule="evenodd" d="M2.5 2H12.5C13.3284 2 14 2.67157 14 3.5V10.5C14 11.3284 13.3284 12 12.5 12H2.5C1.67157 12 1 11.3284 1 10.5V3.5C1 2.67157 1.67157 2 2.5 2ZM2.5 3C2.22386 3 2 3.22386 2 3.5V8.36358L3.68179 6.68179C3.76808 6.5955 3.88571 6.54796 4.00772 6.55005C4.12974 6.55215 4.24566 6.60371 4.32894 6.69292L7.87354 10.49L10.6818 7.68179C10.8575 7.50605 11.1424 7.50605 11.3182 7.68179L13 9.3636V3.5C13 3.22386 12.7761 3 12.5 3H2.5ZM2 10.5V9.63637L3.98886 7.64752L7.11839 11H2.5C2.22386 11 2 10.7761 2 10.5ZM12.5 11H8.63637L11 8.63638L12.9851 10.6215C12.9308 10.8389 12.7342 11 12.5 11Z" fill="black"/>
</svg>
