<svg width="15" height="15" viewBox="0 0 15 15" fill="none" xmlns="http://www.w3.org/2000/svg">
  <path fill-rule="evenodd" clip-rule="evenodd"
    d="M7.49999 3.74921C6.53306 3.74921 5.74921 4.53306 5.74921 5.49999C5.74921 6.46692 6.53306 7.25077 7.49999 7.25077C8.46692 7.25077 9.25077 6.46692 9.25077 5.49999C9.25077 4.53306 8.46692 3.74921 7.49999 3.74921ZM6.64921 5.49999C6.64921 5.03011 7.03011 4.64921 7.49999 4.64921C7.96986 4.64921 8.35077 5.03011 8.35077 5.49999C8.35077 5.96986 7.96986 6.35077 7.49999 6.35077C7.03011 6.35077 6.64921 5.96986 6.64921 5.49999Z"
    fill="currentColor" />
  <path fill-rule="evenodd" clip-rule="evenodd"
    d="M2.5 1H12.5C13.3284 1 14 1.67157 14 2.5V12.5C14 13.3284 13.3284 14 12.5 14H2.5C1.67157 14 1 13.3284 1 12.5V2.5C1 1.67157 1.67157 1 2.5 1ZM2.5 2C2.22386 2 2 2.22386 2 2.5V8.36358L3.68179 6.68179C3.76808 6.5955 3.88571 6.54796 4.00772 6.55005C4.12974 6.55215 4.24566 6.60371 4.32894 6.69292L7.87354 10.49L10.6818 7.68179C10.8575 7.50605 11.1424 7.50605 11.3182 7.68179L13 9.3636V2.5C13 2.22386 12.7761 2 12.5 2H2.5ZM2 12.5V9.63637L3.98886 7.64752L7.53109 11.4421L8.94113 13H2.5C2.22386 13 2 12.7761 2 12.5ZM12.5 13H10.155L8.48334 11.153L11 8.63638L13 10.6364V12.5C13 12.7761 12.7761 13 12.5 13Z"
    fill="currentColor" />
</svg>