<svg width="15" height="15" viewBox="0 0 15 15" fill="none" xmlns="http://www.w3.org/2000/svg">
<path d="M14.4999 12.9999C14.7761 12.9999 14.9999 13.2238 14.9999 13.4999C14.9999 13.7761 14.7761 13.9999 14.4999 13.9999H0.499939C0.223825 13.9999 -6.10352e-05 13.7761 -6.10352e-05 13.4999C-2.80586e-05 13.2238 0.223845 13 0.499939 12.9999H14.4999ZM14.4999 9.99994C14.7761 9.99994 14.9999 10.2238 14.9999 10.4999C14.9999 10.7761 14.7761 10.9999 14.4999 10.9999H0.499939C0.223825 10.9999 -6.10352e-05 10.7761 -6.10352e-05 10.4999C-2.80586e-05 10.2238 0.223845 9.99997 0.499939 9.99994H14.4999ZM14.4999 0.999939C14.7761 0.999939 14.9999 1.2238 14.9999 1.49994V7.49994C14.9999 7.77608 14.7761 7.99994 14.4999 7.99994H0.499939C0.223797 7.99994 -6.10352e-05 7.77608 -6.10352e-05 7.49994V1.49994C-6.10352e-05 1.2238 0.223797 0.999939 0.499939 0.999939H14.4999ZM0.999939 6.99994H13.9999V1.99994H0.999939V6.99994Z" fill="black"/>
</svg>
