<svg width="15" height="15" viewBox="0 0 15 15" fill="none" xmlns="http://www.w3.org/2000/svg">
<path fill-rule="evenodd" clip-rule="evenodd" d="M9 1.5C9 1.22386 9.22386 1 9.5 1H14.5C14.7761 1 15 1.22386 15 1.5C15 1.77614 14.7761 2 14.5 2H9.5C9.22386 2 9 1.77614 9 1.5ZM9 4.5C9 4.22386 9.22386 4 9.5 4H14.5C14.7761 4 15 4.22386 15 4.5C15 4.77614 14.7761 5 14.5 5H9.5C9.22386 5 9 4.77614 9 4.5ZM9 7.5C9 7.22386 9.22386 7 9.5 7H14.5C14.7761 7 15 7.22386 15 7.5C15 7.77614 14.7761 8 14.5 8H9.5C9.22386 8 9 7.77614 9 7.5ZM0 10.5C0 10.2239 0.223858 10 0.5 10H14.5C14.7761 10 15 10.2239 15 10.5C15 10.7761 14.7761 11 14.5 11H0.5C0.223858 11 0 10.7761 0 10.5ZM0 13.5C0 13.2239 0.223858 13 0.5 13H14.5C14.7761 13 15 13.2239 15 13.5C15 13.7761 14.7761 14 14.5 14H0.5C0.223858 14 0 13.7761 0 13.5Z" fill="black"/>
<path fill-rule="evenodd" clip-rule="evenodd" d="M-6.10352e-05 1.49994C-6.10352e-05 1.2238 0.223797 0.999939 0.499939 0.999939H6.49994C6.77608 0.999939 6.99994 1.2238 6.99994 1.49994V7.49994C6.99994 7.77608 6.77608 7.99994 6.49994 7.99994H0.499939C0.223797 7.99994 -6.10352e-05 7.77608 -6.10352e-05 7.49994V1.49994ZM0.999939 1.99994V6.99994H5.99994V1.99994H0.999939Z" fill="black"/>
</svg>
