<svg width="15" height="15" viewBox="0 0 15 15" fill="none" xmlns="http://www.w3.org/2000/svg">
  <path fill-rule="evenodd" clip-rule="evenodd"
    d="M0.499939 0.999939C0.223797 0.999939 -6.10352e-05 1.2238 -6.10352e-05 1.49994V7.49994C-6.10352e-05 7.77608 0.223797 7.99994 0.499939 7.99994H14.4999C14.7761 7.99994 14.9999 7.77608 14.9999 7.49994V1.49994C14.9999 1.2238 14.7761 0.999939 14.4999 0.999939H0.499939ZM0.999939 6.99994V1.99994H13.9999V6.99994H0.999939ZM0.5 10C0.223858 10 0 10.2239 0 10.5C0 10.7761 0.223858 11 0.5 11H14.5C14.7761 11 15 10.7761 15 10.5C15 10.2239 14.7761 10 14.5 10H0.5ZM0.5 13C0.223858 13 0 13.2239 0 13.5C0 13.7761 0.223858 14 0.5 14H14.5C14.7761 14 15 13.7761 15 13.5C15 13.2239 14.7761 13 14.5 13H0.5Z"
    fill="currentColor" />
</svg>