<svg width="15" height="15" viewBox="0 0 15 15" fill="none" xmlns="http://www.w3.org/2000/svg">
<path d="M12.5 1C13.3284 1 14 1.67157 14 2.5V12.5C14 13.3284 13.3284 14 12.5 14H2.5C1.67157 14 1 13.3284 1 12.5V2.5C1 1.67157 1.67157 1 2.5 1H12.5ZM2 9.63574V12.5C2 12.7761 2.22386 13 2.5 13H8.94141L7.52832 11.4395V11.4385L3.98828 7.64746L2 9.63574ZM8.4834 11.1523L10.1553 13H12.5C12.7761 13 13 12.7761 13 12.5V10.6367L11 8.63672L8.4834 11.1523ZM2.5 2C2.22386 2 2 2.22386 2 2.5V8.36328L3.68164 6.68164L3.75195 6.625C3.82721 6.57522 3.91621 6.54823 4.00781 6.5498C4.1298 6.55192 4.24585 6.60417 4.3291 6.69336L7.87305 10.4893L10.6816 7.68164C10.8574 7.5059 11.1426 7.5059 11.3184 7.68164L13 9.36328V2.5C13 2.22386 12.7761 2 12.5 2H2.5ZM7.5 3.74902C8.46693 3.74902 9.25098 4.53307 9.25098 5.5C9.25098 6.46693 8.46693 7.25098 7.5 7.25098C6.53307 7.25098 5.74902 6.46693 5.74902 5.5C5.74902 4.53307 6.53307 3.74902 7.5 3.74902ZM7.5 4.64941C7.03013 4.64941 6.64941 5.03013 6.64941 5.5C6.64941 5.96987 7.03013 6.35059 7.5 6.35059C7.96987 6.35059 8.35059 5.96987 8.35059 5.5C8.35059 5.03013 7.96987 4.64941 7.5 4.64941Z" fill="black"/>
</svg>
