<svg width="15" height="15" viewBox="0 0 15 15" fill="none" xmlns="http://www.w3.org/2000/svg">
<path fill-rule="evenodd" clip-rule="evenodd" d="M11.5 1H3.5C2.67157 1 2 1.67157 2 2.5V12.5C2 13.3284 2.67157 14 3.5 14H11.5C12.3284 14 13 13.3284 13 12.5V2.5C13 1.67157 12.3284 1 11.5 1ZM3 2.5C3 2.22386 3.22386 2 3.5 2H11.5C11.7761 2 12 2.22386 12 2.5V12.5C12 12.7761 11.7761 13 11.5 13H11.1173C11.1243 12.9675 11.128 12.9338 11.128 12.8992C11.128 11.7283 10.818 10.7998 10.1758 10.167C9.80994 9.80644 9.36083 9.56609 8.85365 9.42621C9.54475 9.00875 10.0068 8.25037 10.0068 7.38408C10.0068 6.06739 8.9394 5 7.6227 5C6.30601 5 5.23862 6.06739 5.23862 7.38408C5.23862 8.25037 5.70066 9.00873 6.39174 9.4262C5.88456 9.56608 5.43544 9.80643 5.06959 10.167C4.42745 10.7998 4.11743 11.7283 4.11743 12.8992C4.11743 12.9338 4.12113 12.9675 4.12815 13H3.5C3.22386 13 3 12.7761 3 12.5V2.5ZM5.05672 13H10.1887C10.1817 12.9675 10.178 12.9338 10.178 12.8992C10.178 11.8883 9.91226 11.2411 9.50897 10.8436C9.10427 10.4448 8.48528 10.2227 7.62268 10.2227C6.76007 10.2227 6.14111 10.4448 5.73643 10.8436C5.33315 11.2411 5.06743 11.8883 5.06743 12.8992C5.06743 12.9338 5.06374 12.9675 5.05672 13ZM7.6227 5.95C6.83068 5.95 6.18862 6.59206 6.18862 7.38408C6.18862 8.1761 6.83068 8.81816 7.6227 8.81816C8.41473 8.81816 9.05679 8.1761 9.05679 7.38408C9.05679 6.59206 8.41473 5.95 7.6227 5.95Z" fill="black"/>
</svg>
