<svg width="15" height="15" viewBox="0 0 15 15" fill="none" xmlns="http://www.w3.org/2000/svg">
<path fill-rule="evenodd" clip-rule="evenodd" d="M8.49994 0.999939C8.2238 0.999939 7.99994 1.2238 7.99994 1.49994V7.49994C7.99994 7.77608 8.2238 7.99994 8.49994 7.99994H14.4999C14.7761 7.99994 14.9999 7.77608 14.9999 7.49994V1.49994C14.9999 1.2238 14.7761 0.999939 14.4999 0.999939H8.49994ZM8.99994 6.99994V1.99994H13.9999V6.99994H8.99994Z" fill="black"/>
<path d="M0.5 1C0.223858 1 0 1.22386 0 1.5C0 1.77614 0.223858 2 0.5 2H5.5C5.77614 2 6 1.77614 6 1.5C6 1.22386 5.77614 1 5.5 1H0.5Z" fill="black"/>
<path d="M0.5 4C0.223858 4 0 4.22386 0 4.5C0 4.77614 0.223858 5 0.5 5H5.5C5.77614 5 6 4.77614 6 4.5C6 4.22386 5.77614 4 5.5 4H0.5Z" fill="black"/>
<path d="M0.5 7C0.223858 7 0 7.22386 0 7.5C0 7.77614 0.223858 8 0.5 8H5.5C5.77614 8 6 7.77614 6 7.5C6 7.22386 5.77614 7 5.5 7H0.5Z" fill="black"/>
<path d="M0.5 10C0.223858 10 0 10.2239 0 10.5C0 10.7761 0.223858 11 0.5 11H14.5C14.7761 11 15 10.7761 15 10.5C15 10.2239 14.7761 10 14.5 10H0.5Z" fill="black"/>
<path d="M0.5 13C0.223858 13 0 13.2239 0 13.5C0 13.7761 0.223858 14 0.5 14H14.5C14.7761 14 15 13.7761 15 13.5C15 13.2239 14.7761 13 14.5 13H0.5Z" fill="black"/>
</svg>
