<svg width="15" height="15" viewBox="0 0 15 15" fill="none" xmlns="http://www.w3.org/2000/svg">
<path d="M12 4C12 4.55228 11.5523 5 11 5C10.4477 5 10 4.55228 10 4C10 3.44772 10.4477 3 11 3C11.5523 3 12 3.44772 12 4Z" fill="black"/>
<path fill-rule="evenodd" clip-rule="evenodd" d="M10.5 8C10.5 9.65685 9.15685 11 7.5 11C5.84315 11 4.5 9.65685 4.5 8C4.5 6.34315 5.84315 5 7.5 5C9.15685 5 10.5 6.34315 10.5 8ZM9.5 8C9.5 9.10457 8.60457 10 7.5 10C6.39543 10 5.5 9.10457 5.5 8C5.5 6.89543 6.39543 6 7.5 6C8.60457 6 9.5 6.89543 9.5 8Z" fill="black"/>
<path fill-rule="evenodd" clip-rule="evenodd" d="M1 3C1 1.89543 1.89543 1 3 1H12C13.1046 1 14 1.89543 14 3V12C14 13.1046 13.1046 14 12 14H3C1.89543 14 1 13.1046 1 12V3ZM3 2C2.44772 2 2 2.44772 2 3V12C2 12.5523 2.44772 13 3 13H12C12.5523 13 13 12.5523 13 12V3C13 2.44772 12.5523 2 12 2H3Z" fill="black"/>
</svg>
