<svg width="15" height="15" viewBox="0 0 15 15" fill="none" xmlns="http://www.w3.org/2000/svg">
<path fill-rule="evenodd" clip-rule="evenodd" d="M2 1.99997H13V13H2L2 1.99997ZM1 1.99997C1 1.44768 1.44772 0.999969 2 0.999969H13C13.5523 0.999969 14 1.44768 14 1.99997V13C14 13.5523 13.5523 14 13 14H2C1.44772 14 1 13.5523 1 13V1.99997ZM7.50014 2.74997C7.71088 2.74997 7.899 2.88211 7.97049 3.08036L10.9705 11.3999C11.0642 11.6597 10.9295 11.9462 10.6697 12.0399C10.41 12.1336 10.1235 11.9989 10.0298 11.7392L9.04783 9.016H5.95245L4.97049 11.7392C4.87682 11.9989 4.5903 12.1336 4.33053 12.0399C4.07076 11.9462 3.93611 11.6597 4.02978 11.3999L7.02978 3.08036C7.10127 2.88211 7.28939 2.74997 7.50014 2.74997ZM7.50014 4.72396L8.74132 8.166H6.25895L7.50014 4.72396Z" fill="black"/>
</svg>
