<svg width="15" height="15" viewBox="0 0 15 15" fill="none" xmlns="http://www.w3.org/2000/svg">
<path fill-rule="evenodd" clip-rule="evenodd" d="M4.71428 10.2857H2C1.44772 10.2857 1 9.838 1 9.28571V2C1 1.44772 1.44772 1 2 1H9.28571C9.838 1 10.2857 1.44772 10.2857 2V4.71428H13C13.5523 4.71428 14 5.16199 14 5.71428V13C14 13.5523 13.5523 14 13 14H5.71428C5.16199 14 4.71428 13.5523 4.71428 13V10.2857ZM2 2H9.28571V4.71428H5.71428C5.16199 4.71428 4.71428 5.16199 4.71428 5.71428V9.28571H2L2 2ZM10.2857 5.71428H13L13 13L5.71428 13V10.2857H9.28571C9.838 10.2857 10.2857 9.838 10.2857 9.28571V5.71428ZM9.28571 5.71428V9.28571H5.71428V5.71428H9.28571Z" fill="black"/>
</svg>
