<svg width="15" height="15" viewBox="0 0 15 15" fill="none" xmlns="http://www.w3.org/2000/svg">
  <path fill-rule="evenodd" clip-rule="evenodd"
    d="M2 2H13V13H2L2 2ZM1 2C1 1.44772 1.44772 1 2 1H13C13.5523 1 14 1.44772 14 2V13C14 13.5523 13.5523 14 13 14H2C1.44772 14 1 13.5523 1 13V2ZM7.50014 2.75C7.71088 2.75 7.899 2.88214 7.97049 3.08039L10.9705 11.4C11.0642 11.6597 10.9295 11.9463 10.6697 12.0399C10.41 12.1336 10.1235 11.999 10.0298 11.7392L9.04783 9.01603H5.95245L4.97049 11.7392C4.87682 11.999 4.5903 12.1336 4.33053 12.0399C4.07076 11.9463 3.93611 11.6597 4.02978 11.4L7.02978 3.08039C7.10127 2.88214 7.28939 2.75 7.50014 2.75ZM7.50014 4.72399L8.74132 8.16603H6.25895L7.50014 4.72399Z"
    fill="currentColor" />
</svg>