<svg width="15" height="15" viewBox="0 0 15 15" fill="none" xmlns="http://www.w3.org/2000/svg">
<path d="M5.7998 13.2998C6.07589 13.2998 6.29971 13.5237 6.2998 13.7998C6.2998 14.0759 6.07595 14.2998 5.7998 14.2998C5.52377 14.2997 5.2998 14.0759 5.2998 13.7998C5.2999 13.5238 5.52384 13.2999 5.7998 13.2998ZM7.7998 13.2998C8.07589 13.2998 8.29971 13.5237 8.2998 13.7998C8.2998 14.0759 8.07595 14.2998 7.7998 14.2998C7.52377 14.2997 7.2998 14.0759 7.2998 13.7998C7.2999 13.5238 7.52384 13.2999 7.7998 13.2998ZM9.7998 13.2998C10.0759 13.2998 10.2997 13.5237 10.2998 13.7998C10.2998 14.0759 10.0759 14.2998 9.7998 14.2998C9.52377 14.2997 9.2998 14.0759 9.2998 13.7998C9.2999 13.5238 9.52384 13.2999 9.7998 13.2998ZM11.7998 13.2998C12.0759 13.2998 12.2997 13.5237 12.2998 13.7998C12.2998 14.0759 12.0759 14.2998 11.7998 14.2998C11.5238 14.2997 11.2998 14.0759 11.2998 13.7998C11.2999 13.5238 11.5238 13.2999 11.7998 13.2998ZM13.7998 13.2998C14.0759 13.2998 14.2997 13.5237 14.2998 13.7998C14.2998 14.0759 14.0759 14.2998 13.7998 14.2998C13.5238 14.2997 13.2998 14.0759 13.2998 13.7998C13.2999 13.5238 13.5238 13.2999 13.7998 13.2998ZM5.7998 11.2998C6.07589 11.2998 6.29971 11.5237 6.2998 11.7998C6.2998 12.0759 6.07595 12.2998 5.7998 12.2998C5.52377 12.2997 5.2998 12.0759 5.2998 11.7998C5.2999 11.5238 5.52384 11.2999 5.7998 11.2998ZM13.7998 11.2998C14.0759 11.2998 14.2997 11.5237 14.2998 11.7998C14.2998 12.0759 14.0759 12.2998 13.7998 12.2998C13.5238 12.2997 13.2998 12.0759 13.2998 11.7998C13.2999 11.5238 13.5238 11.2999 13.7998 11.2998ZM13.7998 9.2998C14.0759 9.2998 14.2997 9.52375 14.2998 9.7998C14.2998 10.0759 14.0759 10.2998 13.7998 10.2998C13.5238 10.2997 13.2998 10.0759 13.2998 9.7998C13.2999 9.52383 13.5238 9.29994 13.7998 9.2998ZM9.28613 1C9.83822 1.00023 10.2861 1.44786 10.2861 2V9.28613C10.2859 9.83808 9.83809 10.2859 9.28613 10.2861H2C1.44786 10.2861 1.00023 9.83822 1 9.28613V2C1 1.44772 1.44772 1 2 1H9.28613ZM2 9.28613H9.28613V2H2V9.28613ZM5.7998 7.2998C6.07589 7.2998 6.29971 7.52375 6.2998 7.7998C6.2998 8.07595 6.07595 8.2998 5.7998 8.2998C5.52377 8.29967 5.2998 8.07587 5.2998 7.7998C5.2999 7.52383 5.52384 7.29994 5.7998 7.2998ZM13.7998 7.2998C14.0759 7.2998 14.2997 7.52375 14.2998 7.7998C14.2998 8.07595 14.0759 8.2998 13.7998 8.2998C13.5238 8.29967 13.2998 8.07587 13.2998 7.7998C13.2999 7.52383 13.5238 7.29994 13.7998 7.2998ZM5.7998 5.2998C6.07589 5.2998 6.29971 5.52375 6.2998 5.7998C6.2998 6.07595 6.07595 6.2998 5.7998 6.2998C5.52377 6.29967 5.2998 6.07587 5.2998 5.7998C5.2999 5.52383 5.52384 5.29994 5.7998 5.2998ZM7.7998 5.2998C8.07589 5.2998 8.29971 5.52375 8.2998 5.7998C8.2998 6.07595 8.07595 6.2998 7.7998 6.2998C7.52377 6.29967 7.2998 6.07587 7.2998 5.7998C7.2999 5.52383 7.52384 5.29994 7.7998 5.2998ZM11.7998 5.2998C12.0759 5.2998 12.2997 5.52375 12.2998 5.7998C12.2998 6.07595 12.0759 6.2998 11.7998 6.2998C11.5238 6.29967 11.2998 6.07587 11.2998 5.7998C11.2999 5.52383 11.5238 5.29994 11.7998 5.2998ZM13.7998 5.2998C14.0759 5.2998 14.2997 5.52375 14.2998 5.7998C14.2998 6.07595 14.0759 6.2998 13.7998 6.2998C13.5238 6.29967 13.2998 6.07587 13.2998 5.7998C13.2999 5.52383 13.5238 5.29994 13.7998 5.2998Z" fill="black"/>
</svg>
