<svg width="15" height="15" viewBox="0 0 15 15" fill="none" xmlns="http://www.w3.org/2000/svg">
<path fill-rule="evenodd" clip-rule="evenodd" d="M13 6L13 12.5C13 12.7761 12.7761 13 12.5 13L2.5 13C2.22386 13 2 12.7761 2 12.5L2 6L13 6ZM13 5L13 2.5C13 2.22386 12.7761 2 12.5 2L2.5 2C2.22386 2 2 2.22386 2 2.5L2 5L13 5ZM12.5 1C13.3284 1 14 1.67157 14 2.5L14 12.5C14 13.3284 13.3284 14 12.5 14L2.5 14C1.67157 14 0.999999 13.3284 0.999999 12.5L1 2.5C1 1.67157 1.67157 0.999999 2.5 0.999999L12.5 1Z" fill="black"/>
</svg>
