<svg width="15" height="15" viewBox="0 0 15 15" fill="none" xmlns="http://www.w3.org/2000/svg">
<path fill-rule="evenodd" clip-rule="evenodd" d="M2 2.5L2 9L9 9L9 2L2.5 2C2.22386 2 2 2.22386 2 2.5ZM10 2L10 9L13 9L13 2.5C13 2.22386 12.7761 2 12.5 2L10 2ZM2 12.5L2 10L13 10L13 12.5C13 12.7761 12.7761 13 12.5 13L2.5 13C2.22386 13 2 12.7761 2 12.5ZM1 12.5C1 13.3284 1.67157 14 2.5 14L12.5 14C13.3284 14 14 13.3284 14 12.5L14 2.5C14 1.67157 13.3284 1 12.5 1L2.5 1C1.67157 1 1 1.67157 1 2.5L1 12.5Z" fill="black"/>
</svg>
