<svg width="15" height="15" viewBox="0 0 15 15" fill="none" xmlns="http://www.w3.org/2000/svg">
<path fill-rule="evenodd" clip-rule="evenodd" d="M13 12.5L13 6L10 6L10 13L12.5 13C12.7761 13 13 12.7761 13 12.5ZM10 14L9 14L2.5 14C1.67157 14 0.999999 13.3284 0.999999 12.5L1 2.5C1 1.67157 1.67157 0.999999 2.5 0.999999L12.5 1C13.3284 1 14 1.67157 14 2.5L14 12.5C14 13.3284 13.3284 14 12.5 14L10 14ZM9 13L9 6L2 6L2 12.5C2 12.7761 2.22386 13 2.5 13L9 13ZM13 2.5L13 5L2 5L2 2.5C2 2.22386 2.22386 2 2.5 2L12.5 2C12.7761 2 13 2.22386 13 2.5Z" fill="black"/>
</svg>
