<svg width="15" height="15" viewBox="0 0 15 15" fill="none" xmlns="http://www.w3.org/2000/svg">
<path d="M7.14648 3.14645C7.34175 2.95118 7.65825 2.95118 7.85352 3.14645C8.04878 3.34171 8.04878 3.65822 7.85352 3.85348L4.70703 6.99996H13.5C13.7761 6.99996 14 7.22382 14 7.49996C14 7.7761 13.7761 7.99996 13.5 7.99996H4.70703L7.85352 11.1464C8.04878 11.3417 8.04878 11.6582 7.85352 11.8535C7.65825 12.0487 7.34175 12.0487 7.14648 11.8535L3.14648 7.85348C2.95122 7.65822 2.95122 7.34171 3.14648 7.14645L7.14648 3.14645ZM1.5 3.99996C1.77614 3.99996 2 4.22382 2 4.49996V10.5C2 10.7761 1.77614 11 1.5 11C1.22386 11 1 10.7761 1 10.5V4.49996C1 4.22382 1.22386 3.99996 1.5 3.99996Z" fill="black"/>
</svg>
