<svg width="15" height="15" viewBox="0 0 15 15" fill="none" xmlns="http://www.w3.org/2000/svg">
<path d="M12.2709 10.2164C12.4271 10.0605 12.6812 10.0603 12.8373 10.2164L14.8373 12.2164L14.8871 12.2779C14.9304 12.343 14.9544 12.4203 14.9545 12.4996C14.9545 12.6055 14.9121 12.7078 14.8373 12.7828L12.8373 14.7828L12.7738 14.8336C12.6186 14.936 12.4075 14.9194 12.2709 14.7828C12.1343 14.6462 12.1177 14.4351 12.2201 14.2799L12.2709 14.2164L13.5873 12.9H1.52087L2.83728 14.2164C2.99333 14.3725 2.99313 14.6266 2.83728 14.7828C2.68109 14.939 2.42709 14.939 2.27087 14.7828L0.270874 12.7828C0.195859 12.7078 0.153687 12.6057 0.153687 12.4996C0.153763 12.3936 0.195927 12.2914 0.270874 12.2164L2.27087 10.2164L2.33435 10.1656C2.48955 10.0636 2.70077 10.0799 2.83728 10.2164C2.97375 10.3529 2.99014 10.5642 2.88806 10.7193L2.83728 10.7828L1.52087 12.0992H13.5873L12.2709 10.7828C12.1147 10.6266 12.1147 10.3726 12.2709 10.2164ZM13.3422 1.31798C13.4431 1.06108 13.7337 0.933999 13.9906 1.03477C14.2153 1.12316 14.3399 1.35659 14.3002 1.58556L14.2728 1.68321L11.5209 8.68517C11.4456 8.87612 11.2613 9.00242 11.056 9.00255C10.8507 9.00237 10.6654 8.8762 10.5902 8.68517L7.83826 1.68321C7.73755 1.42645 7.8649 1.13592 8.12146 1.03477C8.37835 0.934108 8.66896 1.06113 8.7699 1.31798L11.0551 7.13634L13.3422 1.31798ZM4.55408 0.999619C4.75345 1.00007 4.9343 1.11916 5.01306 1.30235L8.01208 8.29942L8.04236 8.3961C8.08909 8.62348 7.97075 8.86022 7.74939 8.95567C7.49563 9.06442 7.201 8.94667 7.09216 8.69298L6.11658 6.41661H2.9906L2.01501 8.69298L1.96521 8.78185C1.83268 8.97271 1.57974 9.05054 1.35779 8.95567C1.10427 8.84678 0.986449 8.55309 1.09509 8.29942L4.09412 1.30235L4.1283 1.23692C4.21848 1.09127 4.37928 0.999619 4.55408 0.999619ZM3.35388 5.567H5.75232L4.5531 2.76817L3.35388 5.567Z" fill="black"/>
</svg>
