<svg width="15" height="15" viewBox="0 0 15 15" fill="none" xmlns="http://www.w3.org/2000/svg">
<path d="M11.2894 2.75C11.4962 2.74988 11.6818 2.87739 11.7562 3.07031L14.9662 11.3896C15.0655 11.6471 14.9374 11.9366 14.6801 12.0361C14.4546 12.123 14.2049 12.0357 14.0795 11.8398L14.0336 11.75L12.9828 9.02539H9.61072L8.56677 11.749L8.52087 11.8398C8.39576 12.0354 8.14653 12.1232 7.92126 12.0371C7.66352 11.9382 7.53436 11.6484 7.63318 11.3906L10.8236 3.07129L10.8558 3.00195C10.9437 2.84811 11.1085 2.75031 11.2894 2.75ZM2.8988 5.20703C3.79244 5.20703 4.60471 5.60213 5.15369 6.22461V5.71973C5.15383 5.47145 5.35562 5.26974 5.60388 5.26953C5.85232 5.26953 6.05393 5.47132 6.05408 5.71973V11.5293C6.05408 11.7778 5.85241 11.9795 5.60388 11.9795C5.35553 11.9793 5.15369 11.7777 5.15369 11.5293V11.0195C4.57364 11.6676 3.72169 12.0127 2.8988 12.0127C1.3581 12.0126 0.00915527 10.6333 0.00915527 8.60938C0.00930384 6.68557 1.25821 5.20712 2.8988 5.20703ZM3.0863 6.05762C2.10855 6.05789 1.0356 6.966 1.03552 8.60938C1.03552 10.1529 2.00858 11.1609 3.0863 11.1611C3.97059 11.1611 4.77175 10.4927 5.15369 9.79492V7.30566C4.76384 6.58335 3.94206 6.05762 3.0863 6.05762ZM9.93689 8.17578H12.6547L11.2914 4.64258L9.93689 8.17578Z" fill="black"/>
</svg>
