<svg width="15" height="15" viewBox="0 0 15 15" fill="none" xmlns="http://www.w3.org/2000/svg">
<path d="M8.09969 0.200187C8.23791 0.0159265 8.48456 -0.0503556 8.69637 0.0400312C8.90824 0.13069 9.03104 0.354711 8.99325 0.582023L8.08993 5.99999H12.5001C12.6895 5.99999 12.8626 6.10699 12.9474 6.27636C13.032 6.44563 13.0139 6.64832 12.9005 6.7998L6.90048 14.7998C6.76226 14.9841 6.51562 15.0504 6.3038 14.96C6.09193 14.8693 5.96911 14.6453 6.00692 14.418L6.91024 8.99999H2.50008C2.3107 8.99999 2.13751 8.89302 2.05282 8.72362C1.9682 8.55436 1.98628 8.35165 2.09969 8.20019L8.09969 0.200187ZM3.50008 7.99999H7.50008C7.64705 7.99999 7.78692 8.06462 7.88192 8.17675C7.9768 8.28883 8.01733 8.43716 7.99325 8.58202L7.33016 12.5586L11.5001 6.99999H7.50008C7.35311 6.99999 7.21325 6.93538 7.11825 6.82323C7.02337 6.71115 6.98282 6.56282 7.00692 6.41796L7.66903 2.44042L3.50008 7.99999Z" fill="black"/>
</svg>
