<svg width="15" height="15" viewBox="0 0 15 15" fill="none" xmlns="http://www.w3.org/2000/svg">
  <path fill-rule="evenodd" clip-rule="evenodd"
    d="M8.6967 0.0402932C8.90863 0.130978 9.0311 0.354797 8.9932 0.582177L8.09023 5.99998H12.5C12.6894 5.99998 12.8625 6.10698 12.9472 6.27637C13.0319 6.44576 13.0136 6.64847 12.9 6.79998L6.9 14.8C6.76169 14.9844 6.51523 15.0503 6.3033 14.9597C6.09137 14.869 5.96891 14.6452 6.00681 14.4178L6.90977 8.99998H2.5C2.31062 8.99998 2.13749 8.89298 2.05279 8.72358C1.96809 8.55419 1.98637 8.35149 2.1 8.19998L8.1 0.199977C8.23831 0.0155645 8.48477 -0.0503914 8.6967 0.0402932ZM3.5 7.99998H7.5C7.64698 7.99998 7.78651 8.06464 7.88151 8.17679C7.97651 8.28894 8.01736 8.4372 7.9932 8.58218L7.3303 12.5596L11.5 6.99998H7.5C7.35303 6.99998 7.21349 6.93531 7.11849 6.82316C7.02349 6.71102 6.98264 6.56275 7.00681 6.41778L7.66971 2.44037L3.5 7.99998Z"
    fill="currentColor" />
</svg>