<svg width="15" height="15" viewBox="0 0 15 15" fill="none" xmlns="http://www.w3.org/2000/svg">
  <path fill-rule="evenodd" clip-rule="evenodd"
    d="M4.50035 -5.48363e-05C4.7765 -5.48363e-05 5.00035 0.223803 5.00035 0.499945V2.49995C5.00035 2.77609 4.7765 2.99995 4.50035 2.99995C4.22421 2.99995 4.00035 2.77609 4.00035 2.49995V0.499945C4.00035 0.223803 4.22421 -5.48363e-05 4.50035 -5.48363e-05ZM0.646513 0.646428C0.841775 0.451166 1.15836 0.451166 1.35362 0.646428L2.85362 2.14643C3.04888 2.34169 3.04888 2.65827 2.85362 2.85354C2.65836 3.0488 2.34178 3.0488 2.14651 2.85354L0.646513 1.35354C0.451251 1.15827 0.451251 0.841691 0.646513 0.646428ZM0.000353813 4.49995C0.000353813 4.2238 0.224211 3.99995 0.500354 3.99995H2.50035C2.7765 3.99995 3.00035 4.2238 3.00035 4.49995C3.00035 4.77609 2.7765 4.99995 2.50035 4.99995H0.500354C0.224211 4.99995 0.000353813 4.77609 0.000353813 4.49995ZM12.0004 10.4999C12.0004 10.2238 12.2242 9.99994 12.5004 9.99994H14.5004C14.7765 9.99994 15.0004 10.2238 15.0004 10.4999C15.0004 10.7761 14.7765 10.9999 14.5004 10.9999H12.5004C12.2242 10.9999 12.0004 10.7761 12.0004 10.4999ZM10.5004 11.9999C10.7765 11.9999 11.0004 12.2238 11.0004 12.4999V14.4999C11.0004 14.7761 10.7765 14.9999 10.5004 14.9999C10.2242 14.9999 10.0004 14.7761 10.0004 14.4999V12.4999C10.0004 12.2238 10.2242 11.9999 10.5004 11.9999ZM12.1465 12.1464C12.3418 11.9512 12.6584 11.9512 12.8536 12.1464L14.3536 13.6464C14.5489 13.8417 14.5489 14.1583 14.3536 14.3535C14.1584 14.5488 13.8418 14.5488 13.6465 14.3535L12.1465 12.8535C11.9512 12.6583 11.9512 12.3417 12.1465 12.1464ZM7.76499 3.6994C8.19199 3.2724 8.35746 3.11009 8.51182 3.00523C9.18818 2.54576 10.0433 2.53677 10.6787 2.95401C10.823 3.04875 10.977 3.19912 11.3889 3.61101C11.8008 4.0229 11.9512 4.17697 12.0459 4.32123C12.4632 4.95657 12.4542 5.81174 11.9947 6.4881C11.8898 6.64246 11.7275 6.80793 11.3005 7.23493L10.6818 7.85365C10.4865 8.04891 10.4865 8.36549 10.6818 8.56076C10.8771 8.75602 11.1936 8.75602 11.3889 8.56076L12.0076 7.94204L12.0505 7.89913C12.4202 7.52959 12.6567 7.29312 12.8219 7.05002C13.4971 6.05605 13.532 4.76235 12.8818 3.7723C12.7232 3.53084 12.4921 3.29983 12.1407 2.94854L12.096 2.9039L12.0514 2.85926C11.7001 2.50782 11.4691 2.27672 11.2276 2.11815C10.2376 1.46796 8.94387 1.50281 7.94989 2.17804C7.70679 2.34319 7.47033 2.57973 7.10079 2.94937L7.10079 2.94937L7.05788 2.99229L6.43916 3.61101C6.2439 3.80627 6.2439 4.12285 6.43916 4.31812C6.63442 4.51338 6.951 4.51338 7.14627 4.31812L7.76499 3.6994ZM2.99202 7.05815L2.9491 7.10106C2.57945 7.4706 2.34291 7.70707 2.17777 7.95017C1.50254 8.94414 1.46768 10.2378 2.11787 11.2279C2.27644 11.4693 2.50755 11.7004 2.85899 12.0517L2.90363 12.0963L2.94826 12.1409L2.94826 12.1409L2.94828 12.141C3.29956 12.4924 3.53057 12.7235 3.77202 12.882C4.76207 13.5322 6.05577 13.4974 7.04975 12.8221C7.29284 12.657 7.5293 12.4205 7.89882 12.0509L7.89883 12.0508L7.89885 12.0508L7.89886 12.0508L7.94176 12.0079L8.56048 11.3892C8.75574 11.1939 8.75574 10.8773 8.56048 10.6821C8.36522 10.4868 8.04864 10.4868 7.85337 10.6821L7.23466 11.3008C6.80765 11.7278 6.64219 11.8901 6.48782 11.995C5.81146 12.4544 4.9563 12.4634 4.32096 12.0462C4.17669 11.9514 4.02262 11.8011 3.61073 11.3892C3.19885 10.9773 3.04848 10.8232 2.95374 10.679C2.53649 10.0436 2.54549 9.18845 3.00495 8.5121C3.10982 8.35773 3.27212 8.19226 3.69912 7.76526L4.31784 7.14654C4.5131 6.95128 4.5131 6.6347 4.31784 6.43944C4.12258 6.24417 3.806 6.24417 3.61073 6.43944L2.99202 7.05815Z"
    fill="currentColor" />
</svg>