<svg width="15" height="15" viewBox="0 0 15 15" fill="none" xmlns="http://www.w3.org/2000/svg">
<path d="M10.5003 12C10.7764 12 11.0003 12.2238 11.0003 12.5V14.5C11.0003 14.7761 10.7764 15 10.5003 15C10.2242 14.9999 10.0003 14.7761 10.0003 14.5V12.5C10.0003 12.2238 10.2242 12 10.5003 12ZM12.1468 12.1465C12.3175 11.9759 12.5807 11.9543 12.7747 12.082L12.8538 12.1465L14.3538 13.6465L14.4173 13.7246C14.5457 13.9186 14.5246 14.1825 14.3538 14.3535C14.183 14.5243 13.919 14.546 13.7249 14.4179L13.6468 14.3535L12.1468 12.8535L12.0823 12.7754C11.9541 12.5813 11.9759 12.3174 12.1468 12.1465ZM3.61066 6.43942C3.80589 6.24419 4.12242 6.24424 4.31769 6.43942C4.51295 6.63468 4.51295 6.95119 4.31769 7.14645L3.69952 7.76559C3.27288 8.19224 3.11006 8.35743 3.00519 8.51169C2.5458 9.18793 2.53641 10.0434 2.95343 10.6787C3.04817 10.8229 3.19877 10.9777 3.61066 11.3896C4.02205 11.801 4.17648 11.9511 4.32062 12.0459C4.9559 12.4631 5.81128 12.4544 6.48761 11.9951C6.64198 11.8902 6.80768 11.7278 7.23468 11.3008L7.85382 10.6816C8.0491 10.4868 8.36574 10.4865 8.56085 10.6816C8.75611 10.8769 8.75611 11.1944 8.56085 11.3896L7.94171 12.0078C7.92721 12.0223 7.91285 12.0366 7.89874 12.0508C7.52932 12.4203 7.29313 12.6571 7.05011 12.8222C6.05614 13.4975 4.76184 13.532 3.77179 12.8818C3.53043 12.7232 3.29971 12.4919 2.94855 12.1406C2.93395 12.126 2.91865 12.1117 2.90363 12.0966C2.88853 12.0816 2.87337 12.0664 2.8587 12.0517C2.50733 11.7005 2.27605 11.4689 2.11749 11.2275C1.4676 10.2375 1.50291 8.94399 2.17804 7.95016C2.34318 7.70711 2.57995 7.47099 2.94952 7.10153C2.96363 7.08743 2.97799 7.07307 2.99249 7.05856L3.61066 6.43942ZM14.5003 9.99997C14.7764 9.99997 15.0003 10.2238 15.0003 10.5C15.0003 10.7761 14.7764 11 14.5003 11H12.5003C12.2242 10.9999 12.0003 10.7761 12.0003 10.5C12.0003 10.2238 12.2242 10 12.5003 9.99997H14.5003ZM7.94952 2.1777C8.9435 1.50247 10.2378 1.46794 11.2278 2.11813C11.4692 2.27669 11.6999 2.50804 12.0511 2.85934C12.0658 2.87402 12.0809 2.88917 12.096 2.90427C12.111 2.91929 12.1263 2.93361 12.1409 2.94821C12.4924 3.29951 12.7236 3.53098 12.8821 3.77243C13.5321 4.76243 13.4967 6.05589 12.8216 7.04977C12.6564 7.29288 12.4198 7.52985 12.0501 7.89938L11.389 8.56052C11.1937 8.75578 10.8772 8.75578 10.6819 8.56052C10.4867 8.36525 10.4867 8.04873 10.6819 7.85349L11.3001 7.23532C11.7269 6.80852 11.8896 6.64255 11.9944 6.48825C12.4539 5.81195 12.4633 4.95658 12.0462 4.32126C11.9515 4.17701 11.8007 4.02305 11.389 3.6113C10.9773 3.19966 10.8232 3.04882 10.679 2.95407C10.0438 2.53689 9.18833 2.5456 8.51202 3.00485C8.35767 3.10971 8.19189 3.27225 7.76495 3.69919L7.14581 4.31833C6.95052 4.51326 6.63393 4.51348 6.43878 4.31833C6.24371 4.12317 6.24388 3.80656 6.43878 3.6113L7.10089 2.94919C7.4703 2.57967 7.70649 2.34282 7.94952 2.1777ZM2.50031 3.99997C2.77645 3.99997 3.00031 4.22383 3.00031 4.49997C3.00029 4.7761 2.77644 4.99997 2.50031 4.99997H0.500305C0.224193 4.99994 0.000318316 4.77608 0.000305176 4.49997C0.000305176 4.22384 0.224185 4 0.500305 3.99997H2.50031ZM4.50031 -3.05176e-05C4.77645 -3.05176e-05 5.00031 0.223827 5.00031 0.499969V2.49997C5.00029 2.7761 4.77644 2.99997 4.50031 2.99997C4.22419 2.99994 4.00032 2.77608 4.00031 2.49997V0.499969C4.00031 0.223843 4.22419 -4.23257e-06 4.50031 -3.05176e-05ZM0.64679 0.646454C0.817505 0.475891 1.08075 0.454258 1.27472 0.582001L1.35382 0.646454L2.85382 2.14645L2.9173 2.22458C3.04567 2.41863 3.02464 2.68252 2.85382 2.85349C2.68301 3.02426 2.41896 3.04596 2.22491 2.91794L2.14679 2.85349L0.64679 1.35349L0.582336 1.27536C0.454107 1.08129 0.47593 0.817348 0.64679 0.646454Z" fill="black"/>
</svg>
