<svg width="15" height="15" viewBox="0 0 15 15" fill="none" xmlns="http://www.w3.org/2000/svg">
<path d="M3.61118 6.43964C3.80645 6.24456 4.123 6.24445 4.31821 6.43964C4.51323 6.63485 4.51323 6.95145 4.31821 7.14667L3.69907 7.76581C3.27238 8.1925 3.10958 8.3576 3.00473 8.5119C2.54529 9.18822 2.53677 10.0436 2.95395 10.6789C3.04869 10.8232 3.19934 10.977 3.61118 11.3889C4.02302 11.8007 4.17689 11.9513 4.32114 12.0461C4.95648 12.4633 5.81178 12.4548 6.48813 11.9953C6.64247 11.8904 6.80828 11.7279 7.2352 11.301L7.85337 10.6818C8.04855 10.4868 8.36517 10.4869 8.5604 10.6818C8.7556 10.877 8.75548 11.1936 8.5604 11.3889L7.94223 12.008C7.54784 12.4024 7.30203 12.651 7.04965 12.8224C6.05573 13.4975 4.76228 13.5321 3.77231 12.882C3.52088 12.7169 3.28054 12.4733 2.90415 12.0969C2.5275 11.7202 2.2832 11.4793 2.11801 11.2277C1.468 10.2378 1.50252 8.94426 2.17758 7.95038C2.34903 7.69801 2.59765 7.45218 2.99204 7.0578L3.61118 6.43964ZM8.91391 5.37811C9.109 5.18307 9.42565 5.18341 9.62094 5.37811C9.81619 5.57336 9.81617 5.88988 9.62094 6.08514L6.08579 9.6203C5.89053 9.81556 5.57402 9.81556 5.37876 9.6203C5.18404 9.42499 5.18368 9.10835 5.37876 8.91327L8.91391 5.37811ZM7.95005 2.17792C8.94393 1.50286 10.2374 1.46833 11.2274 2.11835C11.4789 2.28353 11.7199 2.52783 12.0965 2.90448C12.4729 3.28086 12.7166 3.52122 12.8817 3.77264C13.5318 4.7626 13.4972 6.05607 12.8221 7.04999C12.6507 7.30236 12.402 7.54818 12.0077 7.94257L11.3885 8.56073C11.1932 8.75584 10.8767 8.75594 10.6815 8.56073C10.4866 8.36549 10.4865 8.04888 10.6815 7.8537L11.3006 7.23553C11.7276 6.80861 11.8901 6.64281 11.995 6.48846C12.4544 5.81211 12.463 4.9568 12.0457 4.32147C11.951 4.17722 11.8004 4.02334 11.3885 3.61151C10.9767 3.19967 10.8228 3.04902 10.6786 2.95428C10.0432 2.5371 9.18789 2.54564 8.51157 3.00507C8.35726 3.10991 8.19218 3.2727 7.76548 3.6994L7.14633 4.31854C6.95112 4.51359 6.63453 4.51357 6.4393 4.31854C6.24411 4.12333 6.2442 3.80678 6.4393 3.61151L7.05747 2.99237C7.45185 2.59798 7.69767 2.34936 7.95005 2.17792Z" fill="black"/>
</svg>
