<svg width="15" height="15" viewBox="0 0 15 15" fill="none" xmlns="http://www.w3.org/2000/svg">
<path d="M5.49995 3.99989C5.77609 3.99989 5.99995 4.22376 5.99995 4.49989C5.99995 4.77604 5.7761 4.99989 5.49995 4.99989H4.62495C4.02153 4.99989 3.78964 5.00207 3.6064 5.037C2.8033 5.19036 2.1923 5.78886 2.03804 6.5331C2.00302 6.7021 1.99995 6.91741 1.99995 7.49989C1.99995 8.08237 2.00302 8.29769 2.03804 8.46669C2.19229 9.21092 2.8033 9.80942 3.6064 9.96278C3.78964 9.99771 4.02153 9.99989 4.62495 9.99989H5.49995C5.77609 9.99989 5.99995 10.2238 5.99995 10.4999C5.99995 10.776 5.7761 10.9999 5.49995 10.9999H4.62495C4.0675 10.9999 3.71848 11.0023 3.4189 10.9452C2.2387 10.7198 1.29895 9.82949 1.05855 8.66981C0.997494 8.37515 0.999953 8.03256 0.999953 7.49989C0.999953 6.96722 0.997491 6.62464 1.05855 6.32997C1.29896 5.17029 2.2387 4.27995 3.4189 4.05458C3.71848 3.99745 4.0675 3.99989 4.62495 3.99989H5.49995ZM10.375 3.99989C10.9324 3.99989 11.2814 3.99745 11.581 4.05458C12.7612 4.27995 13.7009 5.17029 13.9414 6.32997C14.0024 6.62464 14 6.96722 14 7.49989C14 8.03256 14.0024 8.37515 13.9414 8.66981C13.7009 9.8295 12.7612 10.7198 11.581 10.9452C11.2814 11.0023 10.9324 10.9999 10.375 10.9999H9.49995C9.22382 10.9999 8.99995 10.776 8.99995 10.4999C8.99996 10.2238 9.22382 9.9999 9.49995 9.99989H10.375C10.9784 9.99989 11.2103 9.99771 11.3935 9.96278C12.1966 9.80943 12.8076 9.21093 12.9619 8.46669C12.9969 8.29769 13 8.08238 13 7.49989C13 6.91741 12.9969 6.7021 12.9619 6.5331C12.8076 5.78886 12.1966 5.19036 11.3935 5.037C11.2103 5.00208 10.9784 4.99989 10.375 4.99989H9.49995C9.22382 4.99988 8.99995 4.77603 8.99995 4.49989C8.99996 4.22376 9.22382 3.9999 9.49995 3.99989H10.375Z" fill="black"/>
</svg>
