<svg width="15" height="15" viewBox="0 0 15 15" fill="none" xmlns="http://www.w3.org/2000/svg">
<path d="M2.23913 5.06796C2.10761 5.06796 2 5.18311 2 5.32383V12.7441C2 12.8849 2.10761 13 2.23913 13H4.63043C4.76196 13 4.86957 12.8849 4.86957 12.7441V5.32383C4.86957 5.18311 4.76196 5.06796 4.63043 5.06796H2.23913ZM5.82609 5.06796C5.69457 5.06796 5.58696 5.18311 5.58696 5.32383V12.7441C5.58696 12.8849 5.69457 13 5.82609 13H7.97826C8.11026 13 8.21739 12.8854 8.21739 12.7441V8.90604V8.84208V8.77811C8.21739 8.17169 8.65276 7.67774 9.20754 7.63168C9.23624 7.62656 9.26478 7.62668 9.29348 7.62668C9.32217 7.62668 9.35072 7.62656 9.37942 7.63168C9.9342 7.67774 10.3696 8.17169 10.3696 8.77811V12.7441C10.3696 12.8854 10.4767 13 10.6087 13H12.7609C12.8924 13 13 12.8849 13 12.7441V8.3943C13 6.73881 12.17 5.06796 10.3191 5.06796C9.47738 5.06796 8.84152 5.41601 8.45652 5.70514V5.32383C8.45652 5.18311 8.34891 5.06796 8.21739 5.06796H5.82609Z" fill="black"/>
<circle cx="3.5" cy="2.5" r="1.5" fill="black"/>
</svg>
