<svg width="15" height="15" viewBox="0 0 15 15" fill="none" xmlns="http://www.w3.org/2000/svg">
<path d="M12.6462 1.64637C12.8414 1.45116 13.1579 1.45126 13.3532 1.64637C13.5485 1.84163 13.5485 2.15814 13.3532 2.3534L2.35322 13.3534C2.15795 13.5485 1.8414 13.5486 1.64619 13.3534C1.45113 13.1582 1.45113 12.8416 1.64619 12.6464L12.6462 1.64637ZM12.4206 4.34559C13.1906 4.74613 13.7613 5.4628 13.9411 6.32996C14.0022 6.62463 13.9997 6.96723 13.9997 7.49989C13.9997 8.03254 14.0022 8.37515 13.9411 8.66981C13.7007 9.82949 12.761 10.7198 11.5808 10.9452C11.2812 11.0023 10.9321 10.9999 10.3747 10.9999H9.49971C9.22359 10.9999 8.99971 10.776 8.99971 10.4999C8.99973 10.2238 9.2236 9.99991 9.49971 9.99989H10.3747C10.9781 9.99989 11.21 9.9977 11.3933 9.96278C12.1964 9.80942 12.8074 9.21092 12.9616 8.46668C12.9966 8.29768 12.9997 8.08235 12.9997 7.49989C12.9997 6.91742 12.9966 6.70209 12.9616 6.53309C12.8249 5.87346 12.329 5.32949 11.6589 5.10731L12.4206 4.34559ZM5.49971 3.99989C5.77584 3.99989 5.99969 4.22376 5.99971 4.49989C5.99971 4.77603 5.77585 4.99989 5.49971 4.99989H4.62471C4.02131 4.99989 3.78939 5.00207 3.60615 5.037C2.80308 5.19036 2.19206 5.78887 2.03779 6.53309C2.00278 6.70209 1.99971 6.91742 1.99971 7.49989C1.99971 8.08233 2.00279 8.29768 2.03779 8.46668C2.17443 9.12593 2.67009 9.66904 3.33955 9.89149L2.57783 10.6532C1.80846 10.2525 1.23798 9.53653 1.0583 8.66981C0.997257 8.37515 0.999709 8.03253 0.999709 7.49989C0.999708 6.96723 0.997248 6.62463 1.0583 6.32996C1.29872 5.17031 2.23847 4.27995 3.41865 4.05457C3.71823 3.99744 4.06727 3.99989 4.62471 3.99989H5.49971Z" fill="black"/>
</svg>
