<svg width="15" height="15" viewBox="0 0 15 15" fill="none" xmlns="http://www.w3.org/2000/svg">
<path d="M3.61118 6.43964C3.80645 6.24454 4.123 6.24445 4.31821 6.43964C4.51324 6.63487 4.51326 6.95146 4.31821 7.14667L3.69907 7.76581C3.27235 8.19253 3.10958 8.3576 3.00474 8.51191C2.54529 9.18823 2.53677 10.0436 2.95396 10.6789C3.04869 10.8232 3.19934 10.977 3.61118 11.3889C4.02302 11.8007 4.17689 11.9513 4.32114 12.0461C4.95648 12.4633 5.81178 12.4548 6.48813 11.9953C6.64248 11.8904 6.80827 11.7279 7.23521 11.301L7.85337 10.6818C8.04855 10.4868 8.36517 10.4869 8.5604 10.6818C8.75561 10.877 8.75551 11.1936 8.5604 11.3889L7.94224 12.008C7.54784 12.4024 7.30204 12.651 7.04966 12.8225C6.05574 13.4975 4.76229 13.5321 3.77231 12.882C3.52089 12.7169 3.28054 12.4733 2.90415 12.0969C2.5275 11.7202 2.2832 11.4793 2.11802 11.2277C1.468 10.2378 1.50252 8.94427 2.17759 7.95038C2.34904 7.69801 2.59764 7.4522 2.99204 7.05781L3.61118 6.43964ZM7.95005 2.17792C8.94393 1.50285 10.2374 1.46834 11.2274 2.11835C11.4789 2.28354 11.7199 2.52784 12.0965 2.90449C12.4729 3.28088 12.7166 3.52122 12.8817 3.77265C13.5318 4.76262 13.4972 6.05607 12.8221 7.04999C12.6507 7.30237 12.4021 7.54817 12.0077 7.94257L11.3885 8.56074C11.1933 8.75585 10.8767 8.75595 10.6815 8.56074C10.4866 8.3655 10.4865 8.04888 10.6815 7.85371L11.3006 7.23554C11.7276 6.8086 11.8901 6.64282 11.995 6.48847C12.4544 5.81212 12.463 4.95682 12.0458 4.32148C11.951 4.17723 11.8004 4.02336 11.3885 3.61152C10.9767 3.19967 10.8228 3.04903 10.6786 2.95429C10.0432 2.5371 9.1879 2.54563 8.51157 3.00507C8.35727 3.10992 8.1922 3.27269 7.76548 3.69941L7.14634 4.31855C6.95113 4.5136 6.63453 4.51357 6.43931 4.31855C6.24411 4.12334 6.2442 3.80679 6.43931 3.61152L7.05747 2.99238C7.45187 2.59798 7.69767 2.34937 7.95005 2.17792Z" fill="black"/>
</svg>
