<svg width="15" height="15" viewBox="0 0 15 15" fill="none" xmlns="http://www.w3.org/2000/svg">
  <path fill-rule="evenodd" clip-rule="evenodd"
    d="M8.51192 3.00543C9.18827 2.54597 10.0434 2.53697 10.6788 2.95422C10.823 3.04896 10.9771 3.19933 11.389 3.61121C11.8009 4.0231 11.9513 4.17717 12.046 4.32144C12.4632 4.95678 12.4542 5.81194 11.9948 6.4883C11.8899 6.64267 11.7276 6.80813 11.3006 7.23514L10.6819 7.85385C10.4866 8.04912 10.4866 8.3657 10.6819 8.56096C10.8772 8.75622 11.1937 8.75622 11.389 8.56096L12.0077 7.94224L12.0507 7.89932C12.4203 7.52979 12.6568 7.29333 12.822 7.05023C13.4972 6.05625 13.5321 4.76255 12.8819 3.7725C12.7233 3.53105 12.4922 3.30004 12.1408 2.94874L12.0961 2.90411L12.0515 2.85945C11.7002 2.50802 11.4692 2.27692 11.2277 2.11835C10.2377 1.46816 8.94396 1.50302 7.94999 2.17825C7.70689 2.34339 7.47042 2.57993 7.10088 2.94958L7.05797 2.9925L6.43926 3.61121C6.24399 3.80648 6.24399 4.12306 6.43926 4.31832C6.63452 4.51358 6.9511 4.51358 7.14636 4.31832L7.76508 3.6996C8.19208 3.2726 8.35755 3.1103 8.51192 3.00543ZM4.31794 7.14675C4.5132 6.95149 4.5132 6.6349 4.31794 6.43964C4.12267 6.24438 3.80609 6.24438 3.61083 6.43964L2.99211 7.05836L2.9492 7.10127C2.57955 7.4708 2.34301 7.70727 2.17786 7.95037C1.50263 8.94435 1.46778 10.2381 2.11797 11.2281C2.27654 11.4696 2.50764 11.7006 2.85908 12.0519L2.90372 12.0965L2.94835 12.1411C3.29965 12.4926 3.53066 12.7237 3.77212 12.8823C4.76217 13.5324 6.05587 13.4976 7.04984 12.8224C7.29294 12.6572 7.52941 12.4207 7.89894 12.051L7.89895 12.051L7.94186 12.0081L8.56058 11.3894C8.75584 11.1941 8.75584 10.8775 8.56058 10.6823C8.36531 10.487 8.04873 10.487 7.85347 10.6823L7.23475 11.301C6.80775 11.728 6.64228 11.8903 6.48792 11.9952C5.81156 12.4546 4.9564 12.4636 4.32105 12.0464C4.17679 11.9516 4.02272 11.8013 3.61083 11.3894C3.19894 10.9775 3.04858 10.8234 2.95383 10.6792C2.53659 10.0438 2.54558 9.18866 3.00505 8.5123C3.10991 8.35794 3.27221 8.19247 3.69922 7.76547L4.31794 7.14675ZM9.6217 6.08561C9.81696 5.89034 9.81696 5.57376 9.6217 5.3785C9.42644 5.18324 9.10986 5.18324 8.91459 5.3785L5.37906 8.91403C5.1838 9.1093 5.1838 9.42588 5.37906 9.62114C5.57432 9.8164 5.8909 9.8164 6.08617 9.62114L9.6217 6.08561Z"
    fill="currentColor" />
</svg>