<svg width="15" height="15" viewBox="0 0 15 15" fill="none" xmlns="http://www.w3.org/2000/svg">
<path d="M5.49971 4.00002C5.77585 4.00002 5.9997 4.22388 5.99971 4.50002C5.99971 4.77616 5.77585 5.00002 5.49971 5.00002H4.62471C4.02129 5.00002 3.78939 5.00219 3.60615 5.03712C2.80306 5.19049 2.19205 5.78899 2.03779 6.53322C2.00278 6.70222 1.99971 6.91753 1.99971 7.50002C1.99971 8.08249 2.00278 8.29781 2.03779 8.46681C2.19205 9.21105 2.80306 9.80954 3.60615 9.96291C3.78939 9.99784 4.02129 10 4.62471 10H5.49971C5.77585 10 5.9997 10.2239 5.99971 10.5C5.99971 10.7762 5.77585 11 5.49971 11H4.62471C4.06726 11 3.71823 11.0025 3.41865 10.9453C2.23845 10.72 1.29871 9.82962 1.0583 8.66994C0.99725 8.37527 0.999709 8.03268 0.999709 7.50002C0.999708 6.96735 0.997247 6.62476 1.0583 6.33009C1.29871 5.17042 2.23845 4.28007 3.41865 4.0547C3.71823 3.99757 4.06726 4.00002 4.62471 4.00002H5.49971ZM10.3747 4.00002C10.9322 4.00002 11.2812 3.99758 11.5808 4.0547C12.761 4.28007 13.7007 5.17042 13.9411 6.33009C14.0022 6.62476 13.9997 6.96735 13.9997 7.50002C13.9997 8.03269 14.0022 8.37527 13.9411 8.66994C13.7007 9.82962 12.761 10.72 11.5808 10.9453C11.2812 11.0025 10.9322 11 10.3747 11H9.49971C9.22357 11 8.99971 10.7762 8.99971 10.5C8.99971 10.2239 9.22358 10 9.49971 10H10.3747C10.9781 10 11.21 9.99783 11.3933 9.96291C12.1964 9.80955 12.8074 9.21105 12.9616 8.46681C12.9966 8.29781 12.9997 8.0825 12.9997 7.50002C12.9997 6.91753 12.9966 6.70222 12.9616 6.53322C12.8074 5.78899 12.1964 5.19048 11.3933 5.03712C11.21 5.0022 10.9781 5.00002 10.3747 5.00002H9.49971C9.22357 5.00001 8.99971 4.77615 8.99971 4.50002C8.99971 4.22388 9.22358 4.00002 9.49971 4.00002H10.3747ZM10.0007 7.00002C10.2767 7.00017 10.5007 7.22397 10.5007 7.50002C10.5007 7.77606 10.2767 7.99986 10.0007 8.00002H5.00069C4.72454 8.00002 4.50069 7.77616 4.50069 7.50002C4.50069 7.22387 4.72454 7.00002 5.00069 7.00002H10.0007Z" fill="black"/>
</svg>
