<svg width="15" height="16" viewBox="0 0 15 16" fill="none" xmlns="http://www.w3.org/2000/svg">
<path d="M10.759 5.19824C10.7588 4.21076 10.2466 3.45415 9.54803 2.92188C8.83169 2.37617 7.99144 2.12506 7.50018 2.125C7.0089 2.125 6.16785 2.37598 5.45135 2.92188C4.75281 3.45415 4.24153 4.21083 4.24139 5.19824V5.74512C4.54363 7.21261 5.32657 9.28946 6.12616 11.0244C6.52889 11.8982 6.9259 12.6652 7.25409 13.2061C7.34423 13.3546 7.42689 13.4802 7.49921 13.584C7.57165 13.48 7.65593 13.355 7.74628 13.2061C8.07447 12.6652 8.4715 11.8982 8.87421 11.0244C9.67381 9.28943 10.4568 7.21261 10.759 5.74512V5.19824ZM12.009 5.87695L11.9963 5.9375C11.6739 7.54952 10.8333 9.75921 10.009 11.5479C9.595 12.4461 9.17602 13.2589 8.81464 13.8545C8.6355 14.1497 8.45986 14.41 8.29706 14.6035C8.21672 14.699 8.12327 14.7965 8.02069 14.876C7.93749 14.9404 7.75219 15.0702 7.50018 15.0703C7.24794 15.0703 7.06186 14.9404 6.9787 14.876C6.87628 14.7966 6.78355 14.6989 6.70331 14.6035C6.54053 14.41 6.36483 14.1497 6.18573 13.8545C5.82432 13.2589 5.40443 12.4462 4.99042 11.5479C4.16609 9.75921 3.32552 7.54952 3.00311 5.9375L2.99139 5.87695V5.19824C2.99154 3.72056 3.77433 2.62821 4.69354 1.92773C5.59522 1.24075 6.69694 0.875 7.50018 0.875C8.30342 0.875054 9.40425 1.2408 10.3058 1.92773C11.2252 2.62821 12.0088 3.72037 12.009 5.19824V5.87695Z" fill="black"/>
<circle cx="7.5" cy="5.5" r="1.5" fill="black"/>
</svg>
