<svg width="15" height="15" viewBox="0 0 15 15" fill="none" xmlns="http://www.w3.org/2000/svg">
  <path fill-rule="evenodd" clip-rule="evenodd"
    d="M5 4.63601C5 3.7603 5.24219 3.10539 5.64323 2.67357C6.03934 2.24705 6.64582 1.9783 7.5014 1.9783C8.35745 1.9783 8.96306 2.24651 9.35823 2.67208C9.75838 3.10299 10 3.75707 10 4.63325V5.99999H5V4.63601ZM4 5.99999V4.63601C4 3.58148 4.29339 2.65753 4.91049 1.99306C5.53252 1.32328 6.42675 0.9783 7.5014 0.9783C8.57583 0.9783 9.46952 1.32233 10.091 1.99162C10.7076 2.65556 11 3.57896 11 4.63325V5.99999H12C12.5523 5.99999 13 6.44771 13 6.99999V13C13 13.5523 12.5523 14 12 14H3C2.44772 14 2 13.5523 2 13V6.99999C2 6.44771 2.44772 5.99999 3 5.99999H4ZM3 6.99999H12V13H3V6.99999Z"
    fill="currentColor" />
</svg>