<svg width="15" height="15" viewBox="0 0 15 15" fill="none" xmlns="http://www.w3.org/2000/svg">
  <path fill-rule="evenodd" clip-rule="evenodd"
    d="M5.64323 2.6736C5.24219 3.10543 5 3.76034 5 4.63604V6.00002H10V4.63328C10 3.75711 9.75838 3.10302 9.35823 2.67211C8.96306 2.24655 8.35745 1.97833 7.5014 1.97833C6.64582 1.97833 6.03934 2.24709 5.64323 2.6736ZM4 4.63604V6.00002H3C2.44772 6.00002 2 6.44773 2 7.00002V13C2 13.5523 2.44772 14 3 14H12C12.5523 14 13 13.5523 13 13V7.00002C13 6.44773 12.5523 6.00002 12 6.00002H11V4.63328C11 3.57899 10.7076 2.6556 10.091 1.99165C9.46952 1.32236 8.57583 0.978333 7.5014 0.978333C6.42675 0.978333 5.53252 1.32332 4.91049 1.9931C4.29339 2.65757 4 3.58151 4 4.63604ZM12 7.00002H3V13H12V7.00002ZM9.6589 8.28776C9.81782 8.06193 9.76358 7.75003 9.53775 7.59111C9.31192 7.43219 9.00002 7.48643 8.8411 7.71226L6.35307 11.2479L5.35678 10.2331C5.16332 10.0361 4.84675 10.0332 4.6497 10.2267C4.45266 10.4201 4.44976 10.7367 4.64322 10.9337L6.05989 12.3766C6.16385 12.4825 6.30948 12.5367 6.45738 12.5247C6.60528 12.5126 6.74017 12.4354 6.82557 12.3141L9.6589 8.28776Z"
    fill="currentColor" />
</svg>