<svg width="15" height="15" viewBox="0 0 15 15" fill="none" xmlns="http://www.w3.org/2000/svg">
<path d="M7.50098 0.978333C8.5754 0.978333 9.46932 1.32271 10.0908 1.992C10.7073 2.65594 11 3.57936 11 4.63361V5.99982H12C12.5522 5.99982 12.9999 6.44763 13 6.99982V12.9998C13 13.5521 12.5523 13.9998 12 13.9998H3C2.44772 13.9998 2 13.5521 2 12.9998V6.99982C2.00011 6.44763 2.44778 5.99982 3 5.99982H4V4.63556C4.00009 3.58128 4.29322 2.65734 4.91016 1.99298C5.53211 1.32329 6.42651 0.978424 7.50098 0.978333ZM3 12.9998H12V6.99982H3V12.9998ZM9.14648 7.6463C9.34172 7.45117 9.65828 7.45117 9.85352 7.6463C10.0487 7.84153 10.0487 8.15806 9.85352 8.35333L8.20703 9.99982L9.85352 11.6463C10.0487 11.8415 10.0487 12.1581 9.85352 12.3533C9.65825 12.5486 9.34175 12.5486 9.14648 12.3533L7.5 10.7068L5.85352 12.3533C5.65825 12.5486 5.34175 12.5486 5.14648 12.3533C4.95132 12.1581 4.95126 11.8415 5.14648 11.6463L6.79297 9.99982L5.14648 8.35333C4.95132 8.15806 4.95126 7.84153 5.14648 7.6463C5.34172 7.45117 5.65828 7.45117 5.85352 7.6463L7.5 9.29279L9.14648 7.6463ZM7.50098 1.97833C6.64571 1.97842 6.0396 2.24728 5.64355 2.67365C5.24259 3.10539 5.00009 3.7601 5 4.63556V5.99982H10V4.63361C10 3.75743 9.75854 3.1026 9.3584 2.67169C8.96322 2.24621 8.35692 1.97833 7.50098 1.97833Z" fill="black"/>
</svg>
