<svg width="15" height="15" viewBox="0 0 15 15" fill="none" xmlns="http://www.w3.org/2000/svg">
<path d="M7.50098 0.978333C8.5754 0.978333 9.46932 1.32271 10.0908 1.992C10.7073 2.65594 11 3.57936 11 4.63361V5.99982H12C12.5522 5.99982 12.9999 6.44762 13 6.99982V12.9998C13 13.5521 12.5523 13.9998 12 13.9998H3C2.44772 13.9998 2 13.5521 2 12.9998V6.99982C2.00011 6.44762 2.44778 5.99982 3 5.99982H4V4.63556C4.00009 3.58128 4.29322 2.65734 4.91016 1.99298C5.53211 1.32329 6.42651 0.978424 7.50098 0.978333ZM3 12.9998H12V6.99982H3V12.9998ZM8.84082 7.71271C8.99974 7.48688 9.31225 7.43172 9.53809 7.59064C9.7639 7.74955 9.81807 8.06208 9.65918 8.2879L6.8252 12.3143C6.73978 12.4354 6.60481 12.5122 6.45703 12.5242C6.30924 12.5362 6.16346 12.4826 6.05957 12.3768L4.64355 10.9334C4.45009 10.7364 4.45238 10.4198 4.64941 10.2264C4.84641 10.033 5.16297 10.0363 5.35645 10.2332L6.35352 11.2479L8.84082 7.71271ZM7.50098 1.97833C6.64571 1.97842 6.0396 2.24728 5.64355 2.67365C5.24259 3.10539 5.00009 3.7601 5 4.63556V5.99982H10V4.63361C10 3.75743 9.75854 3.1026 9.3584 2.67169C8.96322 2.24621 8.35692 1.97833 7.50098 1.97833Z" fill="black"/>
</svg>
