<svg width="15" height="15" viewBox="0 0 15 15" fill="none" xmlns="http://www.w3.org/2000/svg">
<path d="M1.49996 6.99996C1.7761 6.99996 1.99996 7.22382 1.99996 7.49996C1.99996 9.43296 3.56697 11 5.49996 11H12.7929L11.6464 9.85348L11.582 9.77535C11.4538 9.58127 11.4756 9.31731 11.6464 9.14645C11.8173 8.97558 12.0813 8.95383 12.2754 9.08199L12.3535 9.14645L14.3535 11.1464C14.5487 11.3417 14.5487 11.6582 14.3535 11.8535L12.3535 13.8535C12.1582 14.0487 11.8417 14.0487 11.6464 13.8535C11.4512 13.6582 11.4512 13.3417 11.6464 13.1464L12.7929 12H5.49996C3.01468 12 0.999962 9.98524 0.999962 7.49996C0.999962 7.22382 1.22382 6.99996 1.49996 6.99996ZM2.64645 1.14645C2.84171 0.951184 3.15822 0.951184 3.35348 1.14645C3.54874 1.34171 3.54874 1.65822 3.35348 1.85348L2.20699 2.99996H9.49996C11.9852 2.99996 14 5.01468 14 7.49996C14 7.7761 13.7761 7.99996 13.5 7.99996C13.2238 7.99996 13 7.7761 13 7.49996C13 5.56697 11.433 3.99996 9.49996 3.99996H2.20699L3.35348 5.14645L3.41793 5.22457C3.5461 5.41865 3.52434 5.68261 3.35348 5.85348C3.18261 6.02434 2.91865 6.0461 2.72457 5.91793L2.64645 5.85348L0.646447 3.85348C0.451184 3.65822 0.451184 3.34171 0.646447 3.14645L2.64645 1.14645Z" fill="black"/>
</svg>
