<svg width="15" height="15" viewBox="0 0 15 15" fill="none" xmlns="http://www.w3.org/2000/svg">
  <path fill-rule="evenodd" clip-rule="evenodd"
    d="M1.49987 2.00012C1.77601 2.00012 1.99987 1.77626 1.99987 1.50012C1.99987 1.22397 1.77601 1.00012 1.49987 1.00012C1.22373 1.00012 0.999872 1.22397 0.999872 1.50012C0.999872 1.77626 1.22373 2.00012 1.49987 2.00012ZM4.49987 2.00012C4.77601 2.00012 4.99987 1.77626 4.99987 1.50012C4.99987 1.22397 4.77601 1.00012 4.49987 1.00012C4.22373 1.00012 3.99987 1.22397 3.99987 1.50012C3.99987 1.77626 4.22373 2.00012 4.49987 2.00012ZM7.99987 1.50012C7.99987 1.77626 7.77601 2.00012 7.49987 2.00012C7.22373 2.00012 6.99987 1.77626 6.99987 1.50012C6.99987 1.22397 7.22373 1.00012 7.49987 1.00012C7.77601 1.00012 7.99987 1.22397 7.99987 1.50012ZM10.4999 2.00012C10.776 2.00012 10.9999 1.77626 10.9999 1.50012C10.9999 1.22397 10.776 1.00012 10.4999 1.00012C10.2237 1.00012 9.99987 1.22397 9.99987 1.50012C9.99987 1.77626 10.2237 2.00012 10.4999 2.00012ZM13.9999 1.50012C13.9999 1.77626 13.776 2.00012 13.4999 2.00012C13.2237 2.00012 12.9999 1.77626 12.9999 1.50012C12.9999 1.22397 13.2237 1.00012 13.4999 1.00012C13.776 1.00012 13.9999 1.22397 13.9999 1.50012ZM1.49987 14.0001C1.77601 14.0001 1.99987 13.7763 1.99987 13.5001C1.99987 13.224 1.77601 13.0001 1.49987 13.0001C1.22373 13.0001 0.999872 13.224 0.999872 13.5001C0.999872 13.7763 1.22373 14.0001 1.49987 14.0001ZM1.99987 10.5001C1.99987 10.7763 1.77601 11.0001 1.49987 11.0001C1.22373 11.0001 0.999872 10.7763 0.999872 10.5001C0.999872 10.224 1.22373 10.0001 1.49987 10.0001C1.77601 10.0001 1.99987 10.224 1.99987 10.5001ZM1.49987 8.00012C1.77601 8.00012 1.99987 7.77626 1.99987 7.50012C1.99987 7.22397 1.77601 7.00012 1.49987 7.00012C1.22373 7.00012 0.999872 7.22397 0.999872 7.50012C0.999872 7.77626 1.22373 8.00012 1.49987 8.00012ZM1.99987 4.50012C1.99987 4.77626 1.77601 5.00012 1.49987 5.00012C1.22373 5.00012 0.999872 4.77626 0.999872 4.50012C0.999872 4.22397 1.22373 4.00012 1.49987 4.00012C1.77601 4.00012 1.99987 4.22397 1.99987 4.50012ZM13.4999 11.0001C13.776 11.0001 13.9999 10.7763 13.9999 10.5001C13.9999 10.224 13.776 10.0001 13.4999 10.0001C13.2237 10.0001 12.9999 10.224 12.9999 10.5001C12.9999 10.7763 13.2237 11.0001 13.4999 11.0001ZM13.9999 7.50012C13.9999 7.77626 13.776 8.00012 13.4999 8.00012C13.2237 8.00012 12.9999 7.77626 12.9999 7.50012C12.9999 7.22397 13.2237 7.00012 13.4999 7.00012C13.776 7.00012 13.9999 7.22397 13.9999 7.50012ZM13.4999 5.00012C13.776 5.00012 13.9999 4.77626 13.9999 4.50012C13.9999 4.22397 13.776 4.00012 13.4999 4.00012C13.2237 4.00012 12.9999 4.22397 12.9999 4.50012C12.9999 4.77626 13.2237 5.00012 13.4999 5.00012ZM4.99987 13.5001C4.99987 13.7763 4.77601 14.0001 4.49987 14.0001C4.22373 14.0001 3.99987 13.7763 3.99987 13.5001C3.99987 13.224 4.22373 13.0001 4.49987 13.0001C4.77601 13.0001 4.99987 13.224 4.99987 13.5001ZM7.49987 14.0001C7.77601 14.0001 7.99987 13.7763 7.99987 13.5001C7.99987 13.224 7.77601 13.0001 7.49987 13.0001C7.22373 13.0001 6.99987 13.224 6.99987 13.5001C6.99987 13.7763 7.22373 14.0001 7.49987 14.0001ZM10.9999 13.5001C10.9999 13.7763 10.776 14.0001 10.4999 14.0001C10.2237 14.0001 9.99987 13.7763 9.99987 13.5001C9.99987 13.224 10.2237 13.0001 10.4999 13.0001C10.776 13.0001 10.9999 13.224 10.9999 13.5001ZM13.4999 14.0001C13.776 14.0001 13.9999 13.7763 13.9999 13.5001C13.9999 13.224 13.776 13.0001 13.4999 13.0001C13.2237 13.0001 12.9999 13.224 12.9999 13.5001C12.9999 13.7763 13.2237 14.0001 13.4999 14.0001ZM3.99987 5.00012C3.99987 4.44783 4.44759 4.00012 4.99987 4.00012H9.99987C10.5522 4.00012 10.9999 4.44783 10.9999 5.00012V10.0001C10.9999 10.5524 10.5522 11.0001 9.99987 11.0001H4.99987C4.44759 11.0001 3.99987 10.5524 3.99987 10.0001V5.00012ZM4.99987 5.00012H9.99987V10.0001H4.99987V5.00012Z"
    fill="currentColor" />
</svg>