<svg width="17" height="15" viewBox="0 0 17 15" fill="none" xmlns="http://www.w3.org/2000/svg">
<path fill-rule="evenodd" clip-rule="evenodd" d="M0.5 4C0.5 3.17157 1.17157 2.5 2 2.5H15C15.8284 2.5 16.5 3.17157 16.5 4V11C16.5 11.0254 16.4994 11.0507 16.4981 11.0759V14.16C16.4981 14.3386 16.4028 14.5036 16.2481 14.593C16.0934 14.6823 15.9028 14.6823 15.7481 14.593L12.123 12.5H2C1.17157 12.5 0.5 11.8284 0.5 11V4ZM15.5 3.5H1.5V11.5H12.257C12.3447 11.5 12.4309 11.5231 12.507 11.567L15.4981 13.2939V11.5H15.5V3.5ZM12 8.5C12.5523 8.5 13 8.05229 13 7.5C13 6.94772 12.5523 6.5 12 6.5C11.4477 6.5 11 6.94772 11 7.5C11 8.05229 11.4477 8.5 12 8.5ZM6 7.5C6 8.05229 5.55228 8.5 5 8.5C4.44772 8.5 4 8.05229 4 7.5C4 6.94772 4.44772 6.5 5 6.5C5.55228 6.5 6 6.94772 6 7.5ZM8.5 8.5C9.05229 8.5 9.5 8.05229 9.5 7.5C9.5 6.94772 9.05229 6.5 8.5 6.5C7.94772 6.5 7.5 6.94772 7.5 7.5C7.5 8.05229 7.94772 8.5 8.5 8.5Z" fill="black"/>
</svg>
