<svg width="17" height="15" viewBox="0 0 17 15" fill="none" xmlns="http://www.w3.org/2000/svg">
<path fill-rule="evenodd" clip-rule="evenodd" d="M2 2.5C1.17157 2.5 0.5 3.17157 0.5 4V11C0.5 11.8284 1.17157 12.5 2 12.5H12.123L15.7481 14.593C15.9028 14.6823 16.0934 14.6823 16.2481 14.593C16.4028 14.5036 16.4981 14.3386 16.4981 14.16V11.0759C16.4994 11.0507 16.5 11.0254 16.5 11V4C16.5 3.17157 15.8284 2.5 15 2.5H2ZM1.5 3.5H15.5V11.5H15.4981V13.2939L12.507 11.567C12.4309 11.5231 12.3447 11.5 12.257 11.5H1.5V3.5Z" fill="black"/>
<path d="M4 5C3.72386 5 3.5 5.22386 3.5 5.5C3.5 5.77614 3.72386 6 4 6H13C13.2761 6 13.5 5.77614 13.5 5.5C13.5 5.22386 13.2761 5 13 5H4Z" fill="black"/>
<path d="M3.5 7.5C3.5 7.22386 3.72386 7 4 7H12C12.2761 7 12.5 7.22386 12.5 7.5C12.5 7.77614 12.2761 8 12 8H4C3.72386 8 3.5 7.77614 3.5 7.5Z" fill="black"/>
<path d="M3.5 9.5C3.5 9.22386 3.72386 9 4 9H12C12.2761 9 12.5 9.22386 12.5 9.5C12.5 9.77614 12.2761 10 12 10H4C3.72386 10 3.5 9.77614 3.5 9.5Z" fill="black"/>
</svg>
