<svg width="15" height="17" viewBox="0 0 15 17" fill="none" xmlns="http://www.w3.org/2000/svg">
<path fill-rule="evenodd" clip-rule="evenodd" d="M1.05005 8.45C1.05005 8.20147 1.25152 8 1.50005 8L13.5 8C13.7486 8 13.95 8.20147 13.95 8.45C13.95 8.69853 13.7486 8.9 13.5 8.9L1.50005 8.9C1.25152 8.9 1.05005 8.69853 1.05005 8.45Z" fill="black"/>
<path fill-rule="evenodd" clip-rule="evenodd" d="M7.1813 9.68179C7.35704 9.50605 7.64196 9.50605 7.8177 9.68179L10.3177 12.1818C10.4934 12.3575 10.4934 12.6425 10.3177 12.8182C10.142 12.9939 9.85704 12.9939 9.6813 12.8182L7.9495 11.0864V16C7.9495 16.2485 7.74803 16.45 7.4995 16.45C7.25097 16.45 7.0495 16.2485 7.0495 16V11.0864L5.3177 12.8182C5.14196 12.9939 4.85704 12.9939 4.6813 12.8182C4.50557 12.6424 4.50557 12.3575 4.6813 12.1818L7.1813 9.68179Z" fill="black"/>
<path fill-rule="evenodd" clip-rule="evenodd" d="M7.81772 7.31821C7.64199 7.49395 7.35706 7.49395 7.18133 7.31821L4.68133 4.81821C4.50559 4.64247 4.50559 4.35755 4.68133 4.18181C4.85706 4.00608 5.14199 4.00608 5.31772 4.18181L7.04952 5.91362L7.04952 1.00001C7.04952 0.751484 7.251 0.550012 7.49952 0.550012C7.74805 0.550012 7.94952 0.751484 7.94952 1.00001L7.94952 5.91362L9.68133 4.18181C9.85706 4.00608 10.142 4.00608 10.3177 4.18181C10.4935 4.35755 10.4935 4.64247 10.3177 4.81821L7.81772 7.31821Z" fill="black"/>
</svg>
