<svg width="15" height="15" viewBox="0 0 15 15" fill="none" xmlns="http://www.w3.org/2000/svg">
<path d="M8 12.5C8 12.7761 7.77614 13 7.5 13C7.22386 13 7 12.7761 7 12.5C7 12.2238 7.22386 12 7.5 12C7.77614 12 8 12.2238 8 12.5Z" fill="black"/>
<path fill-rule="evenodd" clip-rule="evenodd" d="M5.23991 0.0358892H9.7601C10.0681 0.0358776 10.3338 0.0358676 10.5514 0.0565552C10.7817 0.0784551 11.0092 0.127016 11.2212 0.25693C11.4231 0.380614 11.5928 0.550309 11.7165 0.752143C11.8464 0.964142 11.8949 1.19165 11.9168 1.42198C11.9375 1.63957 11.9375 1.90525 11.9375 2.2133V12.7097C11.9375 13.0178 11.9375 13.2835 11.9168 13.5011C11.8949 13.7314 11.8464 13.9589 11.7165 14.1709C11.5928 14.3727 11.4231 14.5424 11.2212 14.6661C11.0092 14.796 10.7817 14.8446 10.5514 14.8665C10.3338 14.8872 10.0681 14.8872 9.76009 14.8871H5.23991C4.93187 14.8872 4.66618 14.8872 4.44859 14.8665C4.21826 14.8446 3.99075 14.796 3.77875 14.6661C3.57692 14.5424 3.40723 14.3727 3.28354 14.1709C3.15363 13.9589 3.10507 13.7314 3.08317 13.5011C3.06248 13.2835 3.06249 13.0178 3.0625 12.7098V2.21329C3.06249 1.90526 3.06248 1.63956 3.08317 1.42198C3.10507 1.19165 3.15363 0.964142 3.28354 0.752143C3.40723 0.550309 3.57692 0.380614 3.77875 0.25693C3.99075 0.127016 4.21827 0.0784551 4.44859 0.0565552C4.66618 0.0358676 4.93187 0.0358776 5.23991 0.0358892ZM4.54325 1.05207C4.38612 1.06701 4.32972 1.09212 4.30125 1.10957C4.23397 1.1508 4.17741 1.20736 4.13618 1.27464C4.11874 1.30311 4.09362 1.35951 4.07868 1.51664C4.06303 1.68121 4.0625 1.89887 4.0625 2.23589V9.99998H10.9375V2.23589C10.9375 1.89887 10.937 1.68121 10.9213 1.51664C10.9064 1.35951 10.8813 1.30311 10.8638 1.27464C10.8226 1.20736 10.766 1.1508 10.6987 1.10957C10.6703 1.09212 10.6139 1.06701 10.4568 1.05207C10.2922 1.03642 10.0745 1.03589 9.7375 1.03589H5.2625C4.92548 1.03589 4.70782 1.03642 4.54325 1.05207ZM10.9375 11H4.0625V12.6871C4.0625 13.0242 4.06303 13.2418 4.07868 13.4064C4.09362 13.5635 4.11874 13.6199 4.13618 13.6484C4.17741 13.7157 4.23397 13.7722 4.30125 13.8135C4.32972 13.8309 4.38612 13.856 4.54325 13.871C4.70782 13.8866 4.92548 13.8871 5.2625 13.8871H9.7375C10.0745 13.8871 10.2922 13.8866 10.4568 13.871C10.6139 13.856 10.6703 13.8309 10.6987 13.8135C10.766 13.7722 10.8226 13.7157 10.8638 13.6484C10.8813 13.6199 10.9064 13.5635 10.9213 13.4064C10.937 13.2418 10.9375 13.0242 10.9375 12.6871V11Z" fill="black"/>
</svg>
