<svg width="15" height="15" viewBox="0 0 15 15" fill="none" xmlns="http://www.w3.org/2000/svg">
<path fill-rule="evenodd" clip-rule="evenodd" d="M7.48756 14C11.1406 13.9932 14.0999 11.0297 14.0999 7.375C14.0999 4.11031 11.7385 1.39717 8.63055 0.850443C8.26317 0.787256 7.88545 0.754334 7.50003 0.754333C6.61549 0.754333 5.77144 0.927748 5.00004 1.24243C4.994 1.23997 4.98795 1.23751 4.98191 1.23507C4.56838 1.40314 4.17567 1.61177 3.80871 1.85603C3.81664 1.85791 3.82458 1.8598 3.8325 1.8617C2.05098 3.04871 0.877197 5.07587 0.877197 7.37717C0.877197 9.67847 2.05098 11.7056 3.8325 12.8926C3.82617 12.8942 3.81985 12.8957 3.81352 12.8972C4.18068 13.1411 4.57357 13.3494 4.98725 13.5171C4.99152 13.5154 4.99578 13.5136 5.00004 13.5119C5.76781 13.8251 6.60755 13.9984 7.48756 14ZM6.16758 12.8926C7.94909 11.7056 9.12286 9.67847 9.12286 7.37717C9.12286 5.07588 7.94909 3.04871 6.16757 1.8617C6.59492 1.75883 7.04111 1.70433 7.50003 1.70433C10.633 1.70433 13.1729 4.24418 13.1729 7.37717C13.1729 10.5102 10.633 13.05 7.50003 13.05C7.04111 13.05 6.59492 12.9955 6.16758 12.8926Z" fill="black"/>
</svg>
