<svg width="15" height="15" viewBox="0 0 15 15" fill="none" xmlns="http://www.w3.org/2000/svg">
<path d="M7.49988 14C6.54186 14 5.62993 13.7966 4.80652 13.4297C4.63524 13.3533 4.52527 13.1826 4.52527 12.9951C4.52538 12.8078 4.63541 12.6379 4.80652 12.5615C6.79091 11.6772 8.17273 9.68781 8.17273 7.37695C8.17264 5.0662 6.79085 3.07671 4.80652 2.19238C4.63541 2.11597 4.52527 1.9462 4.52527 1.75879C4.52532 1.57139 4.6354 1.40157 4.80652 1.32519C5.62993 0.95824 6.54186 0.753936 7.49988 0.753906C11.1575 0.753906 14.1228 3.71939 14.1229 7.37695C14.1229 11.0346 11.1576 14 7.49988 14ZM7.49988 13.0498C10.6329 13.0498 13.1727 10.51 13.1727 7.37695C13.1726 4.24406 10.6328 1.7041 7.49988 1.7041C7.0408 1.70412 6.59478 1.75861 6.16785 1.86133C7.94882 3.04793 9.12285 5.07515 9.12293 7.37695C9.12293 9.67877 7.94876 11.7059 6.16785 12.8926C6.59481 12.9953 7.04076 13.0498 7.49988 13.0498Z" fill="black"/>
</svg>
