<svg width="15" height="15" viewBox="0 0 15 15" fill="none" xmlns="http://www.w3.org/2000/svg">
<path fill-rule="evenodd" clip-rule="evenodd" d="M4.98188 1.23506C4.98794 1.23751 4.99399 1.23997 5.00004 1.24243C5.77144 0.927748 6.61548 0.754333 7.50003 0.754333C7.88626 0.754334 8.26477 0.787396 8.63288 0.850844C11.7397 1.39853 14.0999 4.11113 14.0999 7.37499C14.0999 11.0308 11.1387 13.995 7.48406 14C6.60533 13.9979 5.7668 13.8247 5.00004 13.5119C4.99578 13.5136 4.99152 13.5154 4.98726 13.5171C4.57358 13.3494 4.18068 13.1411 3.81352 12.8972C3.81985 12.8957 3.82617 12.8942 3.8325 12.8926C2.05098 11.7056 0.877197 9.67847 0.877197 7.37717C0.877197 5.07587 2.05098 3.04871 3.8325 1.8617C3.82457 1.85979 3.81663 1.8579 3.80868 1.85602C4.17564 1.61176 4.56835 1.40313 4.98188 1.23506ZM1.8272 7.37717C1.8272 5.14139 3.12063 3.20769 5.00004 2.28351C6.87944 3.20769 8.17286 5.14139 8.17286 7.37717C8.17286 9.61296 6.87944 11.5467 5.00004 12.4708C3.12063 11.5467 1.8272 9.61295 1.8272 7.37717ZM9.12286 7.37717C9.12286 9.67847 7.94909 11.7056 6.16757 12.8926C6.59492 12.9955 7.04111 13.05 7.50003 13.05C10.633 13.05 13.1729 10.5102 13.1729 7.37717C13.1729 4.24418 10.633 1.70433 7.50003 1.70433C7.04111 1.70433 6.59492 1.75883 6.16757 1.8617C7.94909 3.04871 9.12286 5.07588 9.12286 7.37717Z" fill="black"/>
</svg>
