<svg width="15" height="15" viewBox="0 0 15 15" fill="none" xmlns="http://www.w3.org/2000/svg">
<path d="M7.50085 14C6.54305 14 5.63077 13.7965 4.8075 13.4297C4.6364 13.3534 4.52553 13.1834 4.52527 12.9961C4.52527 12.8086 4.63619 12.6379 4.8075 12.5615C6.79134 11.6771 8.17341 9.68823 8.17371 7.37793C8.17371 5.0674 6.79146 3.07789 4.8075 2.19336C4.63644 2.11713 4.52559 1.94698 4.52527 1.75976C4.52527 1.57222 4.6362 1.40154 4.8075 1.32519C5.63082 0.958371 6.54298 0.754882 7.50086 0.754882C11.1582 0.755281 14.1229 3.72052 14.1229 7.37793C14.1225 11.035 11.158 13.9996 7.50085 14Z" fill="black"/>
</svg>
