<svg width="15" height="15" viewBox="0 0 15 15" fill="none" xmlns="http://www.w3.org/2000/svg">
<path d="M7.50016 9.0002C7.77621 9.00031 8.00016 9.22413 8.00016 9.5002V12.6135L8.9318 11.6818C9.10754 11.5061 9.39278 11.5061 9.56852 11.6818C9.74406 11.8576 9.74419 12.1429 9.56852 12.3186L7.81852 14.0686C7.64285 14.2442 7.35755 14.2441 7.1818 14.0686L5.4318 12.3186L5.37418 12.2483C5.25867 12.0736 5.27796 11.8357 5.4318 11.6818C5.58564 11.528 5.82352 11.5087 5.99821 11.6242L6.06852 11.6818L7.00016 12.6135V9.5002C7.00016 9.22406 7.22402 9.0002 7.50016 9.0002ZM11.6818 5.43185C11.8356 5.278 12.0735 5.25871 12.2482 5.37423L12.3185 5.43185L14.0685 7.18185C14.2441 7.3576 14.2442 7.64289 14.0685 7.81856L12.3185 9.56856C12.1428 9.74423 11.8576 9.7441 11.6818 9.56856C11.5061 9.39283 11.5061 9.10758 11.6818 8.93185L12.6134 8.0002H9.50016C9.22408 8.0002 9.00027 7.77626 9.00016 7.5002C9.00016 7.22406 9.22402 7.0002 9.50016 7.0002H12.6134L11.6818 6.06856L11.6242 5.99825C11.5087 5.82356 11.528 5.58569 11.6818 5.43185ZM2.6818 5.43185C2.85754 5.25611 3.14278 5.25611 3.31852 5.43185C3.49406 5.6076 3.49419 5.89289 3.31852 6.06856L2.38688 7.0002H5.50016C5.77621 7.00031 6.00016 7.22413 6.00016 7.5002C6.00005 7.77619 5.77615 8.0001 5.50016 8.0002H2.38688L3.31852 8.93185L3.37614 9.00216C3.49148 9.17683 3.4723 9.41479 3.31852 9.56856C3.16474 9.72234 2.92678 9.74153 2.75211 9.62618L2.6818 9.56856L0.931801 7.81856C0.756065 7.64283 0.756065 7.35758 0.931801 7.18185L2.6818 5.43185ZM7.25211 0.874228C7.4268 0.758749 7.66469 0.778015 7.81852 0.931845L9.56852 2.68185L9.62614 2.75216C9.74148 2.92683 9.7223 3.16479 9.56852 3.31856C9.41474 3.47234 9.17678 3.49153 9.00211 3.37618L8.9318 3.31856L8.00016 2.38692V5.5002C8.00006 5.77619 7.77615 6.0001 7.50016 6.0002C7.22408 6.0002 7.00027 5.77626 7.00016 5.5002V2.38692L6.06852 3.31856C5.89285 3.49423 5.60755 3.4941 5.4318 3.31856C5.25607 3.14283 5.25607 2.85758 5.4318 2.68185L7.1818 0.931845L7.25211 0.874228Z" fill="black"/>
</svg>
