<svg width="15" height="15" viewBox="0 0 15 15" fill="none" xmlns="http://www.w3.org/2000/svg">
  <path fill-rule="evenodd" clip-rule="evenodd"
    d="M10.8 1C11.137 1 11.3547 1.00053 11.5193 1.01618C11.6764 1.03112 11.7328 1.05624 11.7612 1.07368C11.8285 1.11491 11.8851 1.17147 11.9263 1.23875C11.9438 1.26722 11.9689 1.32362 11.9838 1.48075C11.9995 1.64532 12 1.86298 12 2.2V12.5C12 12.7761 12.2239 13 12.5 13C12.7761 13 13 12.7761 13 12.5V2.17741C13 1.86936 13 1.60368 12.9793 1.38609C12.9574 1.15576 12.9089 0.928253 12.779 0.716254C12.6553 0.51442 12.4856 0.344724 12.2837 0.221041C12.0717 0.0911273 11.8442 0.0425659 11.6139 0.020666C11.3963 -2.16574e-05 11.1307 -1.16286e-05 10.8226 0H10.8226H2.5C2.22386 0 2 0.223859 2 0.500001C2 0.776144 2.22386 1 2.5 1H10.8ZM2.1774 2H8.8226C9.13064 1.99999 9.39632 1.99998 9.61391 2.02067C9.84424 2.04257 10.0717 2.09113 10.2837 2.22104C10.4856 2.34472 10.6553 2.51442 10.779 2.71625C10.9089 2.92825 10.9574 3.15576 10.9793 3.38609C11 3.60368 11 3.86936 11 4.17741V12.8226C11 13.1306 11 13.3963 10.9793 13.6139C10.9574 13.8442 10.9089 14.0717 10.779 14.2837C10.6553 14.4856 10.4856 14.6553 10.2837 14.779C10.0717 14.9089 9.84424 14.9574 9.61391 14.9793C9.39632 15 9.13064 15 8.82259 15H2.17741C1.86936 15 1.60368 15 1.38609 14.9793C1.15576 14.9574 0.928253 14.9089 0.716253 14.779C0.51442 14.6553 0.344725 14.4856 0.221041 14.2837C0.0911272 14.0717 0.0425659 13.8442 0.020666 13.6139C-2.1657e-05 13.3963 -1.16286e-05 13.1307 0 12.8226V12.8226V4.1774V4.17738C-1.16286e-05 3.86935 -2.16574e-05 3.60367 0.020666 3.38609C0.0425659 3.15576 0.0911273 2.92825 0.221041 2.71625C0.344725 2.51442 0.51442 2.34472 0.716253 2.22104C0.928253 2.09113 1.15576 2.04257 1.38609 2.02067C1.60368 1.99998 1.86936 1.99999 2.1774 2ZM1.48075 3.01618C1.32362 3.03112 1.26722 3.05623 1.23875 3.07368C1.17147 3.11491 1.11491 3.17147 1.07368 3.23875C1.05623 3.26722 1.03112 3.32362 1.01618 3.48075C1.00053 3.64532 1 3.86298 1 4.2V12.8C1 13.137 1.00053 13.3547 1.01618 13.5193C1.03112 13.6764 1.05623 13.7328 1.07368 13.7613C1.11491 13.8285 1.17147 13.8851 1.23875 13.9263C1.26722 13.9438 1.32362 13.9689 1.48075 13.9838C1.64532 13.9995 1.86298 14 2.2 14H8.8C9.13703 14 9.35468 13.9995 9.51925 13.9838C9.67639 13.9689 9.73278 13.9438 9.76125 13.9263C9.82853 13.8851 9.88509 13.8285 9.92632 13.7613C9.94377 13.7328 9.96889 13.6764 9.98383 13.5193C9.99947 13.3547 10 13.137 10 12.8V4.2C10 3.86298 9.99947 3.64532 9.98383 3.48075C9.96889 3.32362 9.94377 3.26722 9.92632 3.23875C9.88509 3.17147 9.82853 3.11491 9.76125 3.07368C9.73278 3.05623 9.67639 3.03112 9.51925 3.01618C9.35468 3.00053 9.13703 3 8.8 3H2.2C1.86298 3 1.64532 3.00053 1.48075 3.01618ZM2.5 11.5C2.5 11.2239 2.72386 11 3 11H6C6.27614 11 6.5 11.2239 6.5 11.5C6.5 11.7761 6.27614 12 6 12H3C2.72386 12 2.5 11.7761 2.5 11.5ZM3 8C2.72386 8 2.5 8.22386 2.5 8.5C2.5 8.77614 2.72386 9 3 9H8C8.27614 9 8.5 8.77614 8.5 8.5C8.5 8.22386 8.27614 8 8 8H3ZM2.5 5.5C2.5 5.22386 2.72386 5 3 5H8C8.27614 5 8.5 5.22386 8.5 5.5C8.5 5.77614 8.27614 6 8 6H3C2.72386 6 2.5 5.77614 2.5 5.5Z"
    fill="currentColor" />
</svg>