<svg width="15" height="15" viewBox="0 0 15 15" fill="none" xmlns="http://www.w3.org/2000/svg">
<path d="M8.82227 2C9.13031 1.99999 9.39667 1.99982 9.61426 2.02051C9.84448 2.04242 10.0723 2.09085 10.2842 2.2207C10.4859 2.34435 10.6557 2.51411 10.7793 2.71582C10.9091 2.92772 10.9576 3.15553 10.9795 3.38574C11.0002 3.60333 11 3.86969 11 4.17774V12.8223C11 13.1303 11.0002 13.3967 10.9795 13.6143C10.9576 13.8445 10.9091 14.0723 10.7793 14.2842C10.6557 14.4859 10.4859 14.6557 10.2842 14.7793C10.0723 14.9091 9.84447 14.9576 9.61426 14.9795C9.39667 15.0002 9.13031 15 8.82227 15H2.17774C1.86969 15 1.60333 15.0002 1.38574 14.9795C1.15553 14.9576 0.927719 14.9091 0.715821 14.7793C0.514115 14.6557 0.344345 14.4859 0.220704 14.2842C0.0908526 14.0723 0.0424237 13.8445 0.0205088 13.6143C-0.000179429 13.3967 -1.12547e-05 13.1303 9.64255e-07 12.8223V4.17774C-1.12547e-05 3.86969 -0.000179429 3.60333 0.0205088 3.38574C0.0424238 3.15553 0.0908531 2.92772 0.220704 2.71582C0.344346 2.51411 0.514115 2.34435 0.715821 2.2207C0.927719 2.09085 1.15553 2.04242 1.38574 2.02051C1.60333 1.99982 1.86969 1.99999 2.17774 2H8.82227ZM2.2002 3C1.86317 3 1.64504 3.00095 1.48047 3.0166C1.32358 3.03155 1.26673 3.05581 1.23828 3.07324C1.17112 3.11443 1.11443 3.17112 1.07324 3.23828C1.05581 3.26673 1.03155 3.32358 1.0166 3.48047C1.00095 3.64504 1 3.86317 1 4.2002V12.7998C1 13.1368 1.00095 13.355 1.0166 13.5195C1.03155 13.6764 1.05581 13.7333 1.07324 13.7617C1.11443 13.8289 1.17112 13.8856 1.23828 13.9268C1.26673 13.9442 1.32358 13.9685 1.48047 13.9834C1.64504 13.999 1.86317 14 2.2002 14H8.79981C9.13683 14 9.35496 13.999 9.51953 13.9834C9.67642 13.9685 9.73327 13.9442 9.76172 13.9268C9.82889 13.8856 9.88557 13.8289 9.92676 13.7617C9.94419 13.7333 9.96846 13.6764 9.9834 13.5195C9.99905 13.355 10 13.1368 10 12.7998V4.2002C10 3.86317 9.99905 3.64504 9.9834 3.48047C9.96846 3.32358 9.94419 3.26673 9.92676 3.23828C9.88557 3.17112 9.82888 3.11443 9.76172 3.07324C9.73327 3.05581 9.67642 3.03155 9.51953 3.0166C9.35496 3.00095 9.13683 3 8.79981 3H2.2002ZM10.8223 9.64255e-07C11.1303 -1.12547e-05 11.3967 -0.000179429 11.6143 0.0205088C11.8445 0.0424237 12.0723 0.0908526 12.2842 0.220704C12.4859 0.344345 12.6557 0.514115 12.7793 0.715821C12.9091 0.927719 12.9576 1.15553 12.9795 1.38574C13.0002 1.60333 13 1.86969 13 2.17774V12.5C13 12.7761 12.7761 13 12.5 13C12.2239 13 12 12.7761 12 12.5V2.2002C12 1.86317 11.999 1.64504 11.9834 1.48047C11.9685 1.32358 11.9442 1.26673 11.9268 1.23828C11.8856 1.17112 11.8289 1.11443 11.7617 1.07324C11.7333 1.05581 11.6764 1.03155 11.5195 1.0166C11.355 1.00095 11.1368 1 10.7998 1H2.5C2.22386 1 2 0.776143 2 0.500001C2 0.223859 2.22386 9.64255e-07 2.5 9.64255e-07H10.8223ZM6 11C6.27614 11 6.5 11.2239 6.5 11.5C6.5 11.7761 6.27614 12 6 12H3C2.72386 12 2.5 11.7761 2.5 11.5C2.5 11.2239 2.72386 11 3 11H6ZM8 8C8.27614 8 8.5 8.22386 8.5 8.5C8.5 8.77614 8.27614 9 8 9H3C2.72386 9 2.5 8.77614 2.5 8.5C2.5 8.22386 2.72386 8 3 8H8ZM8 5C8.27614 5 8.5 5.22386 8.5 5.5C8.5 5.77614 8.27614 6 8 6H3C2.72386 6 2.5 5.77614 2.5 5.5C2.5 5.22386 2.72386 5 3 5H8Z" fill="black"/>
</svg>
