<svg width="15" height="15" viewBox="0 0 15 15" fill="none" xmlns="http://www.w3.org/2000/svg">
<path d="M1.5 2C1.77614 2 2 2.22386 2 2.5V13.5C2 13.7761 2.22386 14 2.5 14H11.5C11.7761 14 12 14.2239 12 14.5C12 14.7761 11.7761 15 11.5 15H2.5C1.67157 15 1 14.3284 1 13.5V2.5C1 2.22386 1.22386 2 1.5 2ZM10.5 0C10.6326 0 10.7597 0.0527162 10.8535 0.146484L13.7803 3.07324C13.9209 3.21389 14 3.40462 14 3.60352V11.5C14 12.3284 13.3284 13 12.5 13H4.5C3.67157 13 3 12.3284 3 11.5V1.5C3 0.671573 3.67157 0 4.5 0H10.5ZM4.5 1C4.22386 1 4 1.22386 4 1.5V11.5C4 11.7761 4.22386 12 4.5 12H12.5C12.7761 12 13 11.7761 13 11.5V3.70703L10.293 1H4.5Z" fill="black"/>
</svg>
