<svg width="15" height="15" viewBox="0 0 15 15" fill="none" xmlns="http://www.w3.org/2000/svg">
<path d="M11.3891 12.0962C11.5843 12.2914 11.9009 12.2914 12.0962 12.0962C12.2914 11.9009 12.2914 11.5843 12.0962 11.3891L8.2071 7.49999L12.0962 3.61092C12.2914 3.41566 12.2914 3.09908 12.0962 2.90382C11.9009 2.70856 11.5843 2.70856 11.3891 2.90382L7.49999 6.79288L3.61088 2.90377C3.41562 2.70851 3.09903 2.70851 2.90377 2.90377C2.70851 3.09903 2.70851 3.41562 2.90377 3.61088L6.79288 7.49999L2.90378 11.3891C2.70851 11.5844 2.70851 11.9009 2.90378 12.0962C3.09904 12.2915 3.41562 12.2915 3.61088 12.0962L7.49999 8.2071L11.3891 12.0962Z" fill="black"/>
</svg>
