<svg width="15" height="15" viewBox="0 0 15 15" fill="none" xmlns="http://www.w3.org/2000/svg">
<path fill-rule="evenodd" clip-rule="evenodd" d="M11.2676 14H3.73244C3.38663 14.5978 2.74028 15 2 15C0.895431 15 0 14.1046 0 13C0 12.2597 0.402199 11.6134 1 11.2676V3.73244C0.402198 3.38663 0 2.74028 0 2C0 0.895431 0.895431 0 2 0C2.74028 0 3.38663 0.402199 3.73244 1H11.2676C11.6134 0.402199 12.2597 0 13 0C14.1046 0 15 0.895431 15 2C15 2.74028 14.5978 3.38663 14 3.73244V11.2676C14.5978 11.6134 15 12.2597 15 13C15 14.1046 14.1046 15 13 15C12.2597 15 11.6134 14.5978 11.2676 14ZM2 3C2.55228 3 3 2.55228 3 2C3 1.44772 2.55228 1 2 1C1.44772 1 1 1.44772 1 2C1 2.55228 1.44772 3 2 3ZM2 4C3.10457 4 4 3.10457 4 2C4 1.97609 3.99958 1.95228 3.99875 1.92857H11.0013C11.0004 1.95228 11 1.97609 11 2C11 3.10457 11.8954 4 13 4C13.0239 4 13.0477 3.99958 13.0714 3.99875V11.0013C13.0477 11.0004 13.0239 11 13 11C11.8954 11 11 11.8954 11 13C11 13.0239 11.0004 13.0477 11.0013 13.0714H3.99875C3.99958 13.0477 4 13.0239 4 13C4 11.8954 3.10457 11 2 11C1.97609 11 1.95228 11.0004 1.92857 11.0013V3.99875C1.95228 3.99958 1.97609 4 2 4ZM3 13C3 13.5523 2.55228 14 2 14C1.44772 14 1 13.5523 1 13C1 12.4477 1.44772 12 2 12C2.55228 12 3 12.4477 3 13ZM13 3C13.5523 3 14 2.55228 14 2C14 1.44772 13.5523 1 13 1C12.4477 1 12 1.44772 12 2C12 2.55228 12.4477 3 13 3ZM14 13C14 13.5523 13.5523 14 13 14C12.4477 14 12 13.5523 12 13C12 12.4477 12.4477 12 13 12C13.5523 12 14 12.4477 14 13Z" fill="black"/>
</svg>
