<svg width="15" height="15" viewBox="0 0 15 15" fill="none" xmlns="http://www.w3.org/2000/svg">
<path d="M4 6C4 6.55228 3.55228 7 3 7C2.44772 7 2 6.55228 2 6C2 5.44772 2.44772 5 3 5C3.55228 5 4 5.44772 4 6Z" fill="black"/>
<path fill-rule="evenodd" clip-rule="evenodd" d="M5.5 7.5C5.5 7.22386 5.72386 7 6 7H10C10.2761 7 10.5 7.22386 10.5 7.5C10.5 7.77614 10.2761 8 10 8H6C5.72386 8 5.5 7.77614 5.5 7.5Z" fill="black"/>
<path fill-rule="evenodd" clip-rule="evenodd" d="M5.5 9.5C5.5 9.22386 5.72386 9 6 9H12C12.2761 9 12.5 9.22386 12.5 9.5C12.5 9.77614 12.2761 10 12 10H6C5.72386 10 5.5 9.77614 5.5 9.5Z" fill="black"/>
<path fill-rule="evenodd" clip-rule="evenodd" d="M5.5 5.5C5.5 5.22386 5.72386 5 6 5H11C11.2761 5 11.5 5.22386 11.5 5.5C11.5 5.77614 11.2761 6 11 6H6C5.72386 6 5.5 5.77614 5.5 5.5Z" fill="black"/>
<path fill-rule="evenodd" clip-rule="evenodd" d="M14 11V4L1 4L1 11H14ZM15 4V11C15 11.5523 14.5523 12 14 12H1C0.447715 12 0 11.5523 0 11V4C0 3.44772 0.447715 3 1 3H14C14.5523 3 15 3.44772 15 4Z" fill="black"/>
</svg>
