<svg width="15" height="15" viewBox="0 0 15 15" fill="none" xmlns="http://www.w3.org/2000/svg">
<path d="M9.32544 0.78115C10.2448 0.702295 10.482 0.754936 11.0598 1.1747L13.4495 2.85439C13.8436 3.14311 13.9749 3.22219 13.9749 3.53701V12.7489C13.9749 13.3262 13.7647 13.6683 13.0295 13.7206L4.33521 14.245C3.7832 14.2713 3.5198 14.1928 3.23071 13.8251L1.47095 11.5419C1.15568 11.1217 1.02468 10.8072 1.02466 10.4394V2.25088C1.02466 1.77872 1.23541 1.38421 1.83911 1.33193L9.32544 0.78115ZM4.12427 4.32412C3.80923 4.35059 3.70435 4.50837 3.70435 4.84951V12.6708C3.70448 13.0908 3.91434 13.2476 4.38696 13.2216L12.5559 12.7489C13.0289 12.7229 13.0823 12.4341 13.0823 12.0927V4.32412C13.0823 3.98329 12.9508 3.79895 12.6614 3.8251L4.12427 4.32412ZM11.7688 5.26845C11.8212 5.50492 11.7684 5.74188 11.5315 5.76845L11.1379 5.84658V11.621C10.7965 11.8045 10.4814 11.909 10.219 11.9091C9.79861 11.9091 9.69299 11.778 9.37817 11.3847L6.80298 7.34267V11.2528L7.61841 11.4374C7.61824 11.4523 7.60744 11.9089 6.96118 11.9091L5.14868 12.0145C5.09607 11.9095 5.14875 11.6474 5.33228 11.5946L5.80591 11.4638V6.29287L5.14868 6.24013C5.0961 6.00378 5.22733 5.66332 5.59497 5.63662L7.53931 5.50576L10.219 9.59951V5.97744L9.5354 5.89931C9.48299 5.6104 9.6928 5.40013 9.95532 5.37392L11.7688 5.26845ZM9.64087 1.51552L2.44263 2.04092C2.18054 2.06705 2.12818 2.19846 2.23267 2.30361L3.25806 3.11709C3.67768 3.45792 3.83537 3.43235 4.62329 3.37978L12.0569 2.93252C12.2141 2.93252 12.0844 2.77674 12.0315 2.7499L10.7961 1.85732C10.5596 1.67372 10.2447 1.46295 9.64087 1.51552Z" fill="black"/>
</svg>
