<svg width="15" height="15" viewBox="0 0 15 15" fill="none" xmlns="http://www.w3.org/2000/svg">
<path d="M0.627527 1.16584C0.772216 1.00465 1.0047 0.954996 1.20272 1.04279L14.7027 7.04279C14.8832 7.12302 14.9995 7.3023 14.9996 7.49982C14.9996 7.69742 14.8833 7.8766 14.7027 7.95686L1.20272 13.9569C1.00467 14.0447 0.772249 13.995 0.627527 13.8338C0.483017 13.6722 0.45873 13.4352 0.567957 13.2479L3.9205 7.49982L0.567957 1.75178C0.458869 1.56446 0.482924 1.32735 0.627527 1.16584ZM4.84432 7.09943H8.9996L9.08065 7.10822C9.26263 7.14569 9.3999 7.30678 9.39999 7.49982C9.39999 7.69296 9.26269 7.85394 9.08065 7.89143L8.9996 7.90021H4.84432L2.21151 12.4129L13.2682 7.49982L2.21151 2.58576L4.84432 7.09943Z" fill="black"/>
</svg>
