<svg width="15" height="15" viewBox="0 0 15 15" fill="none" xmlns="http://www.w3.org/2000/svg">
<path fill-rule="evenodd" clip-rule="evenodd" d="M0 1.5C0 1.22386 0.223858 1 0.5 1H14.5C14.7761 1 15 1.22386 15 1.5C15 1.77614 14.7761 2 14.5 2H0.5C0.223858 2 0 1.77614 0 1.5ZM0 4.5C0 4.22386 0.223858 4 0.5 4H14.5C14.7761 4 15 4.22386 15 4.5C15 4.77614 14.7761 5 14.5 5H0.5C0.223858 5 0 4.77614 0 4.5ZM0 7.5C0 7.22386 0.223858 7 0.5 7H14.5C14.7761 7 15 7.22386 15 7.5C15 7.77614 14.7761 8 14.5 8H0.5C0.223858 8 0 7.77614 0 7.5ZM0 10.5C0 10.2239 0.223858 10 0.5 10H14.5C14.7761 10 15 10.2239 15 10.5C15 10.7761 14.7761 11 14.5 11H0.5C0.223858 11 0 10.7761 0 10.5ZM0 13.5C0 13.2239 0.223858 13 0.5 13H14.5C14.7761 13 15 13.2239 15 13.5C15 13.7761 14.7761 14 14.5 14H0.5C0.223858 14 0 13.7761 0 13.5Z" fill="black"/>
</svg>
