<svg width="15" height="15" viewBox="0 0 15 15" fill="none" xmlns="http://www.w3.org/2000/svg">
<path d="M14.5 13.9999C14.7761 13.9999 15 14.2238 15 14.4999C15 14.7761 14.7761 14.9999 14.5 14.9999H0.5C0.223858 14.9999 0 14.7761 0 14.4999C3.40136e-05 14.2238 0.223879 13.9999 0.5 13.9999H14.5ZM9.32812 -6.10352e-05C9.60427 -6.08666e-05 9.82812 0.223797 9.82812 0.499939V9.01068C9.82807 9.13775 9.80403 9.26379 9.75684 9.38177L8.37891 12.8281C8.30295 13.0178 8.11848 13.1425 7.91406 13.1425C7.70979 13.1425 7.52619 13.0177 7.4502 12.8281L6.07129 9.38177C6.02409 9.26379 6.00005 9.13775 6 9.01068V0.499939C6 0.223797 6.22386 -5.99569e-05 6.5 -6.10352e-05H9.32812ZM7 9.01068L7.60352 10.5204H8.22461L8.82812 9.01068V0.999939H7V9.01068Z" fill="black"/>
</svg>
