<svg width="15" height="15" viewBox="0 0 15 15" fill="none" xmlns="http://www.w3.org/2000/svg">
<path d="M9 3.00013H4.90039C4.4721 3.00013 4.18012 3.00029 3.95508 3.01868C3.73615 3.0366 3.62405 3.06968 3.5459 3.1095C3.35793 3.20534 3.20521 3.35806 3.10938 3.54603C3.06956 3.62417 3.03647 3.73628 3.01855 3.9552C3.00017 4.18025 3 4.47223 3 4.90052V11.0997C3 11.528 3.00017 11.82 3.01855 12.045C3.03647 12.264 3.06956 12.3761 3.10938 12.4542C3.20521 12.6422 3.35793 12.7949 3.5459 12.8908C3.62405 12.9306 3.73615 12.9637 3.95508 12.9816C4.18012 13 4.4721 13.0001 4.90039 13.0001H11.0996C11.5279 13.0001 11.8199 13 12.0449 12.9816C12.2639 12.9637 12.376 12.9306 12.4541 12.8908C12.6421 12.7949 12.7948 12.6422 12.8906 12.4542C12.9304 12.3761 12.9635 12.264 12.9814 12.045C12.9998 11.82 13 11.528 13 11.0997V7.00013L14 6.00013V11.0997C14 11.5115 14 11.8509 13.9775 12.1261C13.9546 12.4071 13.9059 12.6657 13.7822 12.9083C13.5905 13.2846 13.2845 13.5906 12.9082 13.7824C12.6656 13.906 12.407 13.9547 12.126 13.9777C11.8508 14.0002 11.5114 14.0001 11.0996 14.0001H4.90039C4.4886 14.0001 4.14923 14.0002 3.87402 13.9777C3.59301 13.9547 3.33444 13.906 3.0918 13.7824C2.71554 13.5906 2.40951 13.2846 2.21777 12.9083C2.09414 12.6657 2.04543 12.4071 2.02246 12.1261C1.99998 11.8509 2 11.5115 2 11.0997V4.90052C2 4.48873 1.99998 4.14936 2.02246 3.87415C2.04543 3.59314 2.09414 3.33456 2.21777 3.09192C2.40951 2.71567 2.71554 2.40963 3.0918 2.2179C3.33444 2.09427 3.59301 2.04555 3.87402 2.02259C4.14923 2.0001 4.4886 2.00013 4.90039 2.00013H10L9 3.00013ZM12.2246 1.08216C12.4186 0.95409 12.6827 0.975875 12.8535 1.14661L14.8535 3.14661C15.0487 3.34184 15.0487 3.65837 14.8535 3.85364L10.9111 7.79603C10.8352 7.87192 10.7473 7.93548 10.6514 7.98353L6.72363 9.94739C6.53114 10.0436 6.29866 10.0058 6.14648 9.85364C5.9944 9.70146 5.95651 9.46894 6.05273 9.27649L8.0166 5.34876C8.06464 5.25281 8.12823 5.16487 8.2041 5.08899L12.1465 1.14661L12.2246 1.08216ZM8.91113 5.79603L7.87207 7.8722L8.12695 8.12708L10.2041 7.08899L13.793 3.50013L12.5 2.20716L8.91113 5.79603Z" fill="black"/>
</svg>
