<svg width="15" height="15" viewBox="0 0 15 15" fill="none" xmlns="http://www.w3.org/2000/svg">
  <path fill-rule="evenodd" clip-rule="evenodd"
    d="M11.1465 1.14645C11.3417 0.951184 11.6583 0.951184 11.8536 1.14645L13.8536 3.14645C14.0488 3.34171 14.0488 3.65829 13.8536 3.85355L6.42166 11.2855C6.3317 11.3754 6.2254 11.4474 6.10847 11.4975L2.69697 12.9596C2.50905 13.0401 2.29103 12.9981 2.14646 12.8536C2.00189 12.709 1.9599 12.491 2.04044 12.303L3.50251 8.89155C3.55263 8.77461 3.62459 8.66832 3.71455 8.57836L11.1465 1.14645ZM11.5 2.20711L4.42166 9.28547L3.7808 10.7808L4.21922 11.2192L5.71455 10.5784L12.7929 3.5L11.5 2.20711ZM0.5 14C0.223858 14 0 14.2239 0 14.5C0 14.7761 0.223858 15 0.5 15H14.5C14.7761 15 15 14.7761 15 14.5C15 14.2239 14.7761 14 14.5 14H0.5Z"
    fill="currentColor" />
</svg>