<svg width="15" height="15" viewBox="0 0 15 15" fill="none" xmlns="http://www.w3.org/2000/svg">
<path d="M11.2245 1.08194C11.4185 0.95384 11.6826 0.975762 11.8534 1.14639L13.8534 3.14639C14.0487 3.34166 14.0487 3.65816 13.8534 3.85343L6.42179 11.2851C6.33187 11.375 6.22519 11.4469 6.10832 11.497L2.69718 12.9599C2.5093 13.0403 2.29093 12.9979 2.1464 12.8534C2.00204 12.7089 1.95947 12.4905 2.03996 12.3026L3.50285 8.89151C3.55295 8.77467 3.62487 8.66794 3.71476 8.57803L11.1464 1.14639L11.2245 1.08194ZM4.42179 9.28507L3.78019 10.7802L4.21769 11.2177L5.71476 10.578L12.7929 3.49991L11.4999 2.20694L4.42179 9.28507Z" fill="black"/>
</svg>
