<svg width="15" height="15" viewBox="0 0 15 15" fill="none" xmlns="http://www.w3.org/2000/svg">
<path d="M14.5 14C14.7761 14 15 14.2238 15 14.5C15 14.7761 14.7761 15 14.5 15H0.5C0.223858 15 0 14.7761 0 14.5C0 14.2238 0.223858 14 0.5 14H14.5ZM11.1465 1.14644C11.3417 0.951183 11.6583 0.951188 11.8535 1.14644L13.8535 3.14644C14.0488 3.34171 14.0488 3.65821 13.8535 3.85347L6.42188 11.2851C6.33194 11.375 6.22529 11.4469 6.1084 11.497L2.69727 12.9599C2.50934 13.0405 2.29105 12.998 2.14648 12.8535C2.00192 12.7089 1.9595 12.4906 2.04004 12.3027L3.50293 8.89156C3.55304 8.77467 3.62491 8.66801 3.71484 8.57808L11.1465 1.14644ZM4.42188 9.28511L3.78027 10.7802L4.21875 11.2187L5.71484 10.5781L12.793 3.49996L11.5 2.20699L4.42188 9.28511Z" fill="black"/>
</svg>
