<svg width="15" height="15" viewBox="0 0 15 15" fill="none" xmlns="http://www.w3.org/2000/svg">
<path fill-rule="evenodd" clip-rule="evenodd" d="M6.47498 0.875C4.47294 0.875 2.84998 2.49797 2.84998 4.5C2.84998 6.15288 3.95622 7.54738 5.4687 7.98351C4.27468 8.12901 3.25054 8.55134 2.47905 9.31167C1.49713 10.2794 1 11.72 1 13.5999C1 13.8623 1.21266 14.0749 1.475 14.0749C1.73734 14.0749 1.95 13.8623 1.95 13.5999C1.95 11.8799 2.40283 10.7206 3.14588 9.9883C3.89033 9.25463 5.00171 8.87499 6.47493 8.87499C8.02044 8.87499 9.16804 9.29238 9.91288 10.1009C10.0906 10.2938 10.3911 10.3061 10.5841 10.1284C10.777 9.95063 10.7893 9.65013 10.6116 9.45719C9.82696 8.60553 8.7502 8.13823 7.48115 7.98354C8.99369 7.54744 10.1 6.15292 10.1 4.5C10.1 2.49797 8.47701 0.875 6.47498 0.875ZM3.79998 4.5C3.79998 3.02264 4.99761 1.825 6.47498 1.825C7.95234 1.825 9.14998 3.02264 9.14998 4.5C9.14998 5.97736 7.95234 7.175 6.47498 7.175C4.99761 7.175 3.79998 5.97736 3.79998 4.5Z" fill="black"/>
<path d="M14.6037 10.0775C14.8233 10.2211 14.8849 10.5154 14.7413 10.735L12.9996 13.3989C12.9235 13.5153 12.8001 13.5925 12.6622 13.6101C12.5242 13.6277 12.3854 13.5839 12.2825 13.4904L11.1555 12.4658C10.9614 12.2894 10.9471 11.9889 11.1235 11.7948C11.3 11.6007 11.6004 11.5864 11.7945 11.7629L12.5093 12.4127L13.9462 10.2151C14.0898 9.99554 14.3841 9.93393 14.6037 10.0775Z" fill="black"/>
</svg>
