<svg width="15" height="15" viewBox="0 0 15 15" fill="none" xmlns="http://www.w3.org/2000/svg">
<path fill-rule="evenodd" clip-rule="evenodd" d="M6.47498 0.875C4.47294 0.875 2.84998 2.49797 2.84998 4.5C2.84998 6.15288 3.95622 7.54738 5.4687 7.98351C4.27468 8.12901 3.25054 8.55134 2.47905 9.31167C1.49713 10.2794 1 11.72 1 13.5999C1 13.8623 1.21266 14.0749 1.475 14.0749C1.73734 14.0749 1.95 13.8623 1.95 13.5999C1.95 11.8799 2.40283 10.7206 3.14588 9.9883C3.89033 9.25463 5.00171 8.87499 6.47493 8.87499C8.02044 8.87499 9.16804 9.29238 9.91288 10.1009C10.0906 10.2938 10.3911 10.3061 10.5841 10.1284C10.777 9.95063 10.7893 9.65013 10.6116 9.45719C9.82696 8.60553 8.7502 8.13823 7.48115 7.98354C8.99369 7.54744 10.1 6.15292 10.1 4.5C10.1 2.49797 8.47701 0.875 6.47498 0.875ZM3.79998 4.5C3.79998 3.02264 4.99761 1.825 6.47498 1.825C7.95234 1.825 9.14998 3.02264 9.14998 4.5C9.14998 5.97736 7.95234 7.175 6.47498 7.175C4.99761 7.175 3.79998 5.97736 3.79998 4.5Z" fill="black"/>
<path fill-rule="evenodd" clip-rule="evenodd" d="M11.2249 10.2499C11.4104 10.0644 11.7111 10.0644 11.8966 10.2499L12.975 11.3282L14.0533 10.2499C14.2388 10.0644 14.5396 10.0644 14.7251 10.2499C14.9106 10.4354 14.9106 10.7362 14.7251 10.9217L13.6467 12L14.7251 13.0783C14.9106 13.2638 14.9106 13.5646 14.7251 13.7501C14.5396 13.9356 14.2388 13.9356 14.0533 13.7501L12.975 12.6718L11.8966 13.7501C11.7111 13.9356 11.4104 13.9356 11.2249 13.7501C11.0394 13.5646 11.0394 13.2638 11.2249 13.0783L12.3032 12L11.2249 10.9217C11.0394 10.7362 11.0394 10.4354 11.2249 10.2499Z" fill="black"/>
</svg>
