<svg width="16" height="16" viewBox="0 0 16 16" fill="none" xmlns="http://www.w3.org/2000/svg">
<path fill-rule="evenodd" clip-rule="evenodd" d="M2.84998 4.5C2.84998 2.49797 4.47294 0.875 6.47498 0.875C8.47701 0.875 10.1 2.49797 10.1 4.5C10.1 6.15292 8.99369 7.54744 7.48115 7.98354C8.7502 8.13823 9.82696 8.60553 10.6116 9.45719C10.7893 9.65013 10.777 9.95063 10.5841 10.1284C10.3911 10.3061 10.0906 10.2938 9.91288 10.1009C9.16804 9.29238 8.02044 8.87499 6.47493 8.87499C5.00171 8.87499 3.89033 9.25463 3.14588 9.9883C2.40283 10.7206 1.95 11.8799 1.95 13.5999C1.95 13.8623 1.73734 14.0749 1.475 14.0749C1.21266 14.0749 1 13.8623 1 13.5999C1 11.72 1.49713 10.2794 2.47905 9.31167C3.25054 8.55134 4.27468 8.12901 5.4687 7.98351C3.95622 7.54738 2.84998 6.15288 2.84998 4.5ZM6.47498 1.825C4.99761 1.825 3.79998 3.02264 3.79998 4.5C3.79998 5.97736 4.99761 7.175 6.47498 7.175C7.95234 7.175 9.14998 5.97736 9.14998 4.5C9.14998 3.02264 7.95234 1.825 6.47498 1.825Z" fill="black"/>
<path fill-rule="evenodd" clip-rule="evenodd" d="M12.9359 9.14645C13.1312 8.95118 13.4478 8.95118 13.643 9.14645L14.9062 10.4096C15.1015 10.6049 15.1015 10.9214 14.9062 11.1167L12.4373 13.5856C12.3613 13.6616 12.2735 13.7249 12.1774 13.773L9.72362 14.9998C9.53113 15.0961 9.29864 15.0584 9.14646 14.9062C8.99428 14.754 8.95655 14.5215 9.0528 14.329L10.2797 11.8753C10.3277 11.7791 10.391 11.6914 10.467 11.6154L12.9359 9.14645ZM13.2895 10.2071L11.1741 12.3225L10.618 13.4346L11.7301 12.8785L13.8455 10.7632L13.2895 10.2071Z" fill="black"/>
</svg>
