<svg width="15" height="16" viewBox="0 0 15 16" fill="none" xmlns="http://www.w3.org/2000/svg">
  <path fill-rule="evenodd" clip-rule="evenodd"
    d="M5.45147 2.92181C4.75275 3.45416 4.24133 4.21097 4.24133 5.19865V5.7522C4.54458 7.2193 5.32739 9.29213 6.12574 11.0244C6.52849 11.8983 6.92585 12.6651 7.25406 13.206C7.34489 13.3557 7.42719 13.4827 7.49992 13.587C7.57264 13.4827 7.65494 13.3557 7.74577 13.206C8.07398 12.6651 8.47134 11.8983 8.87409 11.0244C9.67244 9.29213 10.4553 7.2193 10.7585 5.7522V5.75218V5.75069V5.74919V5.7477V5.7462V5.7447V5.74319V5.74169V5.74018V5.73867V5.73716V5.73564V5.73412V5.7326V5.73108V5.72956V5.72803V5.72651V5.72498V5.72345V5.72191V5.72038V5.71884V5.7173V5.71576V5.71422V5.71267V5.71112V5.70958V5.70803V5.70647V5.70492V5.70337V5.70181V5.70025V5.69869V5.69713V5.69557V5.694V5.69243V5.69087V5.6893V5.68773V5.68615V5.68458V5.68301V5.68143V5.67985V5.67827V5.67669V5.67511V5.67353V5.67195V5.67036V5.66878V5.66719V5.6656V5.66401V5.66242V5.66083V5.65924V5.65764V5.65605V5.65445V5.65286V5.65126V5.64966V5.64806V5.64646V5.64486V5.64326V5.64166V5.64006V5.63845V5.63685V5.63524V5.63364V5.63203V5.63043V5.62882V5.62721V5.6256V5.62399V5.62239V5.62078V5.61917V5.61756V5.61595V5.61433V5.61272V5.61111V5.6095V5.60789V5.60628V5.60466V5.60305V5.60144V5.59982V5.59821V5.5966V5.59499V5.59337V5.59176V5.59015V5.58853V5.58692V5.58531V5.58369V5.58208V5.58047V5.57886V5.57724V5.57563V5.57402V5.57241V5.5708V5.56919V5.56758V5.56597V5.56436V5.56275V5.56114V5.55953V5.55792V5.55632V5.55471V5.5531V5.5515V5.54989V5.54829V5.54669V5.54508V5.54348V5.54188V5.54028V5.53868V5.53708V5.53548V5.53389V5.53229V5.53069V5.5291V5.52751V5.52591V5.52432V5.52273V5.52114V5.51955V5.51797V5.51638V5.51479V5.51321V5.51163V5.51005V5.50847V5.50689V5.50531V5.50373V5.50216V5.50059V5.49901V5.49744V5.49587V5.4943V5.49274V5.49117V5.48961V5.48805V5.48649V5.48493V5.48337V5.48182V5.48026V5.47871V5.47716V5.47561V5.47407V5.47252V5.47098V5.46944V5.4679V5.46636V5.46482V5.46329V5.46176V5.46023V5.4587V5.45717V5.45565V5.45413V5.45261V5.45109V5.44958V5.44806V5.44655V5.44504V5.44354V5.44203V5.44053V5.43903V5.43754V5.43604V5.43455V5.43306V5.43157V5.43009V5.4286V5.42712V5.42565V5.42417V5.4227V5.42123V5.41976V5.4183V5.41684V5.41538V5.41392V5.41247V5.41102V5.40957V5.40812V5.40668V5.40524V5.40381V5.40237V5.40094V5.39951V5.39809V5.39667V5.39525V5.39383V5.39242V5.39101V5.38961V5.3882V5.3868V5.38541V5.38401V5.38262V5.38124V5.37985V5.37847V5.3771V5.37572V5.37435V5.37299V5.37162V5.37026V5.36891V5.36755V5.3662V5.36486V5.36352V5.36218V5.36084V5.35951V5.35818V5.35686V5.35554V5.35423V5.35291V5.3516V5.3503V5.349V5.3477V5.34641V5.34512V5.34383V5.34255V5.34128V5.34V5.33873V5.33747V5.33621V5.33495V5.3337V5.33245V5.3312V5.32996V5.32873V5.3275V5.32627V5.32505V5.32383V5.32261V5.3214V5.3202V5.319V5.3178V5.31661V5.31542V5.31424V5.31306V5.31188V5.31071V5.30955V5.30839V5.30723V5.30608V5.30494V5.30379V5.30266V5.30153V5.3004V5.29928V5.29816V5.29705V5.29594V5.29484V5.29374V5.29265V5.29156V5.29048V5.2894V5.28833V5.28726V5.2862V5.28514V5.28409V5.28304V5.282V5.28096V5.27993V5.27891V5.27789V5.27687V5.27586V5.27486V5.27386V5.27287V5.27188V5.2709V5.26992V5.26895V5.26798V5.26702V5.26607V5.26512V5.26417V5.26324V5.2623V5.26138V5.26046V5.25954V5.25863V5.25773V5.25683V5.25594V5.25506V5.25418V5.2533V5.25243V5.25157V5.25072V5.24987V5.24902V5.24819V5.24735V5.24653V5.24571V5.2449V5.24409V5.24329V5.2425V5.24171V5.24093V5.24015V5.23938V5.23862V5.23786V5.23711V5.23637V5.23563V5.2349V5.23418V5.23346V5.23275V5.23205V5.23135V5.23066V5.22997V5.2293V5.22862V5.22796V5.2273V5.22665V5.22601V5.22537V5.22474V5.22412V5.2235V5.22289V5.22229V5.22169V5.22111V5.22052V5.21995V5.21938V5.21882V5.21827V5.21772V5.21718V5.21665V5.21613V5.21561V5.2151V5.2146V5.2141V5.21361V5.21313V5.21266V5.21219V5.21174V5.21128V5.21084V5.2104V5.20998V5.20955V5.20914V5.20874V5.20834V5.20795V5.20756V5.20719V5.20682V5.20646V5.20611V5.20577V5.20543V5.2051V5.20478V5.20447V5.20416V5.20386V5.20358V5.20329V5.20302V5.20276V5.2025V5.20225V5.20201V5.20178V5.20155V5.20134V5.20113V5.20093V5.20074V5.20055V5.20038V5.20021V5.20005V5.1999V5.19976V5.19963V5.1995V5.19938V5.19928V5.19918V5.19909V5.199V5.19893V5.19886V5.19881V5.19876V5.19872V5.19869V5.19867V5.19865C10.7585 4.21097 10.2471 3.45415 9.54839 2.92181C8.83191 2.37591 7.99123 2.125 7.49995 2.125C7.00866 2.125 6.16797 2.37591 5.45147 2.92181ZM4.69392 1.92752C5.59559 1.24053 6.6967 0.875 7.49995 0.875C8.30319 0.875 9.40429 1.24053 10.3059 1.92752C11.2254 2.62805 12.0085 3.72057 12.0085 5.19865V5.19867V5.19869V5.19872V5.19876V5.19881V5.19886V5.19893V5.199V5.19909V5.19918V5.19928V5.19938V5.1995V5.19963V5.19976V5.1999V5.20005V5.20021V5.20038V5.20055V5.20074V5.20093V5.20113V5.20134V5.20155V5.20178V5.20201V5.20225V5.2025V5.20276V5.20302V5.20329V5.20358V5.20386V5.20416V5.20447V5.20478V5.2051V5.20543V5.20577V5.20611V5.20646V5.20682V5.20719V5.20756V5.20795V5.20834V5.20874V5.20914V5.20955V5.20998V5.2104V5.21084V5.21128V5.21174V5.21219V5.21266V5.21313V5.21361V5.2141V5.2146V5.2151V5.21561V5.21613V5.21665V5.21718V5.21772V5.21827V5.21882V5.21938V5.21995V5.22052V5.22111V5.22169V5.22229V5.22289V5.2235V5.22412V5.22474V5.22537V5.22601V5.22665V5.2273V5.22796V5.22862V5.2293V5.22997V5.23066V5.23135V5.23205V5.23275V5.23346V5.23418V5.2349V5.23563V5.23637V5.23711V5.23786V5.23862V5.23938V5.24015V5.24093V5.24171V5.2425V5.24329V5.24409V5.2449V5.24571V5.24653V5.24735V5.24819V5.24902V5.24987V5.25072V5.25157V5.25243V5.2533V5.25418V5.25506V5.25594V5.25683V5.25773V5.25863V5.25954V5.26046V5.26138V5.2623V5.26324V5.26417V5.26512V5.26607V5.26702V5.26798V5.26895V5.26992V5.2709V5.27188V5.27287V5.27386V5.27486V5.27586V5.27687V5.27789V5.27891V5.27993V5.28096V5.282V5.28304V5.28409V5.28514V5.2862V5.28726V5.28833V5.2894V5.29048V5.29156V5.29265V5.29374V5.29484V5.29594V5.29705V5.29816V5.29928V5.3004V5.30153V5.30266V5.30379V5.30494V5.30608V5.30723V5.30839V5.30955V5.31071V5.31188V5.31306V5.31424V5.31542V5.31661V5.3178V5.319V5.3202V5.3214V5.32261V5.32383V5.32505V5.32627V5.3275V5.32873V5.32996V5.3312V5.33245V5.3337V5.33495V5.33621V5.33747V5.33873V5.34V5.34128V5.34255V5.34383V5.34512V5.34641V5.3477V5.349V5.3503V5.3516V5.35291V5.35423V5.35554V5.35686V5.35818V5.35951V5.36084V5.36218V5.36352V5.36486V5.3662V5.36755V5.36891V5.37026V5.37162V5.37299V5.37435V5.37572V5.3771V5.37847V5.37985V5.38124V5.38262V5.38401V5.38541V5.3868V5.3882V5.38961V5.39101V5.39242V5.39383V5.39525V5.39667V5.39809V5.39951V5.40094V5.40237V5.40381V5.40524V5.40668V5.40812V5.40957V5.41102V5.41247V5.41392V5.41538V5.41684V5.4183V5.41976V5.42123V5.4227V5.42417V5.42565V5.42712V5.4286V5.43009V5.43157V5.43306V5.43455V5.43604V5.43754V5.43903V5.44053V5.44203V5.44354V5.44504V5.44655V5.44806V5.44958V5.45109V5.45261V5.45413V5.45565V5.45717V5.4587V5.46023V5.46176V5.46329V5.46482V5.46636V5.4679V5.46944V5.47098V5.47252V5.47407V5.47561V5.47716V5.47871V5.48026V5.48182V5.48337V5.48493V5.48649V5.48805V5.48961V5.49117V5.49274V5.4943V5.49587V5.49744V5.49901V5.50059V5.50216V5.50373V5.50531V5.50689V5.50847V5.51005V5.51163V5.51321V5.51479V5.51638V5.51797V5.51955V5.52114V5.52273V5.52432V5.52591V5.52751V5.5291V5.53069V5.53229V5.53389V5.53548V5.53708V5.53868V5.54028V5.54188V5.54348V5.54508V5.54669V5.54829V5.54989V5.5515V5.5531V5.55471V5.55632V5.55792V5.55953V5.56114V5.56275V5.56436V5.56597V5.56758V5.56919V5.5708V5.57241V5.57402V5.57563V5.57724V5.57886V5.58047V5.58208V5.58369V5.58531V5.58692V5.58853V5.59015V5.59176V5.59337V5.59499V5.5966V5.59821V5.59982V5.60144V5.60305V5.60466V5.60628V5.60789V5.6095V5.61111V5.61272V5.61433V5.61595V5.61756V5.61917V5.62078V5.62239V5.62399V5.6256V5.62721V5.62882V5.63043V5.63203V5.63364V5.63524V5.63685V5.63845V5.64006V5.64166V5.64326V5.64486V5.64646V5.64806V5.64966V5.65126V5.65286V5.65445V5.65605V5.65764V5.65924V5.66083V5.66242V5.66401V5.6656V5.66719V5.66878V5.67036V5.67195V5.67353V5.67511V5.67669V5.67827V5.67985V5.68143V5.68301V5.68458V5.68615V5.68773V5.6893V5.69087V5.69243V5.694V5.69557V5.69713V5.69869V5.70025V5.70181V5.70337V5.70492V5.70647V5.70803V5.70958V5.71112V5.71267V5.71422V5.71576V5.7173V5.71884V5.72038V5.72191V5.72345V5.72498V5.72651V5.72803V5.72956V5.73108V5.7326V5.73412V5.73564V5.73716V5.73867V5.74018V5.74169V5.74319V5.7447V5.7462V5.7477V5.74919V5.75069V5.75218V5.75367V5.75516V5.75664V5.75812V5.7596V5.76108V5.76256V5.76403V5.7655V5.76696V5.76843V5.76989V5.77135V5.7728V5.77426V5.77571V5.77715V5.7786V5.78004V5.78148V5.78292V5.78435V5.78578V5.78721V5.78863V5.79005V5.79147V5.79289V5.7943V5.79571V5.79711V5.79852V5.79991V5.80131V5.8027V5.80409V5.80548V5.80686V5.80824V5.80962V5.81099V5.81236V5.81373V5.81509V5.87698L11.9964 5.93766C11.674 7.54968 10.8337 9.75897 10.0093 11.5476C9.59529 12.446 9.17586 13.2588 8.81443 13.8545C8.63529 14.1497 8.45957 14.4097 8.29677 14.6032C8.21642 14.6987 8.1237 14.7968 8.02109 14.8763C7.93793 14.9407 7.75216 15.0703 7.49992 15.0703C7.24767 15.0703 7.0619 14.9407 6.97874 14.8763C6.87613 14.7968 6.78341 14.6987 6.70306 14.6032C6.54026 14.4097 6.36454 14.1497 6.1854 13.8545C5.82397 13.2588 5.40454 12.446 4.99051 11.5476C4.16618 9.75897 3.32587 7.54968 3.00347 5.93766L2.99133 5.87698V5.81509V5.19865C2.99133 3.72056 3.77446 2.62805 4.69392 1.92752Z"
    fill="currentColor" />
  <circle cx="7.5" cy="5.5" r="1.5" fill="currentColor" />
</svg>