<svg width="15" height="15" viewBox="0 0 15 15" fill="none" xmlns="http://www.w3.org/2000/svg">
<path fill-rule="evenodd" clip-rule="evenodd" d="M6.47498 0.875C4.47294 0.875 2.84998 2.49797 2.84998 4.5C2.84998 6.15288 3.95622 7.54738 5.4687 7.98351C4.27468 8.12901 3.25054 8.55134 2.47905 9.31167C1.49713 10.2794 1 11.72 1 13.5999C1 13.8623 1.21266 14.0749 1.475 14.0749C1.73734 14.0749 1.95 13.8623 1.95 13.5999C1.95 11.8799 2.40283 10.7206 3.14588 9.9883C3.89033 9.25463 5.00171 8.87499 6.47493 8.87499C8.02044 8.87499 9.16804 9.29238 9.91288 10.1009C10.0906 10.2938 10.3911 10.3061 10.5841 10.1284C10.777 9.95063 10.7893 9.65013 10.6116 9.45719C9.82696 8.60553 8.7502 8.13823 7.48115 7.98354C8.99369 7.54744 10.1 6.15292 10.1 4.5C10.1 2.49797 8.47701 0.875 6.47498 0.875ZM3.79998 4.5C3.79998 3.02264 4.99761 1.825 6.47498 1.825C7.95234 1.825 9.14998 3.02264 9.14998 4.5C9.14998 5.97736 7.95234 7.175 6.47498 7.175C4.99761 7.175 3.79998 5.97736 3.79998 4.5Z" fill="black"/>
<path fill-rule="evenodd" clip-rule="evenodd" d="M11.4346 11.6862V11.5042C11.4346 11.1054 11.546 10.7202 11.8149 10.4307C12.0884 10.1362 12.4699 10 12.8881 10C13.306 10 13.6874 10.1357 13.961 10.4303C14.2297 10.7197 14.3407 11.1048 14.3407 11.5033V11.6862C14.7189 11.822 14.9894 12.1838 14.9894 12.6088V13.8793C14.9894 14.4205 14.5507 14.8593 14.0094 14.8593H11.7659C11.2247 14.8593 10.7859 14.4205 10.7859 13.8793V12.6088C10.7859 12.1839 11.0564 11.8221 11.4346 11.6862ZM12.3946 11.5042C12.3946 11.277 12.4569 11.1501 12.5183 11.084C12.575 11.023 12.6802 10.96 12.8881 10.96C13.0964 10.96 13.2012 11.0229 13.2575 11.0835C13.3185 11.1492 13.3807 11.2758 13.3807 11.5033V11.6288H12.3946V11.5042ZM11.7459 12.6088C11.7459 12.5978 11.7549 12.5888 11.7659 12.5888H14.0094C14.0205 12.5888 14.0294 12.5978 14.0294 12.6088V13.8793C14.0294 13.8903 14.0205 13.8993 14.0094 13.8993H11.7659C11.7549 13.8993 11.7459 13.8903 11.7459 13.8793V12.6088Z" fill="black"/>
</svg>
