<svg width="15" height="15" viewBox="0 0 15 15" fill="none" xmlns="http://www.w3.org/2000/svg">
<path fill-rule="evenodd" clip-rule="evenodd" d="M6.47498 0.875C4.47294 0.875 2.84998 2.49797 2.84998 4.5C2.84998 6.15288 3.95622 7.54738 5.4687 7.98351C4.27468 8.12901 3.25054 8.55134 2.47905 9.31167C1.49713 10.2794 1 11.72 1 13.5999C1 13.8623 1.21266 14.0749 1.475 14.0749C1.73734 14.0749 1.95 13.8623 1.95 13.5999C1.95 11.8799 2.40283 10.7206 3.14588 9.9883C3.89033 9.25463 5.00171 8.87499 6.47493 8.87499C8.02044 8.87499 9.16804 9.29238 9.91288 10.1009C10.0906 10.2938 10.3911 10.3061 10.5841 10.1284C10.777 9.95063 10.7893 9.65013 10.6116 9.45719C9.82696 8.60553 8.7502 8.13823 7.48115 7.98354C8.99369 7.54744 10.1 6.15292 10.1 4.5C10.1 2.49797 8.47701 0.875 6.47498 0.875ZM3.79998 4.5C3.79998 3.02264 4.99761 1.825 6.47498 1.825C7.95234 1.825 9.14998 3.02264 9.14998 4.5C9.14998 5.97736 7.95234 7.175 6.47498 7.175C4.99761 7.175 3.79998 5.97736 3.79998 4.5Z" fill="black"/>
<path fill-rule="evenodd" clip-rule="evenodd" d="M11.975 9.525C12.2373 9.525 12.45 9.73766 12.45 10V11.525H13.975C14.2373 11.525 14.45 11.7377 14.45 12C14.45 12.2623 14.2373 12.475 13.975 12.475H12.45V14C12.45 14.2623 12.2373 14.475 11.975 14.475C11.7126 14.475 11.5 14.2623 11.5 14V12.475H9.97498C9.71264 12.475 9.49998 12.2623 9.49998 12C9.49998 11.7377 9.71264 11.525 9.97498 11.525H11.5V10C11.5 9.73766 11.7126 9.525 11.975 9.525Z" fill="black"/>
</svg>
