<svg width="15" height="16" viewBox="0 0 15 16" fill="none" xmlns="http://www.w3.org/2000/svg">
<path d="M2.09832 4.61112C3.19683 6.19892 4.91409 7.22222 6.94444 7.22222C7.14542 7.22222 7.5135 7.24183 7.70804 7.22222C7.48946 7.52591 7.45968 7.84567 7.37335 8.22222C7.33083 8.22299 6.98721 8.22222 6.94444 8.22222C4.41897 8.22222 2.32306 6.8714 1.076 4.87612C0.974667 4.71399 0.974666 4.50826 1.076 4.34612C2.32306 2.35082 4.41897 1 6.94444 1C9.46992 1 11.5658 2.35082 12.8129 4.34612C12.9142 4.50826 12.9142 4.71399 12.8129 4.87612C12.4364 5.47855 11.5197 6.53451 11 7C10.69 6.79091 10.3802 6.57476 10 6.5C10.5244 6.10175 11.4052 5.1681 11.7906 4.61112C10.6921 3.0233 8.9748 2 6.94444 2C4.91409 2 3.19683 3.0233 2.09832 4.61112Z" fill="black"/>
<path d="M8.5 4.61111C8.5 5.47022 7.80355 6.16667 6.94444 6.16667C6.08533 6.16667 5.38889 5.47022 5.38889 4.61111C5.38889 3.752 6.08533 3.05556 6.94444 3.05556C7.80355 3.05556 8.5 3.752 8.5 4.61111Z" fill="black"/>
<path d="M9.84961 5.83301C11.286 5.83301 12.4508 6.99727 12.4512 8.43359C12.4512 9.42685 11.8937 10.2892 11.0752 10.7275C11.6867 10.8749 12.2244 11.1478 12.6553 11.5723C13.3566 12.2636 13.6991 13.2816 13.6992 14.5762C13.6992 14.8385 13.4869 15.0517 13.2246 15.0518C12.9625 15.0515 12.75 14.8384 12.75 14.5762C12.7499 13.4415 12.451 12.704 11.9883 12.248C11.5241 11.791 10.8186 11.541 9.84961 11.541C8.88053 11.5411 8.17502 11.7909 7.71094 12.248C7.24828 12.704 6.94932 13.4415 6.94922 14.5762C6.94922 14.8385 6.73694 15.0518 6.47461 15.0518C6.21245 15.0515 6 14.8384 6 14.5762C6.0001 13.2816 6.34261 12.2636 7.04395 11.5723C7.47469 11.1478 8.01265 10.875 8.62402 10.7275C7.80601 10.2891 7.24902 9.42665 7.24902 8.43359C7.24938 6.99739 8.41337 5.83321 9.84961 5.83301ZM9.84961 6.78223C8.93804 6.78243 8.1986 7.52206 8.19824 8.43359C8.19824 9.34543 8.93782 10.0848 9.84961 10.085C10.7616 10.085 11.501 9.34556 11.501 8.43359C11.5006 7.52194 10.7613 6.78223 9.84961 6.78223Z" fill="black"/>
</svg>
