<svg width="16" height="16" viewBox="0 0 16 16" fill="none" xmlns="http://www.w3.org/2000/svg">
<path d="M11.8255 14.6901C11.6892 14.6897 11.5534 14.6748 11.4203 14.6455C8.88652 14.1214 6.55223 12.8925 4.6861 11.1002C2.85979 9.30393 1.59314 7.01693 1.03942 4.51588C0.974127 4.20417 0.990152 3.88091 1.08595 3.57719C1.18175 3.27347 1.3541 2.99951 1.58642 2.78168L3.20717 1.22171C3.28995 1.14342 3.38831 1.08347 3.49583 1.04577C3.60335 1.00807 3.71761 0.993466 3.83115 1.00291C3.94889 1.01519 4.0625 1.05312 4.164 1.11402C4.26551 1.17492 4.35243 1.25732 4.41867 1.35542L6.44461 4.34975C6.52058 4.46594 6.55726 4.60344 6.54923 4.74203C6.54121 4.88061 6.48891 5.01297 6.40004 5.11961L5.38302 6.33517C5.78806 7.23162 6.36168 8.04184 7.07265 8.72172C7.77901 9.42625 8.61391 9.98881 9.53213 10.3789L10.7923 9.37812C10.8981 9.29447 11.0269 9.24502 11.1615 9.23634C11.2961 9.22765 11.4302 9.26014 11.5459 9.3295L14.6051 11.3068C14.71 11.3695 14.7995 11.4551 14.8667 11.5573C14.9339 11.6594 14.9771 11.7755 14.993 11.8967C15.009 12.0179 14.9974 12.1412 14.959 12.2572C14.9205 12.3733 14.8563 12.4792 14.7712 12.5669L13.191 14.131C13.0115 14.3096 12.7984 14.4509 12.5641 14.5469C12.3297 14.6429 12.0787 14.6915 11.8255 14.6901V14.6901ZM3.76632 1.80518L2.14558 3.36515C2.01489 3.48693 1.91814 3.64063 1.86486 3.81113C1.81158 3.98163 1.80359 4.16307 1.84169 4.3376C2.35657 6.68449 3.54012 8.83205 5.24931 10.5207C7.00547 12.2069 9.20215 13.3629 11.5864 13.8554C11.7669 13.8932 11.9539 13.8855 12.1307 13.8332C12.3075 13.7809 12.4685 13.6855 12.5994 13.5556L14.1796 11.9916L11.2258 10.0831L9.87249 11.1609C9.82068 11.2019 9.75963 11.2297 9.69465 11.2417C9.62968 11.2537 9.56276 11.2496 9.49971 11.2298C8.37601 10.8158 7.35768 10.1586 6.51754 9.30518C5.64856 8.49368 4.97403 7.49644 4.54428 6.38784C4.5261 6.32073 4.5255 6.25007 4.54253 6.18265C4.55956 6.11524 4.59365 6.05334 4.64153 6.00291L5.73553 4.69416L3.76632 1.80518Z" fill="black"/>
</svg>
