<svg width="15" height="15" viewBox="0 0 15 15" fill="none" xmlns="http://www.w3.org/2000/svg">
<path fill-rule="evenodd" clip-rule="evenodd" d="M12.183 12.1829C14.7693 9.59648 14.7693 5.40313 12.183 2.81676C9.59662 0.230402 5.40325 0.230383 2.81687 2.81676C0.230517 5.40311 0.230517 9.5965 2.81687 12.1829C5.40325 14.7692 9.59662 14.7692 12.183 12.1829ZM13.1587 7.89973C13.0663 9.2155 12.5171 10.5052 11.5112 11.5111C10.5053 12.517 9.21555 13.0662 7.89975 13.1586L7.8997 7.89972L13.1587 7.89973ZM7.09975 13.1586C5.78406 13.0661 4.49447 12.5169 3.48862 11.5111C1.27327 9.29575 1.27327 5.70387 3.48862 3.48851C5.704 1.27313 9.29586 1.27315 11.5112 3.48851C12.5171 4.49438 13.0663 5.78401 13.1587 7.09973L7.0997 7.09972L7.09975 13.1586Z" fill="black"/>
</svg>
