<svg width="15" height="15" viewBox="0 0 15 15" fill="none" xmlns="http://www.w3.org/2000/svg">
<path fill-rule="evenodd" clip-rule="evenodd" d="M14 6.70138L13.9825 7.14971L13.9809 7.16936C13.722 10.4594 10.8929 13 7.5 13C4.10712 13 1.27799 10.4594 1.01909 7.16936L1.01755 7.14971L1 6.70138V4C1 2.89543 1.89543 2 3 2H12C13.1046 2 14 2.89543 14 4V6.70138ZM13 6.68182V4C13 3.44772 12.5523 3 12 3H3C2.44772 3 2 3.44772 2 4V6.68182L2.01601 7.09091C2.23209 9.8369 4.60477 12 7.5 12C10.3952 12 12.7679 9.8369 12.984 7.09091L13 6.68182Z" fill="black"/>
<path fill-rule="evenodd" clip-rule="evenodd" d="M3.75059 5.46571C3.93945 5.26425 4.25587 5.25404 4.45733 5.44291L7.49997 8.29539L10.5426 5.44291C10.7441 5.25404 11.0605 5.26425 11.2494 5.46571C11.4382 5.66716 11.428 5.98358 11.2266 6.17245L7.84194 9.34552C7.64961 9.52583 7.35033 9.52583 7.158 9.34552L3.77339 6.17245C3.57193 5.98358 3.56172 5.66716 3.75059 5.46571Z" fill="black"/>
</svg>
