<svg width="15" height="15" viewBox="0 0 15 15" fill="none" xmlns="http://www.w3.org/2000/svg">
<path d="M7.39258 0.761694C7.49888 0.738311 7.61147 0.749978 7.71191 0.796851L13.7119 3.59666C13.8877 3.67884 13.9999 3.8557 14 4.04978V5.99998C14 6.27612 13.7761 6.49998 13.5 6.49998C13.2239 6.49998 13 6.27612 13 5.99998V4.80466L8 6.93064V12.9638L9.28809 12.3633C9.53832 12.2465 9.83635 12.3552 9.95312 12.6054C10.0697 12.8555 9.96174 13.1526 9.71191 13.2695L7.71191 14.2031C7.57789 14.2656 7.42211 14.2656 7.28809 14.2031L1.28809 11.4033C1.11228 11.3211 1.00008 11.1442 1 10.9502V4.04978C1.00008 3.8557 1.11228 3.67884 1.28809 3.59666L7.28809 0.796851L7.39258 0.761694ZM2 10.6308L7 12.9638V6.93064L2 4.80466V10.6308ZM2.72754 4.0283L7.5 6.05662L12.2715 4.0283L7.5 1.80173L2.72754 4.0283Z" fill="black"/>
<path d="M12.5039 7C12.9997 7.0001 13.445 7.16085 13.7617 7.50195C14.0732 7.83766 14.206 8.28823 14.2061 8.76367V9.03125C14.6628 9.12356 15.0067 9.52778 15.0068 10.0117V11.8164C15.0068 12.3687 14.5591 12.8164 14.0068 12.8164H11C10.4477 12.8164 10 12.3687 10 11.8164V10.0117C10.0002 9.52742 10.3445 9.12317 10.8018 9.03125V8.76562C10.8018 8.28951 10.9351 7.83791 11.2471 7.50195C11.5639 7.16123 12.0082 7.0001 12.5039 7ZM11 11.8164H14.0068V10.0117H11V11.8164ZM12.5039 8C12.2274 8.00009 12.0705 8.08484 11.9795 8.18262C11.8835 8.28592 11.8018 8.46834 11.8018 8.76562V9.01172H13.2061V8.76367C13.206 8.46646 13.1237 8.28543 13.0283 8.18262C12.9379 8.08519 12.7812 8.00009 12.5039 8Z" fill="black"/>
</svg>
