<svg width="15" height="15" viewBox="0 0 15 15" fill="none" xmlns="http://www.w3.org/2000/svg">
<path d="M3.4248 3.44146C4.05582 3.23666 4.78339 3.24007 5.37891 3.54595C6.75287 4.25196 7.34796 6.07196 6.79492 8.00005C6.54687 8.86477 6.11027 9.70433 5.18652 10.5518C4.26245 11.3994 2.98039 11.8994 2.38574 11.8995C2.17272 11.8995 2 11.7316 2 11.5245C2.00021 11.3175 2.1766 11.1495 2.38574 11.1495C3.06499 11.1495 3.67195 10.7798 4.39062 10.2354C4.9406 9.81875 5.3706 9.2857 5.6084 8.82134C6.06295 7.93326 6.0782 6.68158 5.34375 6.34868C4.99088 6.73416 4.52964 6.95896 3.97754 6.95904C2.77771 6.95904 2.07033 5.99413 2.10059 5.12017C2.12965 4.28492 2.66026 3.68969 3.4248 3.44146ZM9.4248 3.44146C10.0558 3.23666 10.7834 3.24007 11.3789 3.54595C12.7529 4.25196 13.348 6.07196 12.7949 8.00005C12.5469 8.86477 12.1103 9.70433 11.1865 10.5518C10.2625 11.3994 8.98039 11.8994 8.38574 11.8995C8.17272 11.8995 8 11.7316 8 11.5245C8.00021 11.3175 8.1766 11.1495 8.38574 11.1495C9.06499 11.1495 9.67195 10.7798 10.3906 10.2354C10.9406 9.81875 11.3706 9.2857 11.6084 8.82134C12.0629 7.93326 12.0782 6.68158 11.3438 6.34868C10.9909 6.73416 10.5296 6.95896 9.97754 6.95904C8.77771 6.95904 8.07033 5.99413 8.10059 5.12017C8.12965 4.28492 8.66026 3.68969 9.4248 3.44146Z" fill="black"/>
</svg>
