<svg width="15" height="15" viewBox="0 0 15 15" fill="none" xmlns="http://www.w3.org/2000/svg">
<path d="M10.7998 1C11.1175 1 11.3914 0.999318 11.6143 1.02051C11.8445 1.04243 12.0723 1.09085 12.2842 1.22071C12.4859 1.34435 12.6557 1.51412 12.7793 1.71582C12.9092 1.92772 12.9576 2.15553 12.9795 2.38574C13.0007 2.60863 13 2.88254 13 3.2002V11.7998C13 12.1175 13.0007 12.3914 12.9795 12.6143C12.9576 12.8445 12.9092 13.0723 12.7793 13.2842C12.6557 13.4859 12.4859 13.6557 12.2842 13.7793C12.0723 13.9092 11.8445 13.9576 11.6143 13.9795C11.3914 14.0007 11.1175 14 10.7998 14H4.2002C3.88254 14 3.60863 14.0007 3.38574 13.9795C3.15553 13.9576 2.92772 13.9092 2.71582 13.7793C2.51412 13.6557 2.34435 13.4859 2.22071 13.2842C2.09085 13.0723 2.04243 12.8445 2.02051 12.6143C1.99932 12.3914 2 12.1175 2 11.7998V3.2002C2 2.88254 1.99932 2.60863 2.02051 2.38574C2.04243 2.15553 2.09085 1.92772 2.22071 1.71582C2.34435 1.51412 2.51412 1.34435 2.71582 1.22071C2.92772 1.09085 3.15553 1.04243 3.38574 1.02051C3.60863 0.999318 3.88254 1 4.2002 1H10.7998ZM4.2002 2C3.86317 2 3.64504 2.00096 3.48047 2.0166C3.32358 2.03155 3.26673 2.05581 3.23828 2.07324C3.17112 2.11443 3.11443 2.17112 3.07324 2.23828C3.05581 2.26673 3.03155 2.32358 3.0166 2.48047C3.00096 2.64504 3 2.86317 3 3.2002V11.7998C3 12.1368 3.00096 12.355 3.0166 12.5195C3.03155 12.6764 3.05581 12.7333 3.07324 12.7617C3.11443 12.8289 3.17112 12.8856 3.23828 12.9268C3.26673 12.9442 3.32358 12.9685 3.48047 12.9834C3.64504 12.999 3.86317 13 4.2002 13H10.7998C11.1368 13 11.355 12.999 11.5195 12.9834C11.6764 12.9685 11.7333 12.9442 11.7617 12.9268C11.8289 12.8856 11.8856 12.8289 11.9268 12.7617C11.9442 12.7333 11.9685 12.6764 11.9834 12.5195C11.999 12.355 12 12.1368 12 11.7998V3.2002C12 2.86317 11.999 2.64504 11.9834 2.48047C11.9685 2.32358 11.9442 2.26673 11.9268 2.23828C11.8856 2.17112 11.8289 2.11443 11.7617 2.07324C11.7333 2.05581 11.6764 2.03155 11.5195 2.0166C11.355 2.00096 11.1368 2 10.7998 2H4.2002ZM8 10C8.27614 10 8.5 10.2239 8.5 10.5C8.5 10.7761 8.27614 11 8 11H5C4.72386 11 4.5 10.7761 4.5 10.5C4.5 10.2239 4.72386 10 5 10H8ZM10 7C10.2761 7 10.5 7.22386 10.5 7.5C10.5 7.77614 10.2761 8 10 8H5C4.72386 8 4.5 7.77614 4.5 7.5C4.5 7.22386 4.72386 7 5 7H10ZM10 4C10.2761 4 10.5 4.22386 10.5 4.5C10.5 4.77614 10.2761 5 10 5H5C4.72386 5 4.5 4.77614 4.5 4.5C4.5 4.22386 4.72386 4 5 4H10Z" fill="black"/>
</svg>
