<svg width="15" height="15" viewBox="0 0 15 15" fill="none" xmlns="http://www.w3.org/2000/svg">
  <path fill-rule="evenodd" clip-rule="evenodd"
    d="M1.84998 7.50001C1.84998 4.66461 4.05979 1.85001 7.49998 1.85001C10.2783 1.85001 11.6515 3.90643 12.2367 5.00003H10.5C10.2239 5.00003 10 5.22389 10 5.50003C10 5.77617 10.2239 6.00003 10.5 6.00003H13.5C13.7761 6.00003 14 5.77617 14 5.50003V2.50003C14 2.22389 13.7761 2.00003 13.5 2.00003C13.2239 2.00003 13 2.22389 13 2.50003V4.31321C12.2955 3.07129 10.6659 0.850006 7.49998 0.850006C3.43716 0.850006 0.849976 4.18541 0.849976 7.50001C0.849976 10.8146 3.43716 14.15 7.49998 14.15C9.44382 14.15 11.0622 13.3809 12.2145 12.2084C12.8315 11.5806 13.3133 10.839 13.6418 10.0408C13.7469 9.78539 13.6251 9.49318 13.3698 9.38809C13.1144 9.28299 12.8222 9.40481 12.7171 9.66017C12.4363 10.3426 12.0251 10.9746 11.5013 11.5075C10.5295 12.4963 9.16504 13.15 7.49998 13.15C4.05979 13.15 1.84998 10.3354 1.84998 7.50001Z"
    fill="currentColor" />
</svg>