<svg width="15" height="15" viewBox="0 0 15 15" fill="none" xmlns="http://www.w3.org/2000/svg">
<path d="M4.14645 2.14645C4.34171 1.95118 4.65822 1.95118 4.85348 2.14645C5.04874 2.34171 5.04874 2.65822 4.85348 2.85348L3.70699 3.99996H8.99996C11.4852 3.99996 13.5 6.01468 13.5 8.49996C13.5 10.9852 11.4852 13 8.99996 13H4.99996C4.72382 13 4.49996 12.7761 4.49996 12.5C4.49996 12.2238 4.72382 12 4.99996 12H8.99996C10.933 12 12.5 10.433 12.5 8.49996C12.5 6.56697 10.933 4.99996 8.99996 4.99996H3.70699L4.85348 6.14645L4.91793 6.22457C5.0461 6.41865 5.02434 6.68261 4.85348 6.85348C4.68261 7.02434 4.41865 7.0461 4.22457 6.91793L4.14645 6.85348L2.14645 4.85348C1.95118 4.65822 1.95118 4.34171 2.14645 4.14645L4.14645 2.14645Z" fill="black"/>
</svg>
