<svg width="15" height="15" viewBox="0 0 15 15" fill="none" xmlns="http://www.w3.org/2000/svg">
<path d="M7.14648 3.14645C7.34175 2.95118 7.65825 2.95118 7.85352 3.14645L11.8535 7.14645C12.0488 7.34171 12.0488 7.65822 11.8535 7.85348L7.85352 11.8535C7.65825 12.0487 7.34175 12.0487 7.14648 11.8535C6.95122 11.6582 6.95122 11.3417 7.14648 11.1464L10.293 7.99996H1.5C1.22386 7.99996 1 7.7761 1 7.49996C1 7.22382 1.22386 6.99996 1.5 6.99996H10.293L7.14648 3.85348C6.95122 3.65822 6.95122 3.34171 7.14648 3.14645ZM13.5 3.99996C13.7761 3.99996 14 4.22382 14 4.49996V10.5C14 10.7761 13.7761 11 13.5 11C13.2239 11 13 10.7761 13 10.5V4.49996C13 4.22382 13.2239 3.99996 13.5 3.99996Z" fill="black"/>
</svg>
