<svg width="15" height="15" viewBox="0 0 15 15" fill="none" xmlns="http://www.w3.org/2000/svg">
<path fill-rule="evenodd" clip-rule="evenodd" d="M2 3C2 2.44772 2.44772 2 3 2H10.2597C10.5635 2 10.8508 2.13809 11.0406 2.3753L12.7809 4.5507C12.9218 4.72687 13 4.94549 13 5.17401V12.0005C13 12.5535 12.5516 13 12 13H3C2.44772 13 2 12.5523 2 12V3ZM10.2597 3L3 3V12H12V5.17539L10.2597 3Z" fill="black"/>
<path fill-rule="evenodd" clip-rule="evenodd" d="M4.5 2H10.5V4.5C10.5 5.32843 9.82843 6 9 6H6C5.17157 6 4.5 5.32843 4.5 4.5V2ZM5.5 3V4.5C5.5 4.77614 5.72386 5 6 5H9C9.27614 5 9.5 4.77614 9.5 4.5V3H5.5Z" fill="black"/>
<path fill-rule="evenodd" clip-rule="evenodd" d="M10.5 13L4.5 13L4.5 9.5C4.5 8.67157 5.17157 8 6 8L9 8C9.82843 8 10.5 8.67157 10.5 9.5V13ZM9.5 12L9.5 9.5C9.5 9.22386 9.27614 9 9 9L6 9C5.72386 9 5.5 9.22386 5.5 9.5L5.5 12H9.5Z" fill="black"/>
</svg>
