<svg width="15" height="15" viewBox="0 0 15 15" fill="none" xmlns="http://www.w3.org/2000/svg">
<path d="M1.43335 14.0666C1.15721 14.0666 0.93335 13.8428 0.93335 13.5666V11.4C0.93335 11.1238 1.15721 10.9 1.43335 10.9C1.70949 10.9 1.93335 11.1238 1.93335 11.4L1.93335 13.0666H3.60002C3.87616 13.0666 4.10002 13.2905 4.10002 13.5666C4.10002 13.8428 3.87616 14.0666 3.60002 14.0666H1.43335Z" fill="black"/>
<path d="M1.43335 9.08329C1.15721 9.08329 0.93335 8.85943 0.93335 8.58329V6.41662C0.93335 6.14048 1.15721 5.91662 1.43335 5.91662C1.70949 5.91662 1.93335 6.14048 1.93335 6.41662L1.93335 8.58329C1.93335 8.85943 1.70949 9.08329 1.43335 9.08329Z" fill="black"/>
<path d="M0.93335 3.59996C0.93335 3.8761 1.15721 4.09996 1.43335 4.09996C1.70949 4.09996 1.93335 3.8761 1.93335 3.59996L1.93335 1.93332H3.60002C3.87616 1.93332 4.10002 1.70946 4.10002 1.43332C4.10002 1.15718 3.87616 0.933321 3.60002 0.933321H1.43911L1.43335 0.933289C1.15721 0.933289 0.93335 1.15715 0.93335 1.43329V3.59996Z" fill="black"/>
<path d="M6.41668 0.933321C6.14054 0.933321 5.91668 1.15718 5.91668 1.43332C5.91668 1.70946 6.14054 1.93332 6.41668 1.93332H8.58335C8.85949 1.93332 9.08335 1.70946 9.08335 1.43332C9.08335 1.15718 8.85949 0.933321 8.58335 0.933321H6.41668Z" fill="black"/>
<path d="M10.9 1.43332C10.9 1.15718 11.1239 0.933321 11.4 0.933321H13.5609C13.5628 0.933299 13.5647 0.933289 13.5667 0.933289C13.7058 0.933289 13.8317 0.990137 13.9223 1.08188C14.0116 1.17219 14.0667 1.29632 14.0667 1.43332C14.0667 1.43524 14.0667 1.43716 14.0667 1.43907V3.59996C14.0667 3.8761 13.8428 4.09996 13.5667 4.09996C13.2905 4.09996 13.0667 3.8761 13.0667 3.59996V1.93332H11.4C11.1239 1.93332 10.9 1.70946 10.9 1.43332Z" fill="black"/>
<path d="M6.41668 13.0666C6.14054 13.0666 5.91668 13.2905 5.91668 13.5666C5.91668 13.8428 6.14054 14.0666 6.41668 14.0666H8.58335C8.85949 14.0666 9.08335 13.8428 9.08335 13.5666C9.08335 13.2905 8.85949 13.0666 8.58335 13.0666H6.41668Z" fill="black"/>
<path d="M10.9 13.5666C10.9 13.2905 11.1239 13.0666 11.4 13.0666H13.0667V11.4C13.0667 11.1238 13.2905 10.9 13.5667 10.9C13.8428 10.9 14.0667 11.1238 14.0667 11.4V13.5609C14.0667 13.5628 14.0667 13.5647 14.0667 13.5666C14.0667 13.8082 13.8953 14.0098 13.6674 14.0565C13.6349 14.0631 13.6012 14.0666 13.5667 14.0666C13.5667 14.0666 13.5667 14.0666 13.5667 14.0666H11.4C11.1239 14.0666 10.9 13.8428 10.9 13.5666Z" fill="black"/>
<path d="M13.0667 8.58329C13.0667 8.85943 13.2905 9.08329 13.5667 9.08329C13.8428 9.08329 14.0667 8.85943 14.0667 8.58329V6.41662C14.0667 6.14048 13.8428 5.91662 13.5667 5.91662C13.2905 5.91662 13.0667 6.14048 13.0667 6.41662V8.58329Z" fill="black"/>
</svg>
