<svg width="15" height="15" viewBox="0 0 15 15" fill="none" xmlns="http://www.w3.org/2000/svg">
<path d="M9.11487 13.4019C9.37068 13.345 9.62404 13.5065 9.68127 13.7623C9.73845 14.0182 9.57778 14.2723 9.3219 14.3297C8.89489 14.425 8.45214 14.4752 7.99963 14.4752L7.64319 14.4673C7.28781 14.4518 6.93839 14.4125 6.59729 14.3521C6.33934 14.3062 6.16709 14.0603 6.21252 13.8023C6.25828 13.544 6.50502 13.3709 6.76331 13.4166C7.16325 13.4874 7.57653 13.5249 7.99963 13.525C8.38182 13.525 8.75522 13.4823 9.11487 13.4019ZM1.9635 10.8248C2.17351 10.6678 2.47042 10.7105 2.62756 10.9205C3.11257 11.5686 3.73327 12.1259 4.45276 12.5572C4.67777 12.6921 4.75072 12.9845 4.61584 13.2095C4.48088 13.4343 4.18937 13.5074 3.96448 13.3726C3.14211 12.8797 2.42877 12.2393 1.8678 11.4898C1.71062 11.2798 1.75347 10.9819 1.9635 10.8248ZM12.6403 10.7711C12.7743 10.5455 13.0661 10.471 13.2916 10.605C13.5169 10.739 13.5912 11.03 13.4576 11.2554C13.0015 12.0232 12.4084 12.6907 11.7135 13.2154C11.5041 13.3735 11.2056 13.332 11.0475 13.1226C10.8895 12.9134 10.9312 12.6157 11.1403 12.4576C11.7338 12.0094 12.2451 11.4359 12.6403 10.7711ZM1.24573 5.72028C1.50176 5.77695 1.66355 6.03065 1.60706 6.28668C1.52042 6.67802 1.47525 7.08384 1.47522 7.49957C1.47522 7.91546 1.52039 8.32197 1.60706 8.71344C1.66349 8.96943 1.50172 9.22317 1.24573 9.27985C0.989806 9.33622 0.736041 9.17441 0.679321 8.91852C0.577868 8.46023 0.525024 7.98514 0.525024 7.49957C0.525056 7.01416 0.5779 6.53976 0.679321 6.0816C0.736001 5.82565 0.989766 5.66388 1.24573 5.72028ZM13.8121 5.81012C14.0705 5.76486 14.3166 5.93754 14.3619 6.19586C14.4362 6.61857 14.4752 7.05441 14.4752 7.49957C14.4752 7.94489 14.4362 8.38141 14.3619 8.80426C14.3165 9.0625 14.0704 9.23524 13.8121 9.19C13.5539 9.14465 13.3812 8.89846 13.4264 8.6402C13.4911 8.27146 13.525 7.88968 13.525 7.49957C13.525 7.10961 13.4911 6.72853 13.4264 6.35992C13.3811 6.1016 13.5538 5.85548 13.8121 5.81012ZM11.0475 1.8775C11.2055 1.66823 11.5032 1.62688 11.7125 1.78473C12.4075 2.30946 13.0014 2.97589 13.4576 3.74371C13.5916 3.96922 13.5171 4.26106 13.2916 4.39508C13.0661 4.52908 12.7743 4.4546 12.6403 4.22906C12.2451 3.56412 11.7339 2.99078 11.1403 2.54254C10.9312 2.38443 10.8896 2.08675 11.0475 1.8775ZM3.96448 1.6275C4.18939 1.49269 4.4809 1.5658 4.61584 1.79059C4.75071 2.01559 4.67776 2.30708 4.45276 2.44196C3.73311 2.87331 3.11265 3.43145 2.62756 4.07965C2.47042 4.28951 2.17349 4.33229 1.9635 4.17535C1.75347 4.01817 1.71062 3.72035 1.8678 3.51031C2.42877 2.76082 3.1421 2.12044 3.96448 1.6275ZM7.99963 0.524963C8.45214 0.524963 8.89489 0.575079 9.3219 0.670471C9.57776 0.727791 9.73845 0.981924 9.68127 1.23785C9.62394 1.49357 9.37067 1.65421 9.11487 1.59723C8.84514 1.53697 8.56769 1.49862 8.28479 1.48297L7.99963 1.47516L7.6842 1.48199C7.37075 1.49578 7.06324 1.52945 6.76331 1.58258C6.50499 1.62834 6.25828 1.45613 6.21252 1.19781C6.16703 0.939768 6.33931 0.693915 6.59729 0.64801C7.05179 0.567501 7.52083 0.524986 7.99963 0.524963Z" fill="black"/>
</svg>
