<svg width="15" height="15" viewBox="0 0 15 15" fill="none" xmlns="http://www.w3.org/2000/svg">
<path fill-rule="evenodd" clip-rule="evenodd" d="M1 2.39286C1 1.6236 1.6236 1 2.39286 1H12.6071C13.3764 1 14 1.6236 14 2.39286V12.6071C14 13.3764 13.3764 14 12.6071 14H2.39286C1.6236 14 1 13.3764 1 12.6071V2.39286ZM2.39286 1.92857C2.13644 1.92857 1.92857 2.13644 1.92857 2.39286V12.6071C1.92857 12.8636 2.13644 13.0714 2.39286 13.0714H12.6071C12.8636 13.0714 13.0714 12.8636 13.0714 12.6071V2.39286C13.0714 2.13644 12.8636 1.92857 12.6071 1.92857H2.39286Z" fill="black"/>
<path fill-rule="evenodd" clip-rule="evenodd" d="M5.15 6.50488C5.15 5.20701 6.20213 4.15488 7.5 4.15488C8.79787 4.15488 9.85 5.20701 9.85 6.50488C9.85 7.80275 8.79787 8.85488 7.5 8.85488C6.20213 8.85488 5.15 7.80275 5.15 6.50488ZM7.5 5.10488C6.7268 5.10488 6.1 5.73168 6.1 6.50488C6.1 7.27808 6.7268 7.90488 7.5 7.90488C8.2732 7.90488 8.9 7.27808 8.9 6.50488C8.9 5.73168 8.2732 5.10488 7.5 5.10488Z" fill="black"/>
<path fill-rule="evenodd" clip-rule="evenodd" d="M7.50024 9.975C5.9756 9.975 4.64822 10.8225 3.96477 12.0744C3.83906 12.3047 3.5505 12.3894 3.32024 12.2637C3.08998 12.138 3.00523 11.8494 3.13094 11.6192C3.97421 10.0746 5.61431 9.025 7.50024 9.025C9.38617 9.025 11.0263 10.0746 11.8695 11.6192C11.9952 11.8494 11.9105 12.138 11.6802 12.2637C11.45 12.3894 11.1614 12.3047 11.0357 12.0744C10.3523 10.8225 9.02488 9.975 7.50024 9.975Z" fill="black"/>
</svg>
