<svg width="15" height="15" viewBox="0 0 15 15" fill="none" xmlns="http://www.w3.org/2000/svg">
<path fill-rule="evenodd" clip-rule="evenodd" d="M2 9C2 9.02101 2.0013 9.04171 2.00381 9.06203C1.13926 9.28273 0.5 10.0667 0.5 11C0.5 11.9333 1.13926 12.7173 2.00381 12.938C2.0013 12.9583 2 12.979 2 13V14.5C2 14.7761 2.22386 15 2.5 15C2.77614 15 3 14.7761 3 14.5V13C3 12.979 2.99871 12.9583 2.99619 12.938C3.86074 12.7173 4.5 11.9333 4.5 11C4.5 10.0667 3.86074 9.28273 2.99619 9.06203C2.9987 9.04171 3 9.02101 3 9L3 0.5C3 0.223858 2.77614 0 2.5 0C2.22386 0 2 0.223858 2 0.5L2 9ZM2.5 9.95C3.0799 9.95 3.55 10.4201 3.55 11C3.55 11.5799 3.0799 12.05 2.5 12.05C1.9201 12.05 1.45 11.5799 1.45 11C1.45 10.4201 1.9201 9.95 2.5 9.95Z" fill="black"/>
<path fill-rule="evenodd" clip-rule="evenodd" d="M7.5 15C7.22386 15 7 14.7761 7 14.5V9C7 8.979 7.0013 8.95829 7.00381 8.93797C6.13926 8.71728 5.5 7.93329 5.5 7C5.5 6.06671 6.13926 5.28273 7.00381 5.06203C7.0013 5.04171 7 5.02101 7 5V0.5C7 0.223858 7.22386 0 7.5 0C7.77614 0 8 0.223858 8 0.5L8 5C8 5.02101 7.9987 5.04171 7.99619 5.06203C8.86074 5.28273 9.5 6.06671 9.5 7C9.5 7.93329 8.86074 8.71728 7.99619 8.93797C7.9987 8.95829 8 8.979 8 9V14.5C8 14.7761 7.77614 15 7.5 15ZM8.55 7C8.55 6.4201 8.0799 5.95 7.5 5.95C6.9201 5.95 6.45 6.4201 6.45 7C6.45 7.5799 6.9201 8.05 7.5 8.05C8.0799 8.05 8.55 7.5799 8.55 7Z" fill="black"/>
<path fill-rule="evenodd" clip-rule="evenodd" d="M13 0.5C13 0.223858 12.7761 0 12.5 0C12.2239 0 12 0.223858 12 0.5V2C12 2.02101 12.0013 2.04171 12.0038 2.06203C11.1393 2.28273 10.5 3.06671 10.5 4C10.5 4.93329 11.1393 5.71727 12.0038 5.93797C12.0013 5.95829 12 5.97899 12 6V14.5C12 14.7761 12.2239 15 12.5 15C12.7761 15 13 14.7761 13 14.5V6C13 5.97899 12.9987 5.95829 12.9962 5.93797C13.8607 5.71727 14.5 4.93329 14.5 4C14.5 3.06671 13.8607 2.28273 12.9962 2.06203C12.9987 2.04171 13 2.02101 13 2V0.5ZM13.55 4C13.55 3.4201 13.0799 2.95 12.5 2.95C11.9201 2.95 11.45 3.4201 11.45 4C11.45 4.5799 11.9201 5.05 12.5 5.05C13.0799 5.05 13.55 4.5799 13.55 4Z" fill="black"/>
</svg>
