<svg width="15" height="15" viewBox="0 0 15 15" fill="none" xmlns="http://www.w3.org/2000/svg">
<path fill-rule="evenodd" clip-rule="evenodd" d="M11 8.50002C11.5523 8.50002 12 8.05231 12 7.50002C12 6.94774 11.5523 6.50002 11 6.50002C10.4477 6.50002 10 6.94774 10 7.50002C10 8.05231 10.4477 8.50002 11 8.50002ZM5.00002 7.50002C5.00002 8.05231 4.55231 8.50002 4.00002 8.50002C3.44774 8.50002 3.00002 8.05231 3.00002 7.50002C3.00002 6.94774 3.44774 6.50002 4.00002 6.50002C4.55231 6.50002 5.00002 6.94774 5.00002 7.50002ZM7.50002 8.50002C8.05231 8.50002 8.50002 8.05231 8.50002 7.50002C8.50002 6.94774 8.05231 6.50002 7.50002 6.50002C6.94774 6.50002 6.50002 6.94774 6.50002 7.50002C6.50002 8.05231 6.94774 8.50002 7.50002 8.50002Z" fill="black"/>
<path fill-rule="evenodd" clip-rule="evenodd" d="M0.877075 7.49991C0.877075 3.84222 3.84222 0.877075 7.49991 0.877075C11.1576 0.877075 14.1227 3.84222 14.1227 7.49991C14.1227 11.1576 11.1576 14.1227 7.49991 14.1227C3.84222 14.1227 0.877075 11.1576 0.877075 7.49991ZM7.49991 1.82708C4.36689 1.82708 1.82708 4.36689 1.82708 7.49991C1.82708 10.6329 4.36689 13.1727 7.49991 13.1727C10.6329 13.1727 13.1727 10.6329 13.1727 7.49991C13.1727 4.36689 10.6329 1.82708 7.49991 1.82708Z" fill="black"/>
</svg>
