<svg width="15" height="15" viewBox="0 0 15 15" fill="none" xmlns="http://www.w3.org/2000/svg">
<path fill-rule="evenodd" clip-rule="evenodd" d="M2 4.5C2.93329 4.5 3.71727 3.86074 3.93797 2.99619C3.95829 2.9987 3.97899 3 4 3H14.5C14.7761 3 15 2.77614 15 2.5C15 2.22386 14.7761 2 14.5 2H4C3.97899 2 3.95829 2.0013 3.93797 2.00381C3.71727 1.13926 2.93329 0.5 2 0.5C0.895431 0.5 0 1.39543 0 2.5C0 3.60457 0.895431 4.5 2 4.5ZM2 3.55C2.5799 3.55 3.05 3.0799 3.05 2.5C3.05 1.9201 2.5799 1.45 2 1.45C1.4201 1.45 0.95 1.9201 0.95 2.5C0.95 3.0799 1.4201 3.55 2 3.55Z" fill="black"/>
<path fill-rule="evenodd" clip-rule="evenodd" d="M13 14.5C14.1046 14.5 15 13.6046 15 12.5C15 11.3954 14.1046 10.5 13 10.5C12.0667 10.5 11.2827 11.1393 11.062 12.0038C11.0417 12.0013 11.021 12 11 12H0.5C0.223858 12 0 12.2239 0 12.5C0 12.7761 0.223858 13 0.5 13H11C11.021 13 11.0417 12.9987 11.062 12.9962C11.2827 13.8607 12.0667 14.5 13 14.5ZM13 13.55C13.5799 13.55 14.05 13.0799 14.05 12.5C14.05 11.9201 13.5799 11.45 13 11.45C12.4201 11.45 11.95 11.9201 11.95 12.5C11.95 13.0799 12.4201 13.55 13 13.55Z" fill="black"/>
<path fill-rule="evenodd" clip-rule="evenodd" d="M9.93797 7.99619C9.71727 8.86074 8.93329 9.5 8 9.5C7.06671 9.5 6.28273 8.86074 6.06203 7.99619C6.04171 7.9987 6.02101 8 6 8H0.5C0.223858 8 0 7.77614 0 7.5C0 7.22386 0.223858 7 0.5 7H6C6.02101 7 6.04171 7.0013 6.06203 7.00381C6.28273 6.13926 7.06671 5.5 8 5.5C8.93329 5.5 9.71727 6.13926 9.93797 7.00381C9.95829 7.0013 9.979 7 10 7H14.5C14.7761 7 15 7.22386 15 7.5C15 7.77614 14.7761 8 14.5 8H10C9.979 8 9.95829 7.9987 9.93797 7.99619ZM9.05 7.5C9.05 8.0799 8.5799 8.55 8 8.55C7.4201 8.55 6.95 8.0799 6.95 7.5C6.95 6.9201 7.4201 6.45 8 6.45C8.5799 6.45 9.05 6.9201 9.05 7.5Z" fill="black"/>
</svg>
