<svg width="15" height="15" viewBox="0 0 15 15" fill="none" xmlns="http://www.w3.org/2000/svg">
<path d="M12.6074 1C13.3765 1.00015 13.9998 1.62355 14 2.39258V12.6074C13.9998 13.3765 13.3765 13.9998 12.6074 14H2.39258C1.62355 13.9998 1.00015 13.3765 1 12.6074V2.39258C1.00015 1.62355 1.62355 1.00015 2.39258 1H12.6074ZM2.39258 1.92871C2.13638 1.92886 1.92886 2.13638 1.92871 2.39258V12.6074C1.92886 12.8636 2.13638 13.0711 2.39258 13.0713H12.6074C12.8636 13.0711 13.0711 12.8636 13.0713 12.6074V2.39258C13.0711 2.13638 12.8636 1.92886 12.6074 1.92871H2.39258ZM4 6.5C4.55228 6.5 5 6.94772 5 7.5C5 8.05229 4.55228 8.5 4 8.5C3.44772 8.5 3 8.05229 3 7.5C3 6.94772 3.44772 6.5 4 6.5ZM7.5 6.5C8.05229 6.5 8.5 6.94772 8.5 7.5C8.5 8.05229 8.05229 8.5 7.5 8.5C6.94772 8.5 6.5 8.05229 6.5 7.5C6.5 6.94772 6.94772 6.5 7.5 6.5ZM11 6.5C11.5523 6.5 12 6.94772 12 7.5C12 8.05229 11.5523 8.5 11 8.5C10.4477 8.5 10 8.05229 10 7.5C10 6.94772 10.4477 6.5 11 6.5Z" fill="black"/>
</svg>
