<svg width="15" height="15" viewBox="0 0 15 15" fill="none" xmlns="http://www.w3.org/2000/svg">
<path d="M9.14645 7.85355C8.95118 7.65829 8.95118 7.34178 9.14645 7.14652L13.1464 3.14652C13.3417 2.95126 13.6582 2.95126 13.8535 3.14652C14.0487 3.34178 14.0487 3.65829 13.8535 3.85355L10.207 7.50004L13.8535 11.1465C14.0487 11.3418 14.0487 11.6583 13.8535 11.8536C13.6582 12.0488 13.3417 12.0488 13.1464 11.8536L9.14645 7.85355ZM1.14645 3.85355C0.951184 3.65829 0.951184 3.34179 1.14645 3.14652C1.34171 2.95126 1.65822 2.95126 1.85348 3.14652L5.85348 7.14652C6.04874 7.34178 6.04874 7.65829 5.85348 7.85355L1.85348 11.8536C1.65822 12.0488 1.34171 12.0488 1.14645 11.8536C0.951184 11.6583 0.951185 11.3418 1.14645 11.1465L4.79293 7.50004L1.14645 3.85355Z" fill="black"/>
</svg>
