<svg width="15" height="15" viewBox="0 0 15 15" fill="none" xmlns="http://www.w3.org/2000/svg">
<path d="M12.0958 8.11093C12.3443 8.11101 12.546 8.31265 12.546 8.56112C12.5458 8.80938 12.3441 9.01026 12.0958 9.01034H9.6466L13.1212 12.485C13.2969 12.6607 13.2969 12.946 13.1212 13.1217C12.9455 13.2974 12.6602 13.2974 12.4845 13.1217L9.00988 9.64706V12.0963C9.00983 12.3448 8.80818 12.5465 8.55969 12.5465C8.3114 12.5462 8.11053 12.3446 8.11047 12.0963V8.56112C8.11047 8.31274 8.31137 8.11117 8.55969 8.11093H12.0958ZM1.87805 1.87851C2.05378 1.70277 2.33903 1.70277 2.51477 1.87851L5.9884 5.35312V2.9039C5.9884 2.65545 6.19019 2.45384 6.4386 2.4537C6.68712 2.4537 6.88879 2.65537 6.88879 2.9039V6.43905C6.88879 6.68758 6.68712 6.88925 6.4386 6.88925H2.90344C2.65491 6.88925 2.45324 6.68758 2.45324 6.43905C2.45338 6.19064 2.655 5.98886 2.90344 5.98886H5.35266L1.87805 2.51522C1.70231 2.33949 1.70231 2.05424 1.87805 1.87851Z" fill="black"/>
</svg>
