<svg width="15" height="15" viewBox="0 0 15 15" fill="none" xmlns="http://www.w3.org/2000/svg">
<path d="M6.43855 8.11093C6.68692 8.11093 6.88849 8.31184 6.88874 8.56015V12.0963C6.88868 12.3448 6.68704 12.5465 6.43855 12.5465C6.19018 12.5463 5.98842 12.3447 5.98835 12.0963V9.64706L2.51472 13.1217C2.33903 13.2974 2.05375 13.2973 1.878 13.1217C1.70227 12.9459 1.70227 12.6607 1.878 12.485L5.35261 9.01034H2.90339C2.65486 9.01034 2.4532 8.80867 2.4532 8.56015C2.45346 8.31184 2.65502 8.11093 2.90339 8.11093H6.43855ZM12.4844 1.87851C12.6602 1.70277 12.9454 1.70277 13.1212 1.87851C13.2968 2.05425 13.2969 2.33953 13.1212 2.51522L9.64656 5.98886H12.0958C12.3442 5.98892 12.5458 6.19068 12.546 6.43905C12.546 6.68754 12.3443 6.88919 12.0958 6.88925H8.56062C8.31209 6.88925 8.11042 6.68758 8.11042 6.43905V2.9039C8.11042 2.65537 8.31209 2.4537 8.56062 2.4537C8.80892 2.45396 9.00984 2.65553 9.00984 2.9039V5.35312L12.4844 1.87851Z" fill="black"/>
</svg>
