<svg width="15" height="15" viewBox="0 0 15 15" fill="none" xmlns="http://www.w3.org/2000/svg">
  <path fill-rule="evenodd" clip-rule="evenodd"
    d="M3.85355 1.14645C3.65829 0.951184 3.34171 0.951184 3.14645 1.14645C2.95118 1.34171 2.95118 1.65829 3.14645 1.85355L7.14645 5.85355C7.34171 6.04882 7.65829 6.04882 7.85355 5.85355L11.8536 1.85355C12.0488 1.65829 12.0488 1.34171 11.8536 1.14645C11.6583 0.951184 11.3417 0.951184 11.1464 1.14645L7.5 4.79289L3.85355 1.14645ZM11.1464 13.8536C11.3417 14.0488 11.6583 14.0488 11.8536 13.8536C12.0488 13.6583 12.0488 13.3417 11.8536 13.1464L7.85355 9.14645C7.65829 8.95118 7.34171 8.95118 7.14645 9.14645L3.14645 13.1464C2.95118 13.3417 2.95118 13.6583 3.14645 13.8536C3.34171 14.0488 3.65829 14.0488 3.85355 13.8536L7.5 10.2071L11.1464 13.8536Z"
    fill="currentColor" />
</svg>