<svg width="15" height="15" viewBox="0 0 15 15" fill="none" xmlns="http://www.w3.org/2000/svg">
<path d="M5.83541 8.21431C6.08394 8.21431 6.28561 8.41597 6.28561 8.6645V11.1391C6.28558 11.3876 6.08392 11.5893 5.83541 11.5893C5.58704 11.5891 5.38622 11.3875 5.38619 11.1391V9.82075L3.18405 12.0229C2.98879 12.2181 2.67227 12.2181 2.47702 12.0229C2.28176 11.8276 2.28176 11.5111 2.47702 11.3159L4.67916 9.11372H3.3608C3.1124 9.1137 2.91078 8.91287 2.91061 8.6645C2.91061 8.41599 3.11229 8.21433 3.3608 8.21431H5.83541ZM11.1391 8.21431C11.3876 8.21435 11.5893 8.416 11.5893 8.6645C11.5891 8.91283 11.3875 9.11368 11.1391 9.11372H9.82077L12.0229 11.3159C12.2181 11.5111 12.2181 11.8276 12.0229 12.0229C11.8277 12.2182 11.5111 12.2181 11.3159 12.0229L9.11373 9.82075V11.1391C9.11368 11.3875 8.91285 11.5891 8.66452 11.5893C8.41602 11.5893 8.21438 11.3876 8.21432 11.1391V8.6645C8.21432 8.41597 8.41599 8.21431 8.66452 8.21431H11.1391ZM2.47702 2.477C2.67227 2.28175 2.98879 2.28175 3.18405 2.477L5.38619 4.67915V3.36079C5.38622 3.11239 5.58704 2.91076 5.83541 2.9106C6.08392 2.9106 6.28558 3.11229 6.28561 3.36079V5.8354C6.28561 6.08393 6.08394 6.2856 5.83541 6.2856H3.3608C3.11229 6.28557 2.91061 6.08392 2.91061 5.8354C2.91078 5.58703 3.1124 5.3862 3.3608 5.38618H4.67916L2.47702 3.18403C2.28176 2.98877 2.28176 2.67226 2.47702 2.477ZM11.3159 2.477C11.5111 2.28177 11.8277 2.28175 12.0229 2.477C12.2181 2.67226 12.2181 2.98878 12.0229 3.18403L9.82077 5.38618H11.1391C11.3875 5.38623 11.5891 5.58707 11.5893 5.8354C11.5893 6.0839 11.3876 6.28555 11.1391 6.2856H8.66452C8.41599 6.2856 8.21432 6.08393 8.21432 5.8354V3.36079C8.21437 3.11231 8.41602 2.9106 8.66452 2.9106C8.91285 2.91078 9.11368 3.11243 9.11373 3.36079V4.67915L11.3159 2.477Z" fill="black"/>
</svg>
