<svg width="15" height="15" viewBox="0 0 15 15" fill="none" xmlns="http://www.w3.org/2000/svg">
<path d="M7.43164 9.43164C7.60737 9.25591 7.89262 9.25592 8.06836 9.43164L9.81836 11.1816C9.9941 11.3574 9.9941 11.6426 9.81836 11.8184C9.64262 11.9941 9.35738 11.9941 9.18164 11.8184L8.25 10.8867V14C8.25 14.2761 8.02614 14.5 7.75 14.5C7.47386 14.5 7.25 14.2761 7.25 14V10.8867L6.31836 11.8184C6.14262 11.9941 5.85738 11.9941 5.68164 11.8184C5.50592 11.6426 5.50591 11.3574 5.68164 11.1816L7.43164 9.43164ZM3.68164 5.68164C3.85737 5.50591 4.14262 5.50592 4.31836 5.68164L6.06836 7.43164C6.2441 7.60738 6.2441 7.89262 6.06836 8.06836L4.31836 9.81836C4.14262 9.9941 3.85738 9.9941 3.68164 9.81836C3.50592 9.64262 3.50591 9.35737 3.68164 9.18164L4.61328 8.25H1.5C1.22386 8.25 1 8.02614 1 7.75C1 7.47386 1.22386 7.25 1.5 7.25H4.61328L3.68164 6.31836C3.50592 6.14262 3.50591 5.85737 3.68164 5.68164ZM11.1816 5.68164C11.3574 5.50591 11.6426 5.50592 11.8184 5.68164C11.9941 5.85738 11.9941 6.14262 11.8184 6.31836L10.8867 7.25H14C14.2761 7.25 14.5 7.47386 14.5 7.75C14.5 8.02614 14.2761 8.25 14 8.25H10.8867L11.8184 9.18164C11.9941 9.35738 11.9941 9.64262 11.8184 9.81836C11.6426 9.9941 11.3574 9.9941 11.1816 9.81836L9.43164 8.06836C9.25592 7.89262 9.25591 7.60737 9.43164 7.43164L11.1816 5.68164ZM7.75 1C8.02614 1 8.25 1.22386 8.25 1.5V4.61328L9.18164 3.68164C9.35737 3.50591 9.64262 3.50592 9.81836 3.68164C9.9941 3.85738 9.9941 4.14262 9.81836 4.31836L8.06836 6.06836C7.89262 6.2441 7.60738 6.2441 7.43164 6.06836L5.68164 4.31836C5.50592 4.14262 5.50591 3.85737 5.68164 3.68164C5.85737 3.50591 6.14262 3.50592 6.31836 3.68164L7.25 4.61328V1.5C7.25 1.22386 7.47386 1 7.75 1Z" fill="black"/>
</svg>
