<svg width="17" height="15" viewBox="0 0 17 15" fill="none" xmlns="http://www.w3.org/2000/svg">
<path d="M4.18139 4.68179C4.35712 4.50605 4.64237 4.50605 4.81811 4.68179L7.31811 7.18179C7.49365 7.35754 7.49378 7.64284 7.31811 7.81851L4.81811 10.3185C4.64244 10.4942 4.35714 10.494 4.18139 10.3185C4.00565 10.1428 4.00565 9.85753 4.18139 9.68179L5.91283 7.95034H0.999748C0.751285 7.95034 0.549658 7.74859 0.549553 7.50015C0.549553 7.25162 0.75122 7.04995 0.999748 7.04995H5.91283L4.18139 5.31851C4.00565 5.14277 4.00565 4.85753 4.18139 4.68179ZM12.1814 4.68179C12.3571 4.50608 12.6424 4.50606 12.8181 4.68179C12.9936 4.85753 12.9938 5.14284 12.8181 5.31851L11.0857 7.04995H15.9997C16.2482 7.05007 16.4499 7.25169 16.4499 7.50015C16.4499 7.74853 16.2481 7.95023 15.9997 7.95034H11.0857L12.8181 9.68179C12.9936 9.85753 12.9938 10.1428 12.8181 10.3185C12.6424 10.4942 12.3571 10.494 12.1814 10.3185L9.68139 7.81851C9.50565 7.64277 9.50565 7.35753 9.68139 7.18179L12.1814 4.68179Z" fill="black"/>
</svg>
