<svg width="15" height="17" viewBox="0 0 15 17" fill="none" xmlns="http://www.w3.org/2000/svg">
<path d="M7.1813 9.68182C7.35703 9.50609 7.64228 9.50609 7.81801 9.68182L10.318 12.1818C10.4935 12.3576 10.4937 12.6429 10.318 12.8185C10.1423 12.9942 9.85704 12.9941 9.6813 12.8185L7.94985 11.0861V16.0002C7.94973 16.2485 7.74802 16.4503 7.49965 16.4504C7.2512 16.4504 7.04958 16.2486 7.04946 16.0002V11.0861L5.31801 12.8185C5.14235 12.9942 4.85704 12.9941 4.6813 12.8185C4.50556 12.6428 4.50557 12.3576 4.6813 12.1818L7.1813 9.68182ZM7.49965 0.549988C7.7481 0.55008 7.94985 0.751712 7.94985 1.00018V5.91327L9.6813 4.18182C9.85703 4.00609 10.1423 4.00609 10.318 4.18182C10.4936 4.35757 10.4937 4.64287 10.318 4.81854L7.81801 7.31854C7.64234 7.49421 7.35704 7.49409 7.1813 7.31854L4.6813 4.81854C4.50556 4.64281 4.50557 4.35756 4.6813 4.18182C4.85703 4.00609 5.14228 4.00609 5.31801 4.18182L7.04946 5.91327V1.00018C7.04946 0.751655 7.25113 0.549988 7.49965 0.549988Z" fill="black"/>
</svg>
