<svg width="15" height="15" viewBox="0 0 15 15" fill="none" xmlns="http://www.w3.org/2000/svg">
<path d="M7.14644 9.14645C7.3417 8.95118 7.65821 8.95118 7.85347 9.14645L11.8535 13.1464C12.0487 13.3417 12.0487 13.6582 11.8535 13.8535C11.6582 14.0487 11.3417 14.0487 11.1464 13.8535L7.49996 10.207L3.85347 13.8535C3.65821 14.0487 3.34171 14.0487 3.14644 13.8535C2.95118 13.6582 2.95118 13.3417 3.14644 13.1464L7.14644 9.14645ZM11.1464 1.14645C11.3417 0.951184 11.6582 0.951185 11.8535 1.14645C12.0487 1.34171 12.0487 1.65822 11.8535 1.85348L7.85347 5.85348C7.65821 6.04874 7.3417 6.04874 7.14644 5.85348L3.14644 1.85348C2.95118 1.65822 2.95118 1.34171 3.14644 1.14645C3.3417 0.951184 3.65821 0.951185 3.85347 1.14645L7.49996 4.79293L11.1464 1.14645Z" fill="black"/>
</svg>
