<svg width="15" height="15" viewBox="0 0 15 15" fill="none" xmlns="http://www.w3.org/2000/svg">
<path d="M8.08984 8.12789C8.58453 8.79271 9.05295 9.39763 9.56543 9.88961C10.2892 10.5843 11.0465 11 12 11H12.793L11.6465 9.85348L11.582 9.77535C11.4539 9.58127 11.4756 9.31731 11.6465 9.14645C11.8173 8.97558 12.0813 8.95383 12.2754 9.08199L12.3535 9.14645L14.3535 11.1464C14.5488 11.3417 14.5488 11.6582 14.3535 11.8535L12.3535 13.8535C12.1583 14.0487 11.8417 14.0487 11.6465 13.8535C11.4512 13.6582 11.4512 13.3417 11.6465 13.1464L12.793 12H12C10.7037 12 9.7107 11.4154 8.87207 10.6103C8.37205 10.1302 7.90974 9.55017 7.45801 8.95113C7.64654 8.71416 7.8276 8.47983 8 8.24996C8.03055 8.20922 8.05987 8.16806 8.08984 8.12789ZM11.6465 1.14645C11.8417 0.951185 12.1583 0.951185 12.3535 1.14645L14.3535 3.14645C14.5488 3.34171 14.5488 3.65822 14.3535 3.85348L12.3535 5.85348C12.1583 6.04874 11.8417 6.04874 11.6465 5.85348C11.4512 5.65822 11.4512 5.34171 11.6465 5.14645L12.793 3.99996H12C11.0465 3.99996 10.2892 4.41562 9.56543 5.11031C8.82263 5.82341 8.17078 6.77256 7.40039 7.79977C5.89165 9.81141 4.00963 12 0.5 12C0.223858 12 0 11.7761 0 11.5C0 11.2238 0.223858 11 0.5 11C3.49021 11 5.10841 9.18839 6.59961 7.20016C7.329 6.22764 8.05261 5.1764 8.87207 4.38961C9.7107 3.58453 10.7037 2.99996 12 2.99996H12.793L11.6465 1.85348L11.582 1.77535C11.4539 1.58127 11.4756 1.31731 11.6465 1.14645ZM0.5 2.99996C3.35242 2.99996 5.1293 4.44596 6.50488 6.06734C6.3319 6.30141 6.16402 6.53126 6 6.74996C5.96377 6.79828 5.92681 6.84575 5.89062 6.89352C4.57223 5.29348 3.0261 3.99996 0.5 3.99996C0.223858 3.99996 0 3.7761 0 3.49996C0 3.22382 0.223858 2.99996 0.5 2.99996Z" fill="black"/>
</svg>
