<svg width="15" height="15" viewBox="0 0 15 15" fill="none" xmlns="http://www.w3.org/2000/svg">
<path fill-rule="evenodd" clip-rule="evenodd" d="M9.3005 6.50006C9.3005 5.50567 8.49439 4.69956 7.50001 4.69956C6.50562 4.69956 5.69951 5.50567 5.69951 6.50006C5.69951 7.49444 6.50562 8.30055 7.50001 8.30055C8.49439 8.30055 9.3005 7.49444 9.3005 6.50006ZM10.2505 6.50006C10.2505 4.981 9.01906 3.74956 7.50001 3.74956C5.98095 3.74956 4.74951 4.981 4.74951 6.50006C4.74951 8.01911 5.98095 9.25055 7.50001 9.25055C9.01906 9.25055 10.2505 8.01911 10.2505 6.50006Z" fill="black"/>
<path fill-rule="evenodd" clip-rule="evenodd" d="M7.50006 14.9999C7.22392 14.9999 7.00006 14.7761 7.00006 14.4999L7.00006 8.99994C7.00006 8.7238 7.22392 8.49994 7.50006 8.49994C7.7762 8.49994 8.00006 8.7238 8.00006 8.99994L8.00006 14.4999C8.00006 14.7761 7.7762 14.9999 7.50006 14.9999ZM7.50006 4.49994C7.22392 4.49994 7.00006 4.27608 7.00006 3.99994V0.499939C7.00006 0.223797 7.22392 -6.10231e-05 7.50006 -6.10352e-05C7.7762 -6.10472e-05 8.00006 0.223797 8.00006 0.499939V3.99994C8.00006 4.27608 7.7762 4.49994 7.50006 4.49994Z" fill="black"/>
</svg>
