<svg width="15" height="15" viewBox="0 0 15 15" fill="none" xmlns="http://www.w3.org/2000/svg">
<path d="M7.5 3C7.77614 3 8 3.22386 8 3.5V11.5C8 11.7761 7.77614 12 7.5 12C7.22386 12 7 11.7761 7 11.5V3.5C7 3.22386 7.22386 3 7.5 3ZM5.5 4C5.77614 4 6 4.22386 6 4.5V10.5C6 10.7761 5.77614 11 5.5 11C5.22386 11 5 10.7761 5 10.5V4.5C5 4.22386 5.22386 4 5.5 4ZM9.5 4C9.77614 4 10 4.22386 10 4.5V10.5C10 10.7761 9.77614 11 9.5 11C9.22386 11 9 10.7761 9 10.5V4.5C9 4.22386 9.22386 4 9.5 4ZM3.5 5C3.77614 5 4 5.22386 4 5.5V9.5C4 9.77614 3.77614 10 3.5 10C3.22386 10 3 9.77614 3 9.5V5.5C3 5.22386 3.22386 5 3.5 5ZM11.5 5C11.7761 5 12 5.22386 12 5.5V9.5C12 9.77614 11.7761 10 11.5 10C11.2239 10 11 9.77614 11 9.5V5.5C11 5.22386 11.2239 5 11.5 5ZM1.5 6C1.77614 6 2 6.22386 2 6.5V8.5C2 8.77614 1.77614 9 1.5 9C1.22386 9 1 8.77614 1 8.5V6.5C1 6.22386 1.22386 6 1.5 6ZM13.5 6C13.7761 6 14 6.22386 14 6.5V8.5C14 8.77614 13.7761 9 13.5 9C13.2239 9 13 8.77614 13 8.5V6.5C13 6.22386 13.2239 6 13.5 6Z" fill="black"/>
</svg>
