<svg width="15" height="15" viewBox="0 0 15 15" fill="none" xmlns="http://www.w3.org/2000/svg">
<path d="M13.4999 14C13.776 14 13.9999 14.2239 13.9999 14.5C13.9999 14.7762 13.776 15 13.4999 15H1.49988C1.22374 15 0.999878 14.7762 0.999878 14.5C0.999878 14.2239 1.22374 14 1.49988 14H5.99988V10C5.99988 9.44777 6.44765 9.00008 6.99988 9.00002H7.99988C8.55216 9.00002 8.99988 9.44773 8.99988 10V14H13.4999ZM13.4999 1.52588e-05C13.776 1.52588e-05 13.9999 0.223873 13.9999 0.500015C13.9999 0.776158 13.776 1.00002 13.4999 1.00002H8.99988V5.00002C8.99988 5.5523 8.55216 6.00002 7.99988 6.00002H6.99988C6.44765 5.99995 5.99988 5.55226 5.99988 5.00002V1.00002H1.49988C1.22374 1.00002 0.999878 0.776157 0.999878 0.500015C0.999878 0.223873 1.22374 1.52588e-05 1.49988 1.52588e-05H13.4999Z" fill="black"/>
</svg>
