<svg width="15" height="15" viewBox="0 0 15 15" fill="none" xmlns="http://www.w3.org/2000/svg">
<path d="M0.999877 13.5C0.999877 13.7761 0.77602 14 0.499877 14C0.223735 14 -0.000122617 13.7761 -0.000122617 13.5L-0.000122092 1.5C-0.000120353 1.22386 0.223737 0.999999 0.499878 0.999999C0.776019 0.999999 0.999876 1.22386 0.999878 1.5L0.999877 13.5ZM6.99988 8C6.99988 8.55228 6.55216 9 5.99988 9L2.99988 9C2.44759 9 1.99988 8.55228 1.99988 8L1.99988 7C1.99988 6.44771 2.44759 6 2.99988 6L5.99988 6C6.55216 6 6.99988 6.44772 6.99988 7L6.99988 8ZM12.9999 8C12.9999 8.55228 12.5522 9 11.9999 9L8.99988 9C8.44759 9 7.99988 8.55228 7.99988 8L7.99988 7C7.99988 6.44772 8.44759 6 8.99988 6L11.9999 6C12.5522 6 12.9999 6.44772 12.9999 7L12.9999 8ZM14.9999 13.5C14.9999 13.7761 14.776 14 14.4999 14C14.2237 14 13.9999 13.7761 13.9999 13.5L13.9999 1.5C13.9999 1.22386 14.2237 1 14.4999 1C14.776 1 14.9999 1.22386 14.9999 1.5L14.9999 13.5Z" fill="black"/>
</svg>
