<svg width="15" height="15" viewBox="0 0 15 15" fill="none" xmlns="http://www.w3.org/2000/svg">
<path d="M13.4999 14C13.776 14 13.9999 14.2239 13.9999 14.5C13.9999 14.7762 13.776 15 13.4999 15H1.49988C1.22374 15 0.999878 14.7762 0.999878 14.5C0.999878 14.2239 1.22374 14 1.49988 14H13.4999ZM7.99988 8.00002C8.55216 8.00002 8.99988 8.44773 8.99988 9.00002V12C8.99988 12.5523 8.55216 13 7.99988 13H6.99988C6.44765 12.9999 5.99988 12.5523 5.99988 12V9.00002C5.99988 8.44777 6.44765 8.00008 6.99988 8.00002H7.99988ZM7.99988 2.00002C8.55216 2.00002 8.99988 2.44773 8.99988 3.00002V6.00002C8.99988 6.5523 8.55216 7.00002 7.99988 7.00002H6.99988C6.44765 6.99995 5.99988 6.55226 5.99988 6.00002V3.00002C5.99988 2.44777 6.44765 2.00008 6.99988 2.00002H7.99988ZM13.4999 1.52588e-05C13.776 1.52588e-05 13.9999 0.223873 13.9999 0.500015C13.9999 0.776158 13.776 1.00002 13.4999 1.00002H1.49988C1.22374 1.00002 0.999878 0.776157 0.999878 0.500015C0.999878 0.223873 1.22374 1.52588e-05 1.49988 1.52588e-05H13.4999Z" fill="black"/>
</svg>
