<svg width="15" height="15" viewBox="0 0 15 15" fill="none" xmlns="http://www.w3.org/2000/svg">
  <path fill-rule="evenodd" clip-rule="evenodd"
    d="M14.4999 1C14.2237 1 13.9999 1.22386 13.9999 1.5L13.9999 13.5C13.9999 13.7761 14.2237 14 14.4999 14C14.776 14 14.9999 13.7761 14.9999 13.5L14.9999 1.5C14.9999 1.22386 14.776 1 14.4999 1ZM0.499878 1C0.223736 1 -0.00012208 1.22386 -0.000122092 1.5L-0.000121663 13.5C-0.000121675 13.7761 0.223735 14 0.499878 14C0.77602 14 0.999878 13.7761 0.999878 13.5L0.999878 1.5C0.999878 1.22386 0.77602 1 0.499878 1ZM1.99988 7C1.99988 6.44772 2.44759 6 2.99988 6L5.99988 6C6.55216 6 6.99988 6.44772 6.99988 7L6.99988 8C6.99988 8.55228 6.55216 9 5.99988 9L2.99988 9C2.44759 9 1.99988 8.55228 1.99988 8L1.99988 7ZM8.99988 6C8.44759 6 7.99988 6.44772 7.99988 7L7.99988 8C7.99988 8.55228 8.44759 9 8.99988 9L11.9999 9C12.5522 9 12.9999 8.55229 12.9999 8L12.9999 7C12.9999 6.44772 12.5522 6 11.9999 6L8.99988 6Z"
    fill="currentColor" />
</svg>