<svg width="15" height="15" viewBox="0 0 15 15" fill="none" xmlns="http://www.w3.org/2000/svg">
<path d="M7.2002 1.0997C7.35167 0.986282 7.55436 0.968191 7.72363 1.05283C7.89302 1.13752 8 1.31071 8 1.50009V13.5001C8 13.6895 7.89302 13.8627 7.72363 13.9474C7.55436 14.032 7.35167 14.0139 7.2002 13.9005L3.33301 11.0001H1.5C0.671573 11.0001 0 10.3285 0 9.50009V5.50009C1.54621e-06 4.67167 0.671574 4.00009 1.5 4.00009H3.33301L7.2002 1.0997ZM3.7998 4.90048C3.71332 4.96525 3.60805 5.00009 3.5 5.00009H1.5C1.22386 5.00009 1 5.22395 1 5.50009V9.50009C1 9.77624 1.22386 10.0001 1.5 10.0001H3.5C3.60805 10.0001 3.71332 10.0349 3.7998 10.0997L7 12.4991V2.50009L3.7998 4.90048ZM10.2783 3.84775C10.4391 3.7409 10.6493 3.76583 10.7812 3.89658L10.833 3.95908L10.9629 4.1622C12.2548 6.27283 12.2112 8.96961 10.833 11.0411C10.7106 11.2247 10.4621 11.2746 10.2783 11.1524C10.0945 11.0301 10.0448 10.7816 10.167 10.5977C11.3724 8.78607 11.4094 6.42512 10.2793 4.5792L10.166 4.40244L10.1289 4.33115C10.059 4.15876 10.1174 3.95482 10.2783 3.84775Z" fill="black"/>
</svg>
