<svg width="15" height="15" viewBox="0 0 15 15" fill="none" xmlns="http://www.w3.org/2000/svg">
<path d="M7.2002 1.0997C7.35167 0.986282 7.55436 0.968191 7.72363 1.05283C7.89302 1.13752 8 1.31071 8 1.50009V13.5001C8 13.6895 7.89302 13.8627 7.72363 13.9474C7.55436 14.032 7.35167 14.0139 7.2002 13.9005L3.33301 11.0001H1.5C0.671573 11.0001 0 10.3285 0 9.50009V5.50009C1.54621e-06 4.67167 0.671574 4.00009 1.5 4.00009H3.33301L7.2002 1.0997ZM3.7998 4.90048C3.71332 4.96525 3.60805 5.00009 3.5 5.00009H1.5C1.22386 5.00009 1 5.22395 1 5.50009V9.50009C1 9.77624 1.22386 10.0001 1.5 10.0001H3.5C3.60805 10.0001 3.71332 10.0349 3.7998 10.0997L7 12.4991V2.50009L3.7998 4.90048ZM9.52832 4.94345C9.68914 4.83671 9.89932 4.86242 10.0312 4.99326L10.084 5.05576L10.2559 5.33798C11.0616 6.77254 11.0039 8.56032 10.083 9.94443C9.9606 10.1282 9.71219 10.1771 9.52832 10.0548C9.34492 9.93236 9.29499 9.68479 9.41699 9.50107C10.1702 8.36867 10.2177 6.90348 9.55859 5.72959L9.41602 5.49912L9.37891 5.42685C9.30932 5.25455 9.36755 5.05042 9.52832 4.94345Z" fill="black"/>
</svg>
