<svg width="15" height="15" viewBox="0 0 15 15" fill="none" xmlns="http://www.w3.org/2000/svg">
<path d="M6.94336 1.10542C7.09409 0.988272 7.29823 0.966858 7.46973 1.05073C7.64126 1.13464 7.75 1.30899 7.75 1.49995V13.5C7.75 13.6909 7.64126 13.8653 7.46973 13.9492C7.29823 14.033 7.09409 14.0116 6.94336 13.8945L3.22168 11H1.5C0.671572 11 0 10.3284 0 9.49995V5.49995C1.54621e-06 4.67153 0.671574 3.99995 1.5 3.99995H3.22168L6.94336 1.10542ZM12.1152 1.38374C12.2838 1.24125 12.536 1.26219 12.6787 1.43062L12.9473 1.76265C15.6375 5.24588 15.548 10.1828 12.6787 13.5693C12.536 13.7376 12.2837 13.7586 12.1152 13.6162C11.9679 13.4913 11.9324 13.2822 12.0215 13.1191L12.0684 13.0527L12.3135 12.749C14.6948 9.66574 14.6955 5.33531 12.3145 2.25191L12.0684 1.94722L12.0225 1.88081C11.933 1.71762 11.9677 1.50873 12.1152 1.38374ZM3.7002 4.89448C3.61243 4.96275 3.50377 4.99995 3.39258 4.99995H1.5C1.22386 4.99995 1 5.22381 1 5.49995V9.49995C1 9.7761 1.22386 9.99995 1.5 9.99995H3.39258C3.50377 9.99995 3.61243 10.0372 3.7002 10.1054L6.75 12.4775V2.52144L3.7002 4.89448ZM10.2783 3.84761C10.4391 3.74076 10.6493 3.76569 10.7812 3.89644L10.833 3.95894L10.9629 4.16206C12.2548 6.27268 12.2112 8.96947 10.833 11.041C10.7106 11.2245 10.4621 11.2744 10.2783 11.1523C10.0945 11.03 10.0448 10.7815 10.167 10.5976C11.3724 8.78593 11.4094 6.42498 10.2793 4.57905L10.166 4.4023L10.1289 4.33101C10.059 4.15861 10.1174 3.95467 10.2783 3.84761Z" fill="black"/>
</svg>
