<svg width="15" height="15" viewBox="0 0 15 15" fill="none" xmlns="http://www.w3.org/2000/svg">
<path d="M7.2002 1.0997C7.35167 0.986282 7.55436 0.968191 7.72363 1.05283C7.89302 1.13752 8 1.31071 8 1.50009V13.5001C8 13.6895 7.89302 13.8627 7.72363 13.9474C7.55436 14.032 7.35167 14.0139 7.2002 13.9005L3.33301 11.0001H1.5C0.671573 11.0001 0 10.3285 0 9.50009V5.50009C1.54621e-06 4.67167 0.671574 4.00009 1.5 4.00009H3.33301L7.2002 1.0997ZM3.7998 4.90048C3.71332 4.96525 3.60805 5.00009 3.5 5.00009H1.5C1.22386 5.00009 1 5.22395 1 5.50009V9.50009C1 9.77624 1.22386 10.0001 1.5 10.0001H3.5C3.60805 10.0001 3.71332 10.0349 3.7998 10.0997L7 12.4991V2.50009L3.7998 4.90048ZM14.1465 5.14658C14.3417 4.95132 14.6583 4.95132 14.8535 5.14658C15.0488 5.34184 15.0488 5.65835 14.8535 5.85361L13.207 7.50009L14.8535 9.14658L14.918 9.2247C15.0461 9.41878 15.0244 9.68275 14.8535 9.85361C14.6827 10.0245 14.4187 10.0462 14.2246 9.91806L14.1465 9.85361L12.5 8.20712L10.8535 9.85361C10.6583 10.0489 10.3417 10.0489 10.1465 9.85361C9.95122 9.65835 9.95122 9.34184 10.1465 9.14658L11.793 7.50009L10.1465 5.85361C9.95122 5.65835 9.95122 5.34184 10.1465 5.14658C10.3417 4.95132 10.6583 4.95132 10.8535 5.14658L12.5 6.79306L14.1465 5.14658Z" fill="black"/>
</svg>
