<svg width="15" height="15" viewBox="0 0 15 15" fill="none" xmlns="http://www.w3.org/2000/svg">
  <path fill-rule="evenodd" clip-rule="evenodd"
    d="M1 2.39286C1 1.6236 1.6236 1 2.39286 1H12.6071C13.3764 1 14 1.6236 14 2.39286V12.6071C14 13.3764 13.3764 14 12.6071 14H2.39286C1.6236 14 1 13.3764 1 12.6071V2.39286ZM2.39286 1.92857C2.13644 1.92857 1.92857 2.13644 1.92857 2.39286V12.6071C1.92857 12.8636 2.13644 13.0714 2.39286 13.0714H12.6071C12.8636 13.0714 13.0714 12.8636 13.0714 12.6071V2.39286C13.0714 2.13644 12.8636 1.92857 12.6071 1.92857H2.39286Z"
    fill="currentColor" />
</svg>