<svg width="15" height="15" viewBox="0 0 15 15" fill="none" xmlns="http://www.w3.org/2000/svg">
<path d="M7.16294 1.38474C7.26545 1.13845 7.61513 1.13843 7.71762 1.38474L9.35337 5.31931C9.39652 5.42306 9.49433 5.49378 9.6063 5.5029L13.8543 5.84372C14.1202 5.86516 14.2279 6.1975 14.0252 6.37107L10.7889 9.14255C10.7036 9.21574 10.6661 9.33102 10.6922 9.4404L11.6815 13.5849C11.7434 13.8444 11.4609 14.0498 11.2332 13.9111L7.59653 11.6894C7.50059 11.6309 7.37998 11.6309 7.28403 11.6894L3.64731 13.9111C3.41963 14.0499 3.13718 13.8444 3.19907 13.5849L4.18833 9.4404C4.21441 9.33104 4.17698 9.21574 4.09165 9.14255L0.855319 6.37107C0.65268 6.19748 0.760282 5.86511 1.02622 5.84372L5.27426 5.5029C5.38621 5.49375 5.48405 5.42303 5.52719 5.31931L7.16294 1.38474Z" fill="black"/>
</svg>
