<svg width="15" height="15" viewBox="0 0 15 15" fill="none" xmlns="http://www.w3.org/2000/svg">
<path d="M7.16291 1.38458C7.26554 1.13856 7.6151 1.13842 7.71759 1.38458L9.35334 5.31915C9.3965 5.42286 9.49433 5.49362 9.60627 5.50275L13.8543 5.84357C14.1199 5.86519 14.2273 6.19635 14.0252 6.36993L10.7889 9.1424C10.7038 9.21543 10.6665 9.33016 10.6922 9.43927L11.6111 13.2908L11.6815 13.5848C11.7354 13.8117 11.5258 13.9973 11.3201 13.9471L11.2332 13.91L10.9754 13.7518L7.5965 11.6893C7.50061 11.6307 7.37995 11.6308 7.284 11.6893L3.64728 13.91C3.41962 14.049 3.13733 13.8442 3.19904 13.5848L3.26838 13.2908L4.1883 9.43927C4.20758 9.3574 4.19153 9.27201 4.14631 9.20392L4.09162 9.1424L0.85529 6.36993C0.652689 6.19636 0.760302 5.865 1.02619 5.84357L1.32697 5.81915L5.27424 5.50275C5.35806 5.49582 5.43436 5.45447 5.48517 5.39044L5.52717 5.31915L7.16291 1.38458ZM6.45002 5.70294C6.26284 6.15294 5.83913 6.46076 5.35334 6.49982L2.78302 6.7049L4.74201 8.38263C5.11209 8.69967 5.27385 9.19767 5.16095 9.67169L4.56232 12.1785L6.76252 10.8358L6.92365 10.7527C7.25306 10.6101 7.62747 10.61 7.95685 10.7527L8.11799 10.8358L10.3172 12.1785L9.71955 9.67169C9.60659 9.19761 9.76835 8.69969 10.1385 8.38263L12.0965 6.7049L9.52717 6.49982C9.04125 6.46086 8.6177 6.15303 8.43049 5.70294L7.44025 3.32208L6.45002 5.70294Z" fill="black"/>
</svg>
