<svg width="15" height="15" viewBox="0 0 15 15" fill="none" xmlns="http://www.w3.org/2000/svg">
<path fill-rule="evenodd" clip-rule="evenodd" d="M5.49998 0.5C5.49998 0.223858 5.72383 0 5.99998 0H8.99998C9.27612 0 9.49998 0.223858 9.49998 0.5C9.49998 0.776142 9.27612 1 8.99998 1H7.99998V2.11922C9.09832 2.20409 10.119 2.56622 10.992 3.13572C11.0116 3.10851 11.0336 3.08252 11.058 3.05806L11.858 2.25806C12.1021 2.01398 12.4978 2.01398 12.7419 2.25806C12.986 2.50214 12.986 2.89786 12.7419 3.14194L11.967 3.91682C13.1595 5.07925 13.9 6.70314 13.9 8.49998C13.9 12.0346 11.0346 14.9 7.49998 14.9C3.96535 14.9 1.09998 12.0346 1.09998 8.49998V7.99998H6.99998L6.99998 1H5.99998C5.72383 1 5.49998 0.776142 5.49998 0.5ZM7.99998 3.12282V8.99998H2.12282C2.37511 11.7479 4.68622 13.9 7.49998 13.9C10.4823 13.9 12.9 11.4823 12.9 8.49998C12.9 5.68622 10.7479 3.37511 7.99998 3.12282Z" fill="black"/>
</svg>
