<svg width="15" height="15" viewBox="0 0 15 15" fill="none" xmlns="http://www.w3.org/2000/svg">
<path d="M0.999878 9L0.999877 13.5C0.999877 13.7761 0.77602 14 0.499877 14C0.223735 14 -0.000122617 13.7761 -0.000122617 13.5L-0.000122092 1.5C-0.000120353 1.22386 0.223737 0.999999 0.499878 0.999999C0.776019 0.999999 0.999876 1.22386 0.999878 1.5L0.999878 6L13.9999 6L13.9999 1.5C13.9999 1.22386 14.2237 1 14.4999 1C14.776 1 14.9999 1.22386 14.9999 1.5L14.9999 13.5C14.9999 13.7761 14.776 14 14.4999 14C14.2237 14 13.9999 13.7761 13.9999 13.5L13.9999 9L0.999878 9Z" fill="black"/>
</svg>
