<svg width="15" height="15" viewBox="0 0 15 15" fill="none" xmlns="http://www.w3.org/2000/svg">
<path d="M13.4999 14C13.776 14 13.9999 14.2239 13.9999 14.5C13.9999 14.7762 13.776 15 13.4999 15H1.49988C1.22374 15 0.999878 14.7762 0.999878 14.5C0.999878 14.2239 1.22374 14 1.49988 14H5.99988V1.00002H1.49988C1.22374 1.00002 0.999878 0.776157 0.999878 0.500015C0.999878 0.223873 1.22374 1.52588e-05 1.49988 1.52588e-05H13.4999C13.776 1.52588e-05 13.9999 0.223873 13.9999 0.500015C13.9999 0.776158 13.776 1.00002 13.4999 1.00002H8.99988V14H13.4999Z" fill="black"/>
</svg>
