<svg width="15" height="15" viewBox="0 0 15 15" fill="none" xmlns="http://www.w3.org/2000/svg">
<path d="M1.1765 1.11874C1.06852 1.21046 1 1.34723 1 1.5C1 1.57196 1.0152 1.64037 1.04257 1.70219C1.06941 1.76302 1.10891 1.81946 1.16088 1.86744L7.26282 7.50002L1.16087 13.1326C1.1089 13.1806 1.06941 13.237 1.04256 13.2978C1.0152 13.3596 1 13.428 1 13.5C1 13.5772 1.01751 13.6504 1.04879 13.7157C1.07561 13.7717 1.11256 13.8219 1.15726 13.864C1.19454 13.8992 1.23603 13.9276 1.28011 13.9492C1.34647 13.9817 1.4211 14 1.5 14H13.5C13.7761 14 14 13.7761 14 13.5C14 13.2239 13.7761 13 13.5 13H2.77882L8.33433 7.87185C8.34216 7.86479 8.34981 7.85745 8.35727 7.84981C8.40037 7.80587 8.43379 7.75575 8.45743 7.70223C8.47928 7.65281 8.49268 7.60066 8.49772 7.54794C8.51084 7.41122 8.46791 7.26971 8.36742 7.16085C8.35624 7.14874 8.34461 7.13731 8.33257 7.12656L2.7788 2H13.5C13.7761 2 14 1.77614 14 1.5C14 1.22386 13.7761 1 13.5 1H1.5C1.4132 1 1.33156 1.02212 1.26042 1.06103C1.23096 1.07711 1.20282 1.09636 1.1765 1.11874Z" fill="black"/>
</svg>
