<svg width="17" height="15" viewBox="0 0 17 15" fill="none" xmlns="http://www.w3.org/2000/svg">
  <path fill-rule="evenodd" clip-rule="evenodd"
    d="M0.5 15C0.223858 15 0 14.7761 0 14.5V8.5V0.5C0 0.223858 0.223857 0 0.499999 0H6.5C6.77614 0 7 0.223858 7 0.5V4.62134L10.9749 0.646458C11.1701 0.451196 11.4867 0.451196 11.682 0.646458L15.9246 4.8891C16.1199 5.08436 16.1199 5.40094 15.9246 5.59621L13.5208 8H14.5C14.7761 8 15 8.22386 15 8.5V14.5C15 14.7761 14.7761 15 14.5 15H6.5H0.5ZM12.5208 9L7.52083 14H14V9H12.5208ZM7 13.1066L14.864 5.24265L11.3284 1.70712L7 6.03555L7 13.1066ZM1 8.5L1 8.49952L0.999999 1L6 1L6 4.5H1V5.5H6V9.5H1L1 8.5ZM1 10.5L1 14H6V10.5H1Z"
    fill="currentColor" />
</svg>