<svg width="17" height="15" viewBox="0 0 17 15" fill="none" xmlns="http://www.w3.org/2000/svg">
<path d="M6.5 0C6.77614 3.30029e-07 7 0.223858 7 0.5V4.62109L10.9746 0.646484C11.1698 0.451276 11.4864 0.451382 11.6816 0.646484L15.9248 4.88867C16.1201 5.08393 16.1201 5.40142 15.9248 5.59668L13.5215 8H14.5C14.7761 8 15 8.22386 15 8.5V14.5C15 14.7761 14.7761 15 14.5 15H0.5C0.258287 15 0.056292 14.8286 0.00976563 14.6006C0.00313852 14.5681 2.61057e-08 14.5344 0 14.5V0.5C-1.16385e-08 0.223858 0.223858 1.16385e-08 0.5 0H6.5ZM1 10.5V14H6V10.5H1ZM7.52051 14H14V9H12.5215L7.52051 14ZM7 6.03516V13.1064L14.8643 5.24219L11.3281 1.70703L7 6.03516ZM1 9.5H6V5.5H1V9.5ZM1 4.5H6V1H1V4.5Z" fill="black"/>
</svg>
