<svg width="15" height="15" viewBox="0 0 15 15" fill="none" xmlns="http://www.w3.org/2000/svg">
<path d="M6.45618 0.23645C6.58865 0.236549 6.71601 0.289254 6.80969 0.382935L14.588 8.16125C14.7829 8.35648 14.783 8.67312 14.588 8.86829L8.93079 14.5255C8.73562 14.7205 8.41898 14.7204 8.22375 14.5255L0.445435 6.74719C0.351754 6.65351 0.299049 6.52615 0.29895 6.39368V1.23645C0.29895 0.684166 0.746666 0.23645 1.29895 0.23645H6.45618ZM4.12512 3.00012C3.57284 3.00012 3.12512 3.44784 3.12512 4.00012C3.12519 4.55235 3.57288 5.00012 4.12512 5.00012C4.67731 5.00006 5.12506 4.55231 5.12512 4.00012C5.12512 3.44788 4.67735 3.00019 4.12512 3.00012Z" fill="black"/>
</svg>
