<svg width="16" height="15" viewBox="0 0 16 15" fill="none" xmlns="http://www.w3.org/2000/svg">
<path fill-rule="evenodd" clip-rule="evenodd" d="M7.49981 4.93594C6.42815 4.93594 5.55939 5.80469 5.55939 6.87635C5.55939 7.7962 6.19943 8.56655 7.05846 8.76636C5.73326 8.9122 4.60389 9.70676 3.99408 10.8237C3.86837 11.054 3.95313 11.3426 4.18338 11.4683C4.41364 11.594 4.7022 11.5092 4.82791 11.279C5.34461 10.3325 6.34787 9.69221 7.50001 9.69221C8.65213 9.69221 9.6554 10.3325 10.1721 11.279C10.2978 11.5092 10.5864 11.594 10.8166 11.4683C11.0469 11.3426 11.1316 11.054 11.0059 10.8237C10.3961 9.70668 9.2666 8.9121 7.94128 8.76633C8.80024 8.56648 9.44023 7.79615 9.44023 6.87635C9.44023 5.80469 8.57147 4.93594 7.49981 4.93594ZM6.50939 6.87635C6.50939 6.32936 6.95282 5.88594 7.49981 5.88594C8.0468 5.88594 8.49023 6.32936 8.49023 6.87635C8.49023 7.42335 8.0468 7.86677 7.49981 7.86677C6.95282 7.86677 6.50939 7.42335 6.50939 6.87635Z" fill="black"/>
<path fill-rule="evenodd" clip-rule="evenodd" d="M11.5639 3.00002C10.4922 3.00002 9.6235 3.86878 9.6235 4.94044C9.6235 5.86032 10.2636 6.6307 11.1227 6.83047C10.6484 6.88271 10.1985 7.01815 9.78847 7.22207C9.55359 7.33889 9.45788 7.62401 9.5747 7.8589C9.69152 8.09378 9.97664 8.1895 10.2115 8.07267C10.6184 7.87031 11.0773 7.75629 11.5641 7.75629C12.7162 7.75629 13.7195 8.39662 14.2362 9.34305C14.3619 9.57331 14.6505 9.65806 14.8807 9.53236C15.111 9.40665 15.1957 9.11809 15.07 8.88783C14.4602 7.77077 13.3307 6.97618 12.0054 6.83041C12.8644 6.63056 13.5043 5.86024 13.5043 4.94044C13.5043 3.86878 12.6356 3.00002 11.5639 3.00002ZM10.5735 4.94044C10.5735 4.39345 11.0169 3.95002 11.5639 3.95002C12.1109 3.95002 12.5543 4.39345 12.5543 4.94044C12.5543 5.48743 12.1109 5.93086 11.5639 5.93086C11.0169 5.93086 10.5735 5.48743 10.5735 4.94044Z" fill="black"/>
<path fill-rule="evenodd" clip-rule="evenodd" d="M3.56429 3.95C3.0173 3.95 2.57388 4.39342 2.57388 4.94042C2.57388 5.48741 3.0173 5.93083 3.56429 5.93083C4.11128 5.93083 4.55471 5.48741 4.55471 4.94042C4.55471 4.39342 4.11128 3.95 3.56429 3.95ZM1.62388 4.94042C1.62388 3.86875 2.49263 3 3.56429 3C4.63596 3 5.50471 3.86875 5.50471 4.94042C5.50471 5.86029 4.86462 6.63067 4.00554 6.83044C4.47984 6.88269 4.92972 7.01813 5.33973 7.22204C5.57462 7.33887 5.67033 7.62398 5.55351 7.85887C5.43669 8.09376 5.15157 8.18947 4.91668 8.07265C4.50981 7.87029 4.05095 7.75627 3.5641 7.75627C2.41197 7.75627 1.40871 8.39659 0.892004 9.34303C0.766298 9.57328 0.477734 9.65804 0.247478 9.53233C0.0172223 9.40663 -0.0675315 9.11806 0.0581749 8.88781C0.668024 7.77075 1.7975 6.97616 3.12282 6.83039C2.26385 6.63054 1.62388 5.86021 1.62388 4.94042Z" fill="black"/>
</svg>
