<svg width="15" height="15" viewBox="0 0 15 15" fill="none" xmlns="http://www.w3.org/2000/svg">
  <path fill-rule="evenodd" clip-rule="evenodd"
    d="M3.89949 5.49999C3.89949 5.27908 3.7204 5.09999 3.49949 5.09999C3.27857 5.09999 3.09949 5.27908 3.09949 5.49999L3.09949 12.5343L1.78233 11.2172C1.62612 11.0609 1.37285 11.0609 1.21664 11.2172C1.06043 11.3734 1.06043 11.6266 1.21664 11.7828L3.21664 13.7828C3.29166 13.8579 3.3934 13.9 3.49949 13.9C3.60557 13.9 3.70732 13.8579 3.78233 13.7828L5.78233 11.7828C5.93854 11.6266 5.93854 11.3734 5.78233 11.2172C5.62612 11.0609 5.37285 11.0609 5.21664 11.2172L3.89949 12.5343L3.89949 5.49999ZM8.49998 13C8.22383 13 7.99998 12.7761 7.99998 12.5C7.99998 12.2239 8.22383 12 8.49998 12H14.5C14.7761 12 15 12.2239 15 12.5C15 12.7761 14.7761 13 14.5 13H8.49998ZM8.49998 9.99999C8.22383 9.99999 7.99998 9.77614 7.99998 9.49999C7.99998 9.22385 8.22383 8.99999 8.49998 8.99999H14.5C14.7761 8.99999 15 9.22385 15 9.49999C15 9.77614 14.7761 9.99999 14.5 9.99999H8.49998ZM7.99998 6.49999C7.99998 6.77614 8.22383 6.99999 8.49998 6.99999H14.5C14.7761 6.99999 15 6.77614 15 6.49999C15 6.22385 14.7761 5.99999 14.5 5.99999H8.49998C8.22383 5.99999 7.99998 6.22385 7.99998 6.49999Z"
    fill="currentColor" />
</svg>