<svg width="15" height="15" viewBox="0 0 15 15" fill="none" xmlns="http://www.w3.org/2000/svg">
  <path fill-rule="evenodd" clip-rule="evenodd"
    d="M3.49949 14.9C3.7204 14.9 3.89949 14.7209 3.89949 14.5L3.89949 10.4657L5.21664 11.7828C5.37285 11.939 5.62612 11.939 5.78233 11.7828C5.93854 11.6266 5.93854 11.3734 5.78233 11.2172L3.78233 9.21715C3.70732 9.14214 3.60557 9.09999 3.49949 9.09999C3.3934 9.09999 3.29166 9.14214 3.21664 9.21715L1.21664 11.2172C1.06043 11.3734 1.06043 11.6266 1.21664 11.7828C1.37285 11.939 1.62612 11.939 1.78233 11.7828L3.09949 10.4657L3.09949 14.5C3.09949 14.7209 3.27857 14.9 3.49949 14.9ZM7.99998 10.5C7.99998 10.7761 8.22383 11 8.49998 11H14.5C14.7761 11 15 10.7761 15 10.5C15 10.2239 14.7761 9.99999 14.5 9.99999H8.49998C8.22383 9.99999 7.99998 10.2239 7.99998 10.5ZM7.99998 7.49999C7.99998 7.77614 8.22383 7.99999 8.49998 7.99999H14.5C14.7761 7.99999 15 7.77614 15 7.49999C15 7.22385 14.7761 6.99999 14.5 6.99999H8.49998C8.22383 6.99999 7.99998 7.22385 7.99998 7.49999ZM8.49998 4.99999C8.22383 4.99999 7.99998 4.77614 7.99998 4.49999C7.99998 4.22385 8.22383 3.99999 8.49998 3.99999H14.5C14.7761 3.99999 15 4.22385 15 4.49999C15 4.77614 14.7761 4.99999 14.5 4.99999H8.49998ZM3.89949 0.499994C3.89949 0.27908 3.7204 0.0999947 3.49949 0.0999947C3.27857 0.0999947 3.09949 0.27908 3.09949 0.499994L3.09949 4.53431L1.78233 3.21715C1.62612 3.06094 1.37285 3.06094 1.21664 3.21715C1.06043 3.37336 1.06043 3.62663 1.21664 3.78284L3.21664 5.78284C3.29166 5.85785 3.3934 5.89999 3.49949 5.89999C3.60557 5.89999 3.70732 5.85785 3.78233 5.78284L5.78233 3.78284C5.93854 3.62663 5.93854 3.37336 5.78233 3.21715C5.62612 3.06094 5.37285 3.06094 5.21664 3.21715L3.89949 4.53431L3.89949 0.499994Z"
    fill="currentColor" />
</svg>