<svg width="15" height="15" viewBox="0 0 15 15" fill="none" xmlns="http://www.w3.org/2000/svg">
<path d="M3.49934 13.9C3.60543 13.9 3.70753 13.8578 3.78255 13.7828L5.78255 11.7828C5.93863 11.6266 5.93872 11.3726 5.78255 11.2164C5.62635 11.0605 5.37227 11.0604 5.21614 11.2164L3.89973 12.5328V5.4996C3.89952 5.27887 3.72013 5.09921 3.49934 5.09921C3.27863 5.09929 3.09916 5.27892 3.09895 5.4996V12.5328L1.78255 11.2164L1.71907 11.1656C1.5639 11.0635 1.35268 11.08 1.21614 11.2164C1.07962 11.3529 1.06324 11.5641 1.16536 11.7193L1.21614 11.7828L3.21614 13.7828C3.29112 13.8578 3.39331 13.9 3.49934 13.9ZM14.5003 6.9996C14.7763 6.99942 15.0003 6.77563 15.0003 6.4996C15.0001 6.22375 14.7762 5.99979 14.5003 5.9996H8.50032C8.22431 5.9996 8.00053 6.22364 8.00032 6.4996C8.00032 6.77575 8.22418 6.9996 8.50032 6.9996H14.5003ZM14.5003 9.9996C14.7763 9.99942 15.0003 9.77563 15.0003 9.4996C15.0001 9.22375 14.7762 8.99979 14.5003 8.9996H8.50032C8.22431 8.9996 8.00053 9.22364 8.00032 9.4996C8.00032 9.77575 8.22418 9.9996 8.50032 9.9996H14.5003ZM14.5003 12.9996C14.7763 12.9994 15.0003 12.7756 15.0003 12.4996C15.0001 12.2238 14.7762 11.9998 14.5003 11.9996H8.50032C8.22431 11.9996 8.00053 12.2236 8.00032 12.4996C8.00032 12.7757 8.22418 12.9996 8.50032 12.9996H14.5003Z" fill="black"/>
</svg>
