<svg width="15" height="15" viewBox="0 0 15 15" fill="none" xmlns="http://www.w3.org/2000/svg">
<path d="M3.4993 5.89999C3.60539 5.89999 3.70749 5.85782 3.78251 5.78281L5.78251 3.78281C5.93861 3.62659 5.93868 3.37258 5.78251 3.2164C5.62631 3.06051 5.37222 3.06039 5.2161 3.2164L3.89969 4.53281V0.499603C3.89948 0.278869 3.72009 0.0992127 3.4993 0.0992126C3.27861 0.0993137 3.09912 0.278931 3.09891 0.499603V4.53281L1.78251 3.2164L1.71903 3.16562C1.56386 3.06351 1.35264 3.07996 1.2161 3.2164C1.07958 3.35292 1.06322 3.56412 1.16532 3.71933L1.2161 3.78281L3.2161 5.78281C3.29107 5.85778 3.39328 5.89994 3.4993 5.89999ZM14.5003 4.9996C14.7763 4.99944 15.0003 4.77565 15.0003 4.4996C15.0001 4.22374 14.7762 3.99977 14.5003 3.9996H8.50028C8.22427 3.9996 8.00049 4.22364 8.00028 4.4996C8.00028 4.77575 8.22414 4.9996 8.50028 4.9996H14.5003ZM14.5003 7.9996C14.7763 7.99944 15.0003 7.77565 15.0003 7.4996C15.0001 7.22374 14.7762 6.99977 14.5003 6.9996H8.50028C8.22427 6.9996 8.00049 7.22364 8.00028 7.4996C8.00028 7.77575 8.22414 7.9996 8.50028 7.9996H14.5003ZM3.4993 14.9C3.72022 14.9 3.89969 14.7205 3.89969 14.4996V10.4664L5.2161 11.7828C5.37231 11.939 5.6263 11.939 5.78251 11.7828C5.93861 11.6266 5.93868 11.3726 5.78251 11.2164L3.78251 9.2164C3.70752 9.14157 3.60525 9.09921 3.4993 9.09921C3.39333 9.09926 3.29106 9.14149 3.2161 9.2164L1.2161 11.2164L1.16532 11.2799C1.06303 11.435 1.07974 11.6462 1.2161 11.7828C1.35272 11.9194 1.56379 11.936 1.71903 11.8336L1.78251 11.7828L3.09891 10.4664V14.4996C3.09891 14.7205 3.27848 14.8999 3.4993 14.9ZM14.5003 10.9996C14.7763 10.9994 15.0003 10.7756 15.0003 10.4996C15.0001 10.2237 14.7762 9.99977 14.5003 9.9996H8.50028C8.22427 9.9996 8.00049 10.2236 8.00028 10.4996C8.00028 10.7757 8.22414 10.9996 8.50028 10.9996H14.5003Z" fill="black"/>
</svg>
