<svg width="15" height="15" viewBox="0 0 15 15" fill="none" xmlns="http://www.w3.org/2000/svg">
<path d="M3.49934 1.10001C3.60543 1.10001 3.70753 1.14218 3.78255 1.21719L5.78255 3.21719C5.93863 3.37341 5.93872 3.62743 5.78255 3.7836C5.62635 3.9395 5.37227 3.9396 5.21614 3.7836L3.89973 2.46719V9.5004C3.89952 9.72113 3.72013 9.90079 3.49934 9.90079C3.27863 9.90071 3.09916 9.72108 3.09895 9.5004V2.46719L1.78255 3.7836L1.71907 3.83438C1.5639 3.93651 1.35268 3.92003 1.21614 3.7836C1.07962 3.64708 1.06324 3.43588 1.16536 3.28067L1.21614 3.21719L3.21614 1.21719C3.29112 1.14221 3.39331 1.10005 3.49934 1.10001ZM14.5003 8.0004C14.7763 8.00058 15.0003 8.22437 15.0003 8.5004C15.0001 8.77625 14.7762 9.00021 14.5003 9.0004H8.50032C8.22431 9.0004 8.00053 8.77636 8.00032 8.5004C8.00032 8.22425 8.22418 8.0004 8.50032 8.0004H14.5003ZM14.5003 5.0004C14.7763 5.00058 15.0003 5.22437 15.0003 5.5004C15.0001 5.77625 14.7762 6.00021 14.5003 6.0004H8.50032C8.22431 6.0004 8.00053 5.77636 8.00032 5.5004C8.00032 5.22425 8.22418 5.0004 8.50032 5.0004H14.5003ZM14.5003 2.0004C14.7763 2.00058 15.0003 2.22437 15.0003 2.5004C15.0001 2.77625 14.7762 3.00021 14.5003 3.0004H8.50032C8.22431 3.0004 8.00053 2.77636 8.00032 2.5004C8.00032 2.22425 8.22418 2.0004 8.50032 2.0004H14.5003Z" fill="black"/>
</svg>
