<svg width="15" height="15" viewBox="0 0 15 15" fill="none" xmlns="http://www.w3.org/2000/svg">
  <path fill-rule="evenodd" clip-rule="evenodd"
    d="M3.89949 9.50001C3.89949 9.72092 3.7204 9.90001 3.49949 9.90001C3.27857 9.90001 3.09949 9.72092 3.09949 9.50001L3.09949 2.46569L1.78233 3.78285C1.62612 3.93906 1.37285 3.93906 1.21664 3.78285C1.06043 3.62664 1.06043 3.37337 1.21664 3.21716L3.21664 1.21716C3.29166 1.14215 3.3934 1.10001 3.49949 1.10001C3.60557 1.10001 3.70732 1.14215 3.78233 1.21716L5.78233 3.21716C5.93854 3.37337 5.93854 3.62664 5.78233 3.78285C5.62612 3.93906 5.37285 3.93906 5.21664 3.78285L3.89949 2.46569L3.89949 9.50001ZM8.49998 2.00001C8.22383 2.00001 7.99998 2.22386 7.99998 2.50001C7.99998 2.77615 8.22383 3.00001 8.49998 3.00001H14.5C14.7761 3.00001 15 2.77615 15 2.50001C15 2.22386 14.7761 2.00001 14.5 2.00001H8.49998ZM8.49998 5.00001C8.22383 5.00001 7.99998 5.22386 7.99998 5.50001C7.99998 5.77615 8.22383 6.00001 8.49998 6.00001H14.5C14.7761 6.00001 15 5.77615 15 5.50001C15 5.22386 14.7761 5.00001 14.5 5.00001H8.49998ZM7.99998 8.50001C7.99998 8.22386 8.22383 8.00001 8.49998 8.00001H14.5C14.7761 8.00001 15 8.22386 15 8.50001C15 8.77615 14.7761 9.00001 14.5 9.00001H8.49998C8.22383 9.00001 7.99998 8.77615 7.99998 8.50001Z"
    fill="currentColor" />
</svg>