<svg width="15" height="15" viewBox="0 0 15 15" fill="none" xmlns="http://www.w3.org/2000/svg">
<path d="M3.2504 0.850006C3.74727 0.850217 4.15079 1.25347 4.15079 1.7504V2.0502H10.85V1.7504C10.85 1.25334 11.2533 0.850006 11.7504 0.850006H13.2504C13.7473 0.850218 14.1508 1.25347 14.1508 1.7504V3.2504C14.1506 3.74714 13.7471 4.15058 13.2504 4.15079H12.9506V10.85H13.2504C13.7473 10.8502 14.1508 11.2535 14.1508 11.7504V13.2504C14.1506 13.7471 13.7471 14.1506 13.2504 14.1508H11.7504C11.2535 14.1508 10.8502 13.7473 10.85 13.2504V12.9506H4.15079V13.2504C4.15058 13.7471 3.74714 14.1506 3.2504 14.1508H1.7504C1.25347 14.1508 0.850218 13.7473 0.850006 13.2504V11.7504C0.850006 11.2533 1.25334 10.85 1.7504 10.85H2.0502V4.15079H1.7504C1.25347 4.15079 0.850217 3.74727 0.850006 3.2504V1.7504C0.850006 1.25334 1.25334 0.850006 1.7504 0.850006H3.2504ZM1.7504 13.2504H3.2504V11.7504H1.7504V13.2504ZM11.7504 13.2504H13.2504V11.7504H11.7504V13.2504ZM4.15079 2.95059V3.2504C4.15058 3.74714 3.74714 4.15058 3.2504 4.15079H2.95059V10.85H3.2504C3.74727 10.8502 4.15079 11.2535 4.15079 11.7504V12.0502H10.85V11.7504C10.85 11.2533 11.2533 10.85 11.7504 10.85H12.0502V4.15079H11.7504C11.2535 4.15079 10.8502 3.74727 10.85 3.2504V2.95059H4.15079ZM7.0004 5.10001C7.49727 5.10022 7.90079 5.50347 7.90079 6.0004V7.0004C7.90077 7.03612 7.89704 7.07122 7.89297 7.10587C7.92807 7.1017 7.96418 7.10001 8.0004 7.10001H9.0004C9.49727 7.10022 9.90079 7.50347 9.90079 8.0004V9.0004C9.90058 9.49714 9.49714 9.90058 9.0004 9.90079H8.0004C7.50347 9.90079 7.10022 9.49727 7.10001 9.0004V8.0004C7.10001 7.96418 7.1017 7.92807 7.10587 7.89297C7.07122 7.89704 7.03612 7.90077 7.0004 7.90079H6.0004C5.50347 7.90079 5.10022 7.49727 5.10001 7.0004V6.0004C5.10001 5.50334 5.50334 5.10001 6.0004 5.10001H7.0004ZM8.0004 9.0004H9.0004V8.0004H8.0004V9.0004ZM6.0004 7.0004H7.0004V6.0004H6.0004V7.0004ZM1.7504 3.2504H3.2504V1.7504H1.7504V3.2504ZM11.7504 3.2504H13.2504V1.7504H11.7504V3.2504Z" fill="black"/>
</svg>
