<svg width="15" height="15" viewBox="0 0 15 15" fill="none" xmlns="http://www.w3.org/2000/svg">
<path d="M10.3601 1.56857C11.3724 1.56868 12.179 2.04883 12.7214 2.74338C13.3053 2.62435 13.8547 2.41008 14.3513 2.11545C14.1556 2.72714 13.7401 3.23976 13.1999 3.56467C13.2003 3.56561 13.2005 3.56665 13.2009 3.5676C13.7309 3.50361 14.2353 3.36351 14.7048 3.15549L14.7038 3.15744C14.3664 3.66272 13.9405 4.10673 13.4528 4.46994C13.4791 4.64675 13.4958 4.82424 13.4958 5.00119C13.4956 8.68736 10.687 12.9747 5.5212 12.9748C3.93919 12.9748 2.46562 12.5108 1.22531 11.7151C0.99301 11.566 0.925041 11.257 1.07394 11.0246C1.08629 11.0054 1.10054 10.9879 1.11495 10.9709C1.18813 10.847 1.31788 10.7625 1.46456 10.7502L1.55538 10.7522L1.79562 10.7756C2.62949 10.8387 3.45457 10.7158 4.19015 10.3947C3.3913 10.0417 2.77072 9.35894 2.50167 8.51974C2.45333 8.36869 2.48842 8.20302 2.59347 8.0842C2.59723 8.07996 2.6013 8.07558 2.60519 8.0715C1.9644 7.50759 1.55929 6.68166 1.55929 5.76096V5.72775C1.55938 5.56846 1.64371 5.41992 1.78097 5.33908C1.82663 5.31225 1.87694 5.29675 1.92745 5.28732C1.70688 4.86273 1.58078 4.38054 1.58078 3.86935C1.58078 3.4015 1.58346 2.81147 1.91281 2.28049C1.98587 2.16285 2.10481 2.09173 2.23214 2.07346C2.39153 2.022 2.56944 2.05335 2.70187 2.16135L2.77413 2.23264L3.00753 2.5051C4.0845 3.69614 5.56524 4.50969 7.2341 4.73654C7.23393 4.72321 7.23312 4.70987 7.23312 4.6965C7.23312 2.96907 8.6335 1.56861 10.3601 1.56857ZM10.3601 2.56857C9.18606 2.56861 8.23312 3.52108 8.23312 4.6965C8.23313 4.86293 8.25188 5.02527 8.28781 5.18283C8.32262 5.33548 8.28399 5.49554 8.18331 5.61545C8.08273 5.73513 7.93223 5.80092 7.77609 5.79318C5.70884 5.68908 3.85154 4.79824 2.49386 3.41623C2.48372 3.55192 2.48117 3.70159 2.48117 3.86935C2.48117 4.62437 2.86556 5.29116 3.44992 5.68185C3.61669 5.79348 3.68889 6.00247 3.62765 6.19357C3.56617 6.38484 3.38508 6.51262 3.18429 6.50607C2.97107 6.49907 2.76355 6.46843 2.5632 6.42014C2.80014 7.16641 3.42689 7.73936 4.20578 7.89572C4.41028 7.93692 4.56011 8.11398 4.5671 8.32248C4.57384 8.53102 4.43551 8.71718 4.2341 8.7717C4.05397 8.82038 3.86775 8.85105 3.67745 8.86642C4.06655 9.39585 4.6889 9.74361 5.3923 9.75607C5.58265 9.75946 5.75064 9.88224 5.81124 10.0627C5.87176 10.2432 5.81163 10.4423 5.66183 10.5598C4.95275 11.1155 4.12972 11.453 3.27218 11.6018C3.97772 11.8431 4.73384 11.9748 5.5212 11.9748C10.0199 11.9747 12.4956 8.25734 12.4958 5.00119C12.4958 3.7126 11.5942 2.56878 10.3601 2.56857Z" fill="black"/>
</svg>
