<svg width="15" height="15" viewBox="0 0 15 15" fill="none" xmlns="http://www.w3.org/2000/svg">
<path d="M9.28613 1C9.83822 1.00023 10.2861 1.44786 10.2861 2V4.71387H13C13.5521 4.71387 13.9998 5.16177 14 5.71387V13C14 13.5523 13.5523 14 13 14H5.71387C5.16177 13.9998 4.71387 13.5521 4.71387 13V10.2861H2C1.44786 10.2861 1.00023 9.83822 1 9.28613V2C1 1.44772 1.44772 1 2 1H9.28613ZM10.2861 9.28613C10.286 9.55838 10.1766 9.80509 10 9.98535V10H9.98535C9.80509 10.1766 9.55838 10.286 9.28613 10.2861H5.71387V13H13V5.71387H10.2861V9.28613ZM2 9.28613H4.71387V5.71387C4.71398 5.44136 4.82312 5.19398 5 5.01367V5H5.01465C5.19491 4.82341 5.44161 4.71398 5.71387 4.71387H9.28613V2H2V9.28613Z" fill="black"/>
</svg>
