<svg width="15" height="15" viewBox="0 0 15 15" fill="none" xmlns="http://www.w3.org/2000/svg">
<path fill-rule="evenodd" clip-rule="evenodd" d="M12.3059 2.93977C14.8922 5.52615 14.8922 9.7195 12.3059 12.3059C11.6026 13.0091 10.7806 13.5212 9.90429 13.842C9.19151 14.1101 8.41926 14.2567 7.61276 14.2567H7.12311L7.12311 14.2269C5.59838 14.1122 4.10577 13.4719 2.93977 12.3059C0.353411 9.71952 0.353411 5.52613 2.93977 2.93977C5.52614 0.3534 9.71951 0.353418 12.3059 2.93977ZM7.12294 13.2737C5.84195 13.1611 4.59194 12.6145 3.61152 11.6341C1.39616 9.41876 1.39616 5.82688 3.61152 3.61153C5.82689 1.39615 9.41876 1.39617 11.6341 3.61152C12.64 4.6174 13.1892 5.90704 13.2816 7.22277L7.22259 7.22276L7.22259 7.25674H7.12289L7.12294 13.2737Z" fill="black"/>
</svg>
