<svg width="15" height="15" viewBox="0 0 15 15" fill="none" xmlns="http://www.w3.org/2000/svg">
<path d="M1.00037 1.50031C1.00037 1.22416 1.22422 1.00031 1.50037 1.00031H5.10052C5.37667 1.00031 5.60052 1.22416 5.60052 1.50031C5.60052 1.77645 5.37667 2.00031 5.10052 2.00031H2.00037V5.10046C2.00037 5.37661 1.77651 5.60046 1.50037 5.60046C1.22422 5.60046 1.00037 5.37661 1.00037 5.10046V1.50031Z" fill="black"/>
<path d="M9.40073 1.50031C9.40073 1.22416 9.62459 1.00031 9.90073 1.00031H13.5009C13.777 1.00031 14.0009 1.22416 14.0009 1.50031V5.10046C14.0009 5.37661 13.777 5.60046 13.5009 5.60046C13.2247 5.60046 13.0009 5.37661 13.0009 5.10046V2.00031H9.90073C9.62459 2.00031 9.40073 1.77645 9.40073 1.50031Z" fill="black"/>
<path d="M1.50037 9.40067C1.77651 9.40067 2.00037 9.62453 2.00037 9.90067V13.0008H5.10052C5.37667 13.0008 5.60052 13.2247 5.60052 13.5008C5.60052 13.777 5.37667 14.0008 5.10052 14.0008H1.50037C1.22422 14.0008 1.00037 13.777 1.00037 13.5008V9.90067C1.00037 9.62453 1.22422 9.40067 1.50037 9.40067Z" fill="black"/>
<path d="M13.5009 9.40067C13.777 9.40067 14.0009 9.62453 14.0009 9.90067V13.5008C14.0009 13.777 13.777 14.0008 13.5009 14.0008H9.90073C9.62459 14.0008 9.40073 13.777 9.40073 13.5008C9.40073 13.2247 9.62459 13.0008 9.90073 13.0008H13.0009V9.90067C13.0009 9.62453 13.2247 9.40067 13.5009 9.40067Z" fill="black"/>
<path fill-rule="evenodd" clip-rule="evenodd" d="M5.15001 6.50489C5.15001 5.20702 6.20214 4.15489 7.50001 4.15489C8.79788 4.15489 9.85001 5.20702 9.85001 6.50489C9.85001 7.80276 8.79788 8.85489 7.50001 8.85489C6.20214 8.85489 5.15001 7.80276 5.15001 6.50489ZM7.50001 5.10489C6.72681 5.10489 6.10001 5.73169 6.10001 6.50489C6.10001 7.27809 6.72681 7.90489 7.50001 7.90489C8.27321 7.90489 8.90001 7.27809 8.90001 6.50489C8.90001 5.73169 8.27321 5.10489 7.50001 5.10489Z" fill="black"/>
<path fill-rule="evenodd" clip-rule="evenodd" d="M7.50025 9.97501C5.97561 9.97501 4.64823 10.8225 3.96478 12.0744C3.83907 12.3047 3.55051 12.3894 3.32025 12.2637C3.09 12.138 3.00524 11.8495 3.13095 11.6192C3.97422 10.0746 5.61432 9.02501 7.50025 9.02501C9.38618 9.02501 11.0263 10.0746 11.8696 11.6192C11.9953 11.8494 11.9105 12.138 11.6802 12.2637C11.45 12.3894 11.1614 12.3047 11.0357 12.0744C10.3523 10.8225 9.02489 9.97501 7.50025 9.97501Z" fill="black"/>
</svg>
