<svg width="15" height="15" viewBox="0 0 15 15" fill="none" xmlns="http://www.w3.org/2000/svg">
<path d="M13.5 1C13.7306 1 13.9484 1.05351 14.1436 1.14648L14.1748 1.12012L14.2393 1.19531C14.6933 1.45316 15 1.94051 15 2.5V12.5C15 13.3284 14.3284 14 13.5 14H1.5C1.26893 14 1.05096 13.9459 0.855469 13.8525L0.825195 13.8799L0.759766 13.8037C0.306322 13.5457 0 13.059 0 12.5V2.5C1.93277e-07 1.67157 0.671573 1 1.5 1H13.5ZM1.85156 13H13.5C13.7761 13 14 12.7761 14 12.5V2.58691L1.85156 13ZM1.5 2C1.22386 2 1 2.22386 1 2.5V12.4121L13.1484 2H1.5Z" fill="black"/>
</svg>
