<svg width="15" height="15" viewBox="0 0 15 15" fill="none" xmlns="http://www.w3.org/2000/svg">
<path d="M13.2998 7.89965C14.1282 7.89965 14.7997 8.57132 14.7998 9.39965V13.0998C14.7997 14.005 14.0041 14.704 13.1064 14.5872L8.10645 13.9358C7.35938 13.8384 6.79999 13.2018 6.7998 12.4485V9.39965C6.79991 8.5714 7.47156 7.89979 8.2998 7.89965H13.2998ZM8.2998 8.89965C8.02384 8.89979 7.79991 9.12368 7.7998 9.39965V12.4485C7.79999 12.6994 7.98648 12.9111 8.23535 12.9436L13.2354 13.595C13.5345 13.634 13.7997 13.4015 13.7998 13.0998V9.39965C13.7997 9.1236 13.5759 8.89965 13.2998 8.89965H8.2998ZM4.5 7.80786C5.32842 7.80785 6 8.47942 6 9.30786V11.9709C5.99991 12.8781 5.20093 13.5772 4.30176 13.4573L1.30176 13.0579C0.556549 12.9585 0 12.3224 0 11.5706V9.30786C0.000148408 8.47961 0.671718 7.80793 1.5 7.80786H4.5ZM1.5 8.80786C1.22397 8.80788 1.00015 9.03186 1 9.30786V11.5706C1 11.8211 1.18533 12.0334 1.43359 12.0666L4.43359 12.4661C4.73328 12.506 4.99991 12.2733 5 11.9709V9.30786C5 9.03171 4.77614 8.80786 4.5 8.80786H1.5ZM4.30176 1.52661C5.20092 1.40672 5.99989 2.10584 6 3.01293V5.65551C5.99979 6.48109 5.33245 7.15175 4.50684 7.15551L1.50684 7.16918C0.67588 7.17297 0.000215006 6.5001 0 5.66918V3.41333C0 2.66152 0.556549 2.02538 1.30176 1.92602L4.30176 1.52661ZM13.0742 0.262934C13.9821 0.124664 14.7996 0.827091 14.7998 1.74536V5.53735C14.7998 6.35094 14.1512 7.0167 13.3379 7.03735L8.33789 7.1643C7.49493 7.18557 6.7998 6.50756 6.7998 5.6643V2.50708C6.79996 1.76602 7.34159 1.13627 8.07422 1.02465L13.0742 0.262934ZM4.43359 2.51782L1.43359 2.91723C1.18533 2.95047 1 3.16282 1 3.41333V5.66918C1.00021 5.94592 1.22521 6.17027 1.50195 6.16918L4.50195 6.15551C4.77707 6.15426 4.99979 5.93058 5 5.65551V3.01293C4.99989 2.71063 4.73327 2.47786 4.43359 2.51782ZM13.2246 1.25122L8.22461 2.01293C7.98052 2.05017 7.79996 2.26019 7.7998 2.50708V5.6643C7.7998 5.94533 8.03159 6.1713 8.3125 6.1643L13.3125 6.03735C13.5836 6.03046 13.7998 5.80855 13.7998 5.53735V1.74536C13.7996 1.43937 13.5272 1.20512 13.2246 1.25122Z" fill="black"/>
</svg>
