<svg width="15" height="15" viewBox="0 0 15 15" fill="none" xmlns="http://www.w3.org/2000/svg">
<path d="M5.5 10C6.32843 10 7 10.6716 7 11.5V12.5C7 13.3284 6.32843 14 5.5 14H2.5C1.67157 14 1 13.3284 1 12.5V11.5C1 10.6716 1.67157 10 2.5 10H5.5ZM12.5 6C13.3284 6 14 6.67157 14 7.5V12.5C14 13.3284 13.3284 14 12.5 14H9.5C8.67157 14 8 13.3284 8 12.5V7.5C8 6.67157 8.67157 6 9.5 6H12.5ZM2.5 11C2.22386 11 2 11.2239 2 11.5V12.5C2 12.7761 2.22386 13 2.5 13H5.5C5.77614 13 6 12.7761 6 12.5V11.5C6 11.2239 5.77614 11 5.5 11H2.5ZM9.5 7C9.22386 7 9 7.22386 9 7.5V12.5C9 12.7761 9.22386 13 9.5 13H12.5C12.7761 13 13 12.7761 13 12.5V7.5C13 7.22386 12.7761 7 12.5 7H9.5ZM5.5 1C6.32843 1 7 1.67157 7 2.5V7.5C7 8.32843 6.32843 9 5.5 9H2.5C1.67157 9 1 8.32843 1 7.5V2.5C1 1.67157 1.67157 1 2.5 1H5.5ZM2.5 2C2.22386 2 2 2.22386 2 2.5V7.5C2 7.77614 2.22386 8 2.5 8H5.5C5.77614 8 6 7.77614 6 7.5V2.5C6 2.22386 5.77614 2 5.5 2H2.5ZM12.5 1C13.3284 1 14 1.67157 14 2.5V3.5C14 4.32843 13.3284 5 12.5 5H9.5C8.67157 5 8 4.32843 8 3.5V2.5C8 1.67157 8.67157 1 9.5 1H12.5ZM9.5 2C9.22386 2 9 2.22386 9 2.5V3.5C9 3.77614 9.22386 4 9.5 4H12.5C12.7761 4 13 3.77614 13 3.5V2.5C13 2.22386 12.7761 2 12.5 2H9.5Z" fill="black"/>
</svg>
